<svg width="24" height="18" viewBox="0 0 24 18" fill="none" xmlns="http://www.w3.org/2000/svg">
<path d="M20.1216 9.49101C20.1137 9.50022 20.1066 9.50952 20.0985 9.51842C20.0791 9.53944 20.0585 9.55957 20.0368 9.57876L11.7294 16.9422C11.5559 17.0941 11.3217 17.179 11.0779 17.1783C10.834 17.1776 10.6004 17.0915 10.428 16.9386C10.2555 16.7858 10.1584 16.5787 10.1576 16.3626C10.1569 16.1464 10.2527 15.9388 10.4241 15.7851L17.1559 9.81818H0.922833C0.678018 9.81818 0.443229 9.73198 0.270119 9.57854C0.0970083 9.4251 -0.000244141 9.217 -0.000244141 9C-0.000244141 8.783 0.0970083 8.5749 0.270119 8.42146C0.443229 8.26802 0.678018 8.18182 0.922833 8.18182H17.1559L10.4241 2.21492C10.2527 2.06117 10.1569 1.85356 10.1576 1.63743C10.1584 1.42129 10.2555 1.2142 10.428 1.06136C10.6004 0.908522 10.834 0.822363 11.0779 0.821698C11.3217 0.821032 11.5559 0.905914 11.7294 1.05781L20.0368 8.42114C20.0584 8.44033 20.079 8.46046 20.0984 8.48148C20.1066 8.49048 20.1137 8.49989 20.1214 8.50899C20.1318 8.52126 20.1426 8.53312 20.1521 8.54581C20.1607 8.55716 20.1681 8.56892 20.1758 8.58048C20.1834 8.59173 20.1915 8.60277 20.1985 8.61443C20.2057 8.6264 20.2118 8.63867 20.2183 8.65084C20.2247 8.66291 20.2314 8.67467 20.2373 8.68705C20.2427 8.69881 20.2472 8.71088 20.2521 8.72284C20.2574 8.73603 20.263 8.74913 20.2676 8.76262C20.2718 8.77469 20.2748 8.78686 20.2783 8.79903C20.2822 8.81274 20.2864 8.82624 20.2896 8.84015C20.2928 8.85426 20.2946 8.86848 20.2969 8.88269C20.2989 8.89497 20.3016 8.90693 20.3029 8.91931C20.3058 8.94542 20.3073 8.97157 20.3073 8.99775L20.3074 9V9.00225C20.3073 9.02843 20.3058 9.05458 20.3028 9.08069C20.3014 9.09297 20.2989 9.10514 20.2969 9.11731C20.2946 9.13152 20.2928 9.14574 20.2896 9.15985C20.2864 9.17376 20.2822 9.18726 20.2783 9.20097C20.2748 9.21314 20.2718 9.22531 20.2676 9.23738C20.263 9.25087 20.2574 9.26397 20.2521 9.27716C20.2472 9.28913 20.2428 9.30119 20.2373 9.31295C20.2315 9.32523 20.2246 9.33709 20.2183 9.34916C20.2118 9.36143 20.2057 9.3737 20.1985 9.38557C20.1915 9.39723 20.1835 9.40827 20.1758 9.41952C20.1681 9.43108 20.1607 9.44284 20.1521 9.45409C20.1426 9.46688 20.1319 9.47884 20.1216 9.49101ZM23.0767 0C22.8319 0 22.5971 0.0862012 22.424 0.23964C22.2509 0.393079 22.1536 0.601187 22.1536 0.818182V17.1818C22.1536 17.3988 22.2509 17.6069 22.424 17.7604C22.5971 17.9138 22.8319 18 23.0767 18C23.3215 18 23.5563 17.9138 23.7294 17.7604C23.9025 17.6069 23.9998 17.3988 23.9998 17.1818V0.818182C23.9998 0.601187 23.9025 0.393079 23.7294 0.23964C23.5563 0.0862012 23.3215 0 23.0767 0Z" fill="white"/>
</svg>
