<svg width="25" height="27" viewBox="0 0 25 27" fill="none" xmlns="http://www.w3.org/2000/svg">
<path d="M13.8553 1C13.8553 0.723858 13.6314 0.5 13.3553 0.5H11.5902C11.3141 0.5 11.0902 0.723858 11.0902 1V21.4146L2.67733 13.0017C2.49041 12.8148 2.19027 12.8057 1.99234 12.9809L0.668562 14.1529C0.565328 14.2443 0.504418 14.3743 0.500231 14.5121C0.496044 14.6499 0.548952 14.7833 0.646447 14.8808L12.1192 26.3536C12.3145 26.5488 12.631 26.5488 12.8263 26.3536L24.2991 14.8808C24.3965 14.7833 24.4495 14.6499 24.4453 14.5121C24.4411 14.3743 24.3802 14.2443 24.2769 14.1529L22.9532 12.9809C22.7552 12.8057 22.4551 12.8148 22.2682 13.0017L13.8553 21.4146V1Z" fill="#00297C" stroke="#00297C" stroke-linejoin="round"/>
</svg>
