<svg width="25" height="27" viewBox="0 0 25 27" fill="none" xmlns="http://www.w3.org/2000/svg">
<path d="M11.09 26C11.09 26.2761 11.3139 26.5 11.59 26.5H13.3551C13.6312 26.5 13.8551 26.2761 13.8551 26L13.8551 5.58539L22.268 13.9983C22.4549 14.1852 22.755 14.1943 22.953 14.0191L24.2768 12.8471C24.38 12.7557 24.4409 12.6257 24.4451 12.4879C24.4493 12.3501 24.3964 12.2167 24.2989 12.1192L12.8261 0.646446C12.6309 0.451185 12.3143 0.451185 12.119 0.646446L0.646261 12.1192C0.548767 12.2167 0.495859 12.3501 0.500046 12.4879C0.504232 12.6257 0.565144 12.7557 0.668377 12.8471L1.99216 14.0191C2.19009 14.1943 2.49022 14.1852 2.67715 13.9983L11.09 5.58539L11.09 26Z" fill="#DC0000" stroke="#DC0000" stroke-linejoin="round"/>
</svg>
