<svg width="61" height="60" viewBox="0 0 61 60" fill="none" xmlns="http://www.w3.org/2000/svg">
<path d="M50.9164 13.571C50.8107 13.6503 50.7217 13.7497 50.6544 13.8635C50.5871 13.9773 50.5429 14.1032 50.5243 14.2341C50.5057 14.3649 50.5131 14.4982 50.5461 14.6262C50.579 14.7542 50.6368 14.8745 50.7163 14.9802C54.1471 19.5366 55.9597 25.0848 55.9597 31.0275C55.9564 37.0344 53.9457 42.868 50.2471 47.6016C46.5484 52.3353 41.3739 55.6978 35.5453 57.1548C29.7166 58.6118 23.5682 58.0799 18.0765 55.6436C12.5848 53.2074 8.06469 49.0064 5.23418 43.7079C2.40367 38.4094 1.42494 32.3173 2.45361 26.3991C3.48227 20.481 6.45927 15.0761 10.9117 11.043C15.3642 7.00993 21.037 4.57987 27.0288 4.13882C33.0206 3.69776 38.9881 5.27101 43.9833 8.60865C44.2051 8.75724 44.4768 8.81168 44.7387 8.75995C45.0006 8.70822 45.2313 8.5546 45.3799 8.33285C45.5285 8.11111 45.5829 7.83935 45.5312 7.57748C45.4795 7.31562 45.3258 7.08508 45.104 6.93649C39.7332 3.34335 33.3154 1.6477 26.8703 2.11905C20.4253 2.59041 14.3225 5.2017 9.53179 9.538C4.74111 13.8743 1.53727 19.6869 0.429257 26.0522C-0.678758 32.4176 0.372678 38.9706 3.41643 44.6701C6.46019 50.3696 11.3217 54.8886 17.2285 57.5092C23.1354 60.1299 29.7488 60.7017 36.018 59.1339C42.2871 57.5661 47.8526 53.9487 51.8298 48.8563C55.8071 43.7639 57.9681 37.4886 57.9696 31.0275C57.9696 24.6446 56.0168 18.6762 52.3201 13.771C52.1599 13.5592 51.9225 13.4193 51.6595 13.3818C51.3966 13.3444 51.1295 13.4123 50.9164 13.571Z" fill="white"/>
<path d="M4.23142 30.1928C4.09102 30.1778 3.94905 30.1924 3.8147 30.2359C3.68035 30.2793 3.55661 30.3505 3.45159 30.4449C3.34657 30.5392 3.26254 30.6547 3.20505 30.7836C3.14756 30.9126 3.1178 31.0521 3.1178 31.1933C3.1178 31.3344 3.14756 31.4741 3.20505 31.603C3.26254 31.7319 3.34657 31.8473 3.45159 31.9417C3.55661 32.036 3.68035 32.1073 3.8147 32.1507C3.94905 32.1941 4.09102 32.2088 4.23142 32.1937H4.90333C5.15028 32.1673 5.37866 32.0505 5.54467 31.8658C5.71068 31.6811 5.80252 31.4416 5.80252 31.1933C5.80252 30.945 5.71068 30.7054 5.54467 30.5207C5.37866 30.336 5.15028 30.2192 4.90333 30.1928H4.23142Z" fill="white"/>
<path d="M53.7782 32.2053C53.9186 32.2203 54.0605 32.2057 54.1949 32.1622C54.3292 32.1188 54.453 32.0476 54.558 31.9532C54.663 31.8588 54.7471 31.7435 54.8045 31.6145C54.862 31.4856 54.8918 31.346 54.8918 31.2048C54.8918 31.0636 54.862 30.924 54.8045 30.795C54.7471 30.6661 54.663 30.5507 54.558 30.4563C54.453 30.362 54.3292 30.2908 54.1949 30.2473C54.0605 30.2039 53.9186 30.1892 53.7782 30.2043H52.8404C52.7 30.1892 52.5581 30.2039 52.4237 30.2473C52.2894 30.2908 52.1656 30.362 52.0606 30.4563C51.9556 30.5507 51.8716 30.6661 51.8141 30.795C51.7566 30.924 51.7268 31.0636 51.7268 31.2048C51.7268 31.346 51.7566 31.4856 51.8141 31.6145C51.8716 31.7435 51.9556 31.8588 52.0606 31.9532C52.1656 32.0476 52.2894 32.1188 52.4237 32.1622C52.5581 32.2057 52.7 32.2203 52.8404 32.2053H53.7782Z" fill="white"/>
<path d="M29.9996 55.9677V55.1617C30.0147 55.0213 29.9999 54.8793 29.9565 54.745C29.9131 54.6106 29.8419 54.487 29.7475 54.382C29.6532 54.277 29.5377 54.193 29.4087 54.1355C29.2798 54.078 29.1402 54.0483 28.999 54.0483C28.8578 54.0483 28.7183 54.078 28.5893 54.1355C28.4603 54.193 28.3449 54.277 28.2505 54.382C28.1561 54.487 28.085 54.6106 28.0415 54.745C27.9981 54.8793 27.9834 55.0213 27.9984 55.1617V55.9677C27.9834 56.1081 27.9981 56.2501 28.0415 56.3844C28.085 56.5187 28.1561 56.6424 28.2505 56.7474C28.3449 56.8524 28.4603 56.9364 28.5893 56.9939C28.7183 57.0513 28.8578 57.081 28.999 57.081C29.1402 57.081 29.2798 57.0513 29.4087 56.9939C29.5377 56.9364 29.6532 56.8524 29.7475 56.7474C29.8419 56.6424 29.9131 56.5187 29.9565 56.3844C29.9999 56.2501 30.0147 56.1081 29.9996 55.9677Z" fill="white"/>
<path d="M27.9984 6.43045V7.23363C27.9834 7.374 27.9981 7.51601 28.0415 7.65033C28.085 7.78466 28.1561 7.90829 28.2505 8.0133C28.3449 8.1183 28.4603 8.2023 28.5893 8.25978C28.7183 8.31726 28.8578 8.34695 28.999 8.34695C29.1402 8.34695 29.2798 8.31726 29.4087 8.25978C29.5377 8.2023 29.6532 8.1183 29.7475 8.0133C29.8419 7.90829 29.9131 7.78466 29.9565 7.65033C29.9999 7.51601 30.0147 7.374 29.9996 7.23363V6.43045C30.0147 6.29009 29.9999 6.14808 29.9565 6.01375C29.9131 5.87943 29.8419 5.75579 29.7475 5.65079C29.6532 5.54579 29.5377 5.46178 29.4087 5.4043C29.2798 5.34682 29.1402 5.31714 28.999 5.31714C28.8578 5.31714 28.7183 5.34682 28.5893 5.4043C28.4603 5.46178 28.3449 5.54579 28.2505 5.65079C28.1561 5.75579 28.085 5.87943 28.0415 6.01375C27.9981 6.14808 27.9834 6.29009 27.9984 6.43045Z" fill="white"/>
<path d="M11.2504 47.5264L10.7757 48.0009C10.5861 48.1905 10.4797 48.4475 10.4797 48.7156C10.4797 48.9836 10.5861 49.2407 10.7757 49.4302C10.9653 49.6197 11.2224 49.7262 11.4905 49.7262C11.7586 49.7262 12.0157 49.6197 12.2052 49.4302L12.6799 48.9557C12.8695 48.7662 12.976 48.5091 12.976 48.2411C12.976 47.973 12.8695 47.716 12.6799 47.5264C12.4903 47.3369 12.2332 47.2304 11.9651 47.2304C11.697 47.2304 11.4399 47.3369 11.2504 47.5264Z" fill="white"/>
<path d="M46.5221 49.7191C46.7206 49.7186 46.9145 49.6595 47.0795 49.5491C47.2445 49.4387 47.3733 49.2819 47.4494 49.0985C47.5255 48.9152 47.5456 48.7135 47.5073 48.5188C47.469 48.324 47.3738 48.1449 47.2339 48.004L46.6621 47.4323C46.5682 47.3385 46.4568 47.2641 46.3342 47.2133C46.2115 47.1625 46.08 47.1363 45.9473 47.1363C45.8145 47.1363 45.6832 47.1625 45.5606 47.2133C45.4379 47.2641 45.3264 47.3385 45.2325 47.4323C45.1386 47.5262 45.0643 47.6376 45.0134 47.7602C44.9626 47.8828 44.9365 48.0142 44.9365 48.1469C44.9365 48.2796 44.9626 48.4111 45.0134 48.5337C45.0643 48.6563 45.1386 48.7677 45.2325 48.8615L45.8043 49.4332C45.899 49.526 46.0113 49.5991 46.1345 49.6482C46.2577 49.6972 46.3895 49.7213 46.5221 49.7191Z" fill="white"/>
<path d="M12.7683 13.5424L12.1965 12.9708C12.1027 12.8769 11.9912 12.8025 11.8686 12.7517C11.746 12.7009 11.6145 12.6748 11.4818 12.6748C11.349 12.6748 11.2176 12.7009 11.0949 12.7517C10.9723 12.8025 10.8609 12.8769 10.767 12.9708C10.6732 13.0646 10.5987 13.176 10.5479 13.2986C10.4971 13.4212 10.4709 13.5526 10.4709 13.6854C10.4709 13.8181 10.4971 13.9495 10.5479 14.0721C10.5987 14.1947 10.6732 14.3061 10.767 14.4L11.3388 14.9716C11.5284 15.1612 11.7855 15.2677 12.0536 15.2677C12.3216 15.2677 12.5787 15.1612 12.7683 14.9716C12.9579 14.7821 13.0644 14.5251 13.0644 14.257C13.0644 13.989 12.9579 13.732 12.7683 13.5424Z" fill="white"/>
<path d="M59.8963 0.299037C59.803 0.204314 59.6917 0.129154 59.569 0.0778124C59.4463 0.0264706 59.3146 0 59.1816 0C59.0486 0 58.9169 0.0264706 58.7942 0.0778124C58.6715 0.129154 58.5602 0.204314 58.4668 0.299037L28.856 29.9185L19.9444 21.5918C19.8478 21.5016 19.7342 21.4312 19.6104 21.3848C19.4865 21.3384 19.3546 21.3168 19.2224 21.3213C19.0902 21.3258 18.9602 21.3563 18.8398 21.411C18.7194 21.4658 18.6109 21.5438 18.5206 21.6404C18.4304 21.7371 18.3599 21.8506 18.3135 21.9744C18.2671 22.0983 18.2456 22.23 18.2501 22.3622C18.2546 22.4944 18.2851 22.6244 18.3399 22.7448C18.3946 22.8652 18.4725 22.9737 18.5692 23.0639L28.1927 32.0567C28.3838 32.2352 28.6369 32.3324 28.8984 32.3276C29.1599 32.3228 29.4092 32.2164 29.5936 32.0309L59.8993 1.73113C59.9936 1.63715 60.0683 1.5255 60.1193 1.40251C60.1702 1.27951 60.1962 1.14761 60.1959 1.01449C60.1956 0.881375 60.1692 0.749686 60.1177 0.626895C60.0663 0.504105 59.991 0.392638 59.8963 0.299037Z" fill="white"/>
</svg>
