<svg width="61" height="60" viewBox="0 0 61 60" fill="none" xmlns="http://www.w3.org/2000/svg">
<path d="M55.4608 0H4.73933C3.48878 0.00170143 2.29002 0.499203 1.40575 1.38348C0.521485 2.26775 0.0239082 3.4666 0.0222068 4.71715V40.8597C-0.00740226 40.9953 -0.00740226 41.1356 0.0222068 41.2712V44.0012C0.0239082 45.2517 0.521485 46.4506 1.40575 47.3348C2.29002 48.2191 3.48878 48.7167 4.73933 48.7184H24.0163V52.2555C24.0146 53.8079 23.3972 55.2963 22.2995 56.394C21.2017 57.4918 19.7134 58.1092 18.1609 58.1109H13.5209C13.3923 58.1034 13.2635 58.1222 13.1425 58.1663C13.0215 58.2103 12.9109 58.2786 12.8172 58.367C12.7235 58.4554 12.6489 58.562 12.5978 58.6802C12.5468 58.7985 12.5204 58.9259 12.5204 59.0547C12.5204 59.1835 12.5468 59.3109 12.5978 59.4292C12.6489 59.5474 12.7235 59.654 12.8172 59.7424C12.9109 59.8308 13.0215 59.899 13.1425 59.943C13.2635 59.9871 13.3923 60.0059 13.5209 59.9984H46.8496C47.0903 59.9843 47.3166 59.8788 47.4821 59.7034C47.6476 59.5279 47.7399 59.2959 47.7399 59.0547C47.7399 58.8135 47.6476 58.5814 47.4821 58.4059C47.3166 58.2305 47.0903 58.125 46.8496 58.1109H42.4187C40.8662 58.1092 39.3779 57.4918 38.2801 56.394C37.1824 55.2963 36.5649 53.8079 36.5632 52.2555V48.7184H55.4608C56.7113 48.7167 57.9101 48.2191 58.7943 47.3348C59.6786 46.4506 60.1762 45.2517 60.1779 44.0012V4.71715C60.1762 3.4666 59.6786 2.26775 58.7943 1.38348C57.9101 0.499203 56.7113 0.00170143 55.4608 0ZM4.73933 1.88747H55.4608C56.211 1.88832 56.9303 2.18678 57.4607 2.71726C57.9912 3.24774 58.2895 3.96694 58.2904 4.71715V40.1233H1.90975V4.71715C1.9106 3.96694 2.20905 3.24774 2.73953 2.71726C3.27 2.18678 3.98912 1.88832 4.73933 1.88747ZM37.3478 58.1077H23.1996C24.0431 57.383 24.72 56.4845 25.184 55.4739C25.648 54.4632 25.888 53.3643 25.8877 52.2522V48.7152H34.6597V52.2522C34.6594 53.3643 34.8994 54.4632 35.3634 55.4739C35.8274 56.4845 36.5043 57.383 37.3478 58.1077ZM55.4479 46.8308H4.73933C3.98912 46.83 3.27 46.5316 2.73953 46.0011C2.20905 45.4706 1.9106 44.7514 1.90975 44.0012V42.0076H58.2904V44.0012C58.2895 44.7514 57.9912 45.4706 57.4607 46.0011C56.9303 46.5316 56.211 46.83 55.4608 46.8308H55.4479Z" fill="white"/>
<path d="M42.3704 14.0225C42.2699 14.1315 42.1959 14.2622 42.1541 14.4044C42.1122 14.5466 42.1038 14.6965 42.1293 14.8425L43.8399 24.0839C43.8719 24.2543 43.9504 24.4125 44.0666 24.5411C44.1828 24.6698 44.3321 24.7639 44.4983 24.8131C44.6646 24.8623 44.8411 24.8647 45.0086 24.82C45.1761 24.7753 45.328 24.6853 45.4476 24.5598L47.3994 22.4858L51.4992 26.2898C51.6843 26.4549 51.9259 26.5424 52.1738 26.534C52.4217 26.5256 52.6569 26.422 52.8305 26.2448L55.2903 23.6273C55.3761 23.537 55.4431 23.4306 55.4873 23.3141C55.5316 23.1977 55.5521 23.0736 55.5479 22.9491C55.5438 22.8246 55.515 22.7022 55.463 22.589C55.411 22.4758 55.3371 22.3741 55.2454 22.2897L51.1552 18.4954L53.0685 16.4599C53.1884 16.3338 53.2706 16.1766 53.3059 16.0061C53.3411 15.8356 53.3278 15.6586 53.2677 15.4953C53.2089 15.331 53.1057 15.1862 52.9694 15.0772C52.8331 14.9682 52.6692 14.8992 52.496 14.8779L43.171 13.7331C43.0243 13.7169 42.8758 13.7346 42.737 13.7847C42.5982 13.8349 42.4728 13.9162 42.3704 14.0225ZM50.4252 16.5242L49.139 17.894C49.0532 17.9843 48.9862 18.0908 48.942 18.2073C48.8978 18.3237 48.8772 18.4478 48.8814 18.5723C48.8856 18.6968 48.9145 18.8192 48.9665 18.9324C49.0184 19.0456 49.0924 19.1474 49.1841 19.2317L53.2775 23.026L52.107 24.2705L48.004 20.4665C47.8303 20.3022 47.6 20.2112 47.3609 20.2124C47.2318 20.2123 47.1041 20.2388 46.9857 20.2902C46.8673 20.3417 46.7607 20.417 46.6728 20.5115L45.3544 21.9102L44.2193 15.7622L50.4252 16.5242Z" fill="white"/>
<path d="M14.9418 13.939H20.7845C21.0347 13.939 21.2746 13.8399 21.4518 13.6633C21.629 13.4867 21.729 13.247 21.7299 12.9969V12.0547C21.7158 11.814 21.6102 11.5877 21.4347 11.4222C21.2593 11.2567 21.0273 11.1645 20.7861 11.1645C20.5449 11.1645 20.3128 11.2567 20.1374 11.4222C19.9619 11.5877 19.8564 11.814 19.8423 12.0547H15.884V8.10607H17.5368C17.7867 8.10607 18.0263 8.00682 18.203 7.83013C18.3797 7.65344 18.4789 7.41382 18.4789 7.16395C18.4789 6.91407 18.3797 6.67445 18.203 6.49776C18.0263 6.32107 17.7867 6.22174 17.5368 6.22174H14.9418C14.6916 6.22174 14.4517 6.32093 14.2745 6.49753C14.0973 6.67412 13.9973 6.91378 13.9965 7.16395V13.0097C14.0007 13.2577 14.1022 13.494 14.2791 13.6678C14.4559 13.8417 14.6938 13.939 14.9418 13.939Z" fill="white"/>
<path d="M18.3118 9.14141C18.1199 8.98108 17.8722 8.90352 17.6231 8.92584C17.3741 8.94815 17.1441 9.06854 16.9838 9.26042C16.8235 9.4523 16.7459 9.70001 16.7682 9.94906C16.7905 10.1981 16.9109 10.4281 17.1028 10.5884L17.8649 11.2315C18.0355 11.3714 18.2488 11.4485 18.4694 11.4501C18.5936 11.4504 18.7167 11.4262 18.8315 11.3787C18.9463 11.3312 19.0505 11.2615 19.1383 11.1736L23.1512 7.15745C23.2389 7.07004 23.3083 6.9662 23.3558 6.85192C23.4033 6.73763 23.4279 6.61511 23.428 6.49135C23.4282 6.36758 23.404 6.24502 23.3568 6.13062C23.3095 6.01622 23.2402 5.91223 23.1528 5.82461C23.0654 5.73699 22.9616 5.66745 22.8473 5.61995C22.733 5.57245 22.6105 5.54788 22.4868 5.54773C22.363 5.54758 22.2404 5.57187 22.126 5.61909C22.0116 5.66632 21.9076 5.73556 21.82 5.82297L18.4148 9.22823L18.3118 9.14141Z" fill="white"/>
<path d="M27.1031 8.1766H44.5858C44.8266 8.16254 45.0529 8.05702 45.2184 7.88158C45.3839 7.70613 45.4762 7.47401 45.4762 7.23282C45.4762 6.99163 45.3839 6.75959 45.2184 6.58414C45.0529 6.4087 44.8266 6.30318 44.5858 6.28912H27.1031C26.8624 6.30318 26.636 6.4087 26.4705 6.58414C26.305 6.75959 26.2129 6.99163 26.2129 7.23282C26.2129 7.47401 26.305 7.70613 26.4705 7.88158C26.636 8.05702 26.8624 8.16254 27.1031 8.1766Z" fill="white"/>
<path d="M27.103 12.3248H39.3027C39.5525 12.3248 39.7922 12.2255 39.9688 12.0488C40.1455 11.8721 40.2447 11.6325 40.2447 11.3826C40.2447 11.1327 40.1455 10.8931 39.9688 10.7164C39.7922 10.5397 39.5525 10.4405 39.3027 10.4405H27.103C26.8531 10.4405 26.6135 10.5397 26.4368 10.7164C26.2601 10.8931 26.1608 11.1327 26.1608 11.3826C26.1608 11.6325 26.2601 11.8721 26.4368 12.0488C26.6135 12.2255 26.8531 12.3248 27.103 12.3248Z" fill="white"/>
<path d="M14.9418 36.3449H20.7845C21.0353 36.3449 21.2756 36.2453 21.4529 36.068C21.6302 35.8908 21.7299 35.6502 21.7299 35.3995V29.5569C21.7299 29.3062 21.6302 29.0657 21.4529 28.8885C21.2756 28.7112 21.0353 28.6116 20.7845 28.6116H14.9418C14.6911 28.6116 14.4507 28.7112 14.2734 28.8885C14.0961 29.0657 13.9965 29.3062 13.9965 29.5569V35.3995C13.9965 35.6502 14.0961 35.8908 14.2734 36.068C14.4507 36.2453 14.6911 36.3449 14.9418 36.3449ZM15.884 30.499H19.8423V34.4735H15.884V30.499Z" fill="white"/>
<path d="M27.1031 30.6887H44.5858C44.8266 30.6746 45.0529 30.5691 45.2184 30.3937C45.3839 30.2182 45.4762 29.9861 45.4762 29.7449C45.4762 29.5037 45.3839 29.2717 45.2184 29.0962C45.0529 28.9208 44.8266 28.8153 44.5858 28.8012H27.1031C26.8624 28.8153 26.636 28.9208 26.4705 29.0962C26.305 29.2717 26.2129 29.5037 26.2129 29.7449C26.2129 29.9861 26.305 30.2182 26.4705 30.3937C26.636 30.5691 26.8624 30.6746 27.1031 30.6887Z" fill="white"/>
<path d="M27.1031 34.84H39.3028C39.5436 34.826 39.7699 34.7205 39.9354 34.545C40.1009 34.3696 40.193 34.1375 40.193 33.8964C40.193 33.6552 40.1009 33.423 39.9354 33.2476C39.7699 33.0721 39.5436 32.9666 39.3028 32.9526H27.1031C26.8624 32.9666 26.636 33.0721 26.4705 33.2476C26.305 33.423 26.2129 33.6552 26.2129 33.8964C26.2129 34.1375 26.305 34.3696 26.4705 34.545C26.636 34.7205 26.8624 34.826 27.1031 34.84Z" fill="white"/>
<path d="M14.9418 25.1678H20.7845C21.0347 25.1678 21.2746 25.0686 21.4518 24.8921C21.629 24.7155 21.729 24.4758 21.7299 24.2256V18.3959C21.729 18.1458 21.629 17.9061 21.4518 17.7295C21.2746 17.5529 21.0347 17.4538 20.7845 17.4538H14.9418C14.6916 17.4538 14.4517 17.5529 14.2745 17.7295C14.0973 17.9061 13.9973 18.1458 13.9965 18.3959V24.2417C14.0015 24.4891 14.1034 24.7246 14.2802 24.8978C14.4569 25.0709 14.6944 25.1679 14.9418 25.1678ZM15.884 19.3252H19.8423V23.2803H15.884V19.3252Z" fill="white"/>
<path d="M27.1031 19.4956H39.3028C39.5436 19.4816 39.7699 19.3761 39.9354 19.2006C40.1009 19.0252 40.193 18.7931 40.193 18.5519C40.193 18.3107 40.1009 18.0786 39.9354 17.9032C39.7699 17.7277 39.5436 17.6222 39.3028 17.6082H27.1031C26.8624 17.6222 26.636 17.7277 26.4705 17.9032C26.305 18.0786 26.2129 18.3107 26.2129 18.5519C26.2129 18.7931 26.305 19.0252 26.4705 19.2006C26.636 19.3761 26.8624 19.4816 27.1031 19.4956Z" fill="white"/>
<path d="M27.1031 23.6466H39.3028C39.5436 23.6326 39.7699 23.527 39.9354 23.3515C40.1009 23.1761 40.193 22.9441 40.193 22.7029C40.193 22.4617 40.1009 22.2296 39.9354 22.0542C39.7699 21.8787 39.5436 21.7732 39.3028 21.7591H27.1031C26.8624 21.7732 26.636 21.8787 26.4705 22.0542C26.305 22.2296 26.2129 22.4617 26.2129 22.7029C26.2129 22.9441 26.305 23.1761 26.4705 23.3515C26.636 23.527 26.8624 23.6326 27.1031 23.6466Z" fill="white"/>
</svg>
