<svg width="120" height="120" viewBox="0 0 120 120" fill="none" xmlns="http://www.w3.org/2000/svg">
<g filter="url(#filter0_d)">
<path d="M87.861 74.1477H83.0795C81.32 74.1715 79.5763 74.4933 77.9189 75.1001L58.2338 81.1185L42.0037 75.7333C40.6281 75.2828 39.1533 75.2598 37.7651 75.6675C36.3768 76.0751 35.1371 76.8951 34.202 78.0242C33.2669 79.1532 32.6782 80.5408 32.51 82.0124C32.3418 83.4841 32.6018 84.9738 33.2569 86.2942C33.6909 87.1733 34.2906 87.9552 35.0213 88.5946C35.752 89.2339 36.5992 89.7181 37.5137 90.019L55.8916 96.1172C56.6131 96.3596 57.3677 96.4825 58.1269 96.4812C58.786 96.4806 59.4413 96.3781 60.0706 96.1771L70.0468 93.1254V104.374C70.0468 104.806 70.2137 105.219 70.5108 105.524C70.8079 105.829 71.2108 106 71.631 106C72.0511 106 72.454 105.829 72.7511 105.524C73.0482 105.219 73.2151 104.806 73.2151 104.374V90.9415C73.2147 90.6886 73.1569 90.4392 73.0462 90.2133C72.9354 89.9873 72.7748 89.7909 72.5771 89.6399C72.3794 89.4888 72.1501 89.3872 71.9074 89.3431C71.6647 89.299 71.4153 89.3136 71.1791 89.3857L59.1716 93.0557C58.8363 93.1705 58.4853 93.2294 58.1318 93.2301C57.7029 93.2292 57.2766 93.1603 56.8683 93.0257L38.4953 86.9225C37.9774 86.7503 37.4977 86.4751 37.0835 86.1126C36.6693 85.7502 36.3287 85.3076 36.0812 84.81C35.8337 84.3125 35.6842 83.77 35.641 83.2131C35.5979 82.6563 35.6621 82.0962 35.8299 81.5648C35.9977 81.0334 36.266 80.5411 36.6192 80.1161C36.9724 79.691 37.4037 79.3416 37.8886 79.0876C38.3734 78.8337 38.9023 78.6802 39.445 78.636C39.9876 78.5918 40.5335 78.6576 41.0513 78.8298L57.7527 84.3696C58.0582 84.4667 58.3851 84.4667 58.6905 84.3696L78.9151 78.1866L79.056 78.1368C80.3571 77.665 81.724 77.4124 83.1037 77.3888H87.8853C90.7968 77.3928 93.5879 78.5812 95.6466 80.6937C97.7053 82.8062 98.8636 85.6702 98.8675 88.6577V104.365C98.8675 104.796 99.0344 105.209 99.3314 105.514C99.6285 105.819 100.031 105.99 100.452 105.99C100.872 105.99 101.275 105.819 101.572 105.514C101.869 105.209 102.036 104.796 102.036 104.365V88.6727C102.034 86.7639 101.667 84.8741 100.954 83.1111C100.241 81.3481 99.1963 79.7467 97.88 78.3979C96.5638 77.0491 95.0015 75.9795 93.2824 75.2503C91.5634 74.5211 89.7212 74.1464 87.861 74.1477Z" fill="url(#paint0_linear)"/>
<path d="M84.474 6H35.5309C28.7621 6.00792 22.2727 8.77064 17.4864 13.682C12.7001 18.5933 10.0077 25.2522 10 32.1979V36.2817C10.0077 43.2269 12.7002 49.8853 17.4866 54.7959C22.2731 59.7064 28.7625 62.468 35.5309 62.4746H54.2101L64.162 69.5401C64.4004 69.708 64.679 69.806 64.9676 69.8234C65.2563 69.8408 65.5441 69.7771 65.8001 69.6391C66.0561 69.5011 66.2704 69.2941 66.4202 69.0403C66.57 68.7865 66.6494 68.4955 66.65 68.1988V62.4446H72.1411C72.3324 62.4444 72.5219 62.4072 72.6998 62.335C73.845 65.0429 75.8259 67.2897 78.3374 68.7292C80.8489 70.1688 83.7519 70.7214 86.5996 70.302C89.4472 69.8827 92.0815 68.5145 94.0971 66.4082C96.1127 64.302 97.3978 61.5743 97.7545 58.6452C101.497 56.3123 104.59 53.0286 106.735 49.1112C108.88 45.1938 110.005 40.7751 110 36.2817V32.1979C109.992 25.2531 107.301 18.5949 102.515 13.6837C97.7301 8.77249 91.242 6.00924 84.474 6ZM84.7315 67.1418C82.7582 67.1428 80.8289 66.5432 79.1877 65.419C77.5464 64.2948 76.2671 62.6963 75.5113 60.8258C74.7554 58.9554 74.5572 56.897 74.9416 54.9109C75.326 52.9249 76.2757 51.1003 77.6707 49.6682C79.0657 48.236 80.8433 47.2606 82.7786 46.8652C84.714 46.4698 86.7201 46.6722 88.5433 47.4469C90.3665 48.2215 91.9248 49.5336 93.0212 51.2171C94.1176 52.9007 94.7029 54.8801 94.7029 56.905C94.7003 59.6183 93.6491 62.2198 91.7798 64.1388C89.9105 66.0579 87.3757 67.1378 84.7315 67.1418ZM106.837 36.2817C106.843 39.8805 106.021 43.4301 104.439 46.6418C102.856 49.8536 100.558 52.637 97.7302 54.7658C97.2825 51.3521 95.5767 48.2442 92.9638 46.0818C90.3508 43.9195 87.0295 42.867 83.6834 43.1411C80.3372 43.4151 77.2207 44.9948 74.9751 47.5551C72.7296 50.1154 71.5257 53.4616 71.6113 56.905C71.6118 57.6722 71.6768 58.4378 71.8057 59.1936H65.0902C64.67 59.1936 64.2671 59.3648 63.97 59.6697C63.6729 59.9745 63.506 60.388 63.506 60.8191V65.0974L55.634 59.5128C55.3704 59.3239 55.0564 59.2229 54.7349 59.2235H35.5309C29.6049 59.2156 23.9239 56.7966 19.7336 52.4968C15.5433 48.197 13.1857 42.3675 13.178 36.2866V32.2029C13.1857 26.1221 15.5433 20.2927 19.7336 15.9929C23.9239 11.6931 29.6049 9.27395 35.5309 9.26604H84.4691C90.3947 9.27527 96.0751 11.6948 100.265 15.9943C104.455 20.2938 106.813 26.1225 106.822 32.2029L106.837 36.2817Z" fill="url(#paint1_linear)"/>
<path d="M87.861 74.1477H83.0795C81.32 74.1715 79.5763 74.4933 77.9189 75.1001L58.2338 81.1185L42.0037 75.7333C40.6281 75.2828 39.1533 75.2598 37.7651 75.6675C36.3768 76.0751 35.1371 76.8951 34.202 78.0242C33.2669 79.1532 32.6782 80.5408 32.51 82.0124C32.3418 83.4841 32.6018 84.9738 33.2569 86.2942C33.6909 87.1733 34.2906 87.9552 35.0213 88.5946C35.752 89.2339 36.5992 89.7181 37.5137 90.019L55.8916 96.1172C56.6131 96.3596 57.3677 96.4825 58.1269 96.4812C58.786 96.4806 59.4413 96.3781 60.0706 96.1771L70.0468 93.1254V104.374C70.0468 104.806 70.2137 105.219 70.5108 105.524C70.8079 105.829 71.2108 106 71.631 106C72.0511 106 72.454 105.829 72.7511 105.524C73.0482 105.219 73.2151 104.806 73.2151 104.374V90.9415C73.2147 90.6886 73.1569 90.4392 73.0462 90.2133C72.9354 89.9873 72.7748 89.7909 72.5771 89.6399C72.3794 89.4888 72.1501 89.3872 71.9074 89.3431C71.6647 89.299 71.4153 89.3136 71.1791 89.3857L59.1716 93.0557C58.8363 93.1705 58.4853 93.2294 58.1318 93.2301C57.7029 93.2292 57.2766 93.1603 56.8683 93.0257L38.4953 86.9225C37.9774 86.7503 37.4977 86.4751 37.0835 86.1126C36.6693 85.7502 36.3287 85.3076 36.0812 84.81C35.8337 84.3125 35.6842 83.77 35.641 83.2131C35.5979 82.6563 35.6621 82.0962 35.8299 81.5648C35.9977 81.0334 36.266 80.5411 36.6192 80.1161C36.9724 79.691 37.4037 79.3416 37.8886 79.0876C38.3734 78.8337 38.9023 78.6802 39.445 78.636C39.9876 78.5918 40.5335 78.6576 41.0513 78.8298L57.7527 84.3696C58.0582 84.4667 58.3851 84.4667 58.6905 84.3696L78.9151 78.1866L79.056 78.1368C80.3571 77.665 81.724 77.4124 83.1037 77.3888H87.8853C90.7968 77.3928 93.5879 78.5812 95.6466 80.6937C97.7053 82.8062 98.8636 85.6702 98.8675 88.6577V104.365C98.8675 104.796 99.0344 105.209 99.3314 105.514C99.6285 105.819 100.031 105.99 100.452 105.99C100.872 105.99 101.275 105.819 101.572 105.514C101.869 105.209 102.036 104.796 102.036 104.365V88.6727C102.034 86.7639 101.667 84.8741 100.954 83.1111C100.241 81.3481 99.1963 79.7467 97.88 78.3979C96.5638 77.0491 95.0015 75.9795 93.2824 75.2503C91.5634 74.5211 89.7212 74.1464 87.861 74.1477Z" fill="url(#paint2_linear)"/>
<path d="M84.474 6H35.5309C28.7621 6.00792 22.2727 8.77064 17.4864 13.682C12.7001 18.5933 10.0077 25.2522 10 32.1979V36.2817C10.0077 43.2269 12.7002 49.8853 17.4866 54.7959C22.2731 59.7064 28.7625 62.468 35.5309 62.4746H54.2101L64.162 69.5401C64.4004 69.708 64.679 69.806 64.9676 69.8234C65.2563 69.8408 65.5441 69.7771 65.8001 69.6391C66.0561 69.5011 66.2704 69.2941 66.4202 69.0403C66.57 68.7865 66.6494 68.4955 66.65 68.1988V62.4446H72.1411C72.3324 62.4444 72.5219 62.4072 72.6998 62.335C73.845 65.0429 75.8259 67.2897 78.3374 68.7292C80.8489 70.1688 83.7519 70.7214 86.5996 70.302C89.4472 69.8827 92.0815 68.5145 94.0971 66.4082C96.1127 64.302 97.3978 61.5743 97.7545 58.6452C101.497 56.3123 104.59 53.0286 106.735 49.1112C108.88 45.1938 110.005 40.7751 110 36.2817V32.1979C109.992 25.2531 107.301 18.5949 102.515 13.6837C97.7301 8.77249 91.242 6.00924 84.474 6ZM84.7315 67.1418C82.7582 67.1428 80.8289 66.5432 79.1877 65.419C77.5464 64.2948 76.2671 62.6963 75.5113 60.8258C74.7554 58.9554 74.5572 56.897 74.9416 54.9109C75.326 52.9249 76.2757 51.1003 77.6707 49.6682C79.0657 48.236 80.8433 47.2606 82.7786 46.8652C84.714 46.4698 86.7201 46.6722 88.5433 47.4469C90.3665 48.2215 91.9248 49.5336 93.0212 51.2171C94.1176 52.9007 94.7029 54.8801 94.7029 56.905C94.7003 59.6183 93.6491 62.2198 91.7798 64.1388C89.9105 66.0579 87.3757 67.1378 84.7315 67.1418ZM106.837 36.2817C106.843 39.8805 106.021 43.4301 104.439 46.6418C102.856 49.8536 100.558 52.637 97.7302 54.7658C97.2825 51.3521 95.5767 48.2442 92.9638 46.0818C90.3508 43.9195 87.0295 42.867 83.6834 43.1411C80.3372 43.4151 77.2207 44.9948 74.9751 47.5551C72.7296 50.1154 71.5257 53.4616 71.6113 56.905C71.6118 57.6722 71.6768 58.4378 71.8057 59.1936H65.0902C64.67 59.1936 64.2671 59.3648 63.97 59.6697C63.6729 59.9745 63.506 60.388 63.506 60.8191V65.0974L55.634 59.5128C55.3704 59.3239 55.0564 59.2229 54.7349 59.2235H35.5309C29.6049 59.2156 23.9239 56.7966 19.7336 52.4968C15.5433 48.197 13.1857 42.3675 13.178 36.2866V32.2029C13.1857 26.1221 15.5433 20.2927 19.7336 15.9929C23.9239 11.6931 29.6049 9.27395 35.5309 9.26604H84.4691C90.3947 9.27527 96.0751 11.6948 100.265 15.9943C104.455 20.2938 106.813 26.1225 106.822 32.2029L106.837 36.2817Z" fill="url(#paint3_linear)"/>
</g>
<defs>
<filter id="filter0_d" x="0" y="0" width="120" height="120" filterUnits="userSpaceOnUse" color-interpolation-filters="sRGB">
<feFlood flood-opacity="0" result="BackgroundImageFix"/>
<feColorMatrix in="SourceAlpha" type="matrix" values="0 0 0 0 0 0 0 0 0 0 0 0 0 0 0 0 0 0 127 0"/>
<feOffset dy="4"/>
<feGaussianBlur stdDeviation="5"/>
<feColorMatrix type="matrix" values="0 0 0 0 0.333333 0 0 0 0 0.678431 0 0 0 0 1 0 0 0 0.2 0"/>
<feBlend mode="normal" in2="BackgroundImageFix" result="effect1_dropShadow"/>
<feBlend mode="normal" in="SourceGraphic" in2="effect1_dropShadow" result="shape"/>
</filter>
<linearGradient id="paint0_linear" x1="67.248" y1="74.1477" x2="67.248" y2="106" gradientUnits="userSpaceOnUse">
<stop stop-color="#023BAE"/>
<stop offset="1" stop-color="#00297C"/>
</linearGradient>
<linearGradient id="paint1_linear" x1="60" y1="6" x2="60" y2="70.4386" gradientUnits="userSpaceOnUse">
<stop stop-color="#023BAE"/>
<stop offset="1" stop-color="#00297C"/>
</linearGradient>
<linearGradient id="paint2_linear" x1="67.248" y1="74.1477" x2="67.248" y2="106" gradientUnits="userSpaceOnUse">
<stop stop-color="#023BAE"/>
<stop offset="1" stop-color="#00297C"/>
</linearGradient>
<linearGradient id="paint3_linear" x1="60" y1="6" x2="60" y2="70.4386" gradientUnits="userSpaceOnUse">
<stop stop-color="#023BAE"/>
<stop offset="1" stop-color="#00297C"/>
</linearGradient>
</defs>
</svg>
