<svg width="134" height="120" viewBox="0 0 134 120" fill="none" xmlns="http://www.w3.org/2000/svg">
<g filter="url(#filter0_d)">
<path d="M65.9895 90.877H48.6019C49.3542 89.666 49.753 88.2689 49.7532 86.8434V85.4384H62.7693C63.0239 85.4656 63.2814 85.439 63.5251 85.3603C63.7688 85.2815 63.9932 85.1523 64.1837 84.9812C64.3741 84.81 64.5263 84.6008 64.6306 84.3669C64.7348 84.133 64.7888 83.8798 64.7888 83.6238C64.7888 83.3677 64.7348 83.1145 64.6306 82.8806C64.5263 82.6468 64.3741 82.4375 64.1837 82.2663C63.9932 82.0952 63.7688 81.966 63.5251 81.8872C63.2814 81.8085 63.0239 81.7819 62.7693 81.8092H47.9279C47.4442 81.8105 46.9808 82.0033 46.6388 82.3452C46.2968 82.6872 46.1039 83.1505 46.1025 83.6341V86.8641C46.122 87.4057 46.032 87.9455 45.8382 88.4515C45.6443 88.9576 45.3505 89.4194 44.9742 89.8093C44.5979 90.1993 44.1468 90.5095 43.6479 90.7213C43.1491 90.9332 42.6127 91.0423 42.0707 91.0423C41.5288 91.0423 40.9924 90.9332 40.4935 90.7213C39.9947 90.5095 39.5435 90.1993 39.1672 89.8093C38.7909 89.4194 38.4972 88.9576 38.3033 88.4515C38.1094 87.9455 38.0195 87.4057 38.0389 86.8641V13.5021C38.0373 12.1524 37.6697 10.8284 36.9757 9.67073H94.1579C95.6259 9.67348 97.0331 10.2577 98.0711 11.2955C99.1092 12.3333 99.6935 13.7401 99.6962 15.2078V44.0912C99.6623 44.3494 99.6838 44.612 99.7595 44.8612C99.8352 45.1104 99.9635 45.3406 100.135 45.5363C100.307 45.7321 100.519 45.889 100.756 45.9965C100.993 46.1039 101.251 46.1595 101.511 46.1595C101.772 46.1595 102.029 46.1039 102.267 45.9965C102.504 45.889 102.715 45.7321 102.887 45.5363C103.059 45.3406 103.187 45.1104 103.263 44.8612C103.338 44.612 103.36 44.3494 103.326 44.0912V15.1871C103.323 12.7505 102.354 10.4145 100.63 8.69204C98.906 6.96957 96.5692 6.00137 94.132 6H30.4575H30.3537C28.4098 6.05794 26.565 6.87028 25.2098 8.26484C23.8546 9.65941 23.0956 11.5266 23.0938 13.471V30.9586H11.8254C11.5856 30.9586 11.3485 31.0059 11.127 31.0976C10.9056 31.1893 10.7043 31.3237 10.5348 31.4931C10.3653 31.6626 10.2307 31.8638 10.139 32.0853C10.0473 32.3067 10 32.5439 10 32.7836V39.3266C10.0027 41.546 10.8862 43.6736 12.4563 45.2424C14.0265 46.8113 16.1552 47.6931 18.375 47.6945H34.4037V86.8278C34.4064 88.8648 35.2171 90.8176 36.6577 92.258C38.0984 93.6983 40.0516 94.5087 42.089 94.5114H66.005C66.4529 94.4635 66.8673 94.2516 67.1684 93.9166C67.4695 93.5816 67.6361 93.1472 67.6361 92.6968C67.6361 92.2464 67.4695 91.812 67.1684 91.477C66.8673 91.142 66.4529 90.9301 66.005 90.8822L65.9895 90.877ZM13.6145 39.3422V34.6241H23.0522V39.3422C23.0522 40.5935 22.5552 41.7934 21.6702 42.6782C20.7853 43.563 19.585 44.0601 18.3335 44.0601C17.082 44.0601 15.8815 43.563 14.9965 42.6782C14.1115 41.7934 13.6145 40.5935 13.6145 39.3422ZM25.2407 44.0601C26.196 42.6724 26.706 41.0268 26.7029 39.3422V13.5021C26.684 12.9874 26.7692 12.4742 26.9531 11.9932C27.137 11.5121 27.416 11.073 27.7735 10.7022C28.131 10.3314 28.5596 10.0365 29.0337 9.83503C29.5078 9.63358 30.0176 9.52973 30.5327 9.52973C31.0478 9.52973 31.5576 9.63358 32.0316 9.83503C32.5057 10.0365 32.9344 10.3314 33.2919 10.7022C33.6493 11.073 33.9283 11.5121 34.1122 11.9932C34.2962 12.4742 34.3811 12.9874 34.3622 13.5021V44.0912L25.2407 44.0601Z" fill="url(#paint0_linear)"/>
<path d="M92.0311 21.4756H88.8629C88.415 21.5236 88.0008 21.7354 87.6997 22.0704C87.3986 22.4054 87.2321 22.8399 87.2321 23.2903C87.2321 23.7406 87.3986 24.1752 87.6997 24.5102C88.0008 24.8452 88.415 25.057 88.8629 25.1049H92.0311C92.2857 25.1322 92.5435 25.1056 92.7871 25.0268C93.0308 24.948 93.2549 24.8188 93.4454 24.6477C93.6359 24.4765 93.7883 24.2673 93.8926 24.0334C93.9968 23.7995 94.0508 23.5463 94.0508 23.2903C94.0508 23.0342 93.9968 22.7811 93.8926 22.5472C93.7883 22.3134 93.6359 22.1041 93.4454 21.933C93.2549 21.7618 93.0308 21.6326 92.7871 21.5539C92.5435 21.4751 92.2857 21.4484 92.0311 21.4756Z" fill="url(#paint1_linear)"/>
<path d="M83.75 25.1259C84.1979 25.078 84.6121 24.8661 84.9132 24.5311C85.2143 24.1961 85.3809 23.7616 85.3809 23.3112C85.3809 22.8608 85.2143 22.4263 84.9132 22.0913C84.6121 21.7563 84.1979 21.5444 83.75 21.4965H55.4988C55.2442 21.4692 54.9867 21.496 54.743 21.5747C54.4993 21.6535 54.2749 21.7826 54.0844 21.9537C53.8939 22.1249 53.7415 22.3343 53.6373 22.5682C53.533 22.802 53.479 23.0551 53.479 23.3112C53.479 23.5673 53.533 23.8205 53.6373 24.0544C53.7415 24.2882 53.8939 24.4975 54.0844 24.6687C54.2749 24.8398 54.4993 24.969 54.743 25.0478C54.9867 25.1266 55.2442 25.1532 55.4988 25.1259H83.75Z" fill="url(#paint2_linear)"/>
<path d="M46.7298 25.1259H50.3598C50.6144 25.1532 50.8719 25.1266 51.1156 25.0478C51.3593 24.969 51.5837 24.8398 51.7742 24.6687C51.9647 24.4975 52.1171 24.2882 52.2214 24.0544C52.3256 23.8205 52.3796 23.5673 52.3796 23.3112C52.3796 23.0551 52.3256 22.802 52.2214 22.5682C52.1171 22.3343 51.9647 22.1249 51.7742 21.9537C51.5837 21.7826 51.3593 21.6535 51.1156 21.5747C50.8719 21.496 50.6144 21.4692 50.3598 21.4965H46.7298C46.2819 21.5444 45.8677 21.7563 45.5666 22.0913C45.2655 22.4263 45.0989 22.8608 45.0989 23.3112C45.0989 23.7616 45.2655 24.1961 45.5666 24.5311C45.8677 24.8661 46.2819 25.078 46.7298 25.1259Z" fill="url(#paint3_linear)"/>
<path d="M92.031 30.9736H84.2527C83.8048 31.0215 83.3906 31.2334 83.0895 31.5684C82.7885 31.9034 82.6219 32.3378 82.6219 32.7882C82.6219 33.2386 82.7885 33.6731 83.0895 34.0081C83.3906 34.3431 83.8048 34.5549 84.2527 34.6029H92.031C92.2857 34.6301 92.5434 34.6035 92.7871 34.5248C93.0308 34.446 93.2549 34.3168 93.4454 34.1457C93.6359 33.9745 93.7883 33.7652 93.8926 33.5314C93.9968 33.2975 94.0508 33.0443 94.0508 32.7882C94.0508 32.5322 93.9968 32.2791 93.8926 32.0452C93.7883 31.8113 93.6359 31.6019 93.4454 31.4308C93.2549 31.2596 93.0308 31.1306 92.7871 31.0518C92.5434 30.973 92.2857 30.9463 92.031 30.9736Z" fill="url(#paint4_linear)"/>
<path d="M46.7298 34.6236H77.9056C78.1603 34.6509 78.4178 34.6243 78.6614 34.5455C78.9051 34.4667 79.1295 34.3376 79.32 34.1664C79.5105 33.9953 79.6629 33.786 79.7672 33.5522C79.8714 33.3183 79.9252 33.0651 79.9252 32.809C79.9252 32.553 79.8714 32.2998 79.7672 32.0659C79.6629 31.8321 79.5105 31.6228 79.32 31.4517C79.1295 31.2805 78.9051 31.1513 78.6614 31.0726C78.4178 30.9938 78.1603 30.9672 77.9056 30.9945H46.7298C46.2819 31.0424 45.8677 31.2543 45.5666 31.5892C45.2655 31.9242 45.0989 32.3587 45.0989 32.809C45.0989 33.2594 45.2655 33.6938 45.5666 34.0288C45.8677 34.3638 46.2819 34.5757 46.7298 34.6236Z" fill="url(#paint5_linear)"/>
<path d="M93.8565 41.8097C93.8565 41.3252 93.6644 40.8605 93.3222 40.5174C92.9801 40.1743 92.5157 39.9809 92.0311 39.9796H67.6587C67.2182 40.0373 66.814 40.2533 66.521 40.5871C66.2281 40.921 66.0665 41.35 66.0665 41.7942C66.0665 42.2383 66.2281 42.6672 66.521 43.0011C66.814 43.335 67.2182 43.551 67.6587 43.6088H92.0311C92.5104 43.6075 92.97 43.4184 93.3113 43.082C93.6526 42.7456 93.8483 42.2888 93.8565 41.8097Z" fill="url(#paint6_linear)"/>
<path d="M46.7301 43.6348H56.4946C56.9351 43.577 57.3395 43.361 57.6325 43.0271C57.9255 42.6932 58.087 42.2643 58.087 41.8201C58.087 41.376 57.9255 40.9469 57.6325 40.613C57.3395 40.2792 56.9351 40.0632 56.4946 40.0054H46.7508C46.3104 40.0632 45.9059 40.2792 45.6129 40.613C45.32 40.9469 45.1584 41.376 45.1584 41.8201C45.1584 42.2643 45.32 42.6932 45.6129 43.0271C45.9059 43.361 46.3104 43.577 46.7508 43.6348H46.7301Z" fill="url(#paint7_linear)"/>
<path d="M75.1056 51.059C75.1042 50.5745 74.9107 50.1104 74.5675 49.7683C74.2244 49.4262 73.7595 49.234 73.2749 49.234H46.7298C46.2819 49.2819 45.8677 49.4938 45.5666 49.8288C45.2655 50.1638 45.0989 50.5982 45.0989 51.0486C45.0989 51.499 45.2655 51.9334 45.5666 52.2684C45.8677 52.6034 46.2819 52.8153 46.7298 52.8632H73.2749C73.7564 52.8646 74.2189 52.6758 74.5617 52.3379C74.9045 52 75.1001 51.5403 75.1056 51.059Z" fill="url(#paint8_linear)"/>
<path d="M61.5868 67.7382H46.73C46.2895 67.796 45.8851 68.0119 45.5921 68.3457C45.2991 68.6796 45.1376 69.1086 45.1376 69.5527C45.1376 69.9969 45.2991 70.4258 45.5921 70.7596C45.8851 71.0935 46.2895 71.3095 46.73 71.3673H61.5868C62.0273 71.3095 62.4317 71.0935 62.7247 70.7596C63.0177 70.4258 63.1792 69.9969 63.1792 69.5527C63.1792 69.1086 63.0177 68.6796 62.7247 68.3457C62.4317 68.0119 62.0273 67.796 61.5868 67.7382Z" fill="url(#paint9_linear)"/>
<path d="M65.1181 60.3134C65.1181 59.8294 64.9259 59.3652 64.5836 59.0229C64.2412 58.6807 63.7768 58.4884 63.2927 58.4884H46.7298C46.2819 58.5363 45.8677 58.7482 45.5666 59.0832C45.2655 59.4182 45.0989 59.8526 45.0989 60.303C45.0989 60.7534 45.2655 61.1879 45.5666 61.5229C45.8677 61.8578 46.2819 62.0697 46.7298 62.1176H63.2927C63.7729 62.1163 64.2333 61.9264 64.5747 61.5889C64.9161 61.2514 65.1113 60.7934 65.1181 60.3134Z" fill="url(#paint10_linear)"/>
<path d="M94.7596 48.3163C89.0541 48.3163 83.4767 50.008 78.7328 53.1771C73.9888 56.3463 70.2912 60.8507 68.1078 66.1209C65.9244 71.391 65.3532 77.1902 66.4663 82.7849C67.5794 88.3797 70.3268 93.5189 74.3612 97.5525C78.3956 101.586 83.5357 104.333 89.1316 105.446C94.7275 106.559 100.528 105.988 105.799 103.805C111.07 101.622 115.576 97.9248 118.745 93.1818C121.915 88.4388 123.607 82.8626 123.607 77.1582C123.599 69.5114 120.557 62.1802 115.149 56.7731C109.741 51.3659 102.408 48.3246 94.7596 48.3163ZM94.7596 102.345C89.7757 102.346 84.9033 100.869 80.7589 98.1014C76.6145 95.3337 73.3842 91.3993 71.4764 86.7959C69.5687 82.1925 69.0692 77.1268 70.0413 72.2396C71.0133 67.3523 73.4134 62.8631 76.9375 59.3396C80.4617 55.8162 84.9519 53.4168 89.8401 52.4449C94.7283 51.473 99.795 51.9724 104.399 53.8798C109.004 55.7871 112.939 59.0168 115.707 63.1604C118.475 67.3039 119.952 72.1753 119.951 77.1582C119.945 83.836 117.288 90.2384 112.565 94.9603C107.842 99.6822 101.439 102.338 94.7596 102.345Z" fill="url(#paint11_linear)"/>
<path d="M94.5883 60.3136C94.1042 60.3136 93.64 60.5059 93.2977 60.8481C92.9554 61.1904 92.7629 61.6546 92.7629 62.1386V75.5302H83.5064C83.0384 75.5552 82.598 75.7587 82.2755 76.0987C81.9531 76.4387 81.7734 76.8893 81.7734 77.3579C81.7734 77.8264 81.9531 78.277 82.2755 78.617C82.598 78.957 83.0384 79.1604 83.5064 79.1854H94.5883C95.072 79.184 95.5356 78.9913 95.8776 78.6493C96.2197 78.3074 96.4123 77.844 96.4137 77.3604V62.1386C96.4123 61.655 96.2197 61.1916 95.8776 60.8497C95.5356 60.5077 95.072 60.315 94.5883 60.3136Z" fill="url(#paint12_linear)"/>
</g>
<defs>
<filter id="filter0_d" x="0" y="0" width="133.607" height="120" filterUnits="userSpaceOnUse" color-interpolation-filters="sRGB">
<feFlood flood-opacity="0" result="BackgroundImageFix"/>
<feColorMatrix in="SourceAlpha" type="matrix" values="0 0 0 0 0 0 0 0 0 0 0 0 0 0 0 0 0 0 127 0"/>
<feOffset dy="4"/>
<feGaussianBlur stdDeviation="5"/>
<feColorMatrix type="matrix" values="0 0 0 0 0.333333 0 0 0 0 0.678431 0 0 0 0 1 0 0 0 0.2 0"/>
<feBlend mode="normal" in2="BackgroundImageFix" result="effect1_dropShadow"/>
<feBlend mode="normal" in="SourceGraphic" in2="effect1_dropShadow" result="shape"/>
</filter>
<linearGradient id="paint0_linear" x1="56.6708" y1="6" x2="56.6708" y2="94.5114" gradientUnits="userSpaceOnUse">
<stop stop-color="#023BAE"/>
<stop offset="1" stop-color="#00297C"/>
</linearGradient>
<linearGradient id="paint1_linear" x1="90.6414" y1="21.4653" x2="90.6414" y2="25.1153" gradientUnits="userSpaceOnUse">
<stop stop-color="#023BAE"/>
<stop offset="1" stop-color="#00297C"/>
</linearGradient>
<linearGradient id="paint2_linear" x1="69.4299" y1="21.4861" x2="69.4299" y2="25.1363" gradientUnits="userSpaceOnUse">
<stop stop-color="#023BAE"/>
<stop offset="1" stop-color="#00297C"/>
</linearGradient>
<linearGradient id="paint3_linear" x1="48.7393" y1="21.4861" x2="48.7393" y2="25.1363" gradientUnits="userSpaceOnUse">
<stop stop-color="#023BAE"/>
<stop offset="1" stop-color="#00297C"/>
</linearGradient>
<linearGradient id="paint4_linear" x1="88.3363" y1="30.9632" x2="88.3363" y2="34.6132" gradientUnits="userSpaceOnUse">
<stop stop-color="#023BAE"/>
<stop offset="1" stop-color="#00297C"/>
</linearGradient>
<linearGradient id="paint5_linear" x1="62.5121" y1="30.9841" x2="62.5121" y2="34.634" gradientUnits="userSpaceOnUse">
<stop stop-color="#023BAE"/>
<stop offset="1" stop-color="#00297C"/>
</linearGradient>
<linearGradient id="paint6_linear" x1="79.9615" y1="39.9796" x2="79.9615" y2="43.6088" gradientUnits="userSpaceOnUse">
<stop stop-color="#023BAE"/>
<stop offset="1" stop-color="#00297C"/>
</linearGradient>
<linearGradient id="paint7_linear" x1="51.6227" y1="40.0054" x2="51.6227" y2="43.6348" gradientUnits="userSpaceOnUse">
<stop stop-color="#023BAE"/>
<stop offset="1" stop-color="#00297C"/>
</linearGradient>
<linearGradient id="paint8_linear" x1="60.1023" y1="49.234" x2="60.1023" y2="52.8632" gradientUnits="userSpaceOnUse">
<stop stop-color="#023BAE"/>
<stop offset="1" stop-color="#00297C"/>
</linearGradient>
<linearGradient id="paint9_linear" x1="54.1584" y1="67.7382" x2="54.1584" y2="71.3673" gradientUnits="userSpaceOnUse">
<stop stop-color="#023BAE"/>
<stop offset="1" stop-color="#00297C"/>
</linearGradient>
<linearGradient id="paint10_linear" x1="55.1085" y1="58.4884" x2="55.1085" y2="62.1176" gradientUnits="userSpaceOnUse">
<stop stop-color="#023BAE"/>
<stop offset="1" stop-color="#00297C"/>
</linearGradient>
<linearGradient id="paint11_linear" x1="94.7596" y1="48.3163" x2="94.7596" y2="106" gradientUnits="userSpaceOnUse">
<stop stop-color="#023BAE"/>
<stop offset="1" stop-color="#00297C"/>
</linearGradient>
<linearGradient id="paint12_linear" x1="89.0936" y1="60.3136" x2="89.0936" y2="79.1854" gradientUnits="userSpaceOnUse">
<stop stop-color="#023BAE"/>
<stop offset="1" stop-color="#00297C"/>
</linearGradient>
</defs>
</svg>
