<svg width="30" height="30" viewBox="0 0 30 30" fill="none" xmlns="http://www.w3.org/2000/svg">
<path d="M24.5357 6.65326C24.5357 6.48203 24.4675 6.31781 24.346 6.19673C24.2245 6.07566 24.0598 6.00763 23.888 6.00763H20.6493C19.0185 5.92666 17.4218 6.49236 16.2082 7.58112C14.9945 8.66988 14.2625 10.1932 14.1721 11.8182V15.3046H10.9334C10.7616 15.3046 10.5969 15.3726 10.4754 15.4937C10.3539 15.6148 10.2857 15.779 10.2857 15.9502V19.3074C10.2857 19.4787 10.3539 19.6429 10.4754 19.764C10.5969 19.885 10.7616 19.9531 10.9334 19.9531H14.1721V28.6044C14.1721 28.7756 14.2403 28.9398 14.3618 29.0609C14.4833 29.182 14.648 29.25 14.8198 29.25H18.7062C18.8779 29.25 19.0427 29.182 19.1642 29.0609C19.2856 28.9398 19.3539 28.7756 19.3539 28.6044V19.9531H22.748C22.892 19.9551 23.0326 19.9093 23.1476 19.8227C23.2626 19.7362 23.3453 19.6139 23.3828 19.4753L24.3155 16.1181C24.3412 16.0227 24.3447 15.9227 24.3256 15.8257C24.3065 15.7288 24.2653 15.6375 24.2053 15.5589C24.1452 15.4803 24.0678 15.4165 23.9791 15.3724C23.8904 15.3284 23.7928 15.3051 23.6937 15.3046H19.3539V11.8182C19.3861 11.4986 19.5367 11.2024 19.7762 10.9876C20.0158 10.7727 20.3271 10.6545 20.6493 10.6561H23.888C24.0598 10.6561 24.2245 10.5881 24.346 10.467C24.4675 10.3459 24.5357 10.1817 24.5357 10.0105V6.65326Z" fill="white"/>
<rect x="1.5" y="1.5" width="27" height="27" rx="1.5" stroke="white" stroke-width="3"/>
</svg>
