<svg width="60" height="60" viewBox="0 0 60 60" fill="none" xmlns="http://www.w3.org/2000/svg">
<path d="M49.0715 13.3065C49.0715 12.9641 48.935 12.6356 48.6921 12.3935C48.4492 12.1513 48.1197 12.0153 47.7761 12.0153H41.2988C38.0372 11.8533 34.8438 12.9847 32.4164 15.1622C29.9891 17.3398 28.5251 20.3864 28.3443 23.6365V30.6092H21.867C21.5234 30.6092 21.1939 30.7452 20.951 30.9874C20.708 31.2295 20.5715 31.5579 20.5715 31.9004V38.6149C20.5715 38.9573 20.708 39.2858 20.951 39.5279C21.1939 39.7701 21.5234 39.9061 21.867 39.9061H28.3443V57.2088C28.3443 57.5512 28.4807 57.8797 28.7237 58.1218C28.9666 58.364 29.2961 58.5 29.6397 58.5H37.4124C37.756 58.5 38.0855 58.364 38.3285 58.1218C38.5714 57.8797 38.7079 57.5512 38.7079 57.2088V39.9061H45.4961C45.7842 39.9102 46.0654 39.8185 46.2953 39.6455C46.5253 39.4724 46.6907 39.2279 46.7656 38.9506L48.6311 32.2361C48.6826 32.0453 48.6895 31.8453 48.6513 31.6514C48.6131 31.4575 48.5308 31.275 48.4106 31.1178C48.2905 30.9607 48.1358 30.8331 47.9584 30.7449C47.781 30.6567 47.5857 30.6103 47.3874 30.6092H38.7079V23.6365C38.7723 22.9972 39.0735 22.4049 39.5526 21.9751C40.0317 21.5453 40.6543 21.309 41.2988 21.3122H47.7761C48.1197 21.3122 48.4492 21.1762 48.6921 20.934C48.935 20.6919 49.0715 20.3634 49.0715 20.021V13.3065Z" fill="#00297C"/>
<mask id="path-2-inside-1" fill="white">
<rect width="60" height="60" rx="3"/>
</mask>
<rect width="60" height="60" rx="3" stroke="#00297C" stroke-width="10" mask="url(#path-2-inside-1)"/>
</svg>
