<svg width="51" height="70" viewBox="0 0 51 70" fill="none" xmlns="http://www.w3.org/2000/svg">
<path d="M44.4176 13.0561C45.7189 13.0567 46.9913 12.6744 48.0737 11.9575C49.156 11.2406 49.9998 10.2213 50.4983 9.02854C50.9967 7.83576 51.1275 6.52306 50.874 5.25652C50.6206 3.98999 49.9943 2.82649 49.0743 1.91319C48.1543 0.999894 46.9821 0.377835 45.7058 0.125678C44.4295 -0.12648 43.1064 0.00262059 41.9041 0.496613C40.7017 0.990606 39.674 1.82732 38.9509 2.90092C38.2279 3.97452 37.8419 5.23678 37.8419 6.52805C37.8437 8.25827 38.537 9.91714 39.7697 11.1409C41.0024 12.3647 42.6738 13.0534 44.4176 13.0561ZM44.4176 2.18606C45.2872 2.18208 46.1386 2.43435 46.8636 2.91087C47.5887 3.38738 48.1549 4.0667 48.4905 4.86279C48.826 5.65889 48.916 6.53593 48.7488 7.38276C48.5816 8.22959 48.1648 9.00812 47.5512 9.61971C46.9377 10.2313 46.155 10.6484 45.3024 10.8183C44.4497 10.9881 43.5654 10.9029 42.7615 10.5736C41.9577 10.2443 41.2704 9.68568 40.7868 8.96846C40.3032 8.25124 40.0451 7.40772 40.0451 6.54479C40.0451 5.39226 40.5051 4.28663 41.3245 3.46979C42.144 2.65294 43.2561 2.19138 44.4176 2.18606Z" fill="#00297C"/>
<path d="M50.3544 15.3359L49.7732 13.626C49.68 13.3512 49.4806 13.1244 49.2189 12.9955C48.9572 12.8666 48.6545 12.8462 48.3776 12.9386C48.1007 13.0311 47.8722 13.229 47.7423 13.4886C47.6124 13.7483 47.5918 14.0486 47.685 14.3234L48.2662 16.03C48.5783 16.9493 48.6822 17.9256 48.5707 18.8894C48.4591 19.8531 48.1347 20.7806 47.6207 21.6058L42.3156 30.1254C42.2893 30.1698 42.2656 30.2157 42.2446 30.2628C42.0986 30.5958 41.8548 30.8774 41.5452 31.0709L30.2693 36.6534C30.2088 36.6828 30.1511 36.7176 30.0969 36.7573C29.8372 36.9481 29.5154 37.0365 29.1938 37.0052C28.8722 36.974 28.5737 36.8255 28.3562 36.5883C28.1387 36.3512 28.0176 36.0424 28.0165 35.7218C28.0153 35.4012 28.1342 35.0915 28.35 34.8529L40.0483 28.0332C40.2407 27.9217 40.3941 27.7544 40.4876 27.5537L43.9206 20.2345C44.0439 19.9712 44.0567 19.6702 43.9563 19.3976C43.8558 19.1251 43.6504 18.9032 43.3851 18.781C43.1198 18.6587 42.8164 18.646 42.5417 18.7457C42.267 18.8454 42.0435 19.0492 41.9203 19.3124L40.9336 21.418L40.7713 20.097C40.6298 18.9521 40.9002 17.7943 41.535 16.828L42.5656 15.2588C42.6489 15.1387 42.7071 15.0032 42.7367 14.8604C42.7664 14.7177 42.7669 14.5705 42.7384 14.4275C42.7099 14.2845 42.6528 14.1485 42.5706 14.0278C42.4883 13.907 42.3826 13.8037 42.2595 13.7241C42.1364 13.6445 41.9985 13.5901 41.8539 13.5642C41.7094 13.5382 41.5611 13.5412 41.4177 13.573C41.2743 13.6047 41.1388 13.6647 41.0191 13.7492C40.8994 13.8337 40.7979 13.9412 40.7207 14.0652L39.6901 15.6343C38.7717 17.033 38.3793 18.708 38.5817 20.3652L39.1764 25.1665L38.6358 26.3232L27.1098 33.0289C27.04 33.069 26.9753 33.1175 26.9172 33.1731C26.2716 33.776 25.88 34.5991 25.8213 35.4769C25.7626 36.3547 26.041 37.2219 26.6007 37.9042C27.1603 38.5865 27.9595 39.0333 28.8376 39.1545C29.7157 39.2758 30.6075 39.0625 31.3336 38.5578L39.1461 34.692V68.7905C39.1461 69.0804 39.2621 69.3584 39.4687 69.5634C39.6753 69.7683 39.9555 69.8835 40.2477 69.8835C40.5398 69.8835 40.82 69.7683 41.0266 69.5634C41.2332 69.3584 41.3492 69.0804 41.3492 68.7905V33.676C41.3507 33.6548 41.3507 33.6335 41.3492 33.6123L42.5792 33.0055L42.6535 32.9652C43.3467 32.5538 43.8981 31.9436 44.2349 31.2151L48.5196 24.3316L48.6176 36.365L43.9916 68.7402C43.9511 69.0273 44.0268 69.3186 44.2022 69.5505C44.3776 69.7824 44.6384 69.9359 44.9276 69.9774C44.9794 69.9807 45.0313 69.9807 45.083 69.9774C45.3478 69.9768 45.6036 69.8816 45.8034 69.7091C46.0032 69.5367 46.1338 69.2987 46.1712 69.0386L50.8106 36.5829C50.8141 36.5282 50.8141 36.4734 50.8106 36.4186L50.6754 19.9897C50.6744 19.9198 50.6665 19.8501 50.6518 19.7818C50.9399 18.2991 50.8374 16.7678 50.3544 15.3359Z" fill="#00297C"/>
<path d="M6.57566 13.0561C7.87702 13.0567 9.1494 12.6744 10.2318 11.9575C11.3141 11.2406 12.1579 10.2213 12.6563 9.02854C13.1548 7.83576 13.2856 6.52306 13.0321 5.25652C12.7786 3.98999 12.1523 2.82649 11.2324 1.91319C10.3124 0.999894 9.14016 0.377835 7.86385 0.125678C6.58755 -0.12648 5.26451 0.00262059 4.06215 0.496613C2.85979 0.990606 1.83207 1.82732 1.10901 2.90092C0.385941 3.97452 1.71647e-07 5.23678 0 6.52805C0.00178731 8.25827 0.695093 9.91714 1.92779 11.1409C3.16048 12.3647 4.83193 13.0534 6.57566 13.0561ZM6.57566 2.18606C7.44533 2.18208 8.29665 2.43435 9.0217 2.91087C9.74675 3.38738 10.3129 4.0667 10.6485 4.86279C10.9841 5.65889 11.074 6.53593 10.9068 7.38276C10.7396 8.22959 10.3228 9.00812 9.70931 9.61971C9.09578 10.2313 8.31311 10.6484 7.46044 10.8183C6.60778 10.9881 5.72348 10.9029 4.91962 10.5736C4.11576 10.2443 3.42848 9.68568 2.94489 8.96846C2.4613 8.25124 2.20317 7.40772 2.20316 6.54479C2.20315 5.39226 2.66318 4.28663 3.48261 3.46979C4.30204 2.65294 5.41414 2.19138 6.57566 2.18606Z" fill="#00297C"/>
<path d="M24.0856 33.1833C24.0263 33.1275 23.9605 33.0791 23.8895 33.0391L12.3671 26.3334L11.8264 25.1766L12.4177 20.3753C12.6215 18.7185 12.2302 17.0435 11.3128 15.6445L10.2991 14.0754C10.1395 13.8322 9.88924 13.6618 9.60313 13.6017C9.31702 13.5417 9.01857 13.5969 8.77347 13.7551C8.52837 13.9134 8.35667 14.1618 8.29615 14.4457C8.23563 14.7296 8.29123 15.0257 8.45075 15.269L9.48475 16.8381C10.1184 17.8062 10.3887 18.9646 10.2484 20.1105L10.0862 21.4281L9.09611 19.3225C8.96899 19.0661 8.74573 18.8692 8.47409 18.7742C8.20246 18.6791 7.90409 18.6934 7.64294 18.814C7.3818 18.9345 7.17867 19.1518 7.07702 19.4192C6.97537 19.6866 6.98328 19.9829 7.09913 20.2446L10.5288 27.5639C10.6236 27.7648 10.7781 27.9321 10.9715 28.0433L22.6698 34.863C22.8889 35.1014 23.0103 35.4124 23.0103 35.7351C23.0103 36.0577 22.8888 36.3688 22.6697 36.6072C22.4506 36.8456 22.1496 36.9941 21.8258 37.0238C21.502 37.0534 21.1787 36.962 20.9194 36.7674C20.8669 36.727 20.8102 36.6922 20.7504 36.6635L9.4746 31.081C9.16409 30.8885 8.92007 30.6066 8.77512 30.273C8.75298 30.2258 8.72817 30.1799 8.70079 30.1355L3.3991 21.6159C2.88419 20.7911 2.55933 19.8636 2.44776 18.8997C2.33619 17.9358 2.44069 16.9593 2.75374 16.0401L3.33154 14.3335C3.42474 14.0587 3.40411 13.7585 3.2742 13.4988C3.1443 13.2391 2.91574 13.0412 2.63882 12.9488C2.3619 12.8563 2.05932 12.8768 1.79761 13.0057C1.53589 13.1346 1.33644 13.3613 1.24323 13.6361L0.665433 15.3461C0.17842 16.7805 0.0736878 18.3155 0.361352 19.802C0.347754 19.8705 0.340944 19.9401 0.341058 20.0099L0.202547 36.4389C0.199086 36.4936 0.199086 36.5484 0.202547 36.6031L4.84196 69.0588C4.87999 69.3186 5.01072 69.5562 5.21039 69.7285C5.41006 69.9008 5.6654 69.9962 5.93 69.9975C5.98288 70.0009 6.03592 70.0009 6.0888 69.9975C6.37797 69.956 6.63878 69.8025 6.81419 69.5707C6.9896 69.3388 7.06534 69.0475 7.0248 68.7603L2.39554 36.3852L2.49693 24.3518L6.77814 31.2352C7.1162 31.964 7.66866 32.5742 8.36289 32.9854L8.43722 33.0256L9.64356 33.6225C9.64213 33.647 9.64213 33.6716 9.64356 33.6962V68.7905C9.65917 69.0704 9.78221 69.3337 9.9874 69.5263C10.1926 69.719 10.4643 69.8263 10.7468 69.8263C11.0293 69.8263 11.301 69.719 11.5062 69.5263C11.7114 69.3337 11.8345 69.0704 11.8501 68.7905V34.6887L19.6827 38.5679C20.4095 39.0554 21.2941 39.2549 22.1619 39.127C23.0297 38.9991 23.8177 38.5532 24.3705 37.8772C24.9232 37.2012 25.2006 36.3442 25.1479 35.4752C25.0951 34.6063 24.7161 33.7885 24.0856 33.1833Z" fill="#00297C"/>
<path d="M25.2649 25.4416C25.557 25.4416 25.8372 25.3264 26.0438 25.1215C26.2503 24.9165 26.3664 24.6385 26.3664 24.3486V19.6848C26.3664 19.3949 26.2503 19.1169 26.0438 18.9119C25.8372 18.7069 25.557 18.5917 25.2649 18.5917C24.9727 18.5917 24.6925 18.7069 24.486 18.9119C24.2794 19.1169 24.1633 19.3949 24.1633 19.6848V24.3486C24.1633 24.6385 24.2794 24.9165 24.486 25.1215C24.6925 25.3264 24.9727 25.4416 25.2649 25.4416Z" fill="#00297C"/>
<path d="M28.8774 27.5505C28.994 27.6353 29.1264 27.6965 29.2668 27.7304C29.4073 27.7644 29.5532 27.7705 29.696 27.7483C29.8388 27.7262 29.9759 27.6763 30.0992 27.6015C30.2226 27.5267 30.3299 27.4285 30.4149 27.3125L32.9559 23.8456C33.128 23.6113 33.1992 23.3188 33.1539 23.0323C33.1086 22.7459 32.9505 22.4891 32.7143 22.3184C32.4782 22.1477 32.1834 22.077 31.8947 22.1219C31.6061 22.1669 31.3472 22.3238 31.1752 22.5581L28.6341 26.025C28.5488 26.1409 28.4875 26.2724 28.4535 26.4119C28.4196 26.5514 28.4137 26.6962 28.4364 26.8379C28.459 26.9797 28.5095 27.1156 28.5852 27.2379C28.6609 27.3602 28.7602 27.4664 28.8774 27.5505Z" fill="#00297C"/>
<path d="M20.1594 27.3258C20.3315 27.5601 20.5904 27.717 20.879 27.762C21.1677 27.8069 21.4625 27.7363 21.6986 27.5656C21.9348 27.3948 22.0929 27.138 22.1382 26.8516C22.1835 26.5651 22.1123 26.2726 21.9402 26.0383L19.3991 22.5715C19.3139 22.4554 19.2065 22.3572 19.0831 22.2823C18.9596 22.2075 18.8225 22.1575 18.6796 22.1353C18.5367 22.113 18.3907 22.1189 18.2501 22.1526C18.1095 22.1863 17.9769 22.2472 17.86 22.3317C17.743 22.4163 17.6441 22.5228 17.5687 22.6453C17.4932 22.7678 17.4429 22.9039 17.4204 23.0457C17.398 23.1875 17.4039 23.3323 17.4379 23.4718C17.4719 23.6114 17.5332 23.7429 17.6184 23.8589L20.1594 27.3258Z" fill="#00297C"/>
<path d="M25.2649 43.9525C24.9727 43.9525 24.6925 44.0677 24.486 44.2727C24.2794 44.4776 24.1633 44.7557 24.1633 45.0455V49.7093C24.1633 49.9992 24.2794 50.2772 24.486 50.4822C24.6925 50.6872 24.9727 50.8024 25.2649 50.8024C25.557 50.8024 25.8372 50.6872 26.0438 50.4822C26.2503 50.2772 26.3664 49.9992 26.3664 49.7093V45.0455C26.3664 44.7557 26.2503 44.4776 26.0438 44.2727C25.8372 44.0677 25.557 43.9525 25.2649 43.9525Z" fill="#00297C"/>
<path d="M21.6969 41.8302C21.5801 41.7456 21.4476 41.6846 21.307 41.651C21.1664 41.6173 21.0205 41.6115 20.8776 41.6339C20.7348 41.6564 20.5978 41.7066 20.4746 41.7817C20.3513 41.8568 20.2442 41.9553 20.1594 42.0716L17.6184 45.5351C17.5331 45.651 17.4717 45.7825 17.4378 45.922C17.4038 46.0615 17.398 46.2062 17.4206 46.348C17.4432 46.4897 17.4938 46.6257 17.5695 46.748C17.6452 46.8703 17.7445 46.9765 17.8617 47.0606C18.0483 47.1982 18.2746 47.2723 18.5071 47.2718C18.6809 47.2718 18.8523 47.2312 19.0073 47.1531C19.1623 47.0751 19.2965 46.9618 19.3991 46.8225L21.9402 43.3557C22.0255 43.2398 22.0869 43.1084 22.1209 42.9688C22.1548 42.8293 22.1606 42.6846 22.138 42.5428C22.1154 42.4011 22.0648 42.2651 21.9891 42.1428C21.9134 42.0205 21.8141 41.9143 21.6969 41.8302Z" fill="#00297C"/>
<path d="M30.4148 42.0716C30.3324 41.9491 30.226 41.8444 30.1019 41.7637C29.9777 41.683 29.8384 41.6281 29.6924 41.6022C29.5463 41.5762 29.3964 41.5799 29.2518 41.6128C29.1072 41.6458 28.9709 41.7074 28.8508 41.7939C28.7308 41.8805 28.6296 41.9902 28.5533 42.1165C28.4771 42.2428 28.4274 42.3831 28.4072 42.529C28.3869 42.6748 28.3965 42.8233 28.4355 42.9653C28.4745 43.1074 28.542 43.2402 28.634 43.3557L31.175 46.8225C31.2776 46.9617 31.4119 47.075 31.5669 47.1531C31.7219 47.2311 31.8933 47.2718 32.0671 47.2718C32.3007 47.2727 32.5283 47.1986 32.7159 47.0605C32.9513 46.8896 33.1087 46.633 33.1537 46.347C33.1987 46.061 33.1275 45.769 32.9558 45.535L30.4148 42.0716Z" fill="#00297C"/>
</svg>
