<svg width="61" height="60" viewBox="0 0 61 60" fill="none" xmlns="http://www.w3.org/2000/svg">
<path d="M51.2847 11.3118C51.2607 11.2775 51.2325 11.2462 51.2007 11.2189C50.4042 10.3382 49.5527 9.50887 48.6513 8.73593C48.5597 8.65717 48.4536 8.59722 48.3388 8.55949C48.2241 8.52176 48.103 8.50703 47.9825 8.51608C47.8621 8.52513 47.7446 8.55775 47.6367 8.6122C47.5289 8.66665 47.4329 8.74181 47.3541 8.83337C47.2753 8.92493 47.2154 9.0311 47.1776 9.14583C47.1399 9.26056 47.1251 9.38164 47.1342 9.50207C47.1433 9.6225 47.176 9.73997 47.2304 9.84777C47.2849 9.95557 47.36 10.0515 47.4516 10.1303C48.0094 10.6071 48.5403 11.1109 49.0502 11.6296C47.8721 12.2073 46.6579 12.7081 45.4151 13.129C45.2104 13.2002 45.0375 13.3416 44.927 13.5281C44.8166 13.7145 44.7757 13.934 44.8116 14.1477C44.8476 14.3614 44.9579 14.5555 45.1233 14.6956C45.2886 14.8357 45.4983 14.9129 45.715 14.9133C45.8172 14.9139 45.9187 14.8966 46.015 14.8622C47.5048 14.3569 48.9545 13.7405 50.3519 13.0181C51.6874 14.5828 52.8331 16.3 53.7651 18.1339C53.4467 18.4955 53.2062 18.9188 53.0586 19.3775C52.911 19.8361 52.8596 20.3202 52.9073 20.7997L48.5913 22.407C48.3891 22.4818 48.2197 22.6253 48.1128 22.8124C48.0058 22.9996 47.9682 23.2184 48.0065 23.4306C48.0447 23.6427 48.1565 23.8345 48.3221 23.9725C48.4878 24.1105 48.6967 24.1858 48.9123 24.1852C49.0221 24.1859 49.1311 24.1656 49.2332 24.1252L53.5462 22.5209C53.9985 23.1554 54.6473 23.6231 55.3922 23.8519C56.1372 24.0806 56.9367 24.0576 57.6672 23.7864C58.5234 23.4511 59.2156 22.7962 59.5976 21.9599C59.9795 21.1237 60.0212 20.1717 59.7139 19.3052C59.4066 18.4388 58.7744 17.7258 57.9508 17.3169C57.1272 16.908 56.1769 16.8353 55.3008 17.1143C54.2167 15.0158 52.8669 13.0656 51.2847 11.3118ZM56.4345 18.7605C56.8299 18.7672 57.2108 18.9106 57.5123 19.1665C57.8137 19.4224 58.0171 19.7748 58.0879 20.1638C58.1586 20.5528 58.0923 20.9543 57.9002 21.2998C57.7081 21.6454 57.4021 21.9137 57.0344 22.0591C56.6096 22.2164 56.1397 22.1991 55.7276 22.0108C55.3156 21.8225 54.9949 21.4787 54.8359 21.0546C54.6777 20.6299 54.6947 20.1597 54.8831 19.7476C55.0715 19.3354 55.416 19.0149 55.8407 18.8565C56.0314 18.7898 56.2325 18.7573 56.4345 18.7605Z" fill="white"/>
<path d="M36.5249 24.773C36.6572 24.8456 36.8057 24.8838 36.9567 24.884C37.1226 24.8833 37.2852 24.8381 37.4276 24.7532C37.5701 24.6683 37.6872 24.5467 37.7666 24.4011L39.9441 20.3469C40.784 20.5468 41.6679 20.4346 42.4311 20.031C43.1943 19.6275 43.7847 18.9601 44.0921 18.1535C44.3995 17.3469 44.4031 16.4561 44.1021 15.6471C43.801 14.8381 43.2159 14.1661 42.456 13.7565C41.696 13.3469 40.8129 13.2277 39.9715 13.421C39.1301 13.6143 38.3877 14.107 37.8827 14.8071C37.3778 15.5073 37.1448 16.3672 37.2272 17.2265C37.3095 18.0857 37.7017 18.8857 38.3304 19.4773L36.1499 23.5315C36.0927 23.6376 36.057 23.7539 36.0449 23.8738C36.0327 23.9937 36.0444 24.1148 36.0793 24.2302C36.1141 24.3455 36.1714 24.4529 36.2479 24.546C36.3244 24.6392 36.4185 24.7163 36.5249 24.773ZM39.2543 16.0917C39.36 15.894 39.5037 15.7192 39.6771 15.5772C39.8506 15.4351 40.0503 15.3287 40.265 15.264C40.4257 15.2167 40.5924 15.1924 40.7599 15.1921C41.1712 15.19 41.5695 15.3365 41.8814 15.6047C42.1932 15.8729 42.3977 16.2446 42.4572 16.6515C42.5167 17.0585 42.4272 17.4731 42.2052 17.8193C41.9831 18.1655 41.6435 18.4199 41.2488 18.5356C40.9253 18.6331 40.5801 18.6325 40.257 18.5337C39.9339 18.4349 39.6474 18.2425 39.4338 17.9808C39.2202 17.719 39.0891 17.3998 39.0571 17.0635C39.0252 16.7272 39.0938 16.389 39.2543 16.0917Z" fill="white"/>
<path d="M24.3807 34.5785C24.3095 34.4815 24.2199 34.3996 24.1169 34.3372C24.014 34.2749 23.8998 34.2335 23.7808 34.2154C23.6618 34.1973 23.5404 34.2029 23.4236 34.2318C23.3068 34.2606 23.1968 34.3122 23.0999 34.3837L21.5523 35.5172C20.9366 35.0351 20.1784 34.7706 19.3964 34.7652C18.6143 34.7597 17.8526 35.0136 17.2303 35.4872C16.7027 35.8861 16.2973 36.4246 16.0599 37.0418C15.8225 37.659 15.7625 38.3303 15.8868 38.9798C16.011 39.6293 16.3145 40.2312 16.7629 40.7172C17.2114 41.2033 17.7869 41.5543 18.4244 41.7305C19.062 41.9066 19.736 41.901 20.3705 41.7141C21.005 41.5273 21.5746 41.1668 22.0148 40.6732C22.455 40.1797 22.7483 39.5729 22.8617 38.9214C22.975 38.2699 22.9038 37.5997 22.656 36.9865L24.1827 35.868C24.281 35.7967 24.3641 35.7067 24.4272 35.6031C24.4904 35.4996 24.5324 35.3845 24.5509 35.2646C24.5693 35.1447 24.5637 35.0223 24.5344 34.9046C24.5052 34.7868 24.453 34.676 24.3807 34.5785ZM21.0664 38.5369C21.0291 38.8158 20.9235 39.0812 20.759 39.3095C20.5944 39.5379 20.3761 39.7221 20.1232 39.8457C19.8704 39.9694 19.5909 40.0288 19.3096 40.0185C19.0283 40.0083 18.7539 39.9287 18.5107 39.7869C18.2675 39.6452 18.0631 39.4456 17.9157 39.206C17.7682 38.9663 17.6822 38.6938 17.6653 38.4129C17.6484 38.132 17.7012 37.8513 17.8189 37.5956C17.9366 37.34 18.1156 37.1174 18.34 36.9476C18.6346 36.7198 18.9964 36.5964 19.3688 36.5967C19.4471 36.5967 19.5253 36.6027 19.6027 36.6147C19.8254 36.6436 20.04 36.7167 20.2342 36.8294C20.4283 36.9421 20.598 37.0924 20.7335 37.2714C20.8694 37.4501 20.9688 37.6539 21.0259 37.871C21.083 38.0882 21.0967 38.3144 21.0664 38.5369Z" fill="white"/>
<path d="M60.3097 39.5117C60.1598 39.07 59.9235 38.6624 59.6145 38.3129C59.3055 37.9633 58.9301 37.6787 58.5101 37.4756C58.1828 37.3124 57.8314 37.203 57.4694 37.1517C58.1003 34.7976 58.4189 32.3709 58.4171 29.9338C58.4165 28.6863 58.3344 27.4402 58.1712 26.2034C58.1553 26.0839 58.1159 25.9687 58.0554 25.8644C57.9949 25.76 57.9145 25.6687 57.8187 25.5955C57.7228 25.5222 57.6136 25.4685 57.497 25.4375C57.3805 25.4065 57.259 25.3988 57.1394 25.4148C57.0199 25.4307 56.9046 25.4701 56.8003 25.5305C56.696 25.591 56.6046 25.6714 56.5314 25.7672C56.4581 25.863 56.4044 25.9722 56.3734 26.0888C56.3424 26.2053 56.3347 26.3268 56.3506 26.4463C56.4646 27.292 56.5366 28.1526 56.5666 29.0162H45.0582C45.0218 26.7327 44.8375 24.4539 44.5064 22.1942C44.5046 22.0634 44.4748 21.9345 44.4191 21.8161C44.3634 21.6978 44.283 21.5926 44.1833 21.5079C44.0837 21.4231 43.967 21.3607 43.8412 21.3247C43.7154 21.2887 43.5834 21.28 43.454 21.2992C43.3246 21.3184 43.2008 21.3651 43.0909 21.436C42.981 21.507 42.8875 21.6006 42.8167 21.7106C42.746 21.8206 42.6995 21.9445 42.6806 22.0739C42.6616 22.2033 42.6706 22.3353 42.7068 22.461C43.0217 24.6326 43.196 26.8222 43.2287 29.0162H31.4924V17.2552C32.6381 17.2372 33.7809 17.1833 34.9026 17.0934C35.0237 17.085 35.1419 17.0526 35.2504 16.9982C35.3588 16.9438 35.4554 16.8685 35.5345 16.7765C35.6137 16.6846 35.6738 16.5778 35.7115 16.4624C35.7491 16.3471 35.7635 16.2254 35.7538 16.1044C35.7441 15.9835 35.7104 15.8657 35.6549 15.7579C35.5993 15.65 35.5229 15.5542 35.4301 15.4761C35.3373 15.3979 35.2299 15.3389 35.1141 15.3026C34.9983 15.2662 34.8765 15.2531 34.7556 15.2641C33.6819 15.3511 32.5901 15.4021 31.4924 15.4201V3.99197C34.3987 4.43278 37.1491 6.95171 39.3206 11.2099C39.3717 11.3229 39.4451 11.4244 39.5365 11.5083C39.628 11.5921 39.7354 11.6566 39.8525 11.6978C39.9695 11.7389 40.0938 11.7559 40.2176 11.7478C40.3414 11.7396 40.4622 11.7064 40.5728 11.6502C40.6834 11.594 40.7815 11.5159 40.8611 11.4207C40.9407 11.3256 41.0001 11.2153 41.0359 11.0965C41.0716 10.9777 41.0829 10.8529 41.069 10.7296C41.0552 10.6063 41.0164 10.4871 40.9552 10.3792C39.7225 7.96227 38.2978 6.04015 36.7381 4.65175C39.1984 5.24961 41.5579 6.20431 43.7416 7.48551L42.5628 8.36111C42.4086 8.47649 42.2946 8.63747 42.2369 8.82123C42.1793 9.005 42.181 9.20226 42.2417 9.38503C42.3024 9.5678 42.4191 9.72682 42.5752 9.83959C42.7314 9.95237 42.919 10.0132 43.1117 10.0134C43.3088 10.0138 43.5005 9.94954 43.6576 9.83044L47.3527 7.08365C47.8386 7.47223 48.4195 7.7238 49.0353 7.81232C49.208 7.83872 49.3825 7.85179 49.5572 7.85134C50.3152 7.85073 51.0531 7.6072 51.6625 7.1565C52.272 6.7058 52.7209 6.07162 52.9434 5.3471C53.1659 4.62258 53.1502 3.84584 52.8987 3.13087C52.6472 2.4159 52.1731 1.8004 51.546 1.37462C50.9188 0.948839 50.1718 0.735211 49.4143 0.765142C48.6569 0.795073 47.929 1.06694 47.3374 1.54088C46.7459 2.01482 46.3219 2.66587 46.1276 3.39845C45.9333 4.13103 45.979 4.90661 46.2579 5.61132L45.3252 6.30696C41.1271 3.68642 36.3067 2.23104 31.3595 2.09033C26.4124 1.94961 21.517 3.12866 17.1767 5.50633C17.6414 4.81195 17.8454 3.97554 17.7525 3.14522C17.6597 2.3149 17.2759 1.54428 16.6692 0.969693C16.0626 0.395105 15.2721 0.0536172 14.4379 0.00580217C13.6036 -0.0420129 12.7793 0.206892 12.1109 0.708404C11.3579 1.26988 10.8582 2.107 10.7216 3.03621C10.585 3.96542 10.8225 4.91088 11.3821 5.66527C11.713 6.10848 12.1429 6.46815 12.6377 6.71548C13.1324 6.96281 13.6783 7.09095 14.2314 7.08966C14.6762 7.09009 15.117 7.00559 15.5301 6.84074L18.2775 10.5352C18.4251 10.7236 18.6405 10.8469 18.8778 10.8787C19.1151 10.9106 19.3554 10.8485 19.5475 10.7057C19.7396 10.5629 19.8684 10.3508 19.9062 10.1144C19.9441 9.87808 19.8881 9.6363 19.7501 9.44067L18.0285 7.12861C20.0361 6.02443 22.1813 5.19158 24.408 4.65175C22.8274 6.05514 21.3848 8.01027 20.146 10.4692C19.5748 11.612 19.074 12.7887 18.6464 13.9927C16.3839 13.4335 14.1864 12.6385 12.0899 11.6207C12.7383 10.9643 13.4211 10.3426 14.1354 9.75848C14.3108 9.601 14.4189 9.38208 14.4372 9.14709C14.4555 8.91211 14.3827 8.67909 14.2338 8.49633C14.085 8.31356 13.8715 8.19513 13.6376 8.16549C13.4038 8.13584 13.1674 8.19725 12.9777 8.33709C11.8947 9.22303 10.8792 10.1883 9.93941 11.2249C9.91485 11.2494 9.89182 11.2755 9.87043 11.3029C8.22975 13.125 6.83516 15.1544 5.72237 17.3392C5.29423 17.1125 4.82413 16.9761 4.34113 16.9382C3.85812 16.9004 3.37249 16.962 2.91426 17.1193C2.45603 17.2766 2.03495 17.5262 1.67705 17.8527C1.31915 18.1792 1.03205 18.5756 0.833493 19.0174C0.634934 19.4593 0.529132 19.9372 0.522652 20.4215C0.516171 20.9059 0.609116 21.3864 0.795782 21.8334C0.982448 22.2804 1.25889 22.6843 1.60792 23.0202C1.95696 23.3561 2.37122 23.6169 2.82507 23.7864C3.55604 24.0579 4.35605 24.0811 5.1015 23.8523C5.84694 23.6236 6.4963 23.1557 6.94911 22.521L11.2621 24.1253C11.3642 24.1657 11.4732 24.186 11.583 24.1853C11.7984 24.1852 12.0067 24.1094 12.1718 23.9711C12.3369 23.8329 12.4481 23.6411 12.486 23.4292C12.5239 23.2172 12.4861 22.9987 12.3791 22.8118C12.2722 22.625 12.1029 22.4817 11.901 22.4071L7.58793 20.7997C7.64937 20.184 7.54585 19.563 7.288 19.0005C7.23701 18.8866 7.17701 18.7756 7.11702 18.6707C8.09851 16.6376 9.33849 14.7397 10.8062 13.0241C13.1171 14.1947 15.553 15.1 18.0675 15.7229C16.7951 20.037 16.1279 24.5067 16.085 29.0042H4.57061C4.59761 28.2366 4.65762 27.4688 4.7506 26.7162C4.77004 26.5945 4.76476 26.4701 4.73508 26.3505C4.7054 26.2309 4.65194 26.1185 4.57786 26.02C4.50378 25.9215 4.41062 25.839 4.30393 25.7772C4.19723 25.7155 4.07917 25.6759 3.95684 25.6608C3.83451 25.6457 3.71039 25.6554 3.59189 25.6892C3.47338 25.7231 3.36289 25.7806 3.26706 25.8581C3.17123 25.9356 3.09204 26.0316 3.03413 26.1404C2.97622 26.2492 2.94078 26.3685 2.93 26.4913C2.49266 30.0418 2.74012 33.6433 3.65889 37.1007C3.07575 37.0815 2.49681 37.2061 1.97324 37.4636C1.34562 37.774 0.824018 38.2633 0.474177 38.8697C0.124336 39.4762 -0.0380431 40.1725 0.00751264 40.8711C0.0530684 41.5697 0.304462 42.2392 0.730099 42.7951C1.15574 43.351 1.7365 43.7684 2.39912 43.9947C2.76724 44.1194 3.15323 44.1831 3.54187 44.1836C4.06518 44.183 4.58182 44.0665 5.0547 43.8424C5.52759 43.6183 5.94495 43.2923 6.27676 42.8877C6.60857 42.4832 6.84665 42.0101 6.97379 41.5026C7.10093 40.9951 7.114 40.4657 7.01209 39.9525L11.1421 37.9194C11.3542 37.8083 11.5144 37.6188 11.5887 37.3913C11.663 37.1638 11.6455 36.9163 11.5398 36.7016C11.4342 36.4868 11.2488 36.3218 11.0232 36.2417C10.7976 36.1617 10.5498 36.173 10.3323 36.2731L6.20229 38.3092C6.08192 38.1708 5.95051 38.0425 5.80936 37.9254C5.07001 35.6312 4.65308 33.2453 4.57061 30.8364H16.085C16.085 31.631 16.124 32.4288 16.172 33.2114C16.1863 33.4417 16.2868 33.6581 16.4535 33.8176C16.6203 33.9771 16.841 34.0679 17.0718 34.072H17.1257C17.2459 34.0651 17.3636 34.0346 17.4719 33.9822C17.5803 33.9297 17.6773 33.8564 17.7572 33.7664C17.8372 33.6764 17.8987 33.5715 17.938 33.4578C17.9774 33.344 17.9938 33.2236 17.9865 33.1034C17.9415 32.3568 17.9176 31.6041 17.9056 30.8394H29.6448V42.6033C26.3509 42.6535 23.0695 43.0211 19.8461 43.7009C19.8161 43.6079 19.7861 43.5179 19.7591 43.4249C19.6852 43.1967 19.5247 43.0065 19.3122 42.8951C19.0996 42.7836 18.8518 42.7598 18.6219 42.8289C18.3921 42.8979 18.1985 43.0542 18.0825 43.2643C17.9665 43.4743 17.9374 43.7215 18.0015 43.9527L18.0555 44.1207C15.5393 44.7479 13.1022 45.6583 10.7912 46.8345C10.1728 46.1148 9.59418 45.362 9.05763 44.5795C8.99181 44.4752 8.90557 44.3853 8.8042 44.315C8.70283 44.2448 8.58835 44.1957 8.46758 44.1707C8.34682 44.1457 8.22224 44.1453 8.10131 44.1695C7.98038 44.1937 7.86558 44.242 7.76374 44.3115C7.66191 44.3811 7.57515 44.4704 7.50863 44.5743C7.44211 44.6781 7.39721 44.7943 7.3766 44.9159C7.35599 45.0375 7.3601 45.1619 7.38868 45.2819C7.41727 45.4018 7.46975 45.5148 7.54297 45.614C8.25018 46.6446 9.02468 47.6273 9.86143 48.5558C9.8819 48.5811 9.90393 48.6051 9.9274 48.6277C11.4261 50.275 13.1133 51.7404 14.9542 52.9939C14.1287 52.8123 13.2654 52.9316 12.5201 53.3303C11.7748 53.7289 11.1965 54.3807 10.8894 55.1681C10.5824 55.9555 10.5669 56.8267 10.8457 57.6245C11.1245 58.4223 11.6792 59.0943 12.4099 59.5193C13.1405 59.9442 13.999 60.0942 14.8305 59.9421C15.662 59.7901 16.4117 59.3459 16.9446 58.6899C17.4774 58.0338 17.7583 57.209 17.7365 56.3642C17.7147 55.5194 17.3918 54.7101 16.8258 54.0824L19.3332 50.2231C19.404 50.1221 19.4538 50.008 19.4795 49.8874C19.5052 49.7668 19.5063 49.6423 19.4828 49.5213C19.4594 49.4002 19.4118 49.2852 19.3428 49.183C19.2739 49.0807 19.185 48.9935 19.0816 48.9264C18.9781 48.8592 18.8623 48.8137 18.7409 48.7923C18.6194 48.771 18.4949 48.7743 18.3747 48.8021C18.2546 48.8299 18.1413 48.8817 18.0416 48.9543C17.9419 49.0268 17.8579 49.1187 17.7946 49.2245L16.2319 51.6234C14.7367 50.6347 13.3476 49.4941 12.0869 48.2199C14.1809 47.2044 16.3753 46.4105 18.6344 45.8509C19.7951 49.0775 21.3068 51.8094 23.0554 53.8245C23.4797 54.3145 23.9356 54.7763 24.4201 55.2069C22.9215 54.8419 21.4581 54.3451 20.047 53.7225C19.9359 53.6662 19.8144 53.6331 19.69 53.6252C19.5656 53.6174 19.441 53.6349 19.3236 53.6768C19.2062 53.7187 19.0986 53.784 19.0073 53.8688C18.916 53.9536 18.843 54.0562 18.7926 54.1701C18.7423 54.2841 18.7156 54.4071 18.7144 54.5317C18.7131 54.6563 18.7372 54.7799 18.7853 54.8949C18.8334 55.0098 18.9043 55.1138 18.9939 55.2004C19.0834 55.2871 19.1897 55.3546 19.3062 55.3988C22.9994 57.0258 27.0015 57.8326 31.0368 57.7638C35.072 57.6949 39.0443 56.752 42.6798 55C42.7881 54.9476 42.885 54.8744 42.9651 54.7846C43.0451 54.6948 43.1066 54.5901 43.1462 54.4765C43.1857 54.3628 43.2025 54.2425 43.1956 54.1224C43.1886 54.0023 43.158 53.8848 43.1057 53.7765C43.0533 53.6682 42.9801 53.5713 42.8902 53.4913C42.8004 53.4113 42.6957 53.3498 42.582 53.3102C42.4684 53.2707 42.3481 53.2539 42.228 53.2609C42.1079 53.2678 41.9903 53.2983 41.882 53.3507C40.2313 54.1498 38.4999 54.77 36.7172 55.2009C38.3008 53.7975 39.7465 51.8393 40.9912 49.3744C41.5618 48.2313 42.0626 47.0546 42.4909 45.8509C44.7529 46.4115 46.9502 47.2064 49.0473 48.2229C47.9521 49.3274 46.7596 50.331 45.4842 51.2216L44.0655 49.4224C43.9928 49.3221 43.9005 49.2376 43.7943 49.174C43.688 49.1103 43.57 49.0688 43.4473 49.0519C43.3245 49.0351 43.1997 49.0432 43.0802 49.0759C42.9607 49.1086 42.8491 49.1651 42.7521 49.2421C42.655 49.3191 42.5746 49.4149 42.5155 49.5238C42.4565 49.6327 42.4201 49.7524 42.4086 49.8757C42.3971 49.999 42.4107 50.1234 42.4485 50.2413C42.4864 50.3592 42.5477 50.4683 42.6288 50.5619L45.4842 54.1603C45.1129 54.6587 44.8794 55.246 44.8072 55.8631C44.735 56.4803 44.8267 57.1056 45.0729 57.6761C45.3192 58.2466 45.7114 58.7423 46.21 59.1132C46.7087 59.4841 47.2962 59.7171 47.9136 59.7889C48.0519 59.8058 48.1912 59.8138 48.3305 59.8129C48.8565 59.8128 49.3759 59.6955 49.8509 59.4696C50.326 59.2438 50.7447 58.9149 51.0768 58.5071C51.4089 58.0992 51.646 57.6224 51.7708 57.1115C51.8956 56.6006 51.905 56.0684 51.7983 55.5534C51.6916 55.0384 51.4716 54.5536 51.1541 54.1342C50.8367 53.7148 50.4298 53.3714 49.963 53.1289C49.4962 52.8864 48.9813 52.7509 48.4556 52.7322C47.9299 52.7135 47.4067 52.8121 46.9238 53.0208L46.6239 52.643C48.292 51.4682 49.8259 50.1137 51.1979 48.6037L51.2128 48.5828C52.0453 47.6665 52.8159 46.6957 53.5193 45.677C53.6283 45.4782 53.6598 45.2462 53.6078 45.0256C53.5559 44.8049 53.424 44.6113 53.2378 44.4821C53.0515 44.3529 52.824 44.2971 52.5991 44.3256C52.3742 44.3541 52.1678 44.4648 52.0197 44.6364C51.5018 45.3866 50.9451 46.1092 50.352 46.8015C48.0416 45.6263 45.6057 44.7158 43.0907 44.0877C44.3606 39.7731 45.0267 35.3037 45.0702 30.8064H56.5846C56.5071 33.0368 56.1432 35.248 55.5018 37.3856C55.0426 37.597 54.6336 37.9036 54.3021 38.2852L50.169 36.2491C49.9516 36.149 49.7037 36.1378 49.4782 36.2178C49.2526 36.2979 49.0672 36.4628 48.9616 36.6776C48.8559 36.8923 48.8383 37.1399 48.9126 37.3674C48.9869 37.5949 49.1472 37.7843 49.3592 37.8954L53.4923 39.9285C53.3899 40.4415 53.4024 40.9708 53.5292 41.4784C53.6559 41.9859 53.8937 42.459 54.2253 42.8636C54.5569 43.2683 54.9741 43.5944 55.4469 43.8185C55.9197 44.0426 56.4363 44.1592 56.9595 44.1597C57.3491 44.1591 57.736 44.0953 58.1052 43.9707C58.9949 43.6671 59.7277 43.0229 60.1427 42.1796C60.5577 41.3362 60.621 40.3626 60.3187 39.4727L60.3097 39.5117ZM48.5254 2.92749C48.8187 2.70734 49.1755 2.58838 49.5422 2.5886C49.9013 2.58902 50.2511 2.70247 50.542 2.91285C50.833 3.12323 51.0504 3.41989 51.1632 3.7607C51.2761 4.10151 51.2787 4.46916 51.1708 4.81156C51.0628 5.15397 50.8499 5.45372 50.562 5.66827C50.3815 5.80302 50.1761 5.90084 49.9578 5.95614C49.7394 6.01144 49.5123 6.02314 49.2895 5.99055C49.0666 5.95796 48.8523 5.88174 48.6589 5.76623C48.4655 5.65072 48.2969 5.49823 48.1625 5.31745C47.8991 4.95188 47.7905 4.49721 47.8601 4.05208C47.9297 3.60694 48.172 3.20715 48.5344 2.93942L48.5254 2.92749ZM12.8517 4.56177C12.6629 4.30781 12.5483 4.00643 12.5207 3.69122C12.4932 3.37601 12.5537 3.05934 12.6955 2.77646C12.8372 2.49357 13.0547 2.25559 13.3238 2.08901C13.5929 1.92243 13.9029 1.83375 14.2194 1.83292C14.3037 1.83294 14.3879 1.83897 14.4713 1.85093C14.7509 1.89016 15.0165 1.998 15.2442 2.16486C15.472 2.33171 15.6548 2.55239 15.7765 2.80713C15.8981 3.06187 15.9548 3.3427 15.9414 3.62467C15.928 3.90664 15.845 4.18098 15.6997 4.42304C15.5545 4.6651 15.3515 4.86736 15.109 5.01187C14.8664 5.15638 14.5918 5.23864 14.3098 5.25119C14.0277 5.26375 13.7469 5.20623 13.4925 5.08383C13.2381 4.96144 13.0179 4.77796 12.8517 4.54976V4.56177ZM3.46089 22.0592C3.14399 21.9412 2.86921 21.7319 2.6713 21.4577C2.47339 21.1836 2.36124 20.857 2.34903 20.5191C2.33683 20.1812 2.42514 19.8473 2.60276 19.5596C2.78038 19.2719 3.03931 19.0433 3.34687 18.9028C3.65444 18.7622 3.99684 18.7161 4.33065 18.7701C4.66447 18.8241 4.97471 18.9759 5.22224 19.2062C5.46978 19.4366 5.64347 19.7351 5.72127 20.0641C5.79908 20.3931 5.77755 20.7379 5.6594 21.0546C5.50265 21.4788 5.18445 21.8238 4.77425 22.0142C4.36405 22.2047 3.89515 22.2251 3.46989 22.0712L3.46089 22.0592ZM15.6351 57.3779C15.4823 57.6134 15.2739 57.8077 15.0282 57.9436C14.7825 58.0794 14.5071 58.1528 14.2264 58.157C13.9456 58.1612 13.6682 58.0962 13.4186 57.9677C13.1689 57.8393 12.9547 57.6514 12.7949 57.4205C12.6351 57.1897 12.5347 56.9231 12.5024 56.6443C12.4702 56.3654 12.5071 56.0829 12.6099 55.8217C12.7128 55.5605 12.8785 55.3286 13.0922 55.1466C13.3059 54.9646 13.5612 54.8381 13.8355 54.7781C13.9526 54.7516 14.0723 54.7385 14.1924 54.7391C14.5214 54.7399 14.8433 54.8358 15.1192 55.015C15.4986 55.2622 15.7646 55.6496 15.8591 56.0924C15.9535 56.5353 15.8687 56.9975 15.6231 57.3779H15.6351ZM48.5284 54.6041C48.9684 54.6303 49.3809 54.8268 49.6784 55.1519C49.9758 55.477 50.1349 55.9052 50.1218 56.3457C50.1087 56.7861 49.9246 57.2042 49.6084 57.5111C49.2921 57.818 48.8687 57.9897 48.428 57.9897C47.9872 57.9897 47.5638 57.818 47.2476 57.5111C46.9313 57.2042 46.7472 56.7861 46.7341 56.3457C46.721 55.9052 46.8801 55.477 47.1776 55.1519C47.475 54.8268 47.8875 54.6303 48.3275 54.6041C48.4025 54.6041 48.4715 54.6101 48.5374 54.6161L48.5284 54.6041ZM21.7807 11.2878C23.9552 6.97271 26.7235 4.42377 29.6508 3.97997V15.4051C26.5546 15.3591 23.4696 15.0207 20.437 14.3945C20.8299 13.3386 21.2815 12.3054 21.7897 11.2999L21.7807 11.2878ZM4.28569 42.1745C4.08276 42.2901 3.8583 42.3629 3.62615 42.3884C3.39401 42.4139 3.15912 42.3915 2.93593 42.3227C2.71275 42.2539 2.50604 42.1402 2.32853 41.9884C2.15103 41.8367 2.00646 41.6502 1.90383 41.4404C1.80119 41.2307 1.74263 41.0022 1.73175 40.7689C1.72087 40.5357 1.75797 40.3027 1.84063 40.0843C1.92329 39.8659 2.04979 39.6668 2.2124 39.4992C2.375 39.3316 2.57023 39.1991 2.78604 39.1098C3.19261 38.9108 3.66159 38.8811 4.09004 39.0273C4.51849 39.1734 4.87147 39.4835 5.07155 39.8895C5.17205 40.0909 5.23167 40.3104 5.24699 40.535C5.26232 40.7596 5.23302 40.9849 5.16081 41.1982C5.0886 41.4114 4.97489 41.6083 4.82624 41.7774C4.6776 41.9465 4.49694 42.0845 4.2947 42.1835L4.28569 42.1745ZM17.9085 29.0072C17.9506 24.6504 18.6039 20.3211 19.8491 16.1457C23.0733 16.827 26.3558 17.1946 29.6508 17.2433V29.0072H17.9085ZM20.44 45.4491C23.4718 44.8243 26.5556 44.486 29.6508 44.4385V55.8696C26.0487 55.3178 22.6595 51.4765 20.449 45.4581L20.44 45.4491ZM39.3595 48.5558C37.182 52.8709 34.4137 55.4228 31.4864 55.8666V44.4385C34.5825 44.486 37.6675 44.8243 40.7003 45.4491C40.3137 46.5112 39.869 47.5513 39.3685 48.5648L39.3595 48.5558ZM41.2881 43.7009C38.0635 43.0225 34.7812 42.655 31.4864 42.6033V30.8544H43.2287C43.1889 35.2087 42.5387 39.536 41.2971 43.7099L41.2881 43.7009ZM58.4861 41.3978C58.3877 41.5994 58.2503 41.7796 58.082 41.9279C57.9136 42.0762 57.7175 42.1897 57.5051 42.2619C57.2927 42.3341 57.0681 42.3635 56.8442 42.3485C56.6203 42.3335 56.4016 42.2744 56.2007 42.1745C55.8539 42.0047 55.575 41.7224 55.4095 41.3737C55.2439 41.0249 55.2016 40.6303 55.2893 40.2544C55.377 39.8785 55.5897 39.5435 55.8925 39.304C56.1953 39.0645 56.5704 38.9347 56.9565 38.9359C57.3133 38.9353 57.6611 39.0467 57.9512 39.2544C58.2412 39.462 58.4588 39.7556 58.5731 40.0934C58.6503 40.3056 58.6846 40.531 58.6738 40.7565C58.663 40.982 58.6073 41.203 58.5101 41.4068L58.4861 41.3978Z" fill="white"/>
</svg>
