<svg width="65" height="60" viewBox="0 0 65 60" fill="none" xmlns="http://www.w3.org/2000/svg">
<path d="M55.1579 36.1254C49.3503 30.2871 41.5201 26.9046 33.2875 26.6777V13.7999H37.5097V16.4769C37.5096 16.7325 37.6099 16.978 37.7889 17.1606C37.9679 17.3432 38.2114 17.4482 38.4671 17.4533H54.9473C55.2063 17.4533 55.4547 17.3504 55.6378 17.1673C55.821 16.9842 55.9238 16.7358 55.9238 16.4769V4.62975C55.923 4.37135 55.8197 4.12385 55.6367 3.94144C55.4536 3.75902 55.2057 3.65656 54.9473 3.65656H50.3612V0.976381C50.3612 0.717434 50.2584 0.469069 50.0752 0.285966C49.8921 0.102862 49.6437 0 49.3848 0H32.3109C32.0519 0 31.8036 0.102862 31.6204 0.285966C31.4373 0.469069 31.3344 0.717434 31.3344 0.976381V26.6777C22.938 26.9315 14.9706 30.4448 9.1214 36.4728C3.27219 42.5007 0.00107727 50.5693 0.00159628 58.9678C-0.00600045 59.1005 0.0135727 59.2334 0.0591358 59.3583C0.104699 59.4831 0.175303 59.5974 0.266582 59.694C0.357861 59.7906 0.46792 59.8676 0.590003 59.9202C0.712087 59.9728 0.843631 60 0.976574 60C1.10952 60 1.24106 59.9728 1.36314 59.9202C1.48523 59.8676 1.59529 59.7906 1.68657 59.694C1.77785 59.5974 1.84841 59.4831 1.89397 59.3583C1.93954 59.2334 1.95911 59.1005 1.95151 58.9678C1.95138 57.6953 2.03025 56.4241 2.18767 55.1613H15.6488C15.5723 56.4163 15.5329 57.6852 15.5308 58.9678C15.5308 59.2268 15.6337 59.4752 15.8168 59.6583C15.9999 59.8414 16.2483 59.9442 16.5073 59.9442C16.7663 59.9442 17.0147 59.8414 17.1979 59.6583C17.381 59.4752 17.4839 59.2268 17.4839 58.9678C17.4839 57.6916 17.5232 56.4227 17.602 55.1613H31.3248V58.9678C31.3248 59.2268 31.4277 59.4752 31.6108 59.6583C31.794 59.8414 32.0424 59.9442 32.3014 59.9442C32.5604 59.9442 32.8088 59.8414 32.9919 59.6583C33.175 59.4752 33.2779 59.2268 33.2779 58.9678V55.1613H47.0008C47.0774 56.4153 47.122 57.6852 47.122 58.9678C47.1145 59.1005 47.1341 59.2334 47.1796 59.3583C47.2252 59.4831 47.2958 59.5974 47.387 59.694C47.4783 59.7906 47.5884 59.8676 47.7105 59.9202C47.8325 59.9728 47.964 60 48.097 60C48.2299 60 48.3615 59.9728 48.4836 59.9202C48.6057 59.8676 48.7157 59.7906 48.807 59.694C48.8983 59.5974 48.9689 59.4831 49.0144 59.3583C49.06 59.2334 49.0796 59.1005 49.072 58.9678C49.072 57.6916 49.0326 56.4227 48.9539 55.1613H62.415C62.5724 56.4241 62.6513 57.6953 62.6512 58.9678C62.6512 59.0961 62.6764 59.223 62.7255 59.3414C62.7746 59.4599 62.8465 59.5676 62.9372 59.6583C63.0279 59.7489 63.1356 59.8208 63.2541 59.8698C63.3726 59.9189 63.4995 59.9442 63.6278 59.9442C63.756 59.9442 63.883 59.9189 64.0015 59.8698C64.12 59.8208 64.2276 59.7489 64.3183 59.6583C64.409 59.5676 64.4809 59.4599 64.53 59.3414C64.5791 59.223 64.6043 59.0961 64.6043 58.9678C64.6178 54.7251 63.7899 50.5218 62.1685 46.6011C60.5471 42.6803 58.1642 39.1197 55.1579 36.1254ZM53.9675 37.6984C51.4643 38.9234 48.8365 39.8755 46.1295 40.5382C45.6236 39.1158 45.0321 37.7253 44.3583 36.3743C42.8424 33.3718 41.0712 31.0171 39.1277 29.3802C44.6808 30.6504 49.7607 33.4669 53.7793 37.5038L53.9675 37.6984ZM31.3344 28.6878V42.1782C27.6621 42.1265 24.0032 41.7248 20.4072 40.9785C20.8662 39.7073 21.399 38.464 22.0029 37.2549C24.5783 32.1498 27.859 29.1632 31.3344 28.6878ZM33.2875 28.6878C36.7629 29.1632 40.0436 32.1562 42.6158 37.2549C43.2197 38.464 43.7525 39.7073 44.2115 40.9785C40.6156 41.7248 36.9566 42.1265 33.2843 42.1782L33.2875 28.6878ZM53.9867 5.60613V15.4974H39.4596V13.7967H49.3848C49.6437 13.7967 49.8921 13.6938 50.0752 13.5107C50.2584 13.3276 50.3612 13.0793 50.3612 12.8203V5.60294L53.9867 5.60613ZM33.2875 1.95276H48.4082V11.844H33.2875V1.95276ZM25.4942 29.393C23.5506 31.0299 21.7794 33.3846 20.2635 36.3871C19.5895 37.7375 18.999 39.1281 18.4956 40.551C15.7874 39.8888 13.1584 38.9367 10.6544 37.7112L10.8426 37.5166C14.8596 33.4751 19.9396 30.654 25.4942 29.3802V29.393ZM2.49407 53.2086C3.48309 48.013 5.82564 43.1703 9.28525 39.1694C12.0159 40.5638 14.8973 41.6408 17.8732 42.3793C16.8115 45.9051 16.1153 49.5307 15.7956 53.199L2.49407 53.2086ZM17.7551 53.2086C18.0703 49.6894 18.7483 46.2121 19.7785 42.8323C23.5788 43.6403 27.4494 44.0731 31.3344 44.1246V53.2086H17.7551ZM33.2875 53.2086V44.1246C37.1725 44.0731 41.043 43.6403 44.8434 42.8323C45.8736 46.2121 46.5516 49.6894 46.8667 53.2086H33.2875ZM48.8263 53.2086C48.5081 49.5401 47.8119 45.9143 46.7487 42.3888C49.7261 41.6476 52.6086 40.5673 55.3398 39.1694C58.7994 43.1703 61.142 48.013 62.131 53.2086H48.8263Z" fill="white"/>
</svg>
