<svg width="120" height="120" viewBox="0 0 120 120" fill="none" xmlns="http://www.w3.org/2000/svg">
<g filter="url(#filter0_d)">
<path d="M102.161 6H17.8755C15.7975 6.00284 13.8054 6.832 12.336 8.30579C10.8666 9.77958 10.0397 11.7777 10.0369 13.8619V74.0995C9.9877 74.3255 9.9877 74.5593 10.0369 74.7853V79.3353C10.0397 81.4195 10.8666 83.4176 12.336 84.8914C13.8054 86.3652 15.7975 87.1945 17.8755 87.1973H49.9089V93.0924C49.9061 95.6799 48.8801 98.1605 47.0559 99.9901C45.2318 101.82 42.7585 102.849 40.1787 102.852H32.4682C32.2546 102.839 32.0405 102.87 31.8394 102.944C31.6383 103.017 31.4545 103.131 31.2988 103.278C31.1431 103.426 31.0191 103.603 30.9343 103.8C30.8496 103.997 30.8057 104.21 30.8057 104.424C30.8057 104.639 30.8496 104.852 30.9343 105.049C31.0191 105.246 31.1431 105.423 31.2988 105.571C31.4545 105.718 31.6383 105.832 31.8394 105.905C32.0405 105.978 32.2546 106.01 32.4682 105.997H87.8518C88.2519 105.974 88.628 105.798 88.903 105.506C89.178 105.213 89.3314 104.826 89.3314 104.424C89.3314 104.023 89.178 103.636 88.903 103.343C88.628 103.051 88.2519 102.875 87.8518 102.852H80.4888C77.909 102.849 75.4358 101.82 73.6116 99.9901C71.7874 98.1605 70.7614 95.6799 70.7586 93.0924V87.1973H102.161C104.239 87.1945 106.231 86.3652 107.701 84.8914C109.17 83.4176 109.997 81.4195 110 79.3353V13.8619C109.997 11.7777 109.17 9.77958 107.701 8.30579C106.231 6.832 104.239 6.00284 102.161 6ZM17.8755 9.14579H102.161C103.408 9.1472 104.603 9.64463 105.485 10.5288C106.366 11.4129 106.862 12.6116 106.863 13.8619V72.8722H13.1735V13.8619C13.1749 12.6116 13.6709 11.4129 14.5524 10.5288C15.4339 9.64463 16.6289 9.1472 17.8755 9.14579ZM72.0623 102.846H48.5517C49.9534 101.638 51.0783 100.141 51.8493 98.4565C52.6203 96.7721 53.0191 94.9405 53.0186 93.0871V87.192H67.5954V93.0871C67.5949 94.9405 67.9938 96.7721 68.7648 98.4565C69.5358 100.141 70.6607 101.638 72.0623 102.846ZM102.14 84.0514H17.8755C16.6289 84.05 15.4339 83.5527 14.5524 82.6686C13.6709 81.7844 13.1749 80.5856 13.1735 79.3353V76.0126H106.863V79.3353C106.862 80.5856 106.366 81.7844 105.485 82.6686C104.603 83.5527 103.408 84.05 102.161 84.0514H102.14Z" fill="url(#paint0_linear)"/>
<path d="M80.4085 29.3709C80.2416 29.5525 80.1185 29.7703 80.049 30.0073C79.9795 30.2443 79.9654 30.4941 80.0078 30.7375L82.8504 46.1399C82.9036 46.4238 83.0341 46.6875 83.2271 46.9019C83.4202 47.1163 83.6684 47.2731 83.9446 47.3551C84.2208 47.4371 84.5142 47.4411 84.7926 47.3666C85.0709 47.2922 85.3233 47.1421 85.522 46.933L88.7654 43.4764L95.5782 49.8164C95.8858 50.0915 96.2873 50.2373 96.6993 50.2233C97.1112 50.2093 97.502 50.0366 97.7904 49.7413L101.878 45.3789C102.021 45.2284 102.132 45.0509 102.205 44.8569C102.279 44.6628 102.313 44.456 102.306 44.2485C102.299 44.041 102.251 43.837 102.165 43.6483C102.079 43.4596 101.956 43.2901 101.803 43.1495L95.0065 36.8256L98.1859 33.4332C98.3853 33.2229 98.5219 32.9609 98.5804 32.6768C98.639 32.3927 98.6169 32.0977 98.517 31.8254C98.4192 31.5516 98.2477 31.3104 98.0213 31.1287C97.7949 30.947 97.5225 30.8321 97.2347 30.7965L81.7389 28.8886C81.4951 28.8615 81.2484 28.8909 81.0178 28.9745C80.7871 29.0582 80.5787 29.1937 80.4085 29.3709ZM93.7936 33.5404L91.6562 35.8234C91.5137 35.9739 91.4023 36.1514 91.3288 36.3454C91.2553 36.5395 91.2211 36.7464 91.2281 36.9538C91.235 37.1613 91.2831 37.3653 91.3695 37.554C91.4558 37.7427 91.5788 37.9123 91.7311 38.0529L98.5332 44.3767L96.5881 46.4508L89.7701 40.1108C89.4815 39.837 89.0987 39.6854 88.7015 39.6874C88.4869 39.6871 88.2746 39.7313 88.0779 39.817C87.8811 39.9028 87.7041 40.0284 87.5579 40.1859L85.3671 42.517L83.481 32.2703L93.7936 33.5404Z" fill="url(#paint1_linear)"/>
<path d="M34.8293 29.2317H44.5385C44.9542 29.2317 45.3529 29.0665 45.6473 28.7722C45.9418 28.4778 46.108 28.0784 46.1094 27.6615V26.0912C46.086 25.69 45.9104 25.3128 45.6189 25.0369C45.3273 24.7611 44.9419 24.6075 44.5411 24.6075C44.1403 24.6075 43.7545 24.7611 43.463 25.0369C43.1715 25.3128 42.9961 25.69 42.9728 26.0912H36.395V19.5101H39.1416C39.5568 19.5101 39.955 19.3447 40.2486 19.0502C40.5422 18.7557 40.707 18.3564 40.707 17.9399C40.707 17.5235 40.5422 17.1241 40.2486 16.8296C39.955 16.5351 39.5568 16.3696 39.1416 16.3696H34.8293C34.4136 16.3696 34.0149 16.5349 33.7205 16.8292C33.426 17.1235 33.2598 17.523 33.2584 17.9399V27.6829C33.2654 28.0961 33.4342 28.49 33.7281 28.7797C34.0219 29.0695 34.4173 29.2317 34.8293 29.2317Z" fill="url(#paint2_linear)"/>
<path d="M40.4294 21.2357C40.1105 20.9685 39.6989 20.8392 39.285 20.8764C38.8712 20.9136 38.4891 21.1142 38.2226 21.434C37.9562 21.7538 37.8273 22.1667 37.8644 22.5818C37.9015 22.9968 38.1015 23.3801 38.4204 23.6473L39.6868 24.7192C39.9703 24.9523 40.3248 25.0808 40.6913 25.0836C40.8977 25.084 41.1022 25.0436 41.293 24.9645C41.4837 24.8854 41.657 24.7692 41.8028 24.6227L48.4713 17.9291C48.6169 17.7834 48.7323 17.6103 48.8113 17.4199C48.8902 17.2294 48.931 17.0252 48.9313 16.8189C48.9315 16.6126 48.8913 16.4084 48.8128 16.2177C48.7344 16.027 48.6192 15.8537 48.4739 15.7077C48.3287 15.5617 48.1561 15.4458 47.9662 15.3666C47.7763 15.2874 47.5728 15.2465 47.3672 15.2462C47.1615 15.246 46.9577 15.2864 46.7676 15.3652C46.5775 15.4439 46.4047 15.5593 46.2591 15.7049L40.6005 21.3804L40.4294 21.2357Z" fill="url(#paint3_linear)"/>
<path d="M55.0383 19.6277H84.09C84.4901 19.6042 84.8662 19.4284 85.1412 19.136C85.4162 18.8436 85.5696 18.4567 85.5696 18.0547C85.5696 17.6527 85.4162 17.266 85.1412 16.9736C84.8662 16.6812 84.4901 16.5053 84.09 16.4819H55.0383C54.6382 16.5053 54.2621 16.6812 53.9871 16.9736C53.7121 17.266 53.559 17.6527 53.559 18.0547C53.559 18.4567 53.7121 18.8436 53.9871 19.136C54.2621 19.4284 54.6382 19.6042 55.0383 19.6277Z" fill="url(#paint4_linear)"/>
<path d="M55.0381 26.5414H75.3108C75.726 26.5414 76.1242 26.3759 76.4178 26.0814C76.7114 25.7869 76.8762 25.3875 76.8762 24.9711C76.8762 24.5546 76.7114 24.1552 76.4178 23.8608C76.1242 23.5663 75.726 23.4009 75.3108 23.4009H55.0381C54.6229 23.4009 54.2247 23.5663 53.9311 23.8608C53.6375 24.1552 53.4724 24.5546 53.4724 24.9711C53.4724 25.3875 53.6375 25.7869 53.9311 26.0814C54.2247 26.3759 54.6229 26.5414 55.0381 26.5414Z" fill="url(#paint5_linear)"/>
<path d="M34.8293 66.5749H44.5385C44.9551 66.5749 45.3545 66.4089 45.6491 66.1134C45.9437 65.8179 46.1094 65.4171 46.1094 64.9992V55.2615C46.1094 54.8437 45.9437 54.4429 45.6491 54.1474C45.3545 53.8519 44.9551 53.686 44.5385 53.686H34.8293C34.4127 53.686 34.0133 53.8519 33.7187 54.1474C33.4241 54.4429 33.2584 54.8437 33.2584 55.2615V64.9992C33.2584 65.4171 33.4241 65.8179 33.7187 66.1134C34.0133 66.4089 34.4127 66.5749 34.8293 66.5749ZM36.395 56.8317H42.9728V63.4558H36.395V56.8317Z" fill="url(#paint6_linear)"/>
<path d="M55.0383 57.1478H84.09C84.4901 57.1244 84.8662 56.9486 85.1412 56.6562C85.4162 56.3637 85.5696 55.9769 85.5696 55.5749C85.5696 55.1729 85.4162 54.7862 85.1412 54.4938C84.8662 54.2013 84.4901 54.0255 84.09 54.0021H55.0383C54.6382 54.0255 54.2621 54.2013 53.9871 54.4938C53.7121 54.7862 53.559 55.1729 53.559 55.5749C53.559 55.9769 53.7121 56.3637 53.9871 56.6562C54.2621 56.9486 54.6382 57.1244 55.0383 57.1478Z" fill="url(#paint7_linear)"/>
<path d="M55.0383 64.0668H75.311C75.7111 64.0434 76.0872 63.8675 76.3622 63.5751C76.6372 63.2827 76.7903 62.8959 76.7903 62.494C76.7903 62.092 76.6372 61.7051 76.3622 61.4127C76.0872 61.1203 75.7111 60.9444 75.311 60.921H55.0383C54.6382 60.9444 54.2621 61.1203 53.9871 61.4127C53.7121 61.7051 53.559 62.092 53.559 62.494C53.559 62.8959 53.7121 63.2827 53.9871 63.5751C54.2621 63.8675 54.6382 64.0434 55.0383 64.0668Z" fill="url(#paint8_linear)"/>
<path d="M34.8293 47.9464H44.5385C44.9542 47.9464 45.3529 47.7811 45.6473 47.4868C45.9418 47.1925 46.108 46.793 46.1094 46.3761V36.6599C46.108 36.243 45.9418 35.8435 45.6473 35.5492C45.3529 35.2549 44.9542 35.0897 44.5385 35.0897H34.8293C34.4136 35.0897 34.0149 35.2549 33.7205 35.5492C33.426 35.8435 33.2598 36.243 33.2584 36.6599V46.4029C33.2668 46.8152 33.4362 47.2078 33.7299 47.4964C34.0236 47.7849 34.4182 47.9465 34.8293 47.9464ZM36.395 38.2087H42.9728V44.8005H36.395V38.2087Z" fill="url(#paint9_linear)"/>
<path d="M55.0383 38.4927H75.311C75.7111 38.4693 76.0872 38.2934 76.3622 38.001C76.6372 37.7086 76.7903 37.3219 76.7903 36.9199C76.7903 36.5179 76.6372 36.131 76.3622 35.8386C76.0872 35.5462 75.7111 35.3704 75.311 35.3469H55.0383C54.6382 35.3704 54.2621 35.5462 53.9871 35.8386C53.7121 36.131 53.559 36.5179 53.559 36.9199C53.559 37.3219 53.7121 37.7086 53.9871 38.001C54.2621 38.2934 54.6382 38.4693 55.0383 38.4927Z" fill="url(#paint10_linear)"/>
<path d="M55.0383 45.4111H75.311C75.7111 45.3876 76.0872 45.2117 76.3622 44.9192C76.6372 44.6268 76.7903 44.2401 76.7903 43.8381C76.7903 43.4361 76.6372 43.0494 76.3622 42.757C76.0872 42.4646 75.7111 42.2886 75.311 42.2652H55.0383C54.6382 42.2886 54.2621 42.4646 53.9871 42.757C53.7121 43.0494 53.559 43.4361 53.559 43.8381C53.559 44.2401 53.7121 44.6268 53.9871 44.9192C54.2621 45.2117 54.6382 45.3876 55.0383 45.4111Z" fill="url(#paint11_linear)"/>
</g>
<defs>
<filter id="filter0_d" x="0" y="0" width="120" height="120" filterUnits="userSpaceOnUse" color-interpolation-filters="sRGB">
<feFlood flood-opacity="0" result="BackgroundImageFix"/>
<feColorMatrix in="SourceAlpha" type="matrix" values="0 0 0 0 0 0 0 0 0 0 0 0 0 0 0 0 0 0 127 0"/>
<feOffset dy="4"/>
<feGaussianBlur stdDeviation="5"/>
<feColorMatrix type="matrix" values="0 0 0 0 0.333333 0 0 0 0 0.678431 0 0 0 0 1 0 0 0 0.2 0"/>
<feBlend mode="normal" in2="BackgroundImageFix" result="effect1_dropShadow"/>
<feBlend mode="normal" in="SourceGraphic" in2="effect1_dropShadow" result="shape"/>
</filter>
<linearGradient id="paint0_linear" x1="60" y1="6" x2="60" y2="106" gradientUnits="userSpaceOnUse">
<stop stop-color="#023BAE"/>
<stop offset="1" stop-color="#00297C"/>
</linearGradient>
<linearGradient id="paint1_linear" x1="91.1455" y1="28.8788" x2="91.1455" y2="50.2242" gradientUnits="userSpaceOnUse">
<stop stop-color="#023BAE"/>
<stop offset="1" stop-color="#00297C"/>
</linearGradient>
<linearGradient id="paint2_linear" x1="39.6839" y1="16.3696" x2="39.6839" y2="29.2317" gradientUnits="userSpaceOnUse">
<stop stop-color="#023BAE"/>
<stop offset="1" stop-color="#00297C"/>
</linearGradient>
<linearGradient id="paint3_linear" x1="43.3947" y1="15.2462" x2="43.3947" y2="25.0836" gradientUnits="userSpaceOnUse">
<stop stop-color="#023BAE"/>
<stop offset="1" stop-color="#00297C"/>
</linearGradient>
<linearGradient id="paint4_linear" x1="69.5643" y1="16.4819" x2="69.5643" y2="19.6277" gradientUnits="userSpaceOnUse">
<stop stop-color="#023BAE"/>
<stop offset="1" stop-color="#00297C"/>
</linearGradient>
<linearGradient id="paint5_linear" x1="65.1743" y1="23.4009" x2="65.1743" y2="26.5414" gradientUnits="userSpaceOnUse">
<stop stop-color="#023BAE"/>
<stop offset="1" stop-color="#00297C"/>
</linearGradient>
<linearGradient id="paint6_linear" x1="39.6839" y1="53.686" x2="39.6839" y2="66.5749" gradientUnits="userSpaceOnUse">
<stop stop-color="#023BAE"/>
<stop offset="1" stop-color="#00297C"/>
</linearGradient>
<linearGradient id="paint7_linear" x1="69.5643" y1="54.0021" x2="69.5643" y2="57.1478" gradientUnits="userSpaceOnUse">
<stop stop-color="#023BAE"/>
<stop offset="1" stop-color="#00297C"/>
</linearGradient>
<linearGradient id="paint8_linear" x1="65.1747" y1="60.921" x2="65.1747" y2="64.0668" gradientUnits="userSpaceOnUse">
<stop stop-color="#023BAE"/>
<stop offset="1" stop-color="#00297C"/>
</linearGradient>
<linearGradient id="paint9_linear" x1="39.6839" y1="35.0897" x2="39.6839" y2="47.9464" gradientUnits="userSpaceOnUse">
<stop stop-color="#023BAE"/>
<stop offset="1" stop-color="#00297C"/>
</linearGradient>
<linearGradient id="paint10_linear" x1="65.1747" y1="35.3469" x2="65.1747" y2="38.4927" gradientUnits="userSpaceOnUse">
<stop stop-color="#023BAE"/>
<stop offset="1" stop-color="#00297C"/>
</linearGradient>
<linearGradient id="paint11_linear" x1="65.1747" y1="42.2652" x2="65.1747" y2="45.4111" gradientUnits="userSpaceOnUse">
<stop stop-color="#023BAE"/>
<stop offset="1" stop-color="#00297C"/>
</linearGradient>
</defs>
</svg>
