<svg width="71" height="60" viewBox="0 0 71 60" fill="none" xmlns="http://www.w3.org/2000/svg">
<path d="M58.9355 1.96878L63.0431 3.28087L3.16946 33.9078C2.96716 34.0419 2.82149 34.2459 2.76038 34.4807C2.69927 34.7156 2.72701 34.9647 2.83831 35.1804C2.94961 35.396 3.13663 35.563 3.36348 35.6493C3.59033 35.7356 3.84103 35.7351 4.06755 35.648L63.9169 5.02104L62.5975 9.10346C62.5574 9.22639 62.542 9.35606 62.5521 9.48497C62.5623 9.61388 62.5979 9.73945 62.6567 9.85459C62.7156 9.96972 62.7967 10.0722 62.8952 10.1559C62.9938 10.2396 63.1079 10.303 63.2311 10.3425C63.3286 10.3756 63.431 10.392 63.5339 10.3912C63.7441 10.3911 63.9486 10.3234 64.1173 10.198C64.2859 10.0727 64.4097 9.8963 64.4703 9.6951L66.5241 3.34001C66.5643 3.21708 66.5797 3.08749 66.5695 2.95858C66.5594 2.82968 66.5238 2.70402 66.4649 2.58888C66.4061 2.47375 66.325 2.37139 66.2265 2.28767C66.1279 2.20395 66.0138 2.14055 65.8906 2.10108L59.5343 0.0476299C59.4111 0.00786706 59.2812 -0.00720929 59.1522 0.00319105C59.0231 0.0135914 58.8974 0.0493176 58.7822 0.108298C58.6669 0.167278 58.5644 0.24831 58.4806 0.346891C58.3967 0.445472 58.333 0.5596 58.2932 0.682773C58.2535 0.805947 58.2384 0.93578 58.2488 1.06479C58.2592 1.19381 58.2949 1.31954 58.3539 1.43475C58.4129 1.54996 58.494 1.65243 58.5926 1.7363C58.6912 1.82018 58.8054 1.88381 58.9286 1.92358L58.9355 1.96878Z" fill="#00297C"/>
<path d="M69.6918 57.8875H67.2551V50.6936C67.2551 50.4324 67.1513 50.1819 66.9666 49.9972C66.7819 49.8125 66.5313 49.7087 66.27 49.7087H63.9969V47.5613H66.27C66.5313 47.5613 66.7819 47.4576 66.9666 47.2729C67.1513 47.0881 67.2551 46.8376 67.2551 46.5764V25.9381C67.2542 25.6774 67.15 25.4278 66.9654 25.2439C66.7807 25.0599 66.5307 24.9566 66.27 24.9566H63.9969V22.8057H66.27C66.5307 22.8058 66.7807 22.7024 66.9654 22.5185C67.15 22.3345 67.2542 22.0849 67.2551 21.8243V17.7523C67.2551 17.4911 67.1513 17.2405 66.9666 17.0558C66.7819 16.8711 66.5313 16.7673 66.27 16.7673H50.4418C50.1805 16.7673 49.9299 16.8711 49.7452 17.0558C49.5604 17.2405 49.4566 17.4911 49.4566 17.7523V20.8393H48.5551C48.4256 20.8388 48.2972 20.8641 48.1775 20.9134C48.0578 20.9627 47.949 21.0352 47.8575 21.1268C47.7659 21.2183 47.6933 21.3271 47.644 21.4468C47.5946 21.5665 47.5695 21.6948 47.57 21.8243V25.9381C47.5695 26.0675 47.5946 26.1958 47.644 26.3155C47.6933 26.4352 47.7659 26.5439 47.8575 26.6355C47.949 26.727 48.0578 26.7996 48.1775 26.8489C48.2972 26.8983 48.4256 26.9234 48.5551 26.9229H49.4671V45.5915H48.5655C48.436 45.591 48.3077 45.6162 48.188 45.6655C48.0682 45.7148 47.9594 45.7874 47.8679 45.8789C47.7763 45.9705 47.7038 46.0792 47.6544 46.1989C47.6051 46.3186 47.5799 46.4469 47.5804 46.5764V50.6936C47.5804 50.9549 47.6842 51.2054 47.8689 51.3901C48.0537 51.5748 48.3042 51.6786 48.5655 51.6786H49.4671V57.8875H43.3962V51.6786H44.2978C44.5591 51.6786 44.8096 51.5748 44.9944 51.3901C45.1791 51.2054 45.2829 50.9549 45.2829 50.6936V46.5764C45.2829 46.3151 45.1791 46.0647 44.9944 45.88C44.8096 45.6952 44.5591 45.5915 44.2978 45.5915H43.3962V39.2921H44.2978C44.5591 39.2921 44.8096 39.1883 44.9944 39.0036C45.1791 38.8189 45.2829 38.5683 45.2829 38.3071V34.1899C45.2829 33.9287 45.1791 33.6781 44.9944 33.4934C44.8096 33.3087 44.5591 33.2049 44.2978 33.2049H43.3962V30.1214C43.3962 29.8602 43.2924 29.6096 43.1076 29.4249C42.9229 29.2402 42.6723 29.1365 42.4111 29.1365H26.5828C26.3216 29.1365 26.071 29.2402 25.8863 29.4249C25.7015 29.6096 25.5977 29.8602 25.5977 30.1214V34.1899C25.5977 34.4511 25.7015 34.7016 25.8863 34.8863C26.071 35.071 26.3216 35.1748 26.5828 35.1748H28.856V37.3222H26.5828C26.3216 37.3222 26.071 37.426 25.8863 37.6107C25.7015 37.7954 25.5977 38.0459 25.5977 38.3071V46.5764C25.5977 46.8376 25.7015 47.0881 25.8863 47.2729C26.071 47.4576 26.3216 47.5613 26.5828 47.5613H28.856V49.7087H26.5828C26.3216 49.7087 26.071 49.8125 25.8863 49.9972C25.7015 50.1819 25.5977 50.4324 25.5977 50.6936V57.8875H21.6537V50.6936C21.6537 50.4324 21.5499 50.1819 21.3652 49.9972C21.1804 49.8125 20.9299 49.7087 20.6686 49.7087H18.3955V47.5613H20.6686C20.9299 47.5613 21.1804 47.4576 21.3652 47.2729C21.5499 47.0881 21.6537 46.8376 21.6537 46.5764V42.5079C21.6537 42.2467 21.5499 41.9962 21.3652 41.8115C21.1804 41.6268 20.9299 41.5229 20.6686 41.5229H4.84038C4.71088 41.5225 4.58255 41.5477 4.46283 41.597C4.3431 41.6463 4.23429 41.7189 4.14273 41.8105C4.05116 41.902 3.97863 42.0107 3.92928 42.1304C3.87994 42.2502 3.85476 42.3784 3.85522 42.5079V45.5915H2.95364C2.82415 45.591 2.69582 45.6162 2.57609 45.6655C2.45637 45.7148 2.34761 45.7874 2.25604 45.8789C2.16447 45.9705 2.0919 46.0792 2.04255 46.1989C1.99321 46.3186 1.96807 46.4469 1.96853 46.5764V50.6936C1.96853 50.9549 2.07231 51.2054 2.25706 51.3901C2.4418 51.5748 2.69237 51.6786 2.95364 51.6786H3.86567V57.8875H1.0565C0.776304 57.8875 0.507564 57.9987 0.309434 58.1968C0.111303 58.3949 0 58.6637 0 58.9438C0 59.2239 0.111303 59.4926 0.309434 59.6907C0.507564 59.8888 0.776304 60 1.0565 60H69.7023C69.9825 60 70.2512 59.8888 70.4494 59.6907C70.6475 59.4926 70.7588 59.2239 70.7588 58.9438C70.7588 58.6637 70.6475 58.3949 70.4494 58.1968C70.2512 57.9987 69.9825 57.8875 69.7023 57.8875H69.6918ZM62.1659 55.761V57.8875H60.7526V55.761H62.1659ZM63.5583 57.8875V55.761H65.264V57.8875H63.5583ZM65.264 51.6786V53.7911H51.406V51.6786H65.264ZM49.5193 22.7918H51.2807V23.8359C51.2807 24.0205 51.3541 24.1975 51.4846 24.3281C51.6152 24.4586 51.7923 24.532 51.9769 24.532C52.1615 24.532 52.3387 24.4586 52.4692 24.3281C52.5998 24.1975 52.6731 24.0205 52.6731 23.8359V22.7918H54.0864V24.9426H49.5054L49.5193 22.7918ZM62.0058 24.9426H58.3263V22.7918H62.0058V24.9426ZM56.92 24.9426H55.5067V22.7918H56.92V24.9426ZM62.1415 45.5776H60.7282V43.4894H62.1415V45.5776ZM51.3956 43.4894H56.5022V44.5856C56.5022 44.7702 56.5756 44.9473 56.7062 45.0779C56.8367 45.2084 57.0138 45.2817 57.1984 45.2817C57.3831 45.2817 57.5602 45.2084 57.6908 45.0779C57.8213 44.9473 57.8946 44.7702 57.8946 44.5856V43.4894H59.308V45.5776H51.3817L51.3956 43.4894ZM51.3956 41.5195V39.3304H65.2535V41.5195H51.3956ZM57.2054 36.9742C57.3901 36.9742 57.5671 36.9008 57.6977 36.7703C57.8283 36.6397 57.9016 36.4627 57.9016 36.2781V35.1783H59.3149V37.3674H51.3886V35.1783H56.4953V36.2781C56.4946 36.3731 56.5135 36.4672 56.5507 36.5547C56.5878 36.6421 56.6424 36.7211 56.7113 36.7867C56.7801 36.8522 56.8616 36.9029 56.9507 36.9358C57.0399 36.9686 57.1349 36.9829 57.2298 36.9777L57.2054 36.9742ZM65.2535 35.1713V37.3604H63.5478V35.1713H65.2535ZM62.1415 37.3604H60.7282V35.1713H62.1415V37.3604ZM65.2535 33.2015H51.3956V31.0054H65.2535V33.2015ZM49.5089 47.5578H61.9953V49.7052H49.5089V47.5578ZM65.2535 45.588H63.5478V43.4998H65.2535V45.588ZM65.2535 26.9194V29.0355H51.3956V26.9194H65.2535ZM65.2535 18.7337V20.8219H51.3956V18.7337H65.2535ZM51.3956 55.7575H56.5022V56.8782C56.5022 57.0628 56.5756 57.2399 56.7062 57.3704C56.8367 57.501 57.0138 57.5743 57.1984 57.5743C57.3831 57.5743 57.5602 57.501 57.6908 57.3704C57.8213 57.2399 57.8946 57.0628 57.8946 56.8782V55.7784H59.308V57.9049H51.3817L51.3956 55.7575ZM30.7844 49.7052V47.5578H43.2709V49.7052H30.8088H30.7844ZM30.7844 35.1713H32.2813V36.2711C32.2813 36.4558 32.3546 36.6327 32.4852 36.7633C32.6158 36.8938 32.7928 36.9672 32.9775 36.9672C33.1621 36.9672 33.3392 36.8938 33.4698 36.7633C33.6003 36.6327 33.6737 36.4558 33.6737 36.2711V35.1713H35.0661V37.3187H30.7496L30.7844 35.1713ZM36.5072 35.1713H37.9205V37.3187H36.5072V35.1713ZM39.3269 35.1713H43.2709V37.3187H39.3269V35.1713ZM33.6702 45.1739C33.8549 45.1739 34.0319 45.1005 34.1625 44.9699C34.293 44.8394 34.3664 44.6624 34.3664 44.4778V43.4963H35.7797V45.5845H27.5366V43.4963H32.9775V44.4778C32.977 44.5713 32.9953 44.6639 33.0314 44.7501C33.0674 44.8364 33.1206 44.9145 33.1875 44.9798C33.2544 45.0451 33.3338 45.0962 33.4209 45.1301C33.508 45.164 33.6011 45.1801 33.6946 45.1773L33.6702 45.1739ZM38.6063 45.5706H37.193V43.4824H38.6063V45.5706ZM39.9987 43.4824H41.3702V45.5706H39.9987V43.4824ZM38.6063 51.6681V53.7807H37.193V51.6681H38.6063ZM39.9987 51.6681H41.3702V53.7807H39.9987V51.6681ZM27.5366 33.2119V31.1237H41.3946V33.2119H27.5366ZM29.8098 39.299H41.3946V41.4151H27.5366V39.299H29.8098ZM29.8098 51.6856H32.9775V52.8167C32.9775 53.0013 33.0508 53.1783 33.1814 53.3088C33.312 53.4394 33.489 53.5127 33.6737 53.5127C33.8583 53.5127 34.0354 53.4394 34.166 53.3088C34.2965 53.1783 34.3699 53.0013 34.3699 52.8167V51.6856H35.7832V53.7981H27.5366V51.6856H29.8098ZM27.5366 55.768H41.3946V57.8944H27.5366V55.768ZM16.4531 55.768V57.8944H15.0398V55.768H16.4531ZM17.8455 57.8944V55.768H19.6556V57.8944H17.8455ZM19.6556 51.6856V53.7981H5.79766V51.6856H19.6556ZM3.91093 47.5683H5.43213V48.6124C5.43213 48.7993 5.50641 48.9786 5.63861 49.1107C5.7708 49.2429 5.9501 49.3171 6.13705 49.3171C6.324 49.3171 6.5033 49.2429 6.63549 49.1107C6.76769 48.9786 6.84196 48.7993 6.84196 48.6124V47.5683H8.23437V49.7156H3.8935L3.91093 47.5683ZM16.3974 49.7156H12.4777V47.5683H16.3974V49.7156ZM11.0714 49.7156H9.67897V47.5683H11.0714V49.7156ZM19.6556 43.4998V45.588H5.79766V43.4998H19.6556ZM5.79766 55.768H10.8277V56.8782C10.8277 57.0628 10.9011 57.2399 11.0316 57.3704C11.1622 57.501 11.3393 57.5743 11.5239 57.5743C11.7086 57.5743 11.8856 57.501 12.0162 57.3704C12.1468 57.2399 12.2201 57.0628 12.2201 56.8782V55.7784H13.6334V57.9049H5.81155L5.79766 55.768Z" fill="#00297C"/>
</svg>
