<svg width="60" height="45" viewBox="0 0 60 45" fill="none" xmlns="http://www.w3.org/2000/svg">
<path d="M28.0985 6.38805C28.0852 6.17476 28.0013 5.97238 27.8608 5.81401C27.7202 5.65563 27.5311 5.55063 27.3245 5.51615C21.8544 4.53723 14.6329 0.180855 14.562 0.136788C14.4174 0.0473312 14.2516 0 14.0826 0C13.9135 0 13.7476 0.0473312 13.6031 0.136788C13.5291 0.180855 6.29834 4.54353 0.822097 5.51615C0.620133 5.55268 0.435316 5.65536 0.295663 5.80871C0.156011 5.96206 0.0691265 6.15772 0.0481426 6.366C0.0481426 6.53912 -0.346545 10.6971 1.12427 16.0198C3.01257 22.9903 7.48783 28.9352 13.6 32.5922C13.7467 32.6854 13.916 32.7348 14.0887 32.7348C14.2615 32.7348 14.4308 32.6854 14.5775 32.5922C20.5715 28.8331 24.9636 22.9127 26.8836 16.0041C28.3976 10.6908 28.1139 6.56118 28.0985 6.38805ZM2.9497 15.5634C2.19344 12.8615 1.83387 10.0601 1.88279 7.25051C6.08865 6.30621 10.865 3.86046 13.1714 2.57622V30.0426C8.16327 26.6345 4.53247 21.4914 2.9497 15.5634ZM25.0798 15.4532C24.276 18.3052 23.0266 21.006 21.3796 23.4515C19.6566 25.98 17.5131 28.1809 15.0461 29.9545V2.61087C17.3711 3.90456 22.0826 6.3251 26.2453 7.24736C26.2388 10.0272 25.8464 12.7921 25.0798 15.4595V15.4532Z" fill="white"/>
<path d="M60 10.4297V10.3008C60 10.1721 59.9751 10.0447 59.9268 9.92594C59.8785 9.80714 59.8077 9.69925 59.7185 9.60844C59.6292 9.51763 59.5233 9.44568 59.4068 9.39673C59.2903 9.34778 59.1654 9.32283 59.0394 9.32323H14.2686C14.1382 9.31586 14.0077 9.3357 13.885 9.38157C13.7624 9.42744 13.6502 9.49836 13.5553 9.58999C13.4604 9.68163 13.3849 9.79206 13.3332 9.91452C13.2816 10.037 13.2549 10.1689 13.2549 10.3022C13.2549 10.4356 13.2816 10.5675 13.3332 10.6899C13.3849 10.8124 13.4604 10.9228 13.5553 11.0145C13.6502 11.1061 13.7624 11.1771 13.885 11.2229C14.0077 11.2688 14.1382 11.2887 14.2686 11.2813H56.0196L34.1292 26.0461C33.6486 25.3902 33.0248 24.8577 32.3073 24.4909C31.5899 24.1242 30.7985 23.9331 29.9961 23.9331C29.1937 23.9331 28.4023 24.1242 27.6849 24.4909C26.9674 24.8577 26.3436 25.3902 25.863 26.0461L24.5206 25.1466C24.3084 25.0188 24.0563 24.979 23.8162 25.0356C23.5762 25.0922 23.3666 25.2407 23.2308 25.4505C23.095 25.6604 23.0434 25.9154 23.0866 26.163C23.1299 26.4106 23.2646 26.6318 23.4631 26.7808L25.0082 27.8183C24.8806 28.2757 24.8153 28.7489 24.8143 29.2246C24.8143 30.6274 25.3603 31.9728 26.332 32.9648C27.3038 33.9567 28.6218 34.5141 29.9961 34.5141C31.3704 34.5141 32.6884 33.9567 33.6602 32.9648C34.632 31.9728 35.1779 30.6274 35.1779 29.2246C35.1767 28.748 35.1115 28.2738 34.984 27.8153L58.0759 12.2408V42.5262L44.5369 34.7689C44.3152 34.6416 44.0531 34.6095 43.8083 34.6795C43.5634 34.7495 43.3558 34.916 43.2311 35.1422C43.1065 35.3685 43.075 35.636 43.1436 35.8859C43.2121 36.1359 43.3752 36.3479 43.5968 36.4751L55.0532 43.0419H4.4984L8.40826 40.766C8.52423 40.7055 8.62694 40.6217 8.71016 40.5194C8.79338 40.4172 8.85536 40.2988 8.89235 40.1713C8.92934 40.0439 8.94054 39.9101 8.92531 39.7781C8.91007 39.6461 8.8687 39.5186 8.80371 39.4034C8.73872 39.2882 8.65147 39.1878 8.54725 39.1081C8.44304 39.0284 8.32404 38.9711 8.19749 38.9398C8.07093 38.9086 7.93947 38.9038 7.81108 38.926C7.68269 38.9482 7.56005 38.9968 7.45063 39.0688L1.91631 42.2923V11.2783H6.58698C6.71739 11.2857 6.84791 11.2658 6.97056 11.2199C7.0932 11.1741 7.2054 11.1031 7.30027 11.0114C7.39515 10.9198 7.47073 10.8095 7.52238 10.687C7.57403 10.5645 7.60066 10.4325 7.60066 10.2992C7.60066 10.1659 7.57403 10.034 7.52238 9.91152C7.47073 9.78905 7.39515 9.67863 7.30027 9.58699C7.2054 9.49536 7.0932 9.42444 6.97056 9.37857C6.84791 9.3327 6.71739 9.31286 6.58698 9.32023H0.958707C0.832949 9.32023 0.70842 9.34548 0.592234 9.3946C0.476049 9.44373 0.370481 9.51577 0.281557 9.60654C0.192632 9.69731 0.122062 9.80507 0.0739361 9.92367C0.0258106 10.0423 0.00107178 10.1694 0.00107178 10.2978V44.0194C-0.000357261 44.0414 -0.000357261 44.0634 0.00107178 44.0854V44.1004C0.0195694 44.3451 0.127844 44.5738 0.304291 44.7405C0.480738 44.9073 0.712357 44.9999 0.952827 45H59.0277C59.1537 45.0004 59.2785 44.9754 59.395 44.9264C59.5116 44.8775 59.6175 44.8055 59.7067 44.7147C59.796 44.6239 59.8667 44.516 59.9151 44.3972C59.9634 44.2784 59.9882 44.1511 59.9882 44.0224V10.4387L60 10.4297ZM30.002 32.547C29.3564 32.547 28.7253 32.3515 28.1885 31.9853C27.6518 31.6192 27.2335 31.0987 26.9866 30.4898C26.7396 29.8809 26.6752 29.2108 26.8013 28.5645C26.9275 27.9182 27.2386 27.3247 27.6953 26.8589C28.1521 26.3931 28.7338 26.076 29.3671 25.9478C30.0004 25.8196 30.6567 25.8861 31.253 26.1387C31.8493 26.3913 32.3587 26.8187 32.717 27.3669C33.0752 27.9152 33.2662 28.5596 33.2656 29.2186C33.2648 30.1016 32.9206 30.9482 32.3087 31.5723C31.6967 32.1964 30.8671 32.547 30.002 32.547Z" fill="white"/>
</svg>
