<svg width="184" height="210" viewBox="0 0 184 210" fill="none" xmlns="http://www.w3.org/2000/svg">
<g filter="url(#filter0_d)">
<path fill-rule="evenodd" clip-rule="evenodd" d="M154 43.0949V133.864L91.9984 176L30 133.864V43.0949C65.8811 20.3017 118.119 20.3017 154 43.0949Z" fill="#00297C"/>
<path fill-rule="evenodd" clip-rule="evenodd" d="M147.568 46.6989C114.916 27.657 69.0971 27.657 36.432 46.6989V130.478L91.9984 168.241L147.568 130.478V46.6989Z" fill="white"/>
<path fill-rule="evenodd" clip-rule="evenodd" d="M91.8922 163.111L87.9551 160.528V100.963H95.8292V160.528L91.8922 163.111ZM80.0811 155.364L72.2071 150.2V100.963H80.0811V155.364ZM64.3458 145.036L56.4718 139.872V100.963H64.3234V145.036H64.3458ZM48.6106 134.708L39.6479 128.834V100.963H48.5881V134.708H48.6106ZM103.735 100.963H111.609V150.2L103.735 155.364V100.963ZM119.471 101.283H127.345V139.872L119.471 145.036V101.283ZM135.206 101.283H144.169V128.834L135.206 134.708V101.283Z" fill="#DC0000"/>
<path fill-rule="evenodd" clip-rule="evenodd" d="M39.3264 98.273V48.4274C79.205 31.2884 106.059 32.2495 144.027 48.4274V98.273H39.3264Z" fill="#00297C"/>
<path d="M83.3456 53.7727H88.2243V60.7898C87.2406 61.4693 86.0983 61.9909 84.7973 62.3544C83.4963 62.7179 82.2191 62.8996 80.9657 62.8996C79.1887 62.8996 77.5942 62.5361 76.1822 61.8091C74.7702 61.0663 73.6596 60.0391 72.8504 58.7273C72.0571 57.3998 71.6605 55.8984 71.6605 54.2232C71.6605 52.5479 72.0571 51.0544 72.8504 49.7427C73.6596 48.4151 74.7781 47.3879 76.206 46.6609C77.6498 45.9181 79.276 45.5467 81.0847 45.5467C82.7189 45.5467 84.1785 45.8233 85.4636 46.3764C86.7646 46.9138 87.8435 47.704 88.7002 48.747L85.1067 51.9C84.0595 50.683 82.8141 50.0746 81.3703 50.0746C80.1328 50.0746 79.1491 50.446 78.4193 51.1888C77.6894 51.9316 77.3245 52.943 77.3245 54.2232C77.3245 55.4717 77.6815 56.4752 78.3955 57.2338C79.1253 57.9924 80.0931 58.3717 81.2989 58.3717C82.0128 58.3717 82.6951 58.2374 83.3456 57.9687V53.7727Z" fill="white"/>
<path d="M97.3285 62.7574C95.8847 62.7574 94.5837 62.4729 93.4255 61.904C92.2832 61.3192 91.3868 60.5211 90.7363 59.5096C90.0858 58.4824 89.7606 57.3208 89.7606 56.0248C89.7606 54.7289 90.0858 53.5752 90.7363 52.5637C91.3868 51.5365 92.2832 50.7384 93.4255 50.1694C94.5837 49.6005 95.8847 49.316 97.3285 49.316C98.7881 49.316 100.089 49.6005 101.231 50.1694C102.39 50.7384 103.286 51.5365 103.921 52.5637C104.571 53.5752 104.896 54.7289 104.896 56.0248C104.896 57.3208 104.571 58.4824 103.921 59.5096C103.286 60.5211 102.39 61.3192 101.231 61.904C100.089 62.4729 98.7881 62.7574 97.3285 62.7574ZM97.3285 58.5851C97.9473 58.5851 98.455 58.3638 98.8516 57.9213C99.2482 57.463 99.4466 56.8308 99.4466 56.0248C99.4466 55.2188 99.2482 54.5946 98.8516 54.152C98.455 53.7095 97.9473 53.4883 97.3285 53.4883C96.7097 53.4883 96.202 53.7095 95.8054 54.152C95.4087 54.5946 95.2104 55.2188 95.2104 56.0248C95.2104 56.8308 95.4087 57.463 95.8054 57.9213C96.202 58.3638 96.7097 58.5851 97.3285 58.5851Z" fill="white"/>
<path d="M58.8589 88.3389C58.0498 88.7972 56.9471 89.0264 55.5509 89.0264C53.7264 89.0264 52.3223 88.5918 51.3386 87.7225C50.3549 86.8375 49.8631 85.5179 49.8631 83.7636V80.4447H48.0782V76.5332H49.8631V72.9062H55.2415V76.5332H57.907V80.4447H55.2415V83.7162C55.2415 84.1113 55.3447 84.4195 55.5509 84.6407C55.7572 84.862 56.0269 84.9726 56.3601 84.9726C56.8202 84.9726 57.2248 84.8541 57.5738 84.617L58.8589 88.3389Z" fill="white"/>
<path d="M66.7437 89.0264C65.2999 89.0264 63.9989 88.7419 62.8407 88.173C61.6984 87.5882 60.802 86.7901 60.1515 85.7786C59.501 84.7514 59.1757 83.5898 59.1757 82.2938C59.1757 80.9979 59.501 79.8442 60.1515 78.8327C60.802 77.8055 61.6984 77.0074 62.8407 76.4384C63.9989 75.8695 65.2999 75.585 66.7437 75.585C68.2033 75.585 69.5043 75.8695 70.6466 76.4384C71.8048 77.0074 72.7012 77.8055 73.3359 78.8327C73.9864 79.8442 74.3116 80.9979 74.3116 82.2938C74.3116 83.5898 73.9864 84.7514 73.3359 85.7786C72.7012 86.7901 71.8048 87.5882 70.6466 88.173C69.5043 88.7419 68.2033 89.0264 66.7437 89.0264ZM66.7437 84.8541C67.3624 84.8541 67.8701 84.6328 68.2668 84.1903C68.6634 83.732 68.8617 83.0998 68.8617 82.2938C68.8617 81.4878 68.6634 80.8636 68.2668 80.421C67.8701 79.9785 67.3624 79.7573 66.7437 79.7573C66.1249 79.7573 65.6172 79.9785 65.2206 80.421C64.8239 80.8636 64.6256 81.4878 64.6256 82.2938C64.6256 83.0998 64.8239 83.732 65.2206 84.1903C65.6172 84.6328 66.1249 84.8541 66.7437 84.8541Z" fill="white"/>
<path d="M91.269 89.1686C88.7146 89.1686 86.7235 88.4811 85.2955 87.1062C83.8676 85.7312 83.1537 83.8031 83.1537 81.3219V72.195H88.7701V81.1559C88.7701 82.3728 88.9843 83.2579 89.4127 83.811C89.8569 84.3642 90.4916 84.6407 91.3166 84.6407C92.1416 84.6407 92.7683 84.3642 93.1967 83.811C93.6409 83.2579 93.863 82.3728 93.863 81.1559V72.195H99.3843V81.3219C99.3843 83.8031 98.6703 85.7312 97.2424 87.1062C95.8145 88.4811 93.8234 89.1686 91.269 89.1686Z" fill="white"/>
<path d="M108.17 89.1686C106.79 89.1686 105.441 89.0185 104.124 88.7182C102.823 88.4021 101.753 87.9833 100.912 87.4618L102.72 83.3843C103.514 83.8426 104.402 84.214 105.386 84.4985C106.369 84.7672 107.313 84.9015 108.218 84.9015C108.995 84.9015 109.551 84.8304 109.884 84.6881C110.217 84.5301 110.383 84.3009 110.383 84.0007C110.383 83.653 110.161 83.3922 109.717 83.2184C109.289 83.0445 108.575 82.8549 107.575 82.6494C106.29 82.3807 105.219 82.0963 104.362 81.796C103.506 81.4799 102.76 80.9742 102.125 80.2788C101.491 79.5676 101.173 78.6115 101.173 77.4104C101.173 76.3673 101.467 75.419 102.054 74.5656C102.641 73.7122 103.514 73.0405 104.672 72.5506C105.846 72.0607 107.266 71.8157 108.932 71.8157C110.074 71.8157 111.193 71.9421 112.287 72.195C113.398 72.4321 114.374 72.7877 115.215 73.2618L113.525 77.3155C111.891 76.4937 110.344 76.0828 108.884 76.0828C107.44 76.0828 106.719 76.4305 106.719 77.1259C106.719 77.4578 106.933 77.7106 107.361 77.8845C107.789 78.0425 108.495 78.2164 109.479 78.406C110.748 78.6431 111.819 78.9197 112.692 79.2357C113.565 79.536 114.318 80.0338 114.953 80.7292C115.603 81.4246 115.929 82.3728 115.929 83.574C115.929 84.617 115.635 85.5653 115.048 86.4187C114.461 87.2563 113.58 87.928 112.406 88.4337C111.248 88.9236 109.836 89.1686 108.17 89.1686Z" fill="white"/>
<path d="M128.952 85.8972H122.621L121.503 88.7893H115.791L123.073 72.195H128.595L135.877 88.7893H130.07L128.952 85.8972ZM127.405 81.8671L125.787 77.6948L124.168 81.8671H127.405Z" fill="white"/>
<path fill-rule="evenodd" clip-rule="evenodd" d="M53.9304 52.269L55.2457 56.3311L59.5295 56.3247L56.0594 58.8234L57.3908 62.8823L53.9304 60.3643L50.4699 62.8823L51.8014 58.8234L48.3313 56.3247L52.615 56.3311L53.9304 52.269Z" fill="white"/>
<path fill-rule="evenodd" clip-rule="evenodd" d="M129.449 52.269L130.764 56.3311L135.048 56.3247L131.578 58.8234L132.909 62.8823L129.449 60.3643L125.988 62.8823L127.32 58.8234L123.85 56.3247L128.133 56.3311L129.449 52.269Z" fill="white"/>
</g>
<defs>
<filter id="filter0_d" x="0" y="0" width="184" height="210" filterUnits="userSpaceOnUse" color-interpolation-filters="sRGB">
<feFlood flood-opacity="0" result="BackgroundImageFix"/>
<feColorMatrix in="SourceAlpha" type="matrix" values="0 0 0 0 0 0 0 0 0 0 0 0 0 0 0 0 0 0 127 0"/>
<feOffset dy="4"/>
<feGaussianBlur stdDeviation="15"/>
<feColorMatrix type="matrix" values="0 0 0 0 0.2 0 0 0 0 0.2 0 0 0 0 0.2 0 0 0 0.3 0"/>
<feBlend mode="normal" in2="BackgroundImageFix" result="effect1_dropShadow"/>
<feBlend mode="normal" in="SourceGraphic" in2="effect1_dropShadow" result="shape"/>
</filter>
</defs>
</svg>
