<svg width="32" height="44" viewBox="0 0 32 44" fill="none" xmlns="http://www.w3.org/2000/svg">
<path d="M15.7436 18.7913C14.9419 18.7467 14.1651 18.4881 13.4949 18.0403C12.7553 17.5461 12.1788 16.8437 11.8384 16.0219C11.498 15.2001 11.4089 14.2957 11.5825 13.4233C11.756 12.5509 12.1844 11.7495 12.8134 11.1205C13.4424 10.4915 14.2437 10.0631 15.1162 9.8896C15.9886 9.71606 16.8929 9.80512 17.7148 10.1455C18.5366 10.4859 19.239 11.0624 19.7332 11.802C20.2273 12.5416 20.4911 13.411 20.4912 14.3004C20.4879 15.491 20.0126 16.6318 19.1696 17.4725C18.3265 18.3134 17.1844 18.7856 15.9936 18.7856L15.7436 18.7856V18.7913ZM15.9936 6.75757C14.5017 6.75757 13.0433 7.19997 11.8029 8.02882C10.5624 8.85768 9.59556 10.0358 9.02463 11.4141C8.45371 12.7924 8.30433 14.3091 8.59538 15.7723C8.88644 17.2356 9.60485 18.5796 10.6598 19.6346C11.7147 20.6895 13.0588 21.4079 14.522 21.699C15.9852 21.99 17.5019 21.8406 18.8803 21.2697C20.2586 20.6988 21.4367 19.732 22.2655 18.4915C23.0944 17.251 23.5368 15.7926 23.5368 14.3007C23.5368 12.3002 22.7421 10.3815 21.3274 8.96691C19.9128 7.55229 17.9942 6.75757 15.9936 6.75757Z" fill="#00297C" stroke="#00297C" stroke-width="0.5"/>
<path d="M15.9936 0.75L15.9934 0.75C11.9628 0.753367 8.09737 2.35158 5.24126 5.19556C2.38515 8.03955 0.770514 11.8982 0.75 15.9287V15.93C0.75 21.9613 4.13309 26.9988 6.57119 30.6178L7.01662 31.2796L7.0166 31.2796L7.01824 31.282C9.45445 34.8129 12.0679 38.2181 14.8487 41.4845L14.8489 41.4848L15.8162 42.6176L16.0064 42.8402L16.1965 42.6176L17.1638 41.4848L17.1641 41.4845C19.9444 38.2178 22.5579 34.8126 24.9945 31.282L24.9945 31.282L24.9973 31.2778L25.4419 30.6046L25.4428 30.6032L25.4697 30.5631C27.8926 26.9479 31.25 21.9382 31.25 15.93L31.25 15.9287C31.2295 11.896 29.6131 8.03535 26.7542 5.191C23.8953 2.34665 20.0265 0.749948 15.9936 0.75ZM22.902 28.861L22.9018 28.8612L22.4436 29.5358L22.4424 29.5376C20.3469 32.6809 17.5942 36.1895 15.9972 38.0697C14.4471 36.1839 11.6385 32.678 9.54519 29.5381C9.54508 29.5379 9.54498 29.5378 9.54488 29.5376L9.10001 28.8639L9.09904 28.8625L9.09139 28.8511C6.831 25.4797 3.79561 20.9523 3.79561 15.8791C3.79561 14.2772 4.11112 12.691 4.72413 11.2111C5.33714 9.73117 6.23564 8.38647 7.36833 7.25378C8.50102 6.12108 9.84572 5.22258 11.3257 4.60958C12.8056 3.99657 14.3918 3.68106 15.9936 3.68106C17.5955 3.68106 19.1817 3.99657 20.6616 4.60958C22.1416 5.22258 23.4863 6.12108 24.6189 7.25378C25.7516 8.38647 26.6501 9.73117 27.2631 11.2111C27.8762 12.691 28.1917 14.2772 28.1917 15.8791C28.1917 21.009 25.1615 25.5419 22.902 28.861Z" fill="#00297C" stroke="#00297C" stroke-width="0.5"/>
</svg>
