<svg width="64" height="70" viewBox="0 0 64 70" fill="none" xmlns="http://www.w3.org/2000/svg">
<path d="M43.6453 29.4626C39.4228 29.4626 35.4178 30.7392 31.998 33.1503C29.6506 31.497 26.9381 30.3286 24.0074 29.793L31.9277 24.6073C32.4132 24.2895 32.614 23.6783 32.4117 23.1343L30.0572 16.8064C29.8761 16.3197 29.4117 15.9971 28.8926 15.9971H11.9089C11.3898 15.9971 10.9253 16.3197 10.7443 16.8064L8.38951 23.1343C8.18722 23.6779 8.38802 24.2895 8.87346 24.6073L16.7731 29.7794C7.29917 31.4754 0.0859375 39.7765 0.0859375 49.7309C0.0859375 60.9072 9.17848 70 20.3546 70C24.5722 70 28.5858 68.7262 32.0073 66.3142C35.3033 68.6344 39.3172 70 43.6453 70C54.8215 70 63.914 60.9072 63.914 49.7309C63.914 38.555 54.8215 29.4626 43.6453 29.4626ZM2.57114 49.7309C2.57114 39.925 10.5487 31.9478 20.3546 31.9478C30.1606 31.9478 38.1381 39.925 38.1381 49.7309C38.1381 52.9458 37.2817 56.0553 35.6567 58.7922C34.795 58.0314 34.0453 57.148 33.4278 56.1733C34.4105 54.1796 34.928 51.9685 34.928 49.7308C34.928 41.6949 28.3905 35.1577 20.3546 35.1577C12.3188 35.1577 5.7812 41.6949 5.7812 49.7308C5.7812 57.7666 12.3188 64.3045 20.3546 64.3045C22.981 64.3045 25.5139 63.611 27.7488 62.2908C28.4269 63.1474 29.1733 63.947 29.9782 64.6834C27.1116 66.5372 23.812 67.5146 20.3546 67.5146C10.5487 67.5148 2.57114 59.5369 2.57114 49.7309ZM20.3546 61.8195C13.6893 61.8195 8.26641 56.3964 8.26641 49.7309C8.26641 43.0656 13.6891 37.6431 20.3546 37.6431C22.5211 37.6431 24.5545 38.2188 26.3148 39.2208C24.3906 42.384 23.3768 45.9894 23.3768 49.7309C23.3768 53.5775 24.4539 57.1768 26.3221 60.2442C24.5097 61.2765 22.4692 61.8195 20.3546 61.8195ZM32.0006 46.4899C32.2884 47.5216 32.4428 48.6085 32.4428 49.7311C32.4428 50.8294 32.2896 51.9189 31.9983 52.9687C31.7112 51.938 31.5571 50.8524 31.5571 49.7311C31.5571 48.6313 31.7089 47.5401 32.0006 46.4899ZM37.6778 39.2193C39.4904 38.1865 41.5309 37.6431 43.6455 37.6431C50.3108 37.6431 55.7337 43.0654 55.7337 49.7309C55.7337 56.3963 50.311 61.8195 43.6455 61.8195C41.4789 61.8195 39.4453 61.2434 37.685 60.2414C39.6085 57.0772 40.6233 53.4662 40.6233 49.7309C40.6233 45.8847 39.5457 42.2861 37.6778 39.2193ZM26.6614 22.3251H14.1598L20.4265 18.6784L26.6614 22.3251ZM28.0289 18.4824L28.8678 20.7367L25.0137 18.4824H28.0289ZM12.7724 18.4824H15.8221L11.9294 20.7476L12.7724 18.4824ZM13.7206 24.8103H27.0806L20.4007 29.1839L13.7206 24.8103ZM43.6453 67.5147C33.8394 67.5147 25.8618 59.5369 25.8618 49.7309C25.8618 46.5108 26.7184 43.4063 28.3441 40.6705C29.2054 41.431 29.9548 42.3141 30.572 43.2888C29.5895 45.2824 29.0717 47.4933 29.0717 49.7309C29.0717 57.7668 35.6093 64.3047 43.6452 64.3047C51.681 64.3047 58.2186 57.7668 58.2186 49.7309C58.2186 41.6951 51.681 35.1579 43.6452 35.1579C41.0186 35.1579 38.4855 35.8514 36.2503 37.1715C35.5727 36.3156 34.8268 35.5164 34.0224 34.7801C36.8875 32.926 40.1828 31.9476 43.6452 31.9476C53.4511 31.9476 61.4286 39.9248 61.4286 49.7308C61.4288 59.5369 53.4513 67.5147 43.6453 67.5147Z" fill="#00297C"/>
<path d="M20.4003 8.16656C21.0867 8.16656 21.6429 7.61037 21.6429 6.92395V1.2426C21.6429 0.556189 21.0867 0 20.4003 0C19.7139 0 19.1577 0.556189 19.1577 1.2426V6.92395C19.1577 7.61037 19.7141 8.16656 20.4003 8.16656Z" fill="#00297C"/>
<path d="M6.60344 13.3577C6.84616 13.6004 7.1641 13.7217 7.48221 13.7217C7.80015 13.7217 8.11825 13.6004 8.36081 13.3577C8.84625 12.8725 8.84625 12.0856 8.36097 11.6006L4.34372 7.5832C3.85844 7.09808 3.07163 7.09775 2.58652 7.5832C2.10107 8.06831 2.10107 8.85529 2.58635 9.34024L6.60344 13.3577Z" fill="#00297C"/>
<path d="M33.319 13.7217C33.6369 13.7217 33.955 13.6004 34.1977 13.3577L38.2148 9.34024C38.7001 8.85513 38.7001 8.06814 38.2147 7.5832C37.7295 7.09808 36.9427 7.09775 36.4575 7.5832L32.4404 11.6006C31.9551 12.0857 31.9551 12.8727 32.4405 13.3577C32.6829 13.6004 33.001 13.7217 33.319 13.7217Z" fill="#00297C"/>
</svg>
