<svg width="38" height="25" viewBox="0 0 38 25" fill="none" xmlns="http://www.w3.org/2000/svg">
<path opacity="0.5" d="M24.6618 25C22.1895 25.0004 19.7727 24.2676 17.7168 22.8944C15.661 21.5212 14.0586 19.5692 13.1121 17.2853C12.1657 15.0013 11.9178 12.488 12.3997 10.0632C12.8817 7.63836 14.0719 5.4109 15.8198 3.66248C17.5677 1.91407 19.7948 0.723228 22.2195 0.240552C24.6442 -0.242123 27.1575 0.0050442 29.4417 0.9508C31.726 1.89656 33.6784 3.49842 35.0523 5.55383C36.4261 7.60924 37.1595 10.0259 37.1599 12.4981V12.5C37.1565 15.8138 35.8387 18.991 33.4956 21.3344C31.1525 23.6778 27.9756 24.9961 24.6618 25Z" fill="white"/>
<path d="M12.5 25C10.0277 25 7.61099 24.2669 5.55538 22.8934C3.49976 21.5199 1.89761 19.5676 0.951511 17.2835C0.00541607 14.9995 -0.242126 12.4861 0.24019 10.0614C0.722505 7.63661 1.91301 5.40933 3.66117 3.66117C5.40933 1.91301 7.63661 0.722505 10.0614 0.240189C12.4861 -0.242126 14.9995 0.0054164 17.2835 0.951512C19.5676 1.89761 21.5199 3.49976 22.8934 5.55538C24.2669 7.61099 25 10.0277 25 12.5C24.9966 15.8142 23.6785 18.9916 21.335 21.335C18.9916 23.6785 15.8142 24.9966 12.5 25Z" fill="white"/>
</svg>
