<svg width="63" height="72" viewBox="0 0 63 72" fill="none" xmlns="http://www.w3.org/2000/svg">
<mask id="path-1-outside-1" maskUnits="userSpaceOnUse" x="0" y="0" width="63" height="72" fill="black">
<rect fill="white" width="63" height="72"/>
<path d="M61.8647 69.7768L59.793 49.3787C59.7863 47.5562 59.2002 45.7832 58.1195 44.3158C57.0388 42.8485 55.5196 41.7628 53.7813 41.2159L48.4648 39.5077C48.4449 39.4394 48.4174 39.3737 48.3828 39.3116C48.2473 39.0548 45.0276 33.2492 38.456 32.9211L38.2635 30.6923C39.1834 29.5618 40.6167 27.4329 40.8378 25.6997L40.984 24.5728C41.0892 23.7337 41.3634 22.9245 41.79 22.1943C42.5484 20.8958 42.9471 19.4187 42.9452 17.9149V12.4838C42.9718 10.9854 42.6997 9.49671 42.1448 8.10466C41.5899 6.7126 40.7633 5.44506 39.7132 4.376C38.6631 3.30695 37.4106 2.4578 36.0288 1.87816C34.647 1.29852 33.1636 1 31.6652 1C30.1668 1 28.6832 1.29852 27.3014 1.87816C25.9196 2.4578 24.6672 3.30695 23.6171 4.376C22.5671 5.44506 21.7403 6.7126 21.1854 8.10466C20.6305 9.49671 20.3584 10.9854 20.385 12.4838V18.1717C20.3861 19.486 20.6912 20.7822 21.2765 21.9589L21.4476 22.3155C21.7644 22.9489 21.9719 23.6313 22.061 24.3339L22.2356 25.7069C22.4389 27.2973 23.7368 29.3193 24.6425 30.4926C24.6292 30.5405 24.6196 30.5894 24.6139 30.6388L24.4107 32.996C19.0622 33.3276 16.6447 37.6034 15.985 39.0191L9.09968 41.2337C7.35982 41.7789 5.83873 42.8639 4.75661 44.3315C3.67448 45.799 3.08753 47.5731 3.08084 49.3965L1.0055 69.7946C0.976584 70.0811 1.06256 70.3674 1.24437 70.5907C1.42618 70.8139 1.68906 70.956 1.97544 70.9857H2.086C2.35378 70.9868 2.61222 70.8874 2.81028 70.7072C3.00833 70.5269 3.1316 70.2789 3.1557 70.0122L5.23453 49.557C5.23453 49.5213 5.23453 49.4856 5.23453 49.45C5.22869 48.0768 5.66328 46.738 6.47451 45.6301C7.28573 44.5223 8.4307 43.7038 9.74143 43.2949L15.7068 41.3763V51.982C15.7081 52.1036 15.7299 52.2241 15.7711 52.3386C14.8451 52.5966 14.0444 53.1826 13.5185 53.9873C12.9925 54.792 12.7771 55.7605 12.9122 56.7123C13.0474 57.6641 13.5242 58.5343 14.2534 59.1607C14.9826 59.787 15.9146 60.1269 16.8758 60.1168C17.837 60.1068 18.7618 59.7475 19.4778 59.106C20.1937 58.4646 20.6521 57.5846 20.7674 56.6302C20.8826 55.6757 20.6469 54.7119 20.1042 53.9184C19.5615 53.1249 18.749 52.5558 17.8179 52.3172C17.8564 52.2095 17.8769 52.0963 17.8784 51.982V40.6809L25.4519 38.2453C25.6567 38.1816 25.8377 38.0577 25.9712 37.8898C26.1048 37.7219 26.1847 37.5178 26.2007 37.3039L26.757 30.8207C26.7696 30.7284 26.7696 30.6348 26.757 30.5425C26.8302 30.363 26.8532 30.1671 26.8237 29.9755C26.7941 29.7839 26.7131 29.604 26.5893 29.4548C25.6052 28.2673 24.5142 26.4343 24.3858 25.4287L24.211 24.0558C24.0905 23.1109 23.8108 22.1933 23.3838 21.342L23.2162 20.9853C22.7793 20.1117 22.5512 19.1485 22.5495 18.1717V12.4873C22.5495 10.0708 23.5094 7.75329 25.2179 6.04457C26.9264 4.33585 29.2436 3.37591 31.6598 3.37591C34.076 3.37591 36.3932 4.33585 38.1017 6.04457C39.8102 7.75329 40.7701 10.0708 40.7701 12.4873V17.9185C40.7696 19.0334 40.4744 20.1283 39.9143 21.0923C39.3375 22.0771 38.9675 23.1692 38.8269 24.3018L38.6843 25.4287C38.5452 26.5271 37.3685 28.4457 36.3594 29.5975C36.2496 29.7218 36.1702 29.87 36.1275 30.0303C36.0848 30.1906 36.0799 30.3586 36.1133 30.5211C36.0935 30.6197 36.0864 30.7203 36.092 30.8207L36.6518 37.3039C36.6678 37.5178 36.7477 37.7219 36.8812 37.8898C37.0148 38.0577 37.1958 38.1816 37.4006 38.2453L42.8454 39.9962L40.8272 51.7965C40.8272 51.7965 40.8272 51.8215 40.8272 51.8357C40.6864 52.8363 40.8301 53.8562 41.2419 54.7789C41.6537 55.7016 42.3168 56.4896 43.1555 57.053C43.3919 57.2142 43.6828 57.2749 43.964 57.2218C44.2452 57.1686 44.4936 57.0059 44.6549 56.7694C44.8161 56.533 44.8769 56.2422 44.8238 55.961C44.7706 55.6797 44.6079 55.4312 44.3714 55.2699C43.8717 54.9335 43.4761 54.464 43.2291 53.9145C42.9821 53.365 42.8936 52.7574 42.9737 52.1603L44.9383 40.6809L46.7212 41.2551L50.0053 51.8892C50.3619 53.0946 49.8305 54.3855 48.6146 55.1736L48.4828 55.2592C48.3634 55.3369 48.2604 55.4374 48.1798 55.5549C48.0993 55.6725 48.0427 55.8047 48.0132 55.9441C47.9537 56.2257 48.0084 56.5193 48.1654 56.7605C48.3224 57.0017 48.5686 57.1707 48.8501 57.2302C49.1317 57.2897 49.4254 57.2349 49.6665 57.0779L49.7948 56.9959C51.8487 55.6622 52.7436 53.4048 52.0768 51.2473L49.2422 42.0682L53.1182 43.3127C54.427 43.7227 55.5701 44.5412 56.3799 45.6482C57.1897 46.7552 57.6235 48.0926 57.6179 49.4643C57.6179 49.4999 57.6179 49.5356 57.6179 49.5713L59.6968 70.0265C59.7209 70.2932 59.8441 70.5412 60.0422 70.7214C60.2402 70.9017 60.4987 71.0011 60.7665 71H60.8807C61.0277 70.9898 61.171 70.9493 61.3017 70.881C61.4323 70.8128 61.5474 70.7183 61.6398 70.6034C61.7322 70.4886 61.7999 70.3558 61.8386 70.2136C61.8773 70.0714 61.8862 69.9226 61.8647 69.7768ZM18.645 56.14C18.645 56.4927 18.5404 56.8374 18.3445 57.1306C18.1486 57.4238 17.8703 57.6524 17.5445 57.7873C17.2187 57.9223 16.8602 57.9576 16.5143 57.8888C16.1685 57.82 15.8508 57.6502 15.6015 57.4008C15.3522 57.1514 15.1824 56.8337 15.1136 56.4879C15.0449 56.142 15.08 55.7835 15.215 55.4577C15.3499 55.1319 15.5785 54.8534 15.8717 54.6575C16.1649 54.4615 16.5096 54.357 16.8622 54.357C17.0963 54.357 17.3282 54.4031 17.5445 54.4927C17.7608 54.5823 17.9573 54.7136 18.1229 54.8792C18.2884 55.0448 18.4196 55.2414 18.5092 55.4577C18.5988 55.674 18.645 55.9059 18.645 56.14ZM19.2013 37.9529C19.8136 37.1794 20.5725 36.5346 21.4347 36.0555C22.2969 35.5763 23.2453 35.2722 24.2253 35.1606L24.1184 36.3731L19.2013 37.9529ZM38.7555 36.3731L38.6449 35.0928C40.3583 35.2419 41.996 35.8669 43.3731 36.8973L43.2162 37.8067L38.7555 36.3731Z"/>
</mask>
<path d="M61.8647 69.7768L59.793 49.3787C59.7863 47.5562 59.2002 45.7832 58.1195 44.3158C57.0388 42.8485 55.5196 41.7628 53.7813 41.2159L48.4648 39.5077C48.4449 39.4394 48.4174 39.3737 48.3828 39.3116C48.2473 39.0548 45.0276 33.2492 38.456 32.9211L38.2635 30.6923C39.1834 29.5618 40.6167 27.4329 40.8378 25.6997L40.984 24.5728C41.0892 23.7337 41.3634 22.9245 41.79 22.1943C42.5484 20.8958 42.9471 19.4187 42.9452 17.9149V12.4838C42.9718 10.9854 42.6997 9.49671 42.1448 8.10466C41.5899 6.7126 40.7633 5.44506 39.7132 4.376C38.6631 3.30695 37.4106 2.4578 36.0288 1.87816C34.647 1.29852 33.1636 1 31.6652 1C30.1668 1 28.6832 1.29852 27.3014 1.87816C25.9196 2.4578 24.6672 3.30695 23.6171 4.376C22.5671 5.44506 21.7403 6.7126 21.1854 8.10466C20.6305 9.49671 20.3584 10.9854 20.385 12.4838V18.1717C20.3861 19.486 20.6912 20.7822 21.2765 21.9589L21.4476 22.3155C21.7644 22.9489 21.9719 23.6313 22.061 24.3339L22.2356 25.7069C22.4389 27.2973 23.7368 29.3193 24.6425 30.4926C24.6292 30.5405 24.6196 30.5894 24.6139 30.6388L24.4107 32.996C19.0622 33.3276 16.6447 37.6034 15.985 39.0191L9.09968 41.2337C7.35982 41.7789 5.83873 42.8639 4.75661 44.3315C3.67448 45.799 3.08753 47.5731 3.08084 49.3965L1.0055 69.7946C0.976584 70.0811 1.06256 70.3674 1.24437 70.5907C1.42618 70.8139 1.68906 70.956 1.97544 70.9857H2.086C2.35378 70.9868 2.61222 70.8874 2.81028 70.7072C3.00833 70.5269 3.1316 70.2789 3.1557 70.0122L5.23453 49.557C5.23453 49.5213 5.23453 49.4856 5.23453 49.45C5.22869 48.0768 5.66328 46.738 6.47451 45.6301C7.28573 44.5223 8.4307 43.7038 9.74143 43.2949L15.7068 41.3763V51.982C15.7081 52.1036 15.7299 52.2241 15.7711 52.3386C14.8451 52.5966 14.0444 53.1826 13.5185 53.9873C12.9925 54.792 12.7771 55.7605 12.9122 56.7123C13.0474 57.6641 13.5242 58.5343 14.2534 59.1607C14.9826 59.787 15.9146 60.1269 16.8758 60.1168C17.837 60.1068 18.7618 59.7475 19.4778 59.106C20.1937 58.4646 20.6521 57.5846 20.7674 56.6302C20.8826 55.6757 20.6469 54.7119 20.1042 53.9184C19.5615 53.1249 18.749 52.5558 17.8179 52.3172C17.8564 52.2095 17.8769 52.0963 17.8784 51.982V40.6809L25.4519 38.2453C25.6567 38.1816 25.8377 38.0577 25.9712 37.8898C26.1048 37.7219 26.1847 37.5178 26.2007 37.3039L26.757 30.8207C26.7696 30.7284 26.7696 30.6348 26.757 30.5425C26.8302 30.363 26.8532 30.1671 26.8237 29.9755C26.7941 29.7839 26.7131 29.604 26.5893 29.4548C25.6052 28.2673 24.5142 26.4343 24.3858 25.4287L24.211 24.0558C24.0905 23.1109 23.8108 22.1933 23.3838 21.342L23.2162 20.9853C22.7793 20.1117 22.5512 19.1485 22.5495 18.1717V12.4873C22.5495 10.0708 23.5094 7.75329 25.2179 6.04457C26.9264 4.33585 29.2436 3.37591 31.6598 3.37591C34.076 3.37591 36.3932 4.33585 38.1017 6.04457C39.8102 7.75329 40.7701 10.0708 40.7701 12.4873V17.9185C40.7696 19.0334 40.4744 20.1283 39.9143 21.0923C39.3375 22.0771 38.9675 23.1692 38.8269 24.3018L38.6843 25.4287C38.5452 26.5271 37.3685 28.4457 36.3594 29.5975C36.2496 29.7218 36.1702 29.87 36.1275 30.0303C36.0848 30.1906 36.0799 30.3586 36.1133 30.5211C36.0935 30.6197 36.0864 30.7203 36.092 30.8207L36.6518 37.3039C36.6678 37.5178 36.7477 37.7219 36.8812 37.8898C37.0148 38.0577 37.1958 38.1816 37.4006 38.2453L42.8454 39.9962L40.8272 51.7965C40.8272 51.7965 40.8272 51.8215 40.8272 51.8357C40.6864 52.8363 40.8301 53.8562 41.2419 54.7789C41.6537 55.7016 42.3168 56.4896 43.1555 57.053C43.3919 57.2142 43.6828 57.2749 43.964 57.2218C44.2452 57.1686 44.4936 57.0059 44.6549 56.7694C44.8161 56.533 44.8769 56.2422 44.8238 55.961C44.7706 55.6797 44.6079 55.4312 44.3714 55.2699C43.8717 54.9335 43.4761 54.464 43.2291 53.9145C42.9821 53.365 42.8936 52.7574 42.9737 52.1603L44.9383 40.6809L46.7212 41.2551L50.0053 51.8892C50.3619 53.0946 49.8305 54.3855 48.6146 55.1736L48.4828 55.2592C48.3634 55.3369 48.2604 55.4374 48.1798 55.5549C48.0993 55.6725 48.0427 55.8047 48.0132 55.9441C47.9537 56.2257 48.0084 56.5193 48.1654 56.7605C48.3224 57.0017 48.5686 57.1707 48.8501 57.2302C49.1317 57.2897 49.4254 57.2349 49.6665 57.0779L49.7948 56.9959C51.8487 55.6622 52.7436 53.4048 52.0768 51.2473L49.2422 42.0682L53.1182 43.3127C54.427 43.7227 55.5701 44.5412 56.3799 45.6482C57.1897 46.7552 57.6235 48.0926 57.6179 49.4643C57.6179 49.4999 57.6179 49.5356 57.6179 49.5713L59.6968 70.0265C59.7209 70.2932 59.8441 70.5412 60.0422 70.7214C60.2402 70.9017 60.4987 71.0011 60.7665 71H60.8807C61.0277 70.9898 61.171 70.9493 61.3017 70.881C61.4323 70.8128 61.5474 70.7183 61.6398 70.6034C61.7322 70.4886 61.7999 70.3558 61.8386 70.2136C61.8773 70.0714 61.8862 69.9226 61.8647 69.7768ZM18.645 56.14C18.645 56.4927 18.5404 56.8374 18.3445 57.1306C18.1486 57.4238 17.8703 57.6524 17.5445 57.7873C17.2187 57.9223 16.8602 57.9576 16.5143 57.8888C16.1685 57.82 15.8508 57.6502 15.6015 57.4008C15.3522 57.1514 15.1824 56.8337 15.1136 56.4879C15.0449 56.142 15.08 55.7835 15.215 55.4577C15.3499 55.1319 15.5785 54.8534 15.8717 54.6575C16.1649 54.4615 16.5096 54.357 16.8622 54.357C17.0963 54.357 17.3282 54.4031 17.5445 54.4927C17.7608 54.5823 17.9573 54.7136 18.1229 54.8792C18.2884 55.0448 18.4196 55.2414 18.5092 55.4577C18.5988 55.674 18.645 55.9059 18.645 56.14ZM19.2013 37.9529C19.8136 37.1794 20.5725 36.5346 21.4347 36.0555C22.2969 35.5763 23.2453 35.2722 24.2253 35.1606L24.1184 36.3731L19.2013 37.9529ZM38.7555 36.3731L38.6449 35.0928C40.3583 35.2419 41.996 35.8669 43.3731 36.8973L43.2162 37.8067L38.7555 36.3731Z" fill="#00297C"/>
<path d="M61.8647 69.7768L59.793 49.3787C59.7863 47.5562 59.2002 45.7832 58.1195 44.3158C57.0388 42.8485 55.5196 41.7628 53.7813 41.2159L48.4648 39.5077C48.4449 39.4394 48.4174 39.3737 48.3828 39.3116C48.2473 39.0548 45.0276 33.2492 38.456 32.9211L38.2635 30.6923C39.1834 29.5618 40.6167 27.4329 40.8378 25.6997L40.984 24.5728C41.0892 23.7337 41.3634 22.9245 41.79 22.1943C42.5484 20.8958 42.9471 19.4187 42.9452 17.9149V12.4838C42.9718 10.9854 42.6997 9.49671 42.1448 8.10466C41.5899 6.7126 40.7633 5.44506 39.7132 4.376C38.6631 3.30695 37.4106 2.4578 36.0288 1.87816C34.647 1.29852 33.1636 1 31.6652 1C30.1668 1 28.6832 1.29852 27.3014 1.87816C25.9196 2.4578 24.6672 3.30695 23.6171 4.376C22.5671 5.44506 21.7403 6.7126 21.1854 8.10466C20.6305 9.49671 20.3584 10.9854 20.385 12.4838V18.1717C20.3861 19.486 20.6912 20.7822 21.2765 21.9589L21.4476 22.3155C21.7644 22.9489 21.9719 23.6313 22.061 24.3339L22.2356 25.7069C22.4389 27.2973 23.7368 29.3193 24.6425 30.4926C24.6292 30.5405 24.6196 30.5894 24.6139 30.6388L24.4107 32.996C19.0622 33.3276 16.6447 37.6034 15.985 39.0191L9.09968 41.2337C7.35982 41.7789 5.83873 42.8639 4.75661 44.3315C3.67448 45.799 3.08753 47.5731 3.08084 49.3965L1.0055 69.7946C0.976584 70.0811 1.06256 70.3674 1.24437 70.5907C1.42618 70.8139 1.68906 70.956 1.97544 70.9857H2.086C2.35378 70.9868 2.61222 70.8874 2.81028 70.7072C3.00833 70.5269 3.1316 70.2789 3.1557 70.0122L5.23453 49.557C5.23453 49.5213 5.23453 49.4856 5.23453 49.45C5.22869 48.0768 5.66328 46.738 6.47451 45.6301C7.28573 44.5223 8.4307 43.7038 9.74143 43.2949L15.7068 41.3763V51.982C15.7081 52.1036 15.7299 52.2241 15.7711 52.3386C14.8451 52.5966 14.0444 53.1826 13.5185 53.9873C12.9925 54.792 12.7771 55.7605 12.9122 56.7123C13.0474 57.6641 13.5242 58.5343 14.2534 59.1607C14.9826 59.787 15.9146 60.1269 16.8758 60.1168C17.837 60.1068 18.7618 59.7475 19.4778 59.106C20.1937 58.4646 20.6521 57.5846 20.7674 56.6302C20.8826 55.6757 20.6469 54.7119 20.1042 53.9184C19.5615 53.1249 18.749 52.5558 17.8179 52.3172C17.8564 52.2095 17.8769 52.0963 17.8784 51.982V40.6809L25.4519 38.2453C25.6567 38.1816 25.8377 38.0577 25.9712 37.8898C26.1048 37.7219 26.1847 37.5178 26.2007 37.3039L26.757 30.8207C26.7696 30.7284 26.7696 30.6348 26.757 30.5425C26.8302 30.363 26.8532 30.1671 26.8237 29.9755C26.7941 29.7839 26.7131 29.604 26.5893 29.4548C25.6052 28.2673 24.5142 26.4343 24.3858 25.4287L24.211 24.0558C24.0905 23.1109 23.8108 22.1933 23.3838 21.342L23.2162 20.9853C22.7793 20.1117 22.5512 19.1485 22.5495 18.1717V12.4873C22.5495 10.0708 23.5094 7.75329 25.2179 6.04457C26.9264 4.33585 29.2436 3.37591 31.6598 3.37591C34.076 3.37591 36.3932 4.33585 38.1017 6.04457C39.8102 7.75329 40.7701 10.0708 40.7701 12.4873V17.9185C40.7696 19.0334 40.4744 20.1283 39.9143 21.0923C39.3375 22.0771 38.9675 23.1692 38.8269 24.3018L38.6843 25.4287C38.5452 26.5271 37.3685 28.4457 36.3594 29.5975C36.2496 29.7218 36.1702 29.87 36.1275 30.0303C36.0848 30.1906 36.0799 30.3586 36.1133 30.5211C36.0935 30.6197 36.0864 30.7203 36.092 30.8207L36.6518 37.3039C36.6678 37.5178 36.7477 37.7219 36.8812 37.8898C37.0148 38.0577 37.1958 38.1816 37.4006 38.2453L42.8454 39.9962L40.8272 51.7965C40.8272 51.7965 40.8272 51.8215 40.8272 51.8357C40.6864 52.8363 40.8301 53.8562 41.2419 54.7789C41.6537 55.7016 42.3168 56.4896 43.1555 57.053C43.3919 57.2142 43.6828 57.2749 43.964 57.2218C44.2452 57.1686 44.4936 57.0059 44.6549 56.7694C44.8161 56.533 44.8769 56.2422 44.8238 55.961C44.7706 55.6797 44.6079 55.4312 44.3714 55.2699C43.8717 54.9335 43.4761 54.464 43.2291 53.9145C42.9821 53.365 42.8936 52.7574 42.9737 52.1603L44.9383 40.6809L46.7212 41.2551L50.0053 51.8892C50.3619 53.0946 49.8305 54.3855 48.6146 55.1736L48.4828 55.2592C48.3634 55.3369 48.2604 55.4374 48.1798 55.5549C48.0993 55.6725 48.0427 55.8047 48.0132 55.9441C47.9537 56.2257 48.0084 56.5193 48.1654 56.7605C48.3224 57.0017 48.5686 57.1707 48.8501 57.2302C49.1317 57.2897 49.4254 57.2349 49.6665 57.0779L49.7948 56.9959C51.8487 55.6622 52.7436 53.4048 52.0768 51.2473L49.2422 42.0682L53.1182 43.3127C54.427 43.7227 55.5701 44.5412 56.3799 45.6482C57.1897 46.7552 57.6235 48.0926 57.6179 49.4643C57.6179 49.4999 57.6179 49.5356 57.6179 49.5713L59.6968 70.0265C59.7209 70.2932 59.8441 70.5412 60.0422 70.7214C60.2402 70.9017 60.4987 71.0011 60.7665 71H60.8807C61.0277 70.9898 61.171 70.9493 61.3017 70.881C61.4323 70.8128 61.5474 70.7183 61.6398 70.6034C61.7322 70.4886 61.7999 70.3558 61.8386 70.2136C61.8773 70.0714 61.8862 69.9226 61.8647 69.7768ZM18.645 56.14C18.645 56.4927 18.5404 56.8374 18.3445 57.1306C18.1486 57.4238 17.8703 57.6524 17.5445 57.7873C17.2187 57.9223 16.8602 57.9576 16.5143 57.8888C16.1685 57.82 15.8508 57.6502 15.6015 57.4008C15.3522 57.1514 15.1824 56.8337 15.1136 56.4879C15.0449 56.142 15.08 55.7835 15.215 55.4577C15.3499 55.1319 15.5785 54.8534 15.8717 54.6575C16.1649 54.4615 16.5096 54.357 16.8622 54.357C17.0963 54.357 17.3282 54.4031 17.5445 54.4927C17.7608 54.5823 17.9573 54.7136 18.1229 54.8792C18.2884 55.0448 18.4196 55.2414 18.5092 55.4577C18.5988 55.674 18.645 55.9059 18.645 56.14ZM19.2013 37.9529C19.8136 37.1794 20.5725 36.5346 21.4347 36.0555C22.2969 35.5763 23.2453 35.2722 24.2253 35.1606L24.1184 36.3731L19.2013 37.9529ZM38.7555 36.3731L38.6449 35.0928C40.3583 35.2419 41.996 35.8669 43.3731 36.8973L43.2162 37.8067L38.7555 36.3731Z" stroke="#00297C" stroke-width="0.4" mask="url(#path-1-outside-1)"/>
<path d="M24.811 42.7043L24.8109 42.7043C24.7634 42.5562 24.7454 42.4003 24.7581 42.2452C24.7708 42.0902 24.8141 41.9391 24.8851 41.8009C24.9562 41.6625 25.0536 41.5396 25.1723 41.4389C25.2909 41.3383 25.4281 41.262 25.5762 41.2145C25.7242 41.1669 25.8803 41.149 26.0352 41.1617C26.1902 41.1744 26.3412 41.2175 26.4795 41.2886C26.6178 41.3596 26.7409 41.4572 26.8415 41.5759C26.9421 41.6945 27.0184 41.8317 27.0659 41.9798L24.811 42.7043ZM24.811 42.7043L30.4034 60.0713C30.401 60.1192 30.4013 60.1672 30.4043 60.215V69.9044C30.4043 70.2185 30.5291 70.5197 30.7511 70.7417C30.9732 70.9638 31.2743 71.0885 31.5883 71.0885C31.9023 71.0885 32.2036 70.9638 32.4256 70.7417C32.6477 70.5196 32.7723 70.2184 32.7723 69.9044V60.6307C32.7908 60.5918 32.8068 60.5519 32.8205 60.5111L32.8206 60.5111L32.8213 60.5088L38.3341 42.6783L38.3342 42.678C38.38 42.5284 38.3951 42.3713 38.3791 42.2158C38.3631 42.0603 38.3161 41.9096 38.2409 41.7725C38.1656 41.6355 38.0637 41.5149 37.941 41.4179C37.819 41.3215 37.6791 41.2503 37.5292 41.2086C37.3812 41.1604 37.2251 41.1423 37.0699 41.1553C36.9141 41.1684 36.7624 41.2125 36.6239 41.2853C36.4853 41.358 36.3629 41.4578 36.2637 41.5787C36.1645 41.6994 36.0904 41.8388 36.046 41.9886C36.046 41.9888 36.0459 41.989 36.0459 41.9892L31.6505 56.2205M24.811 42.7043L31.6505 56.2205M31.6505 56.2205L27.0659 41.9798L31.6505 56.2205Z" fill="#00297C" stroke="#00297C" stroke-width="0.2"/>
</svg>
