<svg width="69" height="70" viewBox="0 0 69 70" fill="none" xmlns="http://www.w3.org/2000/svg">
<path d="M33.0131 57.1988H4.64332C4.07279 57.1978 3.52595 56.9707 3.12252 56.5673C2.7191 56.1639 2.49201 55.617 2.49098 55.0465V4.64334C2.49201 4.07318 2.71923 3.52668 3.12276 3.12388C3.52629 2.72107 4.07315 2.49487 4.64332 2.49487H63.8038C64.374 2.49487 64.9209 2.72107 65.3244 3.12388C65.7279 3.52668 65.9552 4.07318 65.9562 4.64334V46.9236C65.9562 47.2539 66.0874 47.5707 66.321 47.8043C66.5546 48.0379 66.8714 48.1691 67.2017 48.1691C67.532 48.1691 67.8488 48.0379 68.0824 47.8043C68.3159 47.5707 68.4471 47.2539 68.4471 46.9236V4.64334C68.44 3.41406 67.9485 2.23715 67.0793 1.3679C66.21 0.498656 65.0331 0.00715012 63.8038 0H4.64332C3.41404 0.00715012 2.23715 0.498656 1.3679 1.3679C0.498656 2.23715 0.00715012 3.41406 0 4.64334V55.0465C-4.32033e-07 56.2784 0.489074 57.4598 1.35975 58.3312C2.23043 59.2026 3.41148 59.6927 4.64332 59.6937H33.0131C33.3434 59.6937 33.6602 59.5625 33.8938 59.3289C34.1274 59.0953 34.2586 58.7786 34.2586 58.4482C34.2586 58.1179 34.1274 57.8011 33.8938 57.5675C33.6602 57.334 33.3434 57.2027 33.0131 57.2027V57.1988Z" fill="#00297C"/>
<path d="M60.2542 25.8513V8.3367C60.2542 8.00637 60.123 7.68955 59.8895 7.45598C59.6559 7.22241 59.3391 7.09119 59.0088 7.09119H9.15051C8.81983 7.09118 8.50263 7.22228 8.26843 7.45574C8.03424 7.6892 7.90215 8.00602 7.90112 8.3367V25.8513C7.90215 26.182 8.03424 26.4987 8.26843 26.7322C8.50263 26.9656 8.81983 27.0967 9.15051 27.0967H59.0088C59.3388 27.0957 59.655 26.9642 59.8883 26.7308C60.1217 26.4975 60.2532 26.1813 60.2542 25.8513ZM57.7594 24.6058H10.4116V9.58216H57.7594V24.6058Z" fill="#00297C"/>
<path d="M41.1479 34.1537C41.4782 34.1537 41.795 34.0225 42.0285 33.7889C42.2621 33.5553 42.3933 33.2386 42.3933 32.9082C42.3933 32.5779 42.2621 32.2611 42.0285 32.0275C41.795 31.7939 41.4782 31.6627 41.1479 31.6627H35.6677C35.3374 31.6627 35.0206 31.7939 34.787 32.0275C34.5535 32.2611 34.4222 32.5779 34.4222 32.9082C34.4222 33.2386 34.5535 33.5553 34.787 33.7889C35.0206 34.0225 35.3374 34.1537 35.6677 34.1537H41.1479Z" fill="#00297C"/>
<path d="M9.09596 34.1537H31.6704C32.0007 34.1537 32.3175 34.0225 32.5511 33.7889C32.7847 33.5553 32.9159 33.2386 32.9159 32.9082C32.9159 32.5779 32.7847 32.2611 32.5511 32.0275C32.3175 31.7939 32.0007 31.6627 31.6704 31.6627H9.09596C8.76563 31.6627 8.44883 31.7939 8.21526 32.0275C7.98168 32.2611 7.85046 32.5779 7.85046 32.9082C7.85046 33.2386 7.98168 33.5553 8.21526 33.7889C8.44883 34.0225 8.76563 34.1537 9.09596 34.1537Z" fill="#00297C"/>
<path d="M46.7949 38.8046C46.4646 38.8046 46.1478 38.9358 45.9142 39.1694C45.6807 39.4029 45.5494 39.7197 45.5494 40.0501C45.5494 40.3804 45.6807 40.6971 45.9142 40.9307C46.1478 41.1643 46.4646 41.2955 46.7949 41.2955H48.7877C49.118 41.2955 49.4348 41.1643 49.6684 40.9307C49.9019 40.6971 50.0332 40.3804 50.0332 40.0501C50.0332 39.7197 49.9019 39.4029 49.6684 39.1694C49.4348 38.9358 49.118 38.8046 48.7877 38.8046H46.7949Z" fill="#00297C"/>
<path d="M43.557 40.0501C43.557 39.7197 43.4258 39.4029 43.1922 39.1694C42.9586 38.9358 42.6418 38.8046 42.3115 38.8046H28.5255C28.1952 38.8046 27.8784 38.9358 27.6448 39.1694C27.4112 39.4029 27.28 39.7197 27.28 40.0501C27.28 40.3804 27.4112 40.6971 27.6448 40.9307C27.8784 41.1643 28.1952 41.2955 28.5255 41.2955H42.3115C42.6418 41.2955 42.9586 41.1643 43.1922 40.9307C43.4258 40.6971 43.557 40.3804 43.557 40.0501Z" fill="#00297C"/>
<path d="M9.09595 41.2955H24.54C24.8703 41.2955 25.1871 41.1643 25.4206 40.9307C25.6542 40.6971 25.7854 40.3804 25.7854 40.0501C25.7854 39.7197 25.6542 39.4029 25.4206 39.1694C25.1871 38.9358 24.8703 38.8046 24.54 38.8046H9.09595C8.76563 38.8046 8.44883 38.9358 8.21526 39.1694C7.98168 39.4029 7.85046 39.7197 7.85046 40.0501C7.85046 40.3804 7.98168 40.6971 8.21526 40.9307C8.44883 41.1643 8.76563 41.2955 9.09595 41.2955Z" fill="#00297C"/>
<path d="M47.3791 47.6902C47.3791 47.5266 47.347 47.3646 47.2844 47.2135C47.2218 47.0624 47.13 46.9251 47.0144 46.8094C46.8987 46.6938 46.7614 46.6021 46.6103 46.5395C46.4592 46.4769 46.2972 46.4446 46.1337 46.4446H36.0064C35.676 46.4446 35.3592 46.5759 35.1257 46.8094C34.8921 47.043 34.7609 47.3598 34.7609 47.6902C34.7609 48.0205 34.8921 48.3372 35.1257 48.5708C35.3592 48.8044 35.676 48.9356 36.0064 48.9356H46.1259C46.29 48.9361 46.4525 48.9043 46.6043 48.842C46.7561 48.7797 46.8941 48.6881 47.0105 48.5724C47.1269 48.4568 47.2193 48.3194 47.2826 48.168C47.3458 48.0166 47.3786 47.8542 47.3791 47.6902Z" fill="#00297C"/>
<path d="M9.09595 48.9356H32.0168C32.3471 48.9356 32.6639 48.8044 32.8975 48.5708C33.131 48.3373 33.2623 48.0205 33.2623 47.6902C33.2623 47.3598 33.131 47.043 32.8975 46.8094C32.6639 46.5759 32.3471 46.4446 32.0168 46.4446H9.09595C8.76563 46.4446 8.44883 46.5759 8.21526 46.8094C7.98168 47.043 7.85046 47.3598 7.85046 47.6902C7.85046 48.0205 7.98168 48.3373 8.21526 48.5708C8.44883 48.8044 8.76563 48.9356 9.09595 48.9356Z" fill="#00297C"/>
<path d="M67.4783 51.8587C67.1016 51.4846 66.6545 51.1887 66.1628 50.9883C65.6711 50.7879 65.1446 50.6869 64.6137 50.6911H61.0368C61.8581 49.5481 62.4164 48.2376 62.6715 46.8534C62.8392 45.8095 62.9484 44.7569 62.9984 43.7008C63.023 43.2198 62.9494 42.7388 62.7821 42.2871C62.6148 41.8355 62.3574 41.4226 62.0254 41.0736C61.6963 40.7252 61.2993 40.448 60.8587 40.2592C60.4182 40.0704 59.9437 39.974 59.4644 39.976C58.6293 39.9732 57.8201 40.2653 57.1793 40.8008C56.5385 41.3362 56.1072 42.0806 55.9615 42.9029C55.5333 45.3199 54.7938 47.0597 53.9259 47.6708C53.5104 47.9634 53.0804 48.2348 52.6376 48.4842C51.8592 48.9435 51.0807 49.3794 50.8394 50.5003C50.5981 51.6213 50.1155 52.8746 49.1308 53.5674L49.0646 53.4817C48.8659 53.2683 48.6247 53.0989 48.3566 52.9842C48.0885 52.8696 47.7993 52.8123 47.5077 52.8161L44.3318 52.8706C44.037 52.8744 43.7462 52.9397 43.4781 53.0624C43.21 53.1851 42.9705 53.3624 42.7749 53.5829C42.5596 53.8295 42.4015 54.1205 42.3118 54.4353H37.9954C37.665 54.4353 37.3482 54.5665 37.1147 54.8001C36.8811 55.0337 36.7499 55.3504 36.7499 55.6808C36.7499 56.0111 36.8811 56.3279 37.1147 56.5615C37.3482 56.7951 37.665 56.9263 37.9954 56.9263H42.2534L42.3624 66.0611H37.9954C37.665 66.0611 37.3482 66.1923 37.1147 66.4259C36.8811 66.6595 36.7499 66.9763 36.7499 67.3066C36.7499 67.6369 36.8811 67.9537 37.1147 68.1873C37.3482 68.4209 37.665 68.5521 37.9954 68.5521H42.5258C42.6259 68.8411 42.7849 69.1062 42.9929 69.3305C43.1884 69.5409 43.4251 69.7088 43.6882 69.824C43.9513 69.9391 44.2353 69.999 44.5225 70H44.5692L47.7491 69.9455C48.0439 69.9419 48.3347 69.8767 48.6028 69.754C48.871 69.6314 49.1105 69.454 49.3059 69.2332C49.4826 69.0323 49.6223 68.8017 49.7185 68.5521C50.7614 68.5875 51.8012 68.6863 52.8322 68.8479C53.7539 69.0067 54.6876 69.0862 55.6229 69.0853H64.6137C65.688 69.0843 66.7179 68.6571 67.4775 67.8974C68.2372 67.1378 68.6644 66.1078 68.6654 65.0336V54.7583C68.6708 54.2203 68.5686 53.6866 68.3647 53.1886C68.1608 52.6907 67.8595 52.2385 67.4783 51.8587ZM44.8728 67.4779L44.7249 55.3499L47.1964 55.3032L47.3443 67.435L44.8728 67.4779ZM53.2292 66.3686C52.1003 66.191 50.9617 66.0819 49.8197 66.0417L49.699 56.0972C51.4699 55.3188 52.731 53.544 53.2837 51.0375C53.4769 50.8939 53.6797 50.7638 53.8909 50.6482C54.2606 50.4342 54.7666 50.1384 55.3777 49.7063C56.8294 48.6749 57.857 46.5342 58.4213 43.3427C58.4643 43.0984 58.5921 42.877 58.7822 42.7176C58.9722 42.5581 59.2124 42.4708 59.4605 42.4709C59.6056 42.4676 59.7497 42.4946 59.8838 42.5502C60.0178 42.6059 60.1388 42.6889 60.2389 42.7939C60.3367 42.8977 60.4126 43.0201 60.4621 43.1538C60.5116 43.2876 60.5336 43.4299 60.5269 43.5723C60.4783 44.537 60.3782 45.4985 60.2272 46.4525C59.838 48.9474 57.5378 50.9752 57.5027 50.9947C57.342 51.1387 57.2215 51.3221 57.1533 51.5268C57.085 51.7316 57.0713 51.9506 57.1135 52.1623V57.9732C57.114 58.9214 56.8333 59.8483 56.3067 60.6368C55.7801 61.4252 55.0315 62.0397 54.1555 62.4025L53.3771 62.7295C53.2261 62.7923 53.0889 62.8843 52.9734 63.0002C52.8579 63.1161 52.7664 63.2536 52.704 63.4048C52.6417 63.5561 52.6098 63.7181 52.61 63.8817C52.6103 64.0453 52.6428 64.2073 52.7057 64.3583C52.7686 64.5093 52.8606 64.6465 52.9765 64.762C53.0923 64.8775 53.2298 64.969 53.3811 65.0313C53.5323 65.0937 53.6944 65.1257 53.858 65.1254C54.0216 65.1251 54.1835 65.0926 54.3346 65.0297L55.113 64.7028C56.4884 64.1335 57.6556 63.1553 58.4563 61.9004V64.73C58.4533 65.3631 58.586 65.9896 58.8455 66.5671H55.5956C54.8022 66.5656 54.0104 66.4953 53.2292 66.3569V66.3686ZM66.1744 65.0103C66.1744 65.4232 66.0104 65.8191 65.7184 66.1111C65.4265 66.4031 65.0305 66.5671 64.6176 66.5671H62.2434C61.8609 66.4352 61.5291 66.1874 61.294 65.8581C61.0589 65.5289 60.9323 65.1345 60.9317 64.73V60.8923C60.9317 60.5617 60.8006 60.2445 60.5672 60.0103C60.3337 59.7761 60.0169 59.644 59.6863 59.643C59.585 59.6455 59.4844 59.6599 59.3866 59.6858C59.5222 59.125 59.5914 58.5502 59.5928 57.9732V53.1742H64.6137C65.0266 53.1742 65.4226 53.3383 65.7146 53.6303C66.0065 53.9222 66.1705 54.3182 66.1705 54.7311L66.1744 65.0103Z" fill="#00297C"/>
</svg>
