<svg width="121" height="121" viewBox="0 0 121 121" fill="none" xmlns="http://www.w3.org/2000/svg">
<g filter="url(#filter0_d)">
<path d="M103.231 6H74.3527C72.2925 6.00214 70.3174 6.86504 68.8603 8.39948C67.4032 9.93391 66.5831 12.0146 66.5801 14.1852V79.804C66.5821 81.9752 67.4017 84.057 68.8589 85.5923C70.3161 87.1276 72.2919 87.991 74.3527 87.9932H103.231C105.292 87.991 107.267 87.1275 108.724 85.592C110.18 84.0566 110.999 81.9749 111 79.804V14.1973C111.001 12.025 110.183 9.9412 108.726 8.40402C107.269 6.86685 105.293 6.00215 103.231 6V6ZM69.0225 17.7821H108.577V71.801H69.0225V17.7821ZM74.3527 8.57333H103.231C104.644 8.5744 105.998 9.16585 106.998 10.2179C107.997 11.27 108.559 12.6967 108.561 14.1852V15.2088H69.0071V14.1973C69.0066 13.4579 69.1446 12.7257 69.4132 12.0426C69.6817 11.3595 70.0756 10.7389 70.5722 10.2164C71.0688 9.694 71.6583 9.27996 72.307 8.99799C72.9558 8.71602 73.6509 8.57173 74.3527 8.57333V8.57333ZM103.231 85.4199H74.3527C72.9393 85.4189 71.5842 84.8268 70.5848 83.7739C69.5854 82.7209 69.0235 81.2931 69.0225 79.804V74.3742H108.577V79.804C108.572 81.2935 108.006 82.72 107.004 83.7706C106.002 84.8212 104.645 85.41 103.231 85.4078V85.4199Z" fill="url(#paint0_linear)"/>
<path d="M91.342 78.8336H86.1346C85.8108 78.8336 85.5001 78.9691 85.2711 79.2104C85.042 79.4517 84.9134 79.779 84.9134 80.1202C84.9134 80.4614 85.042 80.7888 85.2711 81.0301C85.5001 81.2714 85.8108 81.4069 86.1346 81.4069H91.342C91.6659 81.4069 91.9764 81.2714 92.2055 81.0301C92.4345 80.7888 92.5631 80.4614 92.5631 80.1202C92.5631 79.779 92.4345 79.4517 92.2055 79.2104C91.9764 78.9691 91.6659 78.8336 91.342 78.8336Z" fill="url(#paint1_linear)"/>
<path d="M75.2632 41.4597C75.541 41.4637 75.8118 41.3681 76.0312 41.1886L78.005 39.5702H99.6485L101.622 41.1886C101.878 41.3809 102.195 41.4619 102.506 41.4146C102.817 41.3674 103.099 41.1955 103.293 40.9349C103.486 40.6743 103.578 40.345 103.547 40.0155C103.516 39.6859 103.366 39.3815 103.128 39.1656L89.5795 28.0025C89.3646 27.8253 89.0997 27.729 88.8268 27.729C88.554 27.729 88.289 27.8253 88.0742 28.0025L74.5259 39.1656C74.3253 39.3316 74.1792 39.5597 74.1079 39.8178C74.0367 40.0759 74.0439 40.351 74.1286 40.6045C74.2134 40.858 74.3713 41.0772 74.5803 41.2313C74.7893 41.3854 75.0389 41.4667 75.2939 41.4637L75.2632 41.4597ZM88.8115 30.6445L96.4919 36.9888H81.0926L88.8115 30.6445Z" fill="url(#paint2_linear)"/>
<path d="M79.5407 40.676C79.2169 40.676 78.9063 40.8115 78.6773 41.0528C78.4482 41.2941 78.3196 41.6214 78.3196 41.9627V53.6233H76.2036C75.8798 53.6233 75.5692 53.7589 75.3402 54.0002C75.1111 54.2414 74.9825 54.5688 74.9825 54.91C74.9825 55.2513 75.1111 55.5785 75.3402 55.8198C75.5692 56.0611 75.8798 56.1966 76.2036 56.1966H100.781C101.105 56.1966 101.415 56.0611 101.644 55.8198C101.873 55.5785 102.002 55.2513 102.002 54.91C102.002 54.5688 101.873 54.2414 101.644 54.0002C101.415 53.7589 101.105 53.6233 100.781 53.6233H99.3177V41.9627C99.3177 41.6214 99.189 41.2941 98.96 41.0528C98.731 40.8115 98.4204 40.676 98.0965 40.676C97.7727 40.676 97.4621 40.8115 97.2331 41.0528C97.004 41.2941 96.8754 41.6214 96.8754 41.9627V53.6233H93.3117V41.9627C93.3117 41.6214 93.183 41.2941 92.954 41.0528C92.725 40.8115 92.4144 40.676 92.0905 40.676C91.7666 40.676 91.456 40.8115 91.2269 41.0528C90.9979 41.2941 90.8693 41.6214 90.8693 41.9627V53.6233H86.7834V41.9627C86.7834 41.6214 86.6547 41.2941 86.4257 41.0528C86.1967 40.8115 85.8861 40.676 85.5622 40.676C85.2383 40.676 84.9277 40.8115 84.6986 41.0528C84.4696 41.2941 84.341 41.6214 84.341 41.9627V53.6233H80.762V41.9627C80.762 41.6214 80.6333 41.2941 80.4043 41.0528C80.1753 40.8115 79.8646 40.676 79.5407 40.676V40.676Z" fill="url(#paint3_linear)"/>
<path d="M102.912 58.2552H74.1109C73.7871 58.2552 73.4765 58.3907 73.2474 58.632C73.0184 58.8733 72.8898 59.2006 72.8898 59.5419C72.8898 59.8831 73.0184 60.2104 73.2474 60.4516C73.4765 60.6929 73.7871 60.8285 74.1109 60.8285H102.912C103.236 60.8285 103.547 60.6929 103.776 60.4516C104.005 60.2104 104.134 59.8831 104.134 59.5419C104.134 59.2006 104.005 58.8733 103.776 58.632C103.547 58.3907 103.236 58.2552 102.912 58.2552V58.2552Z" fill="url(#paint4_linear)"/>
<path d="M88.8189 35.9009C89.1411 35.9017 89.4563 35.8018 89.7245 35.6138C89.9928 35.4258 90.2021 35.1582 90.3259 34.8448C90.4497 34.5314 90.4825 34.1863 90.4201 33.8533C90.3577 33.5202 90.203 33.2142 89.9754 32.9739C89.7479 32.7336 89.4577 32.5698 89.1418 32.5032C88.8258 32.4367 88.4982 32.4704 88.2005 32.6001C87.9027 32.7299 87.6482 32.9498 87.4691 33.232C87.29 33.5142 87.1945 33.846 87.1945 34.1854C87.1945 34.6397 87.3655 35.0755 87.67 35.3971C87.9745 35.7187 88.3877 35.8999 88.8189 35.9009V35.9009Z" fill="url(#paint5_linear)"/>
<path d="M12.8187 60.2161V60.4074C12.8481 60.4834 12.864 60.5631 12.8658 60.6436L12.8187 60.2161ZM12.8187 60.2161C12.8173 59.5334 13.1161 58.8782 13.6494 58.3942M12.8187 60.2161L13.6494 58.3942M12.9687 60.3808C12.9979 60.4644 13.0138 60.5518 13.0158 60.6402L13.0159 60.6436H13.0158V60.6999C13.1411 61.2388 13.4677 61.7264 13.9456 62.0795C14.4286 62.4363 15.0354 62.6329 15.6635 62.6335H54.187H54.1871V62.7835C55.4838 62.7826 56.7609 63.0623 57.9118 63.598L12.9687 60.3808ZM12.9687 60.3808V60.3805V60.3801V60.3797V60.3794V60.379V60.3786V60.3782V60.3779V60.3775V60.3771V60.3768V60.3764V60.376V60.3756V60.3753V60.3749V60.3745V60.3741V60.3738V60.3734V60.373V60.3726V60.3723V60.3719V60.3715V60.3711V60.3708V60.3704V60.37V60.3697V60.3693V60.3689V60.3685V60.3682V60.3678V60.3674V60.367V60.3667V60.3663V60.3659V60.3655V60.3652V60.3648V60.3644V60.364V60.3637V60.3633V60.3629V60.3626V60.3622V60.3618V60.3614V60.3611V60.3607V60.3603V60.3599V60.3596V60.3592V60.3588V60.3584V60.3581V60.3577V60.3573V60.3569V60.3566V60.3562V60.3558V60.3555V60.3551V60.3547V60.3543V60.354V60.3536V60.3532V60.3528V60.3525V60.3521V60.3517V60.3513V60.351V60.3506V60.3502V60.3498V60.3495V60.3491V60.3487V60.3484V60.348V60.3476V60.3472V60.3469V60.3465V60.3461V60.3457V60.3454V60.345V60.3446V60.3442V60.3439V60.3435V60.3431V60.3427V60.3424V60.342V60.3416V60.3413V60.3409V60.3405V60.3401V60.3398V60.3394V60.339V60.3386V60.3383V60.3379V60.3375V60.3371V60.3368V60.3364V60.336V60.3356V60.3353V60.3349V60.3345V60.3342V60.3338V60.3334V60.333V60.3327V60.3323V60.3319V60.3315V60.3312V60.3308V60.3304V60.33V60.3297V60.3293V60.3289V60.3285V60.3282V60.3278V60.3274V60.3271V60.3267V60.3263V60.3259V60.3256V60.3252V60.3248V60.3244V60.3241V60.3237V60.3233V60.3229V60.3226V60.3222V60.3218V60.3214V60.3211V60.3207V60.3203V60.32V60.3196V60.3192V60.3188V60.3185V60.3181V60.3177V60.3173V60.317V60.3166V60.3162V60.3158V60.3155V60.3151V60.3147V60.3143V60.314V60.3136V60.3132V60.3129V60.3125V60.3121V60.3117V60.3114V60.311V60.3106V60.3102V60.3099V60.3095V60.3091V60.3087V60.3084V60.308V60.3076V60.3072V60.3069V60.3065V60.3061V60.3057V60.3054V60.305V60.3046V60.3043V60.3039V60.3035V60.3031V60.3028V60.3024V60.302V60.3016V60.3013V60.3009V60.3005V60.3001V60.2998V60.2994V60.299V60.2986V60.2983V60.2979V60.2975V60.2972V60.2968V60.2964V60.296V60.2957V60.2953V60.2949V60.2945V60.2942V60.2938V60.2934V60.293V60.2927V60.2923V60.2919V60.2915V60.2912V60.2908V60.2904V60.2901V60.2897V60.2893V60.2889V60.2886V60.2882V60.2878V60.2874V60.2871V60.2867V60.2863V60.2859V60.2856V60.2852V60.2848V60.2844V60.2841V60.2837V60.2833V60.283V60.2826V60.2822V60.2818V60.2815V60.2811V60.2807V60.2803V60.28V60.2796V60.2792V60.2788V60.2785V60.2781V60.2777V60.2773V60.277V60.2766V60.2762V60.2759V60.2755V60.2751V60.2747V60.2744V60.274V60.2736V60.2732V60.2729V60.2725V60.2721V60.2717V60.2714V60.271V60.2706V60.2702V60.2699V60.2695V60.2691V60.2688V60.2684V60.268V60.2676V60.2673V60.2669V60.2665V60.2661V60.2658V60.2654V60.265V60.2646V60.2643V60.2639V60.2635V60.2631V60.2628V60.2624V60.262V60.2617V60.2613V60.2609V60.2605V60.2602V60.2598V60.2594V60.259V60.2587V60.2583V60.2579V60.2575V60.2572V60.2568V60.2564V60.256V60.2557V60.2553V60.2549V60.2546V60.2542V60.2538V60.2534V60.2531V60.2527V60.2523V60.2519V60.2516V60.2512V60.2508V60.2504V60.2501V60.2497V60.2493V60.2489V60.2486V60.2482V60.2478V60.2475V60.2471V60.2467V60.2463V60.246V60.2456V60.2452V60.2448V60.2445V60.2441V60.2437V60.2433V60.243V60.2426V60.2422V60.2418V60.2415V60.2411V60.2407V60.2404V60.24V60.2396V60.2392V60.2389V60.2385V60.2381V60.2377V60.2374V60.237V60.2366V60.2362V60.2359V60.2355V60.2351V60.2347V60.2344V60.234V60.2336V60.2333V60.2329V60.2325V60.2321V60.2318V60.2314V60.231V60.2306V60.2303V60.2299V60.2295V60.2291V60.2288V60.2284V60.228V60.2276V60.2273V60.2269V60.2265V60.2262V60.2258V60.2254V60.225V60.2247V60.2243V60.2239V60.2235V60.2232V60.2228V60.2224V60.222V60.2217V60.2213V60.2209V60.2205V60.2202V60.2198V60.2194V60.2191V60.2187V60.2183V60.2179V60.2176V60.2172V60.2168V60.2164L12.9687 60.2161L12.9687 60.2158C12.9674 59.5781 13.2463 58.9626 13.7502 58.5053C14.2545 58.0476 14.9424 57.7869 15.6636 57.7845H51.6984C52.5151 57.7845 53.9166 57.7867 55.1905 58.5194C56.4148 59.2237 57.5475 60.6197 57.8916 63.4237L12.9687 60.3808ZM13.6494 58.3942C14.1827 57.9102 14.907 57.637 15.6633 57.6345L13.6494 58.3942ZM15.6633 55.85L15.6632 55.85C14.3917 55.8513 13.1701 56.3076 12.2669 57.1228C11.3631 57.9385 10.8514 59.0479 10.85 60.2088L10.85 60.2098C10.8511 60.421 10.8695 60.6319 10.9049 60.8406L10.9049 98.6638L10.9049 98.6639C10.9071 100.654 11.784 102.559 13.3374 103.961C14.8903 105.362 16.9927 106.148 19.1829 106.15H19.183H54.1871H54.1875C56.3749 106.144 58.4733 105.357 60.0228 103.955C61.5727 102.554 62.4475 100.652 62.4496 98.6639V98.6638V90.4351C63.4374 90.3328 64.3563 89.9139 65.0367 89.2489C65.7494 88.5524 66.1486 87.6363 66.15 86.6819V86.6817V81.1901V81.19C66.1489 80.2374 65.7515 79.323 65.0416 78.6268C64.3639 77.9621 63.4481 77.542 62.4627 77.4371V70.0914C62.4625 68.14 61.6137 66.2709 60.1062 64.8844C60.0455 61.9258 59.321 59.668 57.9175 58.1466C56.5014 56.6114 54.4165 55.85 51.6984 55.85L15.6633 55.85ZM60.3544 70.0874V77.4075H54.2081H54.208C53.1064 77.4081 52.0474 77.8032 51.2642 78.5101C50.4806 79.2174 50.0366 80.18 50.0358 81.1877V81.1878V86.6793V86.6794C50.0366 87.687 50.4806 88.6497 51.2642 89.357C52.0474 90.0638 53.1064 90.459 54.208 90.4596H54.2081H60.3544V98.6613C60.3531 100.128 59.7071 101.539 58.5523 102.581C57.3969 103.624 55.8272 104.214 54.187 104.216H19.1832C17.5434 104.214 15.9742 103.625 14.8189 102.582C13.6642 101.54 13.0179 100.13 13.0158 98.6638C13.0158 98.6637 13.0158 98.6636 13.0158 98.6636L13.0158 63.8425C13.7988 64.315 14.7199 64.568 15.6633 64.568H54.1871H54.1873C55.822 64.5661 57.3882 65.1493 58.5433 66.1858C59.6979 67.2219 60.3471 68.6253 60.3544 70.0874ZM64.0521 86.6815C64.0515 87.1656 63.8382 87.6334 63.4532 87.9809C63.0676 88.3289 62.5418 88.5269 61.9906 88.5275H54.2083C53.657 88.5269 53.1313 88.3289 52.7457 87.9809C52.3607 87.6334 52.1474 87.1656 52.1467 86.6815V81.1903C52.1474 80.7059 52.3606 80.2379 52.7457 79.89C53.1312 79.5416 53.6569 79.3431 54.2084 79.3419H61.9905C62.5419 79.3431 63.0677 79.5416 63.4532 79.89C63.8382 80.2379 64.0515 80.7059 64.0521 81.1903V86.6815Z" fill="url(#paint6_linear)" stroke="url(#paint7_linear)" stroke-width="0.3"/>
</g>
<defs>
<filter id="filter0_d" x="0.700012" y="0" width="120.3" height="120.3" filterUnits="userSpaceOnUse" color-interpolation-filters="sRGB">
<feFlood flood-opacity="0" result="BackgroundImageFix"/>
<feColorMatrix in="SourceAlpha" type="matrix" values="0 0 0 0 0 0 0 0 0 0 0 0 0 0 0 0 0 0 127 0"/>
<feOffset dy="4"/>
<feGaussianBlur stdDeviation="5"/>
<feColorMatrix type="matrix" values="0 0 0 0 0.333333 0 0 0 0 0.678431 0 0 0 0 1 0 0 0 0.2 0"/>
<feBlend mode="normal" in2="BackgroundImageFix" result="effect1_dropShadow"/>
<feBlend mode="normal" in="SourceGraphic" in2="effect1_dropShadow" result="shape"/>
</filter>
<linearGradient id="paint0_linear" x1="88.79" y1="6" x2="88.79" y2="87.9932" gradientUnits="userSpaceOnUse">
<stop stop-color="#023BAE"/>
<stop offset="1" stop-color="#00297C"/>
</linearGradient>
<linearGradient id="paint1_linear" x1="88.7383" y1="78.8336" x2="88.7383" y2="81.4069" gradientUnits="userSpaceOnUse">
<stop stop-color="#023BAE"/>
<stop offset="1" stop-color="#00297C"/>
</linearGradient>
<linearGradient id="paint2_linear" x1="88.806" y1="27.729" x2="88.806" y2="41.4638" gradientUnits="userSpaceOnUse">
<stop stop-color="#023BAE"/>
<stop offset="1" stop-color="#00297C"/>
</linearGradient>
<linearGradient id="paint3_linear" x1="88.4922" y1="40.676" x2="88.4922" y2="56.1966" gradientUnits="userSpaceOnUse">
<stop stop-color="#023BAE"/>
<stop offset="1" stop-color="#00297C"/>
</linearGradient>
<linearGradient id="paint4_linear" x1="88.5117" y1="58.2552" x2="88.5117" y2="60.8285" gradientUnits="userSpaceOnUse">
<stop stop-color="#023BAE"/>
<stop offset="1" stop-color="#00297C"/>
</linearGradient>
<linearGradient id="paint5_linear" x1="88.8227" y1="32.47" x2="88.8227" y2="35.9009" gradientUnits="userSpaceOnUse">
<stop stop-color="#023BAE"/>
<stop offset="1" stop-color="#00297C"/>
</linearGradient>
<linearGradient id="paint6_linear" x1="38.5" y1="56" x2="38.5" y2="106" gradientUnits="userSpaceOnUse">
<stop stop-color="#023BAE"/>
<stop offset="1" stop-color="#00297C"/>
</linearGradient>
<linearGradient id="paint7_linear" x1="38.5" y1="56" x2="38.5" y2="106" gradientUnits="userSpaceOnUse">
<stop stop-color="#023BAE"/>
<stop offset="1" stop-color="#00297C"/>
</linearGradient>
</defs>
</svg>
