<svg width="60" height="74" viewBox="0 0 60 74" fill="none" xmlns="http://www.w3.org/2000/svg">
<path d="M30.6423 20.0085C31.9028 20.0085 33.1349 19.6408 34.183 18.9517C35.231 18.2627 36.0478 17.2834 36.5302 16.1376C37.0125 14.9918 37.1387 13.731 36.8928 12.5146C36.6469 11.2982 36.04 10.1809 35.1487 9.30393C34.2574 8.42696 33.1219 7.82973 31.8856 7.58777C30.6494 7.34582 29.368 7.47001 28.2035 7.94462C27.039 8.41923 26.0437 9.22296 25.3434 10.2542C24.6432 11.2854 24.2694 12.4977 24.2694 13.7379C24.2713 15.4004 24.9433 16.9943 26.138 18.1699C27.3328 19.3455 28.9527 20.0067 30.6423 20.0085ZM30.6423 9.71493C31.451 9.71493 32.2415 9.95085 32.9139 10.3929C33.5862 10.835 34.1103 11.4633 34.4197 12.1984C34.7292 12.9335 34.8102 13.7424 34.6524 14.5227C34.4947 15.3031 34.1052 16.02 33.5334 16.5826C32.9616 17.1452 32.2331 17.5284 31.44 17.6836C30.6469 17.8388 29.8248 17.7592 29.0777 17.4547C28.3306 17.1502 27.692 16.6345 27.2428 15.9729C26.7935 15.3114 26.5537 14.5336 26.5537 13.7379C26.5528 12.6697 26.9829 11.6449 27.7496 10.8886C28.5162 10.1323 29.5567 9.70641 30.6423 9.70458V9.71493Z" fill="white"/>
<path d="M30.993 47.4764C30.6901 47.4764 30.3996 47.5948 30.1854 47.8056C29.9712 48.0164 29.8508 48.3022 29.8508 48.6002V72.8762C29.8508 73.1742 29.9712 73.4601 30.1854 73.6709C30.3996 73.8816 30.6901 74 30.993 74C31.2959 74 31.5864 73.8816 31.8006 73.6709C32.0148 73.4601 32.1351 73.1742 32.1351 72.8762V48.6002C32.1351 48.3022 32.0148 48.0164 31.8006 47.8056C31.5864 47.5948 31.2959 47.4764 30.993 47.4764Z" fill="white"/>
<path d="M27.5944 20.0876L25.7656 20.5529C24.0564 20.9904 22.5641 22.0182 21.5614 23.4487C20.8116 22.4938 19.9322 21.8043 18.0999 21.3355L16.3762 20.8942C16.0843 20.8228 15.7755 20.8676 15.5169 21.0188C15.2583 21.1701 15.0708 21.4157 14.9951 21.7022C14.9194 21.9886 14.9617 22.2929 15.1127 22.549C15.2637 22.805 15.5113 22.992 15.8016 23.0695L17.5254 23.5108C19.186 23.9348 19.5048 24.3864 20.4648 25.848C20.4157 26.048 20.3702 26.2479 20.3386 26.4513L16.9297 45.3633C16.9266 45.3896 16.9266 45.4162 16.9297 45.4425C16.8621 46.0676 16.9736 46.6988 17.2516 47.2648C17.5296 47.8308 17.963 48.3089 18.5028 48.6451L16.6039 70.6079C16.5915 70.7557 16.6088 70.9046 16.6549 71.0458C16.701 71.1871 16.775 71.318 16.8727 71.431C16.9703 71.5441 17.0897 71.6371 17.2239 71.7046C17.3582 71.7722 17.5047 71.813 17.655 71.8248H17.7531C18.04 71.824 18.3162 71.7173 18.5271 71.5258C18.7379 71.3343 18.868 71.072 18.8917 70.7906L20.7626 49.1449C21.6561 49.0418 22.4727 48.5974 23.0364 47.9074L25.3627 72.8865C25.3864 73.1679 25.5165 73.4303 25.7273 73.6218C25.9382 73.8133 26.2144 73.92 26.5013 73.9207H26.6064C26.9082 73.8928 27.1864 73.7483 27.3801 73.5189C27.5738 73.2895 27.6673 72.9939 27.64 72.6969L24.9282 43.581L25.177 40.9093C25.1909 40.8377 25.198 40.765 25.198 40.6921L26.2771 29.0988C26.2952 28.9498 26.2828 28.7987 26.2406 28.6545C26.1983 28.5102 26.1271 28.3758 26.0312 28.259C25.9353 28.1423 25.8166 28.0457 25.6821 27.9748C25.5476 27.904 25.4001 27.8603 25.2482 27.8465C25.0963 27.8327 24.9431 27.849 24.7977 27.8943C24.6523 27.9397 24.5175 28.0133 24.4015 28.1108C24.2855 28.2082 24.1905 28.3275 24.1221 28.4617C24.0537 28.5959 24.0133 28.7422 24.0033 28.892L22.9137 40.5715L21.5123 45.9941V46.0389C21.4517 46.3209 21.2845 46.5698 21.0445 46.7351C20.8046 46.9005 20.5098 46.9701 20.2197 46.9299C19.9296 46.8896 19.6659 46.7424 19.4818 46.5182C19.2977 46.2939 19.207 46.0093 19.2281 45.7217L22.6335 26.8443C22.6335 26.8443 22.6335 26.8443 22.6335 26.8202C22.7854 25.8541 23.2212 24.9529 23.8874 24.2276C24.5535 23.5024 25.4207 22.9848 26.3822 22.7386L28.2111 22.2732C28.5014 22.1957 28.749 22.0087 28.9 21.7526C29.051 21.4966 29.0932 21.1923 29.0175 20.9058C28.9419 20.6194 28.7544 20.3738 28.4958 20.2225C28.2372 20.0713 27.9284 20.0265 27.6365 20.0979L27.5944 20.0876Z" fill="white"/>
<path d="M29.3954 22.3768V24.0246C29.3954 24.3226 29.5157 24.6085 29.7299 24.8192C29.9441 25.03 30.2346 25.1484 30.5376 25.1484C30.8405 25.1484 31.131 25.03 31.3452 24.8192C31.5594 24.6085 31.6797 24.3226 31.6797 24.0246V22.3768C31.6797 22.0787 31.5594 21.7928 31.3452 21.5821C31.131 21.3713 30.8405 21.2529 30.5376 21.2529C30.2346 21.2529 29.9441 21.3713 29.7299 21.5821C29.5157 21.7928 29.3954 22.0787 29.3954 22.3768Z" fill="white"/>
<path d="M31.6933 37.2104V27.1719C31.6933 26.8738 31.573 26.588 31.3588 26.3772C31.1446 26.1664 30.8541 26.048 30.5512 26.048C30.2483 26.048 29.9578 26.1664 29.7436 26.3772C29.5294 26.588 29.4091 26.8738 29.4091 27.1719V37.2104C29.4091 37.5085 29.5294 37.7943 29.7436 38.0051C29.9578 38.2158 30.2483 38.3342 30.5512 38.3342C30.8541 38.3342 31.1446 38.2158 31.3588 38.0051C31.573 37.7943 31.6933 37.5085 31.6933 37.2104Z" fill="white"/>
<path d="M45.1716 20.66C45.7564 20.842 46.366 20.935 46.9794 20.9358C48.5916 20.9358 50.1377 20.3056 51.2776 19.184C52.4176 18.0623 53.0581 16.541 53.0581 14.9547C53.0581 13.3684 52.4176 11.8471 51.2776 10.7254C50.1377 9.60377 48.5916 8.97363 46.9794 8.97363C46.6483 8.97636 46.3179 9.00518 45.9915 9.05981L45.3433 2.97531C45.232 2.09739 44.7769 1.2969 44.0748 0.744194C43.3727 0.191487 42.479 -0.0697914 41.5841 0.0160173C40.6892 0.101826 39.8637 0.527955 39.2832 1.20364C38.7028 1.87932 38.4133 2.75121 38.4763 3.63375L39.5589 15.4994L33.9883 20.7945C33.8804 20.897 33.7941 21.0194 33.7343 21.1548C33.6745 21.2902 33.6424 21.4358 33.6398 21.5834C33.6372 21.7309 33.6642 21.8775 33.7192 22.0149C33.7741 22.1522 33.8561 22.2775 33.9603 22.3837C34.0645 22.4898 34.1889 22.5747 34.3265 22.6336C34.4641 22.6924 34.6121 22.724 34.762 22.7266C34.912 22.7291 35.0611 22.7026 35.2006 22.6485C35.3402 22.5944 35.4675 22.5138 35.5754 22.4112L41.5314 16.7439C41.6548 16.6273 41.7503 16.4851 41.8109 16.3277C41.8715 16.1703 41.8957 16.0016 41.8818 15.8338L40.7501 3.42347C40.7219 3.12132 40.8167 2.82051 41.0138 2.58715C41.2109 2.35378 41.4941 2.20697 41.8012 2.179C42.1067 2.15496 42.4097 2.2498 42.6449 2.44319C42.8801 2.63658 43.0287 2.91307 43.059 3.21319L44.52 16.8749C44.5501 17.1639 44.5217 17.4559 44.4363 17.7341C44.3509 18.0122 44.2102 18.2708 44.0224 18.4951L36.4092 27.5305C36.394 27.5503 36.38 27.5711 36.3672 27.5925C36.3418 27.6237 36.3195 27.6572 36.3007 27.6925C36.2816 27.7221 36.2652 27.7532 36.2516 27.7856C36.2355 27.8204 36.2215 27.8561 36.2096 27.8925C36.197 27.9275 36.1865 27.9632 36.178 27.9993L36.157 28.1027C36.157 28.1441 36.157 28.182 36.157 28.2234C36.157 28.2648 36.157 28.2717 36.157 28.2958L36.8016 43.4915L34.4823 72.7144C34.4591 73.0115 34.5568 73.3055 34.7539 73.5318C34.951 73.7581 35.2314 73.898 35.5334 73.9209H35.621C35.9081 73.921 36.1848 73.8146 36.3958 73.6229C36.6068 73.4312 36.7367 73.1684 36.7596 72.8867L39.086 43.5846C39.086 43.5398 39.086 43.495 39.086 43.4502L38.4553 28.6267L45.1716 20.66ZM46.9794 11.2213C47.4976 11.2197 48.0106 11.3226 48.4869 11.5236C48.9631 11.7245 49.3925 12.0194 49.7484 12.3899C50.1044 12.7604 50.3795 13.1987 50.5568 13.6779C50.734 14.157 50.8096 14.6668 50.7789 15.1758C50.7482 15.6847 50.6119 16.1821 50.3783 16.6373C50.1448 17.0924 49.8189 17.4957 49.4209 17.8222C49.0229 18.1487 48.5612 18.3916 48.0642 18.5357C47.5671 18.6799 47.0454 18.7224 46.531 18.6606C46.7808 18.0149 46.8743 17.3209 46.8042 16.6335L46.2332 11.2937C46.4788 11.245 46.7288 11.2208 46.9794 11.2213Z" fill="white"/>
<path d="M13.0159 20.9355C14.2181 20.9355 15.3934 20.5847 16.393 19.9275C17.3926 19.2703 18.1718 18.3362 18.6319 17.2433C19.0919 16.1504 19.2123 14.9478 18.9778 13.7876C18.7432 12.6274 18.1643 11.5616 17.3141 10.7251C16.464 9.88867 15.3809 9.31904 14.2018 9.08826C13.0227 8.85747 11.8004 8.97592 10.6897 9.42861C9.57898 9.8813 8.62965 10.6479 7.96172 11.6315C7.29379 12.6151 6.93726 13.7715 6.93726 14.9544C6.93911 16.5401 7.58013 18.0604 8.71969 19.1817C9.85926 20.3029 11.4043 20.9337 13.0159 20.9355ZM13.0159 11.221C13.7663 11.221 14.4999 11.44 15.1239 11.8502C15.7479 12.2604 16.2342 12.8435 16.5214 13.5257C16.8086 14.2079 16.8837 14.9586 16.7373 15.6828C16.5909 16.407 16.2296 17.0722 15.6989 17.5943C15.1683 18.1165 14.4922 18.4721 13.7562 18.6161C13.0201 18.7602 12.2572 18.6862 11.5639 18.4037C10.8706 18.1211 10.278 17.6426 9.86104 17.0286C9.44411 16.4146 9.22157 15.6928 9.22157 14.9544C9.2225 13.9645 9.62254 13.0154 10.3339 12.3155C11.0453 11.6155 12.0099 11.2219 13.0159 11.221Z" fill="white"/>
<path d="M13.4748 46.7286C13.1719 46.7286 12.8814 46.847 12.6672 47.0577C12.453 47.2685 12.3326 47.5543 12.3326 47.8524V70.7805C12.3326 71.0785 12.453 71.3644 12.6672 71.5751C12.8814 71.7859 13.1719 71.9043 13.4748 71.9043C13.7777 71.9043 14.0682 71.7859 14.2824 71.5751C14.4966 71.3644 14.6169 71.0785 14.6169 70.7805V47.8524C14.6169 47.5543 14.4966 47.2685 14.2824 47.0577C14.0682 46.847 13.7777 46.7286 13.4748 46.7286Z" fill="white"/>
<path d="M10.1363 20.8943L8.41255 21.3355C7.08626 21.672 5.88924 22.3836 4.96955 23.3823C4.04985 24.3809 3.44779 25.6229 3.23778 26.9547L0.0179773 44.8014V44.8807C-0.0707524 45.7148 0.17125 46.5504 0.693458 47.2132C1.21566 47.876 1.97775 48.3149 2.82083 48.4383C2.98529 48.4646 3.15173 48.4773 3.31835 48.4762C3.78625 48.4755 4.24866 48.3771 4.67504 48.1875C5.10143 47.9979 5.48207 47.7215 5.79185 47.3765L7.97461 70.8009C7.99667 71.0823 8.12581 71.3451 8.33626 71.5368C8.5467 71.7286 8.82295 71.8351 9.10976 71.8351H9.21484C9.36582 71.8243 9.5131 71.784 9.64804 71.7165C9.78298 71.649 9.90288 71.5557 10.0007 71.4421C10.0986 71.3284 10.1725 71.1968 10.218 71.0547C10.2635 70.9127 10.2798 70.7631 10.2659 70.6148L7.70833 43.1398L7.94304 40.6232C7.95398 40.556 7.95986 40.488 7.96058 40.4198L8.98364 29.4781C9.01151 29.1809 8.91825 28.8851 8.72442 28.6556C8.53059 28.4261 8.25205 28.2817 7.95006 28.2543C7.64807 28.2269 7.34736 28.3186 7.11411 28.5093C6.88086 28.7 6.73419 28.9741 6.70632 29.2713L5.67975 40.3026L4.34838 45.415V45.4598C4.29522 45.711 4.14692 45.9329 3.93353 46.0804C3.72014 46.2279 3.45767 46.29 3.19946 46.254C2.94125 46.218 2.70664 46.0867 2.54327 45.8867C2.37989 45.6866 2.30002 45.433 2.31984 45.1771L5.53259 27.3649V27.3408C5.67614 26.441 6.08447 25.6023 6.70713 24.9284C7.32979 24.2545 8.13949 23.7748 9.03616 23.5487L10.7599 23.1075C10.909 23.0742 11.0497 23.0118 11.1738 22.924C11.2979 22.8363 11.4029 22.7249 11.4825 22.5965C11.562 22.4681 11.6145 22.3252 11.637 22.1765C11.6594 22.0277 11.6513 21.876 11.6131 21.7304C11.5748 21.5848 11.5073 21.4482 11.4145 21.3288C11.3216 21.2093 11.2053 21.1094 11.0725 21.035C10.9397 20.9606 10.793 20.9131 10.6412 20.8955C10.4895 20.8778 10.3356 20.8903 10.1888 20.9322L10.1363 20.8943Z" fill="white"/>
<path d="M12.1858 23.2763V24.7724C12.1858 25.0705 12.3061 25.3563 12.5203 25.5671C12.7345 25.7778 13.025 25.8962 13.3279 25.8962C13.6308 25.8962 13.9213 25.7778 14.1355 25.5671C14.3497 25.3563 14.47 25.0705 14.47 24.7724V23.2763C14.47 22.9782 14.3497 22.6924 14.1355 22.4816C13.9213 22.2709 13.6308 22.1525 13.3279 22.1525C13.025 22.1525 12.7345 22.2709 12.5203 22.4816C12.3061 22.6924 12.1858 22.9782 12.1858 23.2763Z" fill="white"/>
<path d="M13.3279 38.3341C13.6308 38.3341 13.9213 38.2157 14.1355 38.005C14.3497 37.7942 14.47 37.5084 14.47 37.2103V27.4717C14.47 27.1737 14.3497 26.8878 14.1355 26.6771C13.9213 26.4663 13.6308 26.3479 13.3279 26.3479C13.025 26.3479 12.7345 26.4663 12.5203 26.6771C12.3061 26.8878 12.1858 27.1737 12.1858 27.4717V37.2103C12.1858 37.5084 12.3061 37.7942 12.5203 38.005C12.7345 38.2157 13.025 38.3341 13.3279 38.3341Z" fill="white"/>
<path d="M40.2104 46.8974C40.0599 46.9087 39.9132 46.9492 39.7787 47.0166C39.6442 47.084 39.5247 47.177 39.427 47.2902C39.3292 47.4033 39.2552 47.5344 39.2093 47.6759C39.1634 47.8173 39.1464 47.9663 39.1594 48.1143L41.1178 70.7873C41.1406 71.0683 41.27 71.3307 41.4803 71.5223C41.6905 71.7138 41.9663 71.8206 42.2529 71.8215H42.351C42.5013 71.8097 42.6478 71.7689 42.782 71.7013C42.9163 71.6337 43.0357 71.5408 43.1333 71.4277C43.2309 71.3146 43.3049 71.1837 43.3511 71.0425C43.3972 70.9012 43.4145 70.7524 43.402 70.6045L41.4401 47.9316C41.4286 47.7841 41.3876 47.6404 41.3196 47.5086C41.2515 47.3767 41.1576 47.2594 41.0434 47.1633C40.9291 47.0672 40.7967 46.9943 40.6538 46.9487C40.5109 46.903 40.3602 46.8856 40.2104 46.8974Z" fill="white"/>
<path d="M46.5274 46.7286C46.3774 46.7286 46.2289 46.7577 46.0903 46.8141C45.9518 46.8706 45.8258 46.9534 45.7198 47.0577C45.6137 47.1621 45.5296 47.286 45.4722 47.4223C45.4148 47.5587 45.3853 47.7048 45.3853 47.8524V70.7805C45.3853 71.0785 45.5056 71.3644 45.7198 71.5751C45.934 71.7859 46.2245 71.9043 46.5274 71.9043C46.8303 71.9043 47.1208 71.7859 47.335 71.5751C47.5492 71.3644 47.6696 71.0785 47.6696 70.7805V47.8524C47.6696 47.5543 47.5492 47.2685 47.335 47.0577C47.1208 46.847 46.8303 46.7286 46.5274 46.7286Z" fill="white"/>
<path d="M59.9845 44.8809C59.986 44.8545 59.986 44.828 59.9845 44.8016L56.7648 26.9549C56.555 25.6236 55.9534 24.3819 55.0344 23.3833C54.1153 22.3846 52.9192 21.6728 51.5935 21.3358L49.8697 20.8945C49.724 20.8556 49.5719 20.8456 49.4222 20.8649C49.2725 20.8843 49.1281 20.9326 48.9975 21.0072C48.8669 21.0818 48.7527 21.1811 48.6614 21.2994C48.57 21.4177 48.5034 21.5527 48.4654 21.6965C48.4274 21.8403 48.4188 21.9901 48.4401 22.1372C48.4613 22.2843 48.5119 22.4258 48.5891 22.5535C48.6662 22.6812 48.7684 22.7926 48.8896 22.8812C49.0108 22.9698 49.1486 23.0339 49.2952 23.0698L51.0189 23.511C51.9153 23.7375 52.7248 24.2173 53.3474 24.8912C53.97 25.565 54.3785 26.4035 54.5224 27.3031C54.5205 27.311 54.5205 27.3193 54.5224 27.3272L57.7352 45.1394C57.7551 45.3953 57.6752 45.649 57.5118 45.849C57.3485 46.049 57.1138 46.1803 56.8556 46.2163C56.5974 46.2523 56.3349 46.1902 56.1215 46.0427C55.9081 45.8952 55.7598 45.6733 55.7067 45.4221V45.3773L54.3753 40.2649L53.3453 29.2336C53.31 28.9428 53.1607 28.677 52.9292 28.4929C52.6978 28.3088 52.4024 28.2208 52.1061 28.2478C51.8097 28.2748 51.5357 28.4145 51.3425 28.6372C51.1492 28.86 51.052 29.1481 51.0715 29.4404L52.091 40.3821C52.0912 40.4504 52.0982 40.5186 52.112 40.5855L52.3467 43.1021L49.7856 70.5771C49.7722 70.7253 49.7888 70.8747 49.8346 71.0165C49.8803 71.1584 49.9542 71.2899 50.052 71.4034C50.1498 71.5169 50.2695 71.6102 50.4042 71.6779C50.5389 71.7455 50.6859 71.7861 50.8367 71.7974H50.9418C51.2288 71.7967 51.505 71.69 51.7158 71.4985C51.9267 71.307 52.0568 71.0446 52.0805 70.7632L54.2597 47.3388C54.5698 47.6843 54.9511 47.9609 55.3781 48.1505C55.8052 48.3401 56.2682 48.4382 56.7367 48.4385C56.9033 48.4394 57.0697 48.4268 57.2342 48.4006C58.0611 48.267 58.8054 47.829 59.3161 47.1754C59.8269 46.5218 60.0658 45.7015 59.9845 44.8809Z" fill="white"/>
<path d="M46.6816 22.1525C46.5315 22.152 46.3828 22.1808 46.244 22.2371C46.1052 22.2934 45.9791 22.3762 45.8729 22.4806C45.7668 22.5851 45.6826 22.7091 45.6254 22.8457C45.5682 22.9822 45.539 23.1286 45.5394 23.2763V24.7724C45.5394 25.0705 45.6598 25.3563 45.874 25.5671C46.0882 25.7778 46.3787 25.8962 46.6816 25.8962C46.9845 25.8962 47.2751 25.7778 47.4893 25.5671C47.7034 25.3563 47.8238 25.0705 47.8238 24.7724V23.2763C47.8242 23.1286 47.795 22.9822 47.7377 22.8457C47.6805 22.7091 47.5964 22.5851 47.4903 22.4806C47.3841 22.3762 47.258 22.2934 47.1192 22.2371C46.9804 22.1808 46.8317 22.152 46.6816 22.1525Z" fill="white"/>
<path d="M46.6816 26.3479C46.3787 26.3479 46.0882 26.4663 45.874 26.6771C45.6598 26.8878 45.5394 27.1737 45.5394 27.4717V37.2103C45.5394 37.5084 45.6598 37.7942 45.874 38.005C46.0882 38.2157 46.3787 38.3341 46.6816 38.3341C46.9845 38.3341 47.275 38.2157 47.4892 38.005C47.7034 37.7942 47.8237 37.5084 47.8237 37.2103V27.4717C47.8237 27.1737 47.7034 26.8878 47.4892 26.6771C47.275 26.4663 46.9845 26.3479 46.6816 26.3479Z" fill="white"/>
</svg>
