<svg width="42" height="30" viewBox="0 0 42 30" fill="none" xmlns="http://www.w3.org/2000/svg">
<path d="M4.5 0C2.0325 0 0 2.0325 0 4.5V25.5C0 27.9675 2.0325 30 4.5 30H37.5C39.9675 30 42 27.9675 42 25.5V4.5C42 2.0325 39.9675 0 37.5 0H4.5ZM4.5 3H37.5C38.3475 3 39 3.6525 39 4.5V25.5C39 26.3475 38.3475 27 37.5 27H4.5C3.6525 27 3 26.3475 3 25.5V4.5C3 3.6525 3.6525 3 4.5 3ZM21.75 8.157C21.5833 8.15499 21.4179 8.18632 21.2635 8.24913C21.1091 8.31195 20.9688 8.40499 20.8509 8.52279C20.7329 8.6406 20.6397 8.78078 20.5767 8.93511C20.5137 9.08945 20.4822 9.25481 20.484 9.4215C20.484 10.1265 21.039 10.6905 21.75 10.6905C21.9164 10.6909 22.0812 10.6584 22.2349 10.5949C22.3887 10.5315 22.5284 10.4382 22.6461 10.3206C22.7637 10.2029 22.857 10.0632 22.9204 9.90944C22.9839 9.75567 23.0164 9.59086 23.016 9.4245C23.017 9.25811 22.9849 9.09318 22.9216 8.93929C22.8583 8.78541 22.765 8.64565 22.6472 8.52813C22.5294 8.41061 22.3895 8.31768 22.2354 8.25474C22.0814 8.1918 21.9164 8.16011 21.75 8.1615V8.157ZM13.593 9.282L11.532 9.609L11.25 11.439L10.5 11.5785L10.218 13.263H11.25V16.779C11.25 17.694 11.475 18.312 11.955 18.699C12.3525 19.0215 12.9255 19.1685 13.734 19.1685C14.358 19.1685 14.739 19.0515 15 18.9825V17.1075C14.8545 17.1465 14.52 17.202 14.295 17.202C13.8195 17.202 13.5945 16.9575 13.5945 16.4025V13.2615H14.859L15.141 11.4315H13.596L13.593 9.276V9.282ZM7.3605 11.295C6.5415 11.295 5.8335 11.508 5.346 11.907C4.839 12.324 4.596 12.957 4.596 13.6875C4.596 15.012 5.391 15.5535 6.705 16.032C7.551 16.332 7.83 16.542 7.83 16.875C7.83 17.196 7.575 17.391 7.08 17.391C6.465 17.391 5.445 17.076 4.782 16.686L4.5 18.516C5.0655 18.8385 6.1275 19.173 7.2195 19.173C8.0865 19.173 8.7945 19.002 9.282 18.612C9.828 18.183 10.125 17.508 10.125 16.692C10.125 15.336 9.3045 14.7765 7.968 14.2995C7.257 14.0385 6.843 13.872 6.843 13.5495C6.843 13.2795 7.053 13.0845 7.4535 13.0845C8.181 13.0845 8.949 13.392 9.4665 13.6455L9.747 11.8155C8.99784 11.4677 8.18039 11.2919 7.3545 11.301L7.3605 11.295ZM28.08 11.295C27.375 11.295 26.73 11.6205 26.157 12.234L26.0625 11.439H23.9055V21.8445L26.343 21.4215V19.035C26.7135 19.152 27.081 19.176 27.423 19.176C28.026 19.176 28.896 19.026 29.5785 18.2865C30.228 17.574 30.5595 16.5015 30.5595 15.051C30.5595 13.767 30.342 12.771 29.8545 12.147C29.427 11.592 28.8345 11.3025 28.0755 11.3025L28.08 11.295ZM34.407 11.295C32.352 11.295 31.077 12.846 31.077 15.282C31.077 16.647 31.392 17.676 32.0625 18.327C32.667 18.912 33.5685 19.1715 34.6875 19.1715C35.7195 19.1715 36.663 18.966 37.2675 18.5655L36.9825 16.878C36.3502 17.2218 35.6412 17.3999 34.9215 17.3955C34.4565 17.3955 34.1265 17.271 33.894 17.0655C33.639 16.8525 33.522 16.533 33.471 16.0365H37.4565C37.4685 15.9165 37.5015 15.366 37.5015 15.1905C37.5015 13.983 37.2225 13.0035 36.7065 12.3315C36.1785 11.6475 35.412 11.2965 34.4085 11.2965L34.407 11.295ZM19.5 11.346C19.1786 11.3371 18.863 11.4328 18.6006 11.6186C18.3383 11.8044 18.1433 12.0704 18.045 12.3765L17.907 11.4405H15.795V19.035H18.234V14.1105C18.534 13.74 18.9615 13.5945 19.5465 13.5945C19.6755 13.5945 19.8015 13.614 19.9725 13.6425V11.3925C19.8183 11.3593 19.6607 11.3442 19.503 11.3475L19.5 11.346ZM20.532 11.439V19.0335H22.968V11.4375H20.5305L20.532 11.439ZM34.359 12.939C34.905 12.939 35.211 13.461 35.25 14.5335H33.468C33.537 13.449 33.804 12.9375 34.359 12.9375V12.939ZM27.234 13.173C27.849 13.173 28.1715 13.803 28.1715 15.0975C28.176 15.8355 28.0665 16.4415 27.846 16.8315C27.651 17.202 27.354 17.394 27.003 17.394C26.7766 17.3981 26.5522 17.3499 26.3475 17.253V13.6455C26.757 13.2165 27.1035 13.176 27.2385 13.176L27.234 13.173Z" fill="white"/>
</svg>
