<svg width="73" height="44" viewBox="0 0 73 44" fill="none" xmlns="http://www.w3.org/2000/svg">
<path d="M18.8699 19.0867L36.5 24.9177M18.8699 19.0867L35.8124 24.7113L36.5 24.9177M18.8699 19.0867V19.0845V28.8277C18.8699 28.8496 18.8588 29.1021 19.5596 29.6509C20.256 30.1976 21.5078 30.8913 23.1385 31.4336C26.4067 32.5203 31.222 33.2184 36.5 33.2184C41.778 33.2184 46.5933 32.5181 49.8592 31.4358C51.4944 30.8913 52.744 30.1998 53.4404 29.6509C54.139 29.1043 54.1301 28.8496 54.1301 28.8277V19.0845L37.1898 24.7091L36.5 24.9177M36.5 2L35.8102 2.20856L8.26311 11.4029L2 13.4599L5.64724 14.6235V33.8332C4.33159 34.595 3.44347 35.9846 3.44347 37.6092C3.44347 38.7737 3.90783 39.8905 4.73441 40.714C5.56098 41.5374 6.68205 42 7.85101 42C9.01996 42 10.141 41.5374 10.9676 40.714C11.7942 39.8905 12.2585 38.7737 12.2585 37.6092C12.2585 35.9846 11.3704 34.595 10.0548 33.8332V16.1383L14.4623 17.5763V28.8277C14.4623 30.6279 15.5642 32.1207 16.8732 33.1526C18.1823 34.1778 19.8087 34.9023 21.7612 35.5521C25.6707 36.8474 30.8231 37.6092 36.5 37.6092C42.1769 37.6092 47.3293 36.8496 51.2388 35.5499C53.1913 34.9023 54.8177 34.1778 56.1268 33.1504C57.4358 32.1207 58.5377 30.6279 58.5377 28.8277V17.5763L64.7369 15.517L71 13.4599L64.7347 11.4007L37.1876 2.20856L36.5 2Z" stroke="#00297C" stroke-width="2.5" stroke-linejoin="round"/>
</svg>
