<svg width="42" height="30" viewBox="0 0 42 30" fill="none" xmlns="http://www.w3.org/2000/svg">
<path d="M4.5 0C2.0325 0 0 2.0325 0 4.5V25.5C0 27.9675 2.0325 30 4.5 30H37.5C39.9675 30 42 27.9675 42 25.5V4.5C42 2.0325 39.9675 0 37.5 0H4.5ZM4.5 3H37.5C38.3475 3 39 3.6525 39 4.5V25.5C39 26.3475 38.3475 27 37.5 27H4.5C3.6525 27 3 26.3475 3 25.5V4.5C3 3.6525 3.6525 3 4.5 3ZM26.109 9.5625C23.22 9.5625 21.7035 10.9875 21.7035 12.7965C21.7035 16.071 25.5435 15.6165 25.5435 17.2965C25.5435 17.586 25.3035 18.237 23.7135 18.237C22.1235 18.237 21.0885 17.6745 21.0885 17.6745L20.6235 19.8345C20.6235 19.8345 21.606 20.442 23.5785 20.442C25.5435 20.442 28.3095 18.93 28.3095 16.737C28.3095 14.103 24.465 13.929 24.465 12.7545C24.465 12.1545 24.975 11.6745 26.34 11.6745C27.231 11.6745 28.215 12.3795 28.215 12.3795L28.686 10.0845C28.686 10.0845 27.381 9.567 26.106 9.567L26.109 9.5625ZM13.782 9.75L11.25 17.157C11.25 17.157 11.124 16.515 11.0625 16.125C9.63 12.915 7.3125 11.718 7.3125 11.718L9.5175 20.109H12.5175L16.7325 9.75H13.785H13.782ZM17.8125 9.75L16.1715 20.109H18.9405L20.58 9.75H17.8125ZM32.7195 9.75L28.2195 20.109H30.9375L31.5 18.657H34.9695L35.25 20.109H37.734L35.625 9.75H32.718H32.7195ZM4.2645 9.795C4.2645 9.795 9.66 11.4525 10.9215 15.516L9.987 10.8285C9.987 10.8285 9.5745 9.7935 8.487 9.7935H4.266L4.2645 9.795ZM33.75 12.75L34.545 16.641H32.295L33.75 12.75Z" fill="white"/>
</svg>
