<svg width="63" height="70" viewBox="0 0 63 70" fill="none" xmlns="http://www.w3.org/2000/svg">
<path d="M61.9502 44.8892C61.6209 44.5637 61.2298 44.3056 60.7994 44.1295C60.3691 43.9534 59.9078 43.8628 59.4419 43.863H56.3102C57.0285 42.8711 57.5177 41.7358 57.7435 40.5369C57.8889 39.6321 57.9857 38.7203 58.0337 37.8053C58.0542 37.3889 57.9893 36.9726 57.8427 36.5816C57.6961 36.1906 57.471 35.8329 57.1809 35.53C56.7844 35.1187 56.28 34.8241 55.724 34.679C55.168 34.534 54.5821 34.5442 54.0316 34.7085C53.4811 34.8728 52.9876 35.1848 52.606 35.6098C52.2245 36.0347 51.9699 36.5558 51.8706 37.1152C51.4944 39.21 50.8422 40.7139 50.079 41.2482C49.7157 41.5036 49.339 41.7399 48.9503 41.9558C48.2337 42.3557 47.5923 42.7307 47.3737 43.7038C47.1551 44.6768 46.7395 45.7561 45.8759 46.3576C45.7035 46.1551 45.4887 45.9919 45.2462 45.8795C45.0036 45.7671 44.7393 45.708 44.4713 45.7065H44.4534L41.6621 45.7561C41.4066 45.761 41.1549 45.8182 40.923 45.9242C40.6911 46.0302 40.484 46.1826 40.3148 46.3718C40.1233 46.5854 39.9815 46.8377 39.8992 47.1112H36.101C35.8111 47.1112 35.5332 47.225 35.3282 47.4274C35.1233 47.6298 35.0081 47.9042 35.0081 48.1905C35.0081 48.4767 35.1233 48.7512 35.3282 48.9536C35.5332 49.156 35.8111 49.2697 36.101 49.2697H39.8347L39.935 57.1816H36.101C35.8111 57.1816 35.5332 57.2953 35.3282 57.4977C35.1233 57.7001 35.0081 57.9745 35.0081 58.2607C35.0081 58.547 35.1233 58.8215 35.3282 59.0239C35.5332 59.2263 35.8111 59.34 36.101 59.34H40.0748C40.2035 59.6989 40.4404 60.0103 40.7536 60.2324C41.0668 60.4544 41.4414 60.5763 41.8269 60.582H41.8556L44.6469 60.5325C44.9023 60.5271 45.1539 60.4696 45.3857 60.3637C45.6176 60.2577 45.8248 60.1056 45.9942 59.9168C46.1488 59.7428 46.2702 59.5426 46.3525 59.3258C47.2681 59.3577 48.181 59.4429 49.0864 59.5806C49.8958 59.7198 50.7159 59.7884 51.5374 59.7858H59.4491C60.3909 59.7839 61.2935 59.4134 61.9592 58.7555C62.6248 58.0975 62.9991 57.2058 63 56.2757V47.3801C63.0011 46.9169 62.9088 46.4582 62.7286 46.0305C62.5483 45.6029 62.2837 45.2149 61.9502 44.8892ZM42.1207 58.4094L41.9918 47.9004L44.1417 47.865L44.2707 58.374L42.1207 58.4094ZM49.4519 57.4505C48.4614 57.2957 47.4622 57.2 46.46 57.1639L46.3525 48.5514C47.9076 47.872 49.0148 46.3399 49.4986 44.1603C49.6671 44.0382 49.8444 43.9282 50.0289 43.8312C50.3549 43.6437 50.7992 43.3924 51.3331 43.0174C52.6123 42.1221 53.5081 40.268 54.0062 37.501C54.044 37.2898 54.1561 37.0985 54.3225 36.9607C54.4889 36.8229 54.6991 36.7473 54.9163 36.7473C55.0412 36.7466 55.1648 36.7714 55.2795 36.8201C55.3942 36.8688 55.4975 36.9404 55.5828 37.0303C55.6691 37.1202 55.7361 37.2265 55.7798 37.3426C55.8235 37.4587 55.8431 37.5824 55.8372 37.7062C55.7942 38.543 55.7057 39.3769 55.5721 40.2043C55.2137 42.3663 53.2143 44.1213 53.1964 44.1355C53.0499 44.2582 52.9394 44.4175 52.8764 44.5967C52.8133 44.7759 52.8001 44.9686 52.838 45.1546V50.1614C52.8388 50.9825 52.5926 51.7854 52.1308 52.4682C51.6689 53.1511 51.0122 53.6832 50.2438 53.997L49.5487 54.2836C49.2913 54.3586 49.0717 54.5261 48.933 54.7529C48.7943 54.9798 48.7464 55.2496 48.799 55.5095C48.8515 55.7694 49.0007 56.0005 49.217 56.1573C49.4333 56.3142 49.7011 56.3854 49.9679 56.3571C50.1105 56.3575 50.2519 56.3298 50.3836 56.2757L51.0787 55.9891C52.2842 55.4971 53.3083 54.6525 54.0133 53.5688V56.0139C54.014 56.5641 54.1363 57.1075 54.3717 57.6062H51.5051C50.8235 57.6106 50.1427 57.5586 49.4699 57.4505H49.4519ZM60.8035 56.2687C60.8035 56.6265 60.6598 56.9698 60.4039 57.2232C60.1479 57.4765 59.8007 57.6194 59.4383 57.6204H57.3529C57.0217 57.5015 56.7355 57.285 56.5329 57.0002C56.3304 56.7154 56.2215 56.3761 56.2206 56.0281V52.7019C56.215 52.4191 56.0975 52.1496 55.8932 51.9512C55.689 51.7528 55.4142 51.6413 55.1277 51.6404C55.0394 51.6412 54.9515 51.6532 54.8662 51.6758C54.9825 51.19 55.0414 50.6925 55.0418 50.1933V46.0215H59.4491C59.6292 46.02 59.8079 46.054 59.9746 46.1214C60.1413 46.1888 60.2927 46.2884 60.4201 46.4142C60.5475 46.54 60.6483 46.6895 60.7166 46.8541C60.7849 47.0188 60.8192 47.1953 60.8178 47.3732L60.8035 56.2687Z" fill="#00297C"/>
<path d="M53.4971 64.6499C53.3465 64.6499 53.1974 64.6792 53.0583 64.7361C52.9192 64.793 52.7928 64.8764 52.6863 64.9816C52.5798 65.0867 52.4954 65.2116 52.4377 65.3489C52.3801 65.4863 52.3505 65.6335 52.3505 65.7822V67.7178H7.89737V7.01662H52.3612V29.6163C52.3525 29.7706 52.3757 29.925 52.4295 30.0701C52.4832 30.2152 52.5664 30.3479 52.6739 30.4601C52.7814 30.5724 52.911 30.6618 53.0546 30.7229C53.1983 30.784 53.3532 30.8155 53.5096 30.8155C53.6661 30.8155 53.8209 30.784 53.9646 30.7229C54.1083 30.6618 54.2378 30.5724 54.3453 30.4601C54.4528 30.3479 54.536 30.2152 54.5898 30.0701C54.6435 29.925 54.6668 29.7706 54.658 29.6163V5.88081C54.6571 5.58018 54.5355 5.29216 54.3199 5.07992C54.1043 4.86767 53.8123 4.74849 53.5078 4.74849H47.3125V1.13227C47.3125 0.831967 47.1917 0.543983 46.9767 0.331638C46.7616 0.119293 46.47 0 46.1659 0H1.15023C0.845801 -1.45876e-06 0.553758 0.119178 0.338155 0.331422C0.122553 0.543666 0.000948391 0.831643 0 1.13227V64.795C0.000948391 65.0957 0.122553 65.3836 0.338155 65.5959C0.553758 65.8081 0.845801 65.9273 1.15023 65.9273H5.58982V68.8642C5.58981 69.1648 5.7105 69.4532 5.92543 69.6661C6.14036 69.879 6.43199 69.9991 6.73642 70H53.4971C53.8021 70 54.0947 69.8803 54.3104 69.6673C54.5261 69.4543 54.6473 69.1654 54.6473 68.8642V65.7964C54.6487 65.6463 54.62 65.4975 54.5629 65.3585C54.5057 65.2194 54.4212 65.093 54.3142 64.9864C54.2073 64.8798 54.08 64.7952 53.9397 64.7374C53.7995 64.6797 53.649 64.6499 53.4971 64.6499ZM2.29684 63.6451V2.25395H45.0192V4.73083H6.73642C6.58584 4.73083 6.43673 4.7601 6.29762 4.817C6.1585 4.8739 6.03213 4.95732 5.92565 5.06247C5.81918 5.16761 5.7347 5.29241 5.67708 5.42978C5.61945 5.56716 5.58982 5.7144 5.58982 5.8631V63.6273L2.29684 63.6451Z" fill="#00297C"/>
<path d="M46.628 14.7304C46.6284 14.5814 46.5991 14.4338 46.5417 14.296C46.4843 14.1583 46.3999 14.033 46.2934 13.9275C46.1869 13.822 46.0603 13.7383 45.921 13.6812C45.7817 13.624 45.6322 13.5946 45.4814 13.5946H15.7803C15.4868 13.6108 15.2107 13.7373 15.0088 13.9482C14.8068 14.1591 14.6943 14.4384 14.6943 14.7287C14.6943 15.0189 14.8068 15.2982 15.0088 15.5091C15.2107 15.72 15.4868 15.8465 15.7803 15.8627H45.4885C45.7914 15.8608 46.0812 15.7407 46.2947 15.5285C46.5082 15.3164 46.628 15.0295 46.628 14.7304Z" fill="#00297C"/>
<path d="M31.317 20.1725C31.317 19.8712 31.1958 19.5823 30.9801 19.3693C30.7644 19.1563 30.4719 19.0366 30.1668 19.0366H15.7803C15.4868 19.0528 15.2107 19.1793 15.0088 19.3902C14.8068 19.6011 14.6943 19.8804 14.6943 20.1707C14.6943 20.461 14.8068 20.7402 15.0088 20.9511C15.2107 21.162 15.4868 21.2885 15.7803 21.3047H30.174C30.4772 21.3029 30.7673 21.1829 30.9814 20.9708C31.1954 20.7588 31.3161 20.4719 31.317 20.1725Z" fill="#00297C"/>
<path d="M15.7803 24.7828C15.4868 24.799 15.2107 24.9255 15.0088 25.1364C14.8068 25.3473 14.6943 25.6266 14.6943 25.9169C14.6943 26.2071 14.8068 26.4864 15.0088 26.6973C15.2107 26.9082 15.4868 27.0347 15.7803 27.0509H23.5917C23.8851 27.0347 24.1612 26.9082 24.3631 26.6973C24.5651 26.4864 24.6777 26.2071 24.6777 25.9169C24.6777 25.6266 24.5651 25.3473 24.3631 25.1364C24.1612 24.9255 23.8851 24.799 23.5917 24.7828H15.7803Z" fill="#00297C"/>
</svg>
