<svg width="144" height="120" viewBox="0 0 144 120" fill="none" xmlns="http://www.w3.org/2000/svg">
<g filter="url(#filter0_d)">
<path d="M119.538 18.2518H54.6538C54.3265 18.2518 54.0126 18.3819 53.7812 18.6133C53.5497 18.8447 53.4197 19.1586 53.4197 19.4859V67.9396C53.4197 68.2669 53.5497 68.5808 53.7812 68.8122C54.0126 69.0437 54.3265 69.1737 54.6538 69.1737H119.538C119.865 69.1737 120.179 69.0437 120.411 68.8122C120.642 68.5808 120.772 68.2669 120.772 67.9396V19.4859C120.772 19.1586 120.642 18.8447 120.411 18.6133C120.179 18.3819 119.865 18.2518 119.538 18.2518ZM118.304 66.7054H55.8881V20.7201H118.304V66.7054Z" fill="url(#paint0_linear)"/>
<path d="M61.3916 31.564H112.509C112.672 31.564 112.832 31.5321 112.982 31.47C113.132 31.408 113.268 31.3171 113.382 31.2025C113.497 31.0879 113.588 30.9518 113.65 30.8021C113.712 30.6523 113.744 30.4919 113.744 30.3298C113.744 30.1677 113.712 30.0072 113.65 29.8575C113.588 29.7077 113.497 29.5717 113.382 29.4571C113.268 29.3424 113.132 29.2515 112.982 29.1895C112.832 29.1275 112.672 29.0956 112.509 29.0956H61.3916C61.2296 29.0956 61.069 29.1275 60.9193 29.1895C60.7695 29.2515 60.6336 29.3424 60.519 29.4571C60.4043 29.5717 60.3134 29.7077 60.2514 29.8575C60.1893 30.0072 60.1575 30.1677 60.1575 30.3298C60.1575 30.4919 60.1893 30.6523 60.2514 30.8021C60.3134 30.9518 60.4043 31.0879 60.519 31.2025C60.6336 31.3171 60.7695 31.408 60.9193 31.47C61.069 31.5321 61.2296 31.564 61.3916 31.564Z" fill="url(#paint1_linear)"/>
<path d="M62.0168 26.3322C62.2977 26.3322 62.5723 26.2489 62.8059 26.0928C63.0395 25.9368 63.2216 25.715 63.3291 25.4554C63.4366 25.1959 63.4647 24.9102 63.4099 24.6347C63.3551 24.3592 63.2198 24.1061 63.0212 23.9075C62.8225 23.7088 62.5694 23.5735 62.2938 23.5187C62.0183 23.4639 61.7327 23.492 61.4732 23.5995C61.2136 23.707 60.9918 23.8891 60.8357 24.1227C60.6796 24.3563 60.5962 24.6309 60.5962 24.9119C60.5957 25.0985 60.6321 25.2834 60.7033 25.456C60.7745 25.6286 60.8791 25.7854 61.0112 25.9174C61.1432 26.0494 61.2999 26.154 61.4725 26.2252C61.6451 26.2964 61.8301 26.3327 62.0168 26.3322Z" fill="url(#paint2_linear)"/>
<path d="M67.3876 26.4335C68.1721 26.4335 68.8081 25.7976 68.8081 25.0131C68.8081 24.2287 68.1721 23.5927 67.3876 23.5927C66.6031 23.5927 65.9671 24.2287 65.9671 25.0131C65.9671 25.7976 66.6031 26.4335 67.3876 26.4335Z" fill="url(#paint3_linear)"/>
<path d="M72.7592 26.5336C73.5437 26.5336 74.1797 25.8977 74.1797 25.1132C74.1797 24.3287 73.5437 23.6928 72.7592 23.6928C71.9747 23.6928 71.3387 24.3287 71.3387 25.1132C71.3387 25.8977 71.9747 26.5336 72.7592 26.5336Z" fill="url(#paint4_linear)"/>
<path d="M61.5742 40.8433H65.2109C65.5382 40.8433 65.8521 40.7133 66.0836 40.4819C66.315 40.2504 66.4451 39.9366 66.4451 39.6093C66.4451 39.282 66.315 38.968 66.0836 38.7366C65.8521 38.5051 65.5382 38.3751 65.2109 38.3751H61.5742C61.2469 38.3751 60.933 38.5051 60.7015 38.7366C60.4701 38.968 60.3401 39.282 60.3401 39.6093C60.3401 39.9366 60.4701 40.2504 60.7015 40.4819C60.933 40.7133 61.2469 40.8433 61.5742 40.8433Z" fill="url(#paint5_linear)"/>
<path d="M83.0399 38.3751H74.094C73.7667 38.3751 73.4528 38.5051 73.2213 38.7366C72.9899 38.968 72.8598 39.282 72.8598 39.6093C72.8598 39.9366 72.9899 40.2504 73.2213 40.4819C73.4528 40.7133 73.7667 40.8433 74.094 40.8433H83.0399C83.3673 40.8433 83.6812 40.7133 83.9126 40.4819C84.1441 40.2504 84.2741 39.9366 84.2741 39.6093C84.2741 39.282 84.1441 38.968 83.9126 38.7366C83.6812 38.5051 83.3673 38.3751 83.0399 38.3751Z" fill="url(#paint6_linear)"/>
<path d="M68.5789 40.2919C68.6216 40.3599 68.6724 40.4224 68.7302 40.4782C68.9625 40.7092 69.2759 40.8401 69.6035 40.843C69.6845 40.8437 69.7654 40.8346 69.8442 40.8158C69.9241 40.8007 70.0021 40.7773 70.077 40.7459C70.1509 40.7138 70.2223 40.6762 70.2905 40.6334C70.357 40.5871 70.4193 40.5352 70.4768 40.4782C70.5335 40.4214 70.5843 40.359 70.6282 40.2919C70.6745 40.2251 70.7136 40.1535 70.7447 40.0784C70.7756 40.0046 70.7989 39.9279 70.8145 39.8494C70.8455 39.6892 70.8455 39.5245 70.8145 39.3643C70.7989 39.2859 70.7756 39.2091 70.7447 39.1353C70.7145 39.0598 70.6753 38.9882 70.6282 38.9219C70.5843 38.8536 70.5335 38.7899 70.4768 38.7317C70.4182 38.6771 70.356 38.6265 70.2905 38.5804C70.2223 38.5375 70.1509 38.4999 70.077 38.4678C70.0021 38.4364 69.9241 38.4131 69.8442 38.398C69.6454 38.3595 69.4402 38.3697 69.2462 38.4279C69.0522 38.486 68.8751 38.5903 68.7302 38.7317C68.6194 38.844 68.53 38.9755 68.4663 39.1198C68.4342 39.1935 68.4095 39.2702 68.3926 39.3488C68.3616 39.509 68.3616 39.6737 68.3926 39.8339C68.4095 39.9125 68.4342 39.9892 68.4663 40.0629C68.495 40.1432 68.5328 40.2201 68.5789 40.2919Z" fill="url(#paint7_linear)"/>
<path d="M61.5742 47.3244H71.9795C72.3069 47.3244 72.6208 47.1944 72.8522 46.963C73.0837 46.7315 73.2137 46.4176 73.2137 46.0903C73.2137 45.763 73.0837 45.4491 72.8522 45.2176C72.6208 44.9862 72.3069 44.8562 71.9795 44.8562H61.5742C61.4122 44.8562 61.2517 44.888 61.102 44.9501C60.9522 45.0121 60.8161 45.103 60.7015 45.2176C60.5869 45.3322 60.496 45.4683 60.434 45.618C60.3719 45.7677 60.3401 45.9282 60.3401 46.0903C60.3401 46.2523 60.3719 46.4128 60.434 46.5625C60.496 46.7123 60.5869 46.8484 60.7015 46.963C60.8161 47.0776 60.9522 47.1685 61.102 47.2305C61.2517 47.2925 61.4122 47.3244 61.5742 47.3244Z" fill="url(#paint8_linear)"/>
<path d="M79.5782 46.0939C79.5782 46.4212 79.7082 46.7351 79.9397 46.9666C80.1711 47.198 80.485 47.328 80.8123 47.328H91.722C92.0494 47.328 92.3634 47.198 92.5948 46.9666C92.8263 46.7351 92.9563 46.4212 92.9563 46.0939C92.9563 45.7665 92.8263 45.4526 92.5948 45.2212C92.3634 44.9897 92.0494 44.8597 91.722 44.8597H80.7968C80.4722 44.8638 80.1622 44.9956 79.9341 45.2266C79.706 45.4576 79.5782 45.7692 79.5782 46.0939Z" fill="url(#paint9_linear)"/>
<path d="M76.1587 44.8562C75.8314 44.8562 75.5175 44.9862 75.2861 45.2176C75.0546 45.4491 74.9246 45.763 74.9246 46.0903C74.9246 46.4176 75.0546 46.7315 75.2861 46.963C75.5175 47.1944 75.8314 47.3244 76.1587 47.3244H76.3217C76.6491 47.3244 76.963 47.1944 77.1944 46.963C77.4259 46.7315 77.5559 46.4176 77.5559 46.0903C77.5559 45.763 77.4259 45.4491 77.1944 45.2176C76.963 44.9862 76.6491 44.8562 76.3217 44.8562H76.1587Z" fill="url(#paint10_linear)"/>
<path d="M97.6213 44.8562H95.9834C95.6561 44.8562 95.3422 44.9862 95.1108 45.2176C94.8793 45.4491 94.7493 45.763 94.7493 46.0903C94.7493 46.4176 94.8793 46.7315 95.1108 46.963C95.3422 47.1944 95.6561 47.3244 95.9834 47.3244H97.6213C97.9486 47.3244 98.2625 47.1944 98.494 46.963C98.7254 46.7315 98.8555 46.4176 98.8555 46.0903C98.8555 45.763 98.7254 45.4491 98.494 45.2176C98.2625 44.9862 97.9486 44.8562 97.6213 44.8562Z" fill="url(#paint11_linear)"/>
<path d="M61.5742 53.8062H80.3355C80.6628 53.8062 80.9767 53.6761 81.2081 53.4447C81.4396 53.2132 81.5696 52.8993 81.5696 52.5719C81.5696 52.2446 81.4396 51.9307 81.2081 51.6993C80.9767 51.4678 80.6628 51.3378 80.3355 51.3378H61.5742C61.4121 51.3378 61.2517 51.3697 61.102 51.4317C60.9522 51.4938 60.8161 51.5847 60.7015 51.6993C60.5869 51.8139 60.496 51.9499 60.434 52.0996C60.3719 52.2494 60.3401 52.4099 60.3401 52.5719C60.3401 52.734 60.3719 52.8946 60.434 53.0443C60.496 53.194 60.5869 53.3301 60.7015 53.4447C60.8161 53.5593 60.9522 53.6502 61.102 53.7122C61.2517 53.7742 61.4121 53.8062 61.5742 53.8062Z" fill="url(#paint12_linear)"/>
<path d="M97.5398 51.3378H90.5772C90.4151 51.3378 90.2547 51.3697 90.1049 51.4317C89.9552 51.4938 89.8191 51.5847 89.7045 51.6993C89.5899 51.8139 89.4989 51.9499 89.4369 52.0996C89.3749 52.2494 89.343 52.4099 89.343 52.5719C89.343 52.734 89.3749 52.8946 89.4369 53.0443C89.4989 53.194 89.5899 53.3301 89.7045 53.4447C89.8191 53.5593 89.9552 53.6502 90.1049 53.7122C90.2547 53.7742 90.4151 53.8062 90.5772 53.8062H97.5398C97.7018 53.8062 97.8624 53.7742 98.0121 53.7122C98.1619 53.6502 98.2979 53.5593 98.4125 53.4447C98.5271 53.3301 98.618 53.194 98.68 53.0443C98.742 52.8946 98.774 52.734 98.774 52.5719C98.774 52.4099 98.742 52.2494 98.68 52.0996C98.618 51.9499 98.5271 51.8139 98.4125 51.6993C98.2979 51.5847 98.1619 51.4938 98.0121 51.4317C97.8624 51.3697 97.7018 51.3378 97.5398 51.3378Z" fill="url(#paint13_linear)"/>
<path d="M103.932 51.3378H101.883C101.721 51.3378 101.56 51.3697 101.41 51.4317C101.261 51.4938 101.125 51.5847 101.01 51.6993C100.895 51.8139 100.804 51.9499 100.742 52.0996C100.68 52.2494 100.648 52.4099 100.648 52.5719C100.648 52.734 100.68 52.8946 100.742 53.0443C100.804 53.194 100.895 53.3301 101.01 53.4447C101.125 53.5593 101.261 53.6502 101.41 53.7122C101.56 53.7742 101.721 53.8062 101.883 53.8062H103.932C104.259 53.8062 104.573 53.6761 104.805 53.4447C105.036 53.2132 105.166 52.8993 105.166 52.5719C105.166 52.2446 105.036 51.9307 104.805 51.6993C104.573 51.4678 104.259 51.3378 103.932 51.3378Z" fill="url(#paint14_linear)"/>
<path d="M86.0562 51.3378H84.8918C84.7297 51.3378 84.5692 51.3697 84.4195 51.4317C84.2697 51.4938 84.1337 51.5847 84.0191 51.6993C83.9045 51.8139 83.8136 51.9499 83.7515 52.0996C83.6895 52.2494 83.6576 52.4099 83.6576 52.5719C83.6576 52.734 83.6895 52.8946 83.7515 53.0443C83.8136 53.194 83.9045 53.3301 84.0191 53.4447C84.1337 53.5593 84.2697 53.6502 84.4195 53.7122C84.5692 53.7742 84.7297 53.8062 84.8918 53.8062H86.0562C86.3835 53.8062 86.6974 53.6761 86.9289 53.4447C87.1603 53.2132 87.2903 52.8993 87.2903 52.5719C87.2903 52.2446 87.1603 51.9307 86.9289 51.6993C86.6974 51.4678 86.3835 51.3378 86.0562 51.3378Z" fill="url(#paint15_linear)"/>
<path d="M67.947 57.8182H61.5742C61.2469 57.8182 60.933 57.9482 60.7015 58.1797C60.4701 58.4111 60.3401 58.7251 60.3401 59.0524C60.3401 59.3797 60.4701 59.6935 60.7015 59.925C60.933 60.1564 61.2469 60.2864 61.5742 60.2864H67.947C68.2743 60.2864 68.5883 60.1564 68.8198 59.925C69.0512 59.6935 69.1813 59.3797 69.1813 59.0524C69.1813 58.7251 69.0512 58.4111 68.8198 58.1797C68.5883 57.9482 68.2743 57.8182 67.947 57.8182Z" fill="url(#paint16_linear)"/>
<path d="M85.7455 57.8182H78.7789C78.4515 57.8182 78.1376 57.9482 77.9062 58.1797C77.6747 58.4111 77.5447 58.7251 77.5447 59.0524C77.5447 59.3797 77.6747 59.6935 77.9062 59.925C78.1376 60.1564 78.4515 60.2864 78.7789 60.2864H85.7455C86.0728 60.2864 86.3867 60.1564 86.6182 59.925C86.8496 59.6935 86.9797 59.3797 86.9797 59.0524C86.9797 58.7251 86.8496 58.4111 86.6182 58.1797C86.3867 57.9482 86.0728 57.8182 85.7455 57.8182Z" fill="url(#paint17_linear)"/>
<path d="M73.8656 57.8182H72.7012C72.3739 57.8182 72.06 57.9482 71.8285 58.1797C71.5971 58.4111 71.467 58.7251 71.467 59.0524C71.467 59.3797 71.5971 59.6935 71.8285 59.925C72.06 60.1564 72.3739 60.2864 72.7012 60.2864H73.8656C74.1929 60.2864 74.5069 60.1564 74.7384 59.925C74.9698 59.6935 75.0999 59.3797 75.0999 59.0524C75.0999 58.7251 74.9698 58.4111 74.7384 58.1797C74.5069 57.9482 74.1929 57.8182 73.8656 57.8182Z" fill="url(#paint18_linear)"/>
<path d="M125.632 11.9993H60.7475C60.4201 11.9993 60.1062 12.1293 59.8747 12.3608C59.6432 12.5922 59.5132 12.9061 59.5132 13.2334C59.5132 13.5607 59.6432 13.8747 59.8747 14.1061C60.1062 14.3376 60.4201 14.4676 60.7475 14.4676H124.397V61.6872C124.397 62.0145 124.527 62.3284 124.759 62.5598C124.99 62.7913 125.304 62.9213 125.632 62.9213C125.959 62.9213 126.273 62.7913 126.504 62.5598C126.736 62.3284 126.866 62.0145 126.866 61.6872V13.2334C126.866 13.0713 126.834 12.9109 126.772 12.7611C126.71 12.6114 126.619 12.4754 126.504 12.3608C126.39 12.2462 126.254 12.1553 126.104 12.0932C125.954 12.0312 125.794 11.9993 125.632 11.9993Z" fill="url(#paint19_linear)"/>
<path d="M131.791 6H66.9027C66.5754 6 66.2615 6.13007 66.0301 6.36152C65.7986 6.59297 65.6686 6.90685 65.6686 7.23416C65.6686 7.56148 65.7986 7.87541 66.0301 8.10686C66.2615 8.33831 66.5754 8.46833 66.9027 8.46833H130.553V55.6879C130.553 56.0152 130.683 56.3291 130.914 56.5606C131.146 56.792 131.46 56.922 131.787 56.922C132.114 56.922 132.428 56.792 132.66 56.5606C132.891 56.3291 133.021 56.0152 133.021 55.6879V7.23416C133.02 6.90783 132.89 6.5951 132.66 6.36398C132.429 6.13287 132.117 6.00204 131.791 6Z" fill="url(#paint20_linear)"/>
<path d="M54.9929 71.9446H46.1905C47.7778 70.0313 49.7534 67.043 50.32 63.5346C50.626 61.613 50.8267 59.676 50.9215 57.7325C51.0012 56.3077 50.5328 54.9064 49.6124 53.8159C48.692 52.7254 47.3892 52.0283 45.9712 51.8675C44.5532 51.7067 43.1275 52.0944 41.9863 52.9511C40.845 53.8079 40.0747 55.0686 39.8333 56.4751C38.9678 61.3496 37.4619 64.7648 35.5912 66.0921C34.7847 66.6512 33.9505 67.1694 33.0918 67.6445C31.6946 68.4517 30.5884 69.0882 30.2236 70.7492C29.2844 75.0183 27.3826 76.8695 25.6633 77.669C25.5248 77.3617 25.3359 77.0797 25.1044 76.8346C24.8325 76.5375 24.5006 76.3014 24.1306 76.1422C23.7606 75.983 23.361 75.9042 22.9583 75.9109L16.993 76.0157C16.5918 76.0217 16.1964 76.1122 15.8326 76.2814C15.4688 76.4506 15.1448 76.6947 14.8817 76.9976C14.4026 77.5497 14.1285 78.2501 14.1055 78.9807H11.218C10.889 78.9988 10.5794 79.1422 10.3529 79.3815C10.1264 79.6208 10 79.9379 10 80.2673C10 80.5968 10.1264 80.9138 10.3529 81.1531C10.5794 81.3924 10.889 81.5358 11.218 81.5539H14.1288L14.3615 100.749H11.218C10.889 100.767 10.5794 100.911 10.3529 101.15C10.1264 101.389 10 101.706 10 102.036C10 102.365 10.1264 102.682 10.3529 102.921C10.5794 103.161 10.889 103.304 11.218 103.322H14.4199C14.5013 104.047 14.8426 104.718 15.3807 105.21C15.9187 105.702 16.6171 105.983 17.3462 106H17.3889L23.3542 105.891C23.756 105.886 24.1521 105.796 24.5166 105.626C24.8811 105.457 25.2057 105.213 25.4692 104.909C25.8853 104.447 26.1554 103.872 26.2455 103.256C28.5277 103.308 30.8042 103.508 33.0607 103.854C34.7271 104.141 36.4152 104.284 38.1061 104.281H55.0122C56.748 104.279 58.4121 103.588 59.6396 102.361C60.867 101.133 61.5576 99.4693 61.5596 97.7335V78.4763C61.5586 76.7405 60.8683 75.0762 59.6405 73.8492C58.4127 72.6222 56.748 71.933 55.0122 71.933L54.9929 71.9446ZM23.5327 103.213C23.5046 103.249 23.4694 103.278 23.4292 103.299C23.389 103.319 23.3449 103.331 23.2998 103.334L17.3307 103.439C17.1522 103.439 16.9426 103.221 16.9426 102.911L16.6553 79.1438C16.6485 78.9891 16.7013 78.8377 16.8027 78.7207C16.8304 78.6849 16.8656 78.6556 16.9058 78.6348C16.946 78.614 16.9904 78.6023 17.0356 78.6004L23.0009 78.4917C23.0442 78.494 23.0865 78.5051 23.1252 78.5245C23.164 78.5439 23.1983 78.571 23.226 78.6043C23.3288 78.7197 23.3853 78.8689 23.385 79.0235L23.6723 102.79C23.6797 102.944 23.63 103.095 23.5327 103.213ZM58.967 97.7452C58.966 98.7989 58.547 99.8091 57.8019 100.554C57.0568 101.299 56.0466 101.718 54.9929 101.719H50.3355C49.3796 101.417 48.5443 100.819 47.9506 100.011C47.3569 99.2034 47.0354 98.2276 47.0326 97.2251V90.026C47.0326 89.6853 46.8974 89.3586 46.6565 89.1176C46.4155 88.8767 46.0887 88.7414 45.748 88.7414C45.4073 88.7414 45.0806 88.8767 44.8397 89.1176C44.5987 89.3586 44.4633 89.6853 44.4633 90.026V97.2251C44.4623 98.8548 45.0091 100.438 46.0157 101.719H38.0673C36.522 101.724 34.9793 101.594 33.4566 101.331C31.055 100.962 28.632 100.75 26.2028 100.695L25.9584 80.3275C29.2961 79.1632 31.6828 75.9846 32.7152 71.312C32.8278 70.8113 33.0645 70.6367 34.3569 69.8916C35.291 69.3704 36.1977 68.8017 37.0737 68.1879C38.7891 66.9692 41.0984 64.0275 42.3598 56.9331C42.4837 56.2334 42.8499 55.5995 43.3941 55.1425C43.9383 54.6856 44.6259 54.4347 45.3365 54.4337C45.7454 54.4314 46.1506 54.5133 46.5265 54.6742C46.9024 54.8351 47.2412 55.0716 47.5217 55.3691C47.8049 55.6672 48.0244 56.0197 48.1672 56.4053C48.31 56.7909 48.3729 57.2016 48.3522 57.6123C48.2607 59.4609 48.069 61.3032 47.7778 63.131C46.9589 68.1995 42.3947 72.2279 42.3442 72.2668C42.1657 72.4247 42.0347 72.6293 41.9662 72.8576C41.8976 73.0859 41.8941 73.3289 41.9561 73.559V84.5616C41.958 86.5488 41.3685 88.4915 40.2627 90.1426C39.1569 91.7936 37.5847 93.0783 35.7464 93.8332L34.2599 94.4503C33.9859 94.5656 33.7604 94.772 33.6212 95.0346C33.4821 95.2972 33.4381 95.5999 33.4966 95.8913C33.555 96.1827 33.7124 96.445 33.9421 96.6336C34.1718 96.8222 34.4596 96.9256 34.7568 96.9263C34.925 96.9269 35.0914 96.8925 35.2457 96.8254L36.7322 96.2083C39.0342 95.2553 41.001 93.6397 42.3831 91.5667C43.7651 89.4938 44.5 87.0569 44.4944 84.5655V74.5176H54.9733C56.0274 74.5176 57.0382 74.9363 57.7835 75.6816C58.5289 76.4269 58.9477 77.4377 58.9477 78.4917L58.967 97.7452Z" fill="url(#paint21_linear)"/>
</g>
<defs>
<filter id="filter0_d" x="0" y="0" width="143.021" height="120" filterUnits="userSpaceOnUse" color-interpolation-filters="sRGB">
<feFlood flood-opacity="0" result="BackgroundImageFix"/>
<feColorMatrix in="SourceAlpha" type="matrix" values="0 0 0 0 0 0 0 0 0 0 0 0 0 0 0 0 0 0 127 0"/>
<feOffset dy="4"/>
<feGaussianBlur stdDeviation="5"/>
<feColorMatrix type="matrix" values="0 0 0 0 0.333333 0 0 0 0 0.678431 0 0 0 0 1 0 0 0 0.2 0"/>
<feBlend mode="normal" in2="BackgroundImageFix" result="effect1_dropShadow"/>
<feBlend mode="normal" in="SourceGraphic" in2="effect1_dropShadow" result="shape"/>
</filter>
<linearGradient id="paint0_linear" x1="87.0959" y1="18.2518" x2="87.0959" y2="69.1737" gradientUnits="userSpaceOnUse">
<stop stop-color="#023BAE"/>
<stop offset="1" stop-color="#00297C"/>
</linearGradient>
<linearGradient id="paint1_linear" x1="86.9506" y1="29.0956" x2="86.9506" y2="31.564" gradientUnits="userSpaceOnUse">
<stop stop-color="#023BAE"/>
<stop offset="1" stop-color="#00297C"/>
</linearGradient>
<linearGradient id="paint2_linear" x1="62.0167" y1="23.4914" x2="62.0167" y2="26.3322" gradientUnits="userSpaceOnUse">
<stop stop-color="#023BAE"/>
<stop offset="1" stop-color="#00297C"/>
</linearGradient>
<linearGradient id="paint3_linear" x1="67.3876" y1="23.5927" x2="67.3876" y2="26.4335" gradientUnits="userSpaceOnUse">
<stop stop-color="#023BAE"/>
<stop offset="1" stop-color="#00297C"/>
</linearGradient>
<linearGradient id="paint4_linear" x1="72.7592" y1="23.6928" x2="72.7592" y2="26.5336" gradientUnits="userSpaceOnUse">
<stop stop-color="#023BAE"/>
<stop offset="1" stop-color="#00297C"/>
</linearGradient>
<linearGradient id="paint5_linear" x1="63.3926" y1="38.3751" x2="63.3926" y2="40.8433" gradientUnits="userSpaceOnUse">
<stop stop-color="#023BAE"/>
<stop offset="1" stop-color="#00297C"/>
</linearGradient>
<linearGradient id="paint6_linear" x1="78.567" y1="38.3751" x2="78.567" y2="40.8433" gradientUnits="userSpaceOnUse">
<stop stop-color="#023BAE"/>
<stop offset="1" stop-color="#00297C"/>
</linearGradient>
<linearGradient id="paint7_linear" x1="69.6036" y1="38.3751" x2="69.6036" y2="40.843" gradientUnits="userSpaceOnUse">
<stop stop-color="#023BAE"/>
<stop offset="1" stop-color="#00297C"/>
</linearGradient>
<linearGradient id="paint8_linear" x1="66.7769" y1="44.8562" x2="66.7769" y2="47.3244" gradientUnits="userSpaceOnUse">
<stop stop-color="#023BAE"/>
<stop offset="1" stop-color="#00297C"/>
</linearGradient>
<linearGradient id="paint9_linear" x1="86.2672" y1="44.8597" x2="86.2672" y2="47.328" gradientUnits="userSpaceOnUse">
<stop stop-color="#023BAE"/>
<stop offset="1" stop-color="#00297C"/>
</linearGradient>
<linearGradient id="paint10_linear" x1="76.2402" y1="44.8562" x2="76.2402" y2="47.3244" gradientUnits="userSpaceOnUse">
<stop stop-color="#023BAE"/>
<stop offset="1" stop-color="#00297C"/>
</linearGradient>
<linearGradient id="paint11_linear" x1="96.8024" y1="44.8562" x2="96.8024" y2="47.3244" gradientUnits="userSpaceOnUse">
<stop stop-color="#023BAE"/>
<stop offset="1" stop-color="#00297C"/>
</linearGradient>
<linearGradient id="paint12_linear" x1="70.9548" y1="51.3378" x2="70.9548" y2="53.8062" gradientUnits="userSpaceOnUse">
<stop stop-color="#023BAE"/>
<stop offset="1" stop-color="#00297C"/>
</linearGradient>
<linearGradient id="paint13_linear" x1="94.0585" y1="51.3378" x2="94.0585" y2="53.8062" gradientUnits="userSpaceOnUse">
<stop stop-color="#023BAE"/>
<stop offset="1" stop-color="#00297C"/>
</linearGradient>
<linearGradient id="paint14_linear" x1="102.907" y1="51.3378" x2="102.907" y2="53.8062" gradientUnits="userSpaceOnUse">
<stop stop-color="#023BAE"/>
<stop offset="1" stop-color="#00297C"/>
</linearGradient>
<linearGradient id="paint15_linear" x1="85.474" y1="51.3378" x2="85.474" y2="53.8062" gradientUnits="userSpaceOnUse">
<stop stop-color="#023BAE"/>
<stop offset="1" stop-color="#00297C"/>
</linearGradient>
<linearGradient id="paint16_linear" x1="64.7607" y1="57.8182" x2="64.7607" y2="60.2864" gradientUnits="userSpaceOnUse">
<stop stop-color="#023BAE"/>
<stop offset="1" stop-color="#00297C"/>
</linearGradient>
<linearGradient id="paint17_linear" x1="82.2622" y1="57.8182" x2="82.2622" y2="60.2864" gradientUnits="userSpaceOnUse">
<stop stop-color="#023BAE"/>
<stop offset="1" stop-color="#00297C"/>
</linearGradient>
<linearGradient id="paint18_linear" x1="73.2834" y1="57.8182" x2="73.2834" y2="60.2864" gradientUnits="userSpaceOnUse">
<stop stop-color="#023BAE"/>
<stop offset="1" stop-color="#00297C"/>
</linearGradient>
<linearGradient id="paint19_linear" x1="93.1895" y1="11.9993" x2="93.1895" y2="62.9213" gradientUnits="userSpaceOnUse">
<stop stop-color="#023BAE"/>
<stop offset="1" stop-color="#00297C"/>
</linearGradient>
<linearGradient id="paint20_linear" x1="99.3449" y1="6" x2="99.3449" y2="56.922" gradientUnits="userSpaceOnUse">
<stop stop-color="#023BAE"/>
<stop offset="1" stop-color="#00297C"/>
</linearGradient>
<linearGradient id="paint21_linear" x1="35.7798" y1="51.8319" x2="35.7798" y2="106" gradientUnits="userSpaceOnUse">
<stop stop-color="#023BAE"/>
<stop offset="1" stop-color="#00297C"/>
</linearGradient>
</defs>
</svg>
