<svg width="60" height="60" viewBox="0 0 60 60" fill="none" xmlns="http://www.w3.org/2000/svg">
<path fill-rule="evenodd" clip-rule="evenodd" d="M51.0145 8.72055C48.2601 5.94804 44.9829 3.74965 41.3728 2.25274C37.7628 0.755829 33.8915 -0.00983736 29.9834 9.54154e-05C13.5957 9.54154e-05 0.255023 13.3375 0.248399 29.7318C0.248399 34.9713 1.61625 40.085 4.21616 44.596L0 60L15.7617 55.8633C20.1216 58.2367 25.0061 59.4812 29.9701 59.4833H29.9834C46.3678 59.4833 59.7085 46.146 59.7151 29.7516C59.7263 25.8451 58.9632 21.9751 57.4698 18.3652C55.9764 14.7554 53.7824 11.4774 51.0145 8.72055ZM29.9834 54.4657H29.9735C25.5471 54.4661 21.2021 53.2752 17.3945 51.0179L16.4937 50.4814L7.14064 52.9355L9.63456 43.8176L9.04834 42.8837C6.57359 38.9438 5.26352 34.3844 5.26937 29.7318C5.27599 16.1063 16.3612 5.02106 29.9933 5.02106C33.2399 5.01385 36.4557 5.65061 39.4545 6.89449C42.4534 8.13837 45.1757 9.96467 47.464 12.2677C49.7646 14.5597 51.5881 17.285 52.8291 20.286C54.0701 23.287 54.704 26.5042 54.6941 29.7516C54.6875 43.3772 43.6023 54.4657 29.9834 54.4657ZM43.5393 35.955C42.7941 35.5807 39.1443 33.7856 38.4621 33.5373C37.7831 33.2888 37.2896 33.1663 36.7928 33.9082C36.296 34.6501 34.8719 36.3226 34.438 36.8194C34.0041 37.3162 33.5703 37.3758 32.8284 37.0049C32.0865 36.634 29.6919 35.849 26.8536 33.3187C24.6445 31.348 23.1541 28.917 22.7202 28.1718C22.2863 27.4266 22.6738 27.0259 23.0481 26.6549C23.3826 26.3237 23.79 25.7872 24.1609 25.3533C24.5319 24.9195 24.6544 24.6115 24.9028 24.1147C25.1512 23.6179 25.0287 23.184 24.8399 22.813C24.6544 22.4388 23.1673 18.7824 22.548 17.2953C21.9485 15.8546 21.3358 16.0467 20.8787 16.0268C20.4054 16.0074 19.9317 15.9986 19.4579 16.0003C19.0812 16.0099 18.7105 16.0972 18.3691 16.2568C18.0277 16.4164 17.723 16.6448 17.474 16.9276C16.7918 17.6728 14.8741 19.4679 14.8741 23.1244C14.8741 26.7808 17.537 30.3147 17.9079 30.8115C18.2788 31.3083 23.1475 38.8099 30.5994 42.0292C32.3746 42.7942 33.7591 43.2513 34.8354 43.5957C36.614 44.1621 38.2335 44.0793 39.5153 43.8905C40.9427 43.6785 43.9103 42.0954 44.5296 40.3599C45.149 38.6245 45.149 37.1374 44.9635 36.826C44.778 36.5147 44.2779 36.3259 43.5393 35.955Z" fill="#00297C"/>
</svg>
