<svg width="30" height="30" viewBox="0 0 30 30" fill="none" xmlns="http://www.w3.org/2000/svg">
<path fill-rule="evenodd" clip-rule="evenodd" d="M25.5072 4.36027C24.1301 2.97402 22.4915 1.87482 20.6864 1.12637C18.8814 0.377915 16.9458 -0.00491868 14.9917 4.77077e-05C6.79785 4.77077e-05 0.127511 6.66873 0.124199 14.8659C0.124199 17.4857 0.808124 20.0425 2.10808 22.298L0 30L7.88087 27.9317C10.0608 29.1183 12.5031 29.7406 14.9851 29.7417H14.9917C23.1839 29.7417 29.8542 23.073 29.8575 14.8758C29.8632 12.9226 29.4816 10.9875 28.7349 9.18262C27.9882 7.3777 26.8912 5.73868 25.5072 4.36027ZM14.9917 27.2328H14.9867C12.7735 27.2331 10.6011 26.6376 8.69727 25.5089L8.24684 25.2407L3.57032 26.4678L4.81728 21.9088L4.52417 21.4418C3.28679 19.4719 2.63176 17.1922 2.63468 14.8659C2.638 8.05314 8.1806 2.51053 14.9967 2.51053C16.62 2.50692 18.2278 2.82531 19.7273 3.44725C21.2267 4.06919 22.5879 4.98234 23.732 6.13384C24.8823 7.27986 25.7941 8.6425 26.4145 10.143C27.035 11.6435 27.352 13.2521 27.3471 14.8758C27.3437 21.6886 21.8011 27.2328 14.9917 27.2328ZM21.7697 17.9775C21.3971 17.7904 19.5722 16.8928 19.231 16.7686C18.8916 16.6444 18.6448 16.5832 18.3964 16.9541C18.148 17.325 17.4359 18.1613 17.219 18.4097C17.0021 18.6581 16.7851 18.6879 16.4142 18.5024C16.0433 18.317 14.846 17.9245 13.4268 16.6593C12.3222 15.674 11.577 14.4585 11.3601 14.0859C11.1432 13.7133 11.3369 13.5129 11.524 13.3275C11.6913 13.1619 11.895 12.8936 12.0805 12.6767C12.2659 12.4597 12.3272 12.3057 12.4514 12.0573C12.5756 11.8089 12.5143 11.592 12.4199 11.4065C12.3272 11.2194 11.5837 9.39118 11.274 8.64764C10.9743 7.92728 10.6679 8.02333 10.4394 8.01339C10.2027 8.00371 9.96583 7.9993 9.72895 8.00014C9.54059 8.00494 9.35526 8.04861 9.18456 8.1284C9.01387 8.20819 8.8615 8.32238 8.73701 8.46382C8.39588 8.83642 7.43706 9.73397 7.43706 11.5622C7.43706 13.3904 8.76848 15.1573 8.95395 15.4057C9.13942 15.6541 11.5737 19.405 15.2997 21.0146C16.1873 21.3971 16.8795 21.6256 17.4177 21.7979C18.307 22.081 19.1168 22.0396 19.7576 21.9453C20.4714 21.8393 21.9551 21.0477 22.2648 20.18C22.5745 19.3122 22.5745 18.5687 22.4818 18.413C22.389 18.2574 22.139 18.163 21.7697 17.9775Z" fill="white"/>
</svg>
