<svg width="24" height="18" fill="none" xmlns="http://www.w3.org/2000/svg"><path d="M20.122 9.491l-.023.027a.852.852 0 01-.062.06l-8.308 7.364a.987.987 0 01-.651.236.986.986 0 01-.65-.24.774.774 0 01-.27-.575.773.773 0 01.266-.578l6.732-5.967H.923a.986.986 0 01-.653-.24A.774.774 0 010 9c0-.217.097-.425.27-.579a.986.986 0 01.653-.24h16.233l-6.732-5.966a.773.773 0 01-.266-.578c0-.216.098-.423.27-.576a.986.986 0 01.65-.24c.244 0 .478.085.651.237l8.308 7.363.061.06.023.028c.01.012.022.024.031.037.009.011.016.023.024.034l.023.034.02.037.018.036.015.036.016.04.01.036.012.041.007.043.006.036a.71.71 0 01.004.079v.004a.71.71 0 01-.004.079l-.006.036-.007.043-.012.041-.01.036-.016.04-.015.036c-.005.012-.012.024-.019.036-.006.012-.012.025-.02.037l-.022.034c-.008.011-.015.023-.024.034l-.03.037zM23.077 0a.986.986 0 00-.653.24.774.774 0 00-.27.578v16.364c0 .217.097.425.27.578.173.154.408.24.653.24.244 0 .48-.086.652-.24a.774.774 0 00.27-.578V.818a.774.774 0 00-.27-.578.986.986 0 00-.652-.24z" fill="#fff"/></svg>