<svg width="61" height="60" fill="none" xmlns="http://www.w3.org/2000/svg"><path d="M50.916 13.571a1.005 1.005 0 00-.2 1.41c3.431 4.556 5.244 10.104 5.244 16.047a26.943 26.943 0 01-20.415 26.127 26.957 26.957 0 01-30.31-13.447 26.942 26.942 0 015.677-32.665 26.955 26.955 0 0133.071-2.434 1.007 1.007 0 001.121-1.673A28.99 28.99 0 009.532 9.538a28.978 28.978 0 007.697 47.971 28.99 28.99 0 0034.6-8.653 28.976 28.976 0 006.14-17.829c0-6.382-1.952-12.35-5.649-17.256a1.006 1.006 0 00-1.404-.2z" fill="#fff"/><path d="M4.231 30.193a1.006 1.006 0 100 2h.672a1.006 1.006 0 000-2h-.672zm49.547 2.012a1.006 1.006 0 100-2h-.938a1.006 1.006 0 100 2h.938zM30 55.968v-.806a1.006 1.006 0 10-2.002 0v.806a1.007 1.007 0 102.002 0zM27.998 6.43v.804a1.007 1.007 0 102.002 0V6.43a1.006 1.006 0 10-2.002 0zM11.25 47.526l-.474.475a1.01 1.01 0 101.43 1.43l.474-.475a1.01 1.01 0 10-1.43-1.43zm35.272 2.194a1.007 1.007 0 00.712-1.716l-.572-.572a1.012 1.012 0 00-1.649 1.102c.051.122.126.234.22.328l.571.571a1.002 1.002 0 00.718.286zM12.768 13.542l-.572-.571a1.01 1.01 0 10-1.429 1.429l.572.572a1.01 1.01 0 001.43-1.43zM59.896.299a1.003 1.003 0 00-1.43 0l-29.61 29.62-8.912-8.327a1.008 1.008 0 00-1.375 1.472l9.624 8.993a1.007 1.007 0 001.4-.026L59.9 1.73A1.01 1.01 0 0059.896.3z" fill="#fff"/></svg>