<svg width="61" height="60" fill="none" xmlns="http://www.w3.org/2000/svg"><path d="M55.46 0H4.74A4.723 4.723 0 00.021 4.717V40.86a.964.964 0 000 .411v2.73a4.723 4.723 0 004.717 4.717h19.277v3.537a5.862 5.862 0 01-5.855 5.856h-4.64a.944.944 0 100 1.887h33.33a.946.946 0 000-1.887h-4.431a5.862 5.862 0 01-5.856-5.855v-3.538h18.898a4.723 4.723 0 004.717-4.717V4.717A4.724 4.724 0 0055.46 0zM4.74 1.887h50.72a2.833 2.833 0 012.83 2.83v35.406H1.91V4.717a2.833 2.833 0 012.83-2.83zm32.608 56.22H23.2a7.718 7.718 0 002.688-5.855v-3.537h8.772v3.537a7.716 7.716 0 002.688 5.856zm18.1-11.276H4.739A2.832 2.832 0 011.91 44v-1.993h56.38V44a2.833 2.833 0 01-2.83 2.83h-.012z" fill="#fff"/><path d="M42.37 14.023a.965.965 0 00-.24.82l1.71 9.24a.941.941 0 001.608.477l1.951-2.074 4.1 3.804a.964.964 0 001.331-.045l2.46-2.618a.937.937 0 00-.045-1.337l-4.09-3.795 1.913-2.035a.933.933 0 00.2-.965.941.941 0 00-.772-.617l-9.325-1.145a.966.966 0 00-.8.29zm8.055 2.501l-1.286 1.37a.938.938 0 00.045 1.338l4.094 3.794-1.171 1.244-4.103-3.803a.94.94 0 00-1.331.045l-1.319 1.398-1.135-6.148 6.206.762zm-35.483-2.585h5.843a.945.945 0 00.945-.942v-.942a.945.945 0 00-1.888 0h-3.958V8.106h1.653a.942.942 0 100-1.884h-2.595a.945.945 0 00-.946.942v5.846a.945.945 0 00.946.929z" fill="#fff"/><path d="M18.312 9.141a.943.943 0 10-1.21 1.447l.763.644c.17.14.384.216.604.218a.941.941 0 00.67-.276l4.012-4.017a.941.941 0 00-1.025-1.538.942.942 0 00-.306.204l-3.405 3.405-.103-.087zm8.791-.964h17.483a.945.945 0 000-1.888H27.103a.946.946 0 000 1.888zm0 4.148h12.2a.942.942 0 000-1.884h-12.2a.942.942 0 100 1.884zm-12.161 24.02h5.843a.945.945 0 00.945-.945v-5.843a.945.945 0 00-.945-.945h-5.843a.945.945 0 00-.946.945V35.4a.945.945 0 00.946.945zm.942-5.846h3.958v3.975h-3.958v-3.975zm11.219.19h17.483a.946.946 0 000-1.888H27.103a.946.946 0 000 1.888zm0 4.151h12.2a.945.945 0 000-1.887h-12.2a.945.945 0 000 1.887zm-12.161-9.672h5.843a.946.946 0 00.945-.942v-5.83a.946.946 0 00-.945-.942h-5.843a.945.945 0 00-.946.942v5.846a.945.945 0 00.946.926zm.942-5.843h3.958v3.955h-3.958v-3.955zm11.219.171h12.2a.945.945 0 000-1.888h-12.2a.945.945 0 000 1.888zm0 4.151h12.2a.945.945 0 000-1.888h-12.2a.946.946 0 000 1.888z" fill="#fff"/></svg>