<svg width="120" height="120" fill="none" xmlns="http://www.w3.org/2000/svg"><g filter="url(#filter0_d)"><path d="M87.861 74.148h-4.782a15.592 15.592 0 00-5.16.952l-19.685 6.02-16.23-5.386a7.14 7.14 0 00-4.239-.066 7.301 7.301 0 00-3.563 2.357 7.607 7.607 0 00-1.692 3.988 7.68 7.68 0 00.747 4.282 7.419 7.419 0 001.764 2.3 7.207 7.207 0 002.493 1.425l18.378 6.098a6.98 6.98 0 002.235.364c.659 0 1.314-.103 1.944-.304l9.976-3.052v11.249c0 .432.167.845.464 1.15.297.305.7.476 1.12.476.42 0 .823-.171 1.12-.476.297-.305.464-.718.464-1.15V90.942c0-.253-.058-.503-.169-.729a1.616 1.616 0 00-.469-.573 1.563 1.563 0 00-1.398-.254l-12.007 3.67a3.229 3.229 0 01-1.04.174c-.43 0-.855-.07-1.264-.204l-18.373-6.103a4.116 4.116 0 01-1.411-.81 4.237 4.237 0 01-1.003-1.303 4.34 4.34 0 01-.251-3.245 4.285 4.285 0 01.79-1.449 4.162 4.162 0 011.269-1.028 4.065 4.065 0 013.162-.258l16.702 5.54c.305.097.632.097.938 0l20.224-6.183.141-.05a12.497 12.497 0 014.048-.748h4.781a10.857 10.857 0 017.762 3.305 11.435 11.435 0 013.22 7.964v15.707c0 .431.167.844.464 1.149.297.305.7.476 1.121.476.42 0 .823-.171 1.12-.476.297-.305.464-.718.464-1.149V88.673a14.88 14.88 0 00-1.082-5.562 14.564 14.564 0 00-3.074-4.713 14.144 14.144 0 00-4.598-3.148 13.853 13.853 0 00-5.421-1.102z" fill="url(#paint0_linear)"/><path d="M84.474 6H35.531c-6.769.008-13.258 2.77-18.045 7.682C12.7 18.593 10.008 25.252 10 32.198v4.084c.008 6.945 2.7 13.603 7.487 18.514 4.786 4.91 11.276 7.672 18.044 7.679h18.68l9.951 7.065a1.562 1.562 0 001.638.1c.256-.139.47-.346.62-.6.15-.254.23-.544.23-.841v-5.754h5.491c.191 0 .38-.038.559-.11a13.346 13.346 0 005.637 6.394 12.836 12.836 0 008.263 1.573 13.003 13.003 0 007.497-3.894 13.606 13.606 0 003.657-7.763 25.844 25.844 0 008.981-9.534A26.665 26.665 0 00110 36.281v-4.083c-.008-6.945-2.699-13.603-7.485-18.514C97.73 8.772 91.242 6.009 84.474 6zm.257 61.142a9.796 9.796 0 01-5.543-1.723 10.183 10.183 0 01-3.677-4.593 10.484 10.484 0 01-.57-5.915 10.323 10.323 0 012.73-5.243 9.9 9.9 0 015.108-2.803 9.74 9.74 0 015.764.582 10.036 10.036 0 014.478 3.77 10.429 10.429 0 011.682 5.688 10.384 10.384 0 01-2.923 7.234 9.86 9.86 0 01-7.049 3.003zm22.106-30.86a23.37 23.37 0 01-2.398 10.36 22.743 22.743 0 01-6.709 8.124c-.448-3.414-2.153-6.522-4.766-8.684a12.895 12.895 0 00-9.28-2.94c-3.347.273-6.463 1.853-8.709 4.413a13.672 13.672 0 00-3.364 9.35c0 .767.066 1.533.195 2.289H65.09c-.42 0-.823.17-1.12.476a1.647 1.647 0 00-.464 1.15v4.277l-7.872-5.584a1.538 1.538 0 00-.9-.29H35.532c-5.926-.007-11.607-2.426-15.797-6.726-4.19-4.3-6.548-10.13-6.556-16.21v-4.084c.008-6.08 2.365-11.91 6.556-16.21 4.19-4.3 9.87-6.72 15.797-6.727H84.47c5.926.01 11.606 2.429 15.796 6.728 4.19 4.3 6.548 10.128 6.557 16.209l.015 4.079z" fill="url(#paint1_linear)"/><path d="M87.861 74.148h-4.782a15.592 15.592 0 00-5.16.952l-19.685 6.02-16.23-5.386a7.14 7.14 0 00-4.239-.066 7.301 7.301 0 00-3.563 2.357 7.607 7.607 0 00-1.692 3.988 7.68 7.68 0 00.747 4.282 7.419 7.419 0 001.764 2.3 7.207 7.207 0 002.493 1.425l18.378 6.098a6.98 6.98 0 002.235.364c.659 0 1.314-.103 1.944-.304l9.976-3.052v11.249c0 .432.167.845.464 1.15.297.305.7.476 1.12.476.42 0 .823-.171 1.12-.476.297-.305.464-.718.464-1.15V90.942c0-.253-.058-.503-.169-.729a1.616 1.616 0 00-.469-.573 1.563 1.563 0 00-1.398-.254l-12.007 3.67a3.229 3.229 0 01-1.04.174c-.43 0-.855-.07-1.264-.204l-18.373-6.103a4.116 4.116 0 01-1.411-.81 4.237 4.237 0 01-1.003-1.303 4.34 4.34 0 01-.251-3.245 4.285 4.285 0 01.79-1.449 4.162 4.162 0 011.269-1.028 4.065 4.065 0 013.162-.258l16.702 5.54c.305.097.632.097.938 0l20.224-6.183.141-.05a12.497 12.497 0 014.048-.748h4.781a10.857 10.857 0 017.762 3.305 11.435 11.435 0 013.22 7.964v15.707c0 .431.167.844.464 1.149.297.305.7.476 1.121.476.42 0 .823-.171 1.12-.476.297-.305.464-.718.464-1.149V88.673a14.88 14.88 0 00-1.082-5.562 14.564 14.564 0 00-3.074-4.713 14.144 14.144 0 00-4.598-3.148 13.853 13.853 0 00-5.421-1.102z" fill="url(#paint2_linear)"/><path d="M84.474 6H35.531c-6.769.008-13.258 2.77-18.045 7.682C12.7 18.593 10.008 25.252 10 32.198v4.084c.008 6.945 2.7 13.603 7.487 18.514 4.786 4.91 11.276 7.672 18.044 7.679h18.68l9.951 7.065a1.562 1.562 0 001.638.1c.256-.139.47-.346.62-.6.15-.254.23-.544.23-.841v-5.754h5.491c.191 0 .38-.038.559-.11a13.346 13.346 0 005.637 6.394 12.836 12.836 0 008.263 1.573 13.003 13.003 0 007.497-3.894 13.606 13.606 0 003.657-7.763 25.844 25.844 0 008.981-9.534A26.665 26.665 0 00110 36.281v-4.083c-.008-6.945-2.699-13.603-7.485-18.514C97.73 8.772 91.242 6.009 84.474 6zm.257 61.142a9.796 9.796 0 01-5.543-1.723 10.183 10.183 0 01-3.677-4.593 10.484 10.484 0 01-.57-5.915 10.323 10.323 0 012.73-5.243 9.9 9.9 0 015.108-2.803 9.74 9.74 0 015.764.582 10.036 10.036 0 014.478 3.77 10.429 10.429 0 011.682 5.688 10.384 10.384 0 01-2.923 7.234 9.86 9.86 0 01-7.049 3.003zm22.106-30.86a23.37 23.37 0 01-2.398 10.36 22.743 22.743 0 01-6.709 8.124c-.448-3.414-2.153-6.522-4.766-8.684a12.895 12.895 0 00-9.28-2.94c-3.347.273-6.463 1.853-8.709 4.413a13.672 13.672 0 00-3.364 9.35c0 .767.066 1.533.195 2.289H65.09c-.42 0-.823.17-1.12.476a1.647 1.647 0 00-.464 1.15v4.277l-7.872-5.584a1.538 1.538 0 00-.9-.29H35.532c-5.926-.007-11.607-2.426-15.797-6.726-4.19-4.3-6.548-10.13-6.556-16.21v-4.084c.008-6.08 2.365-11.91 6.556-16.21 4.19-4.3 9.87-6.72 15.797-6.727H84.47c5.926.01 11.606 2.429 15.796 6.728 4.19 4.3 6.548 10.128 6.557 16.209l.015 4.079z" fill="url(#paint3_linear)"/></g><defs><linearGradient id="paint0_linear" x1="67.248" y1="74.148" x2="67.248" y2="106" gradientUnits="userSpaceOnUse"><stop stop-color="#023BAE"/><stop offset="1" stop-color="#00297C"/></linearGradient><linearGradient id="paint1_linear" x1="60" y1="6" x2="60" y2="70.439" gradientUnits="userSpaceOnUse"><stop stop-color="#023BAE"/><stop offset="1" stop-color="#00297C"/></linearGradient><linearGradient id="paint2_linear" x1="67.248" y1="74.148" x2="67.248" y2="106" gradientUnits="userSpaceOnUse"><stop stop-color="#023BAE"/><stop offset="1" stop-color="#00297C"/></linearGradient><linearGradient id="paint3_linear" x1="60" y1="6" x2="60" y2="70.439" gradientUnits="userSpaceOnUse"><stop stop-color="#023BAE"/><stop offset="1" stop-color="#00297C"/></linearGradient><filter id="filter0_d" x="0" y="0" width="120" height="120" filterUnits="userSpaceOnUse" color-interpolation-filters="sRGB"><feFlood flood-opacity="0" result="BackgroundImageFix"/><feColorMatrix in="SourceAlpha" values="0 0 0 0 0 0 0 0 0 0 0 0 0 0 0 0 0 0 127 0"/><feOffset dy="4"/><feGaussianBlur stdDeviation="5"/><feColorMatrix values="0 0 0 0 0.333333 0 0 0 0 0.678431 0 0 0 0 1 0 0 0 0.2 0"/><feBlend in2="BackgroundImageFix" result="effect1_dropShadow"/><feBlend in="SourceGraphic" in2="effect1_dropShadow" result="shape"/></filter></defs></svg>