<svg width="134" height="120" fill="none" xmlns="http://www.w3.org/2000/svg"><g filter="url(#filter0_d)"><path d="M65.99 90.877H48.602a7.646 7.646 0 001.151-4.034v-1.405H62.77a1.828 1.828 0 002.02-1.814 1.826 1.826 0 00-2.02-1.815H47.928a1.83 1.83 0 00-1.825 1.825v3.23a4.032 4.032 0 01-5.61 3.857 4.034 4.034 0 01-2.454-3.857V13.502a7.469 7.469 0 00-1.063-3.831h57.182a5.55 5.55 0 015.538 5.537V44.09a1.83 1.83 0 103.63 0V15.187A9.196 9.196 0 0094.132 6H30.354a7.483 7.483 0 00-7.26 7.471v17.488H11.825A1.825 1.825 0 0010 32.784v6.543a8.377 8.377 0 008.375 8.367h16.029v39.134a7.694 7.694 0 007.685 7.683h23.916a1.825 1.825 0 000-3.629l-.015-.005zM13.615 39.342v-4.718h9.437v4.718a4.717 4.717 0 01-4.718 4.718 4.72 4.72 0 01-4.72-4.718zM25.24 44.06a8.293 8.293 0 001.462-4.718v-25.84a3.832 3.832 0 117.66 0v30.59l-9.122-.032z" fill="url(#paint0_linear)"/><path d="M92.031 21.476h-3.168a1.825 1.825 0 000 3.629h3.168a1.825 1.825 0 100-3.63z" fill="url(#paint1_linear)"/><path d="M83.75 25.126a1.825 1.825 0 000-3.63H55.499a1.826 1.826 0 100 3.63H83.75z" fill="url(#paint2_linear)"/><path d="M46.73 25.126h3.63a1.824 1.824 0 100-3.63h-3.63a1.825 1.825 0 000 3.63z" fill="url(#paint3_linear)"/><path d="M92.031 30.974h-7.778a1.825 1.825 0 000 3.629h7.778a1.829 1.829 0 001.862-1.072 1.826 1.826 0 00-1.862-2.557z" fill="url(#paint4_linear)"/><path d="M46.73 34.624h31.176a1.824 1.824 0 100-3.63H46.73a1.825 1.825 0 000 3.63z" fill="url(#paint5_linear)"/><path d="M93.856 41.81a1.83 1.83 0 00-1.825-1.83H67.66a1.83 1.83 0 000 3.629h24.37a1.83 1.83 0 001.825-1.8z" fill="url(#paint6_linear)"/><path d="M46.73 43.635h9.765a1.83 1.83 0 000-3.63H46.75a1.831 1.831 0 000 3.63h-.02z" fill="url(#paint7_linear)"/><path d="M75.106 51.059a1.83 1.83 0 00-1.831-1.825H46.73a1.825 1.825 0 000 3.63h26.545a1.825 1.825 0 001.83-1.805z" fill="url(#paint8_linear)"/><path d="M61.587 67.738H46.73a1.831 1.831 0 000 3.63h14.857a1.83 1.83 0 000-3.63z" fill="url(#paint9_linear)"/><path d="M65.118 60.313a1.825 1.825 0 00-1.825-1.825H46.73a1.825 1.825 0 000 3.63h16.563a1.83 1.83 0 001.825-1.805z" fill="url(#paint10_linear)"/><path d="M94.76 48.316a28.852 28.852 0 00-26.652 17.805 28.836 28.836 0 006.253 31.431 28.851 28.851 0 0044.384-4.37 28.836 28.836 0 004.862-16.024 28.87 28.87 0 00-8.458-20.385 28.882 28.882 0 00-20.39-8.457zm0 54.029a25.202 25.202 0 01-23.284-15.55 25.187 25.187 0 015.462-27.455 25.2 25.2 0 0143.013 17.818 25.206 25.206 0 01-7.386 17.802 25.22 25.22 0 01-17.805 7.385z" fill="url(#paint11_linear)"/><path d="M94.588 60.314a1.825 1.825 0 00-1.825 1.825V75.53h-9.257a1.831 1.831 0 000 3.655h11.082a1.83 1.83 0 001.826-1.825V62.14a1.83 1.83 0 00-1.826-1.825z" fill="url(#paint12_linear)"/></g><defs><linearGradient id="paint0_linear" x1="56.671" y1="6" x2="56.671" y2="94.511" gradientUnits="userSpaceOnUse"><stop stop-color="#023BAE"/><stop offset="1" stop-color="#00297C"/></linearGradient><linearGradient id="paint1_linear" x1="90.641" y1="21.465" x2="90.641" y2="25.115" gradientUnits="userSpaceOnUse"><stop stop-color="#023BAE"/><stop offset="1" stop-color="#00297C"/></linearGradient><linearGradient id="paint2_linear" x1="69.43" y1="21.486" x2="69.43" y2="25.136" gradientUnits="userSpaceOnUse"><stop stop-color="#023BAE"/><stop offset="1" stop-color="#00297C"/></linearGradient><linearGradient id="paint3_linear" x1="48.739" y1="21.486" x2="48.739" y2="25.136" gradientUnits="userSpaceOnUse"><stop stop-color="#023BAE"/><stop offset="1" stop-color="#00297C"/></linearGradient><linearGradient id="paint4_linear" x1="88.336" y1="30.963" x2="88.336" y2="34.613" gradientUnits="userSpaceOnUse"><stop stop-color="#023BAE"/><stop offset="1" stop-color="#00297C"/></linearGradient><linearGradient id="paint5_linear" x1="62.512" y1="30.984" x2="62.512" y2="34.634" gradientUnits="userSpaceOnUse"><stop stop-color="#023BAE"/><stop offset="1" stop-color="#00297C"/></linearGradient><linearGradient id="paint6_linear" x1="79.962" y1="39.98" x2="79.962" y2="43.609" gradientUnits="userSpaceOnUse"><stop stop-color="#023BAE"/><stop offset="1" stop-color="#00297C"/></linearGradient><linearGradient id="paint7_linear" x1="51.623" y1="40.005" x2="51.623" y2="43.635" gradientUnits="userSpaceOnUse"><stop stop-color="#023BAE"/><stop offset="1" stop-color="#00297C"/></linearGradient><linearGradient id="paint8_linear" x1="60.102" y1="49.234" x2="60.102" y2="52.863" gradientUnits="userSpaceOnUse"><stop stop-color="#023BAE"/><stop offset="1" stop-color="#00297C"/></linearGradient><linearGradient id="paint9_linear" x1="54.158" y1="67.738" x2="54.158" y2="71.367" gradientUnits="userSpaceOnUse"><stop stop-color="#023BAE"/><stop offset="1" stop-color="#00297C"/></linearGradient><linearGradient id="paint10_linear" x1="55.108" y1="58.488" x2="55.108" y2="62.118" gradientUnits="userSpaceOnUse"><stop stop-color="#023BAE"/><stop offset="1" stop-color="#00297C"/></linearGradient><linearGradient id="paint11_linear" x1="94.76" y1="48.316" x2="94.76" y2="106" gradientUnits="userSpaceOnUse"><stop stop-color="#023BAE"/><stop offset="1" stop-color="#00297C"/></linearGradient><linearGradient id="paint12_linear" x1="89.094" y1="60.314" x2="89.094" y2="79.185" gradientUnits="userSpaceOnUse"><stop stop-color="#023BAE"/><stop offset="1" stop-color="#00297C"/></linearGradient><filter id="filter0_d" x="0" y="0" width="133.607" height="120" filterUnits="userSpaceOnUse" color-interpolation-filters="sRGB"><feFlood flood-opacity="0" result="BackgroundImageFix"/><feColorMatrix in="SourceAlpha" values="0 0 0 0 0 0 0 0 0 0 0 0 0 0 0 0 0 0 127 0"/><feOffset dy="4"/><feGaussianBlur stdDeviation="5"/><feColorMatrix values="0 0 0 0 0.333333 0 0 0 0 0.678431 0 0 0 0 1 0 0 0 0.2 0"/><feBlend in2="BackgroundImageFix" result="effect1_dropShadow"/><feBlend in="SourceGraphic" in2="effect1_dropShadow" result="shape"/></filter></defs></svg>