<svg width="30" height="30" fill="none" xmlns="http://www.w3.org/2000/svg"><path d="M24.536 6.653a.644.644 0 00-.648-.645h-3.239a6.191 6.191 0 00-4.44 1.573 6.151 6.151 0 00-2.037 4.237v3.487h-3.239a.649.649 0 00-.647.645v3.357a.645.645 0 00.647.646h3.24v8.651a.644.644 0 00.647.646h3.886a.649.649 0 00.648-.646v-8.65h3.394a.65.65 0 00.635-.479l.933-3.357a.645.645 0 00-.622-.813h-4.34v-3.487a1.29 1.29 0 011.295-1.162h3.239a.649.649 0 00.648-.646V6.654z" fill="#fff"/><rect x="1.5" y="1.5" width="27" height="27" rx="1.5" stroke="#fff" stroke-width="3"/></svg>