<svg width="60" height="60" fill="none" xmlns="http://www.w3.org/2000/svg"><path d="M49.072 13.306a1.29 1.29 0 00-1.296-1.29H41.3a12.383 12.383 0 00-8.883 3.146 12.303 12.303 0 00-4.072 8.475v6.972h-6.477a1.297 1.297 0 00-1.296 1.291v6.715a1.297 1.297 0 001.296 1.291h6.477V57.21a1.297 1.297 0 001.295 1.29h7.773a1.29 1.29 0 001.296-1.291V39.906h6.788a1.298 1.298 0 001.27-.955l1.865-6.715a1.288 1.288 0 00-.673-1.491 1.299 1.299 0 00-.57-.136h-8.68v-6.973a2.58 2.58 0 01.845-1.66 2.596 2.596 0 011.746-.664h6.477a1.297 1.297 0 001.295-1.291v-6.715z" fill="#00297C"/><mask id="path-2-inside-1" fill="#fff"><rect width="60" height="60" rx="3"/></mask><rect width="60" height="60" rx="3" stroke="#00297C" stroke-width="10" mask="url(#path-2-inside-1)"/></svg>