<svg width="51" height="70" fill="none" xmlns="http://www.w3.org/2000/svg"><path d="M44.418 13.056a6.617 6.617 0 003.656-1.098 6.54 6.54 0 002.424-2.93 6.481 6.481 0 00.376-3.771 6.512 6.512 0 00-1.8-3.344A6.595 6.595 0 0045.706.126a6.627 6.627 0 00-3.802.37 6.568 6.568 0 00-2.953 2.405 6.493 6.493 0 00-1.11 3.627 6.51 6.51 0 001.929 4.613 6.612 6.612 0 004.648 1.915zm0-10.87a4.418 4.418 0 012.446.725 4.366 4.366 0 011.627 1.952 4.328 4.328 0 01-.94 4.757 4.404 4.404 0 01-2.249 1.198 4.425 4.425 0 01-2.54-.244 4.386 4.386 0 01-1.975-1.606 4.335 4.335 0 01.538-5.498 4.41 4.41 0 013.093-1.284zm5.936 13.15l-.58-1.71a1.096 1.096 0 00-.555-.63 1.11 1.11 0 00-.841-.057 1.1 1.1 0 00-.636.55c-.13.26-.15.56-.057.834l.581 1.707a6.551 6.551 0 01-.645 5.576l-5.305 8.52c-.027.044-.05.09-.071.137-.146.333-.39.614-.7.808L30.27 36.653a1.12 1.12 0 00-.172.104 1.311 1.311 0 01-1.74-.169 1.288 1.288 0 01-.007-1.735l11.698-6.82c.193-.111.346-.279.44-.48l3.433-7.319a1.087 1.087 0 00-.536-1.453 1.11 1.11 0 00-1.465.531l-.986 2.106-.163-1.321a4.865 4.865 0 01.764-3.269l1.03-1.57a1.086 1.086 0 00-.305-1.534 1.106 1.106 0 00-1.54.341l-1.03 1.57a7.058 7.058 0 00-1.108 4.73l.594 4.802-.54 1.156L27.11 33.03a.997.997 0 00-.193.144 3.462 3.462 0 00-.317 4.731 3.529 3.529 0 004.733.654l7.813-3.866V68.79c0 .29.116.568.323.773a1.106 1.106 0 001.558 0 1.09 1.09 0 00.322-.773V33.676a.451.451 0 000-.064l1.23-.607.075-.04a3.977 3.977 0 001.58-1.75l4.286-6.883.098 12.033-4.626 32.375c-.04.287.035.579.21.81.176.232.436.386.726.427.051.004.103.004.155 0a1.1 1.1 0 001.088-.938l4.64-32.456c.003-.055.003-.11 0-.164l-.136-16.43a1.06 1.06 0 00-.023-.207 8.71 8.71 0 00-.298-4.446zm-43.778-2.28a6.617 6.617 0 003.656-1.098 6.539 6.539 0 002.424-2.93 6.48 6.48 0 00.376-3.771 6.513 6.513 0 00-1.8-3.344A6.595 6.595 0 007.864.126a6.627 6.627 0 00-3.802.37A6.568 6.568 0 001.11 2.902 6.492 6.492 0 000 6.528a6.51 6.51 0 001.928 4.613 6.612 6.612 0 004.648 1.915zm0-10.87a4.418 4.418 0 012.446.725 4.367 4.367 0 011.627 1.952 4.327 4.327 0 01-.94 4.757 4.425 4.425 0 01-4.79.954 4.386 4.386 0 01-1.974-1.606 4.335 4.335 0 01.538-5.498 4.41 4.41 0 013.093-1.284zm17.51 30.997a1.008 1.008 0 00-.196-.144l-11.523-6.706-.54-1.156.59-4.802a7.054 7.054 0 00-1.104-4.73l-1.014-1.57a1.11 1.11 0 00-1.526-.32 1.087 1.087 0 00-.323 1.514l1.035 1.57c.633.967.904 2.126.763 3.271l-.162 1.318-.99-2.105a1.11 1.11 0 00-1.453-.509 1.085 1.085 0 00-.544 1.43l3.43 7.32c.095.2.25.368.443.48l11.698 6.819a1.289 1.289 0 010 1.744 1.308 1.308 0 01-1.75.16.954.954 0 00-.17-.104L9.475 31.081a1.791 1.791 0 01-.7-.808 1.372 1.372 0 00-.074-.137l-5.302-8.52a6.551 6.551 0 01-.645-5.576l.578-1.706a1.085 1.085 0 00-.058-.835 1.11 1.11 0 00-1.477-.493 1.096 1.096 0 00-.554.63l-.578 1.71a8.71 8.71 0 00-.304 4.456c-.013.069-.02.138-.02.208L.203 36.439a1.3 1.3 0 000 .164L4.842 69.06a1.099 1.099 0 001.088.939c.053.003.106.003.159 0a1.11 1.11 0 00.725-.427 1.09 1.09 0 00.21-.81L2.397 36.384l.1-12.033 4.282 6.883c.338.729.89 1.34 1.585 1.75l.074.04 1.207.598a.634.634 0 000 .073V68.79c.015.28.138.544.343.736a1.11 1.11 0 001.52 0c.204-.192.328-.456.343-.736v-34.1l7.833 3.879a3.529 3.529 0 004.688-.69 3.463 3.463 0 00-.285-4.695zm1.179-7.741c.292 0 .572-.116.779-.32a1.09 1.09 0 00.322-.773v-4.664c0-.29-.116-.568-.322-.773a1.106 1.106 0 00-1.558 0 1.089 1.089 0 00-.323.773v4.664c0 .29.116.567.323.773.206.204.487.32.779.32zm3.612 2.108a1.102 1.102 0 001.538-.238l2.54-3.466a1.087 1.087 0 00-.24-1.528 1.109 1.109 0 00-1.54.24l-2.54 3.467a1.087 1.087 0 00.242 1.526zm-8.717-.224a1.104 1.104 0 001.539.24 1.087 1.087 0 00.242-1.527l-2.542-3.468a1.1 1.1 0 00-1.149-.418 1.106 1.106 0 00-.681.492 1.088 1.088 0 00.05 1.214l2.54 3.467zm5.105 16.627c-.292 0-.573.115-.779.32a1.089 1.089 0 00-.323.772v4.664c0 .29.116.568.323.773a1.106 1.106 0 001.558 0 1.09 1.09 0 00.322-.773v-4.664c0-.29-.116-.567-.322-.772a1.106 1.106 0 00-.78-.32z" fill="#00297C"/><path d="M21.697 41.83a1.101 1.101 0 00-1.538.242l-2.54 3.463a1.085 1.085 0 00.243 1.526c.186.137.413.211.645.21a1.112 1.112 0 00.892-.449l2.541-3.466a1.086 1.086 0 00-.243-1.526zm8.718.242a1.099 1.099 0 00-1.163-.46 1.108 1.108 0 00-.699.505 1.087 1.087 0 00.081 1.239l2.541 3.466a1.104 1.104 0 00.892.45c.234 0 .461-.073.649-.212a1.092 1.092 0 00.24-1.525l-2.541-3.463z" fill="#00297C"/></svg>