<svg width="65" height="60" fill="none" xmlns="http://www.w3.org/2000/svg"><path d="M55.158 36.125a32.095 32.095 0 00-21.87-9.447V13.8h4.222v2.677a.976.976 0 00.957.976h16.48a.977.977 0 00.977-.976V4.63a.976.976 0 00-.977-.973h-4.586V.977A.976.976 0 0049.385 0H32.31a.977.977 0 00-.977.976v25.702A32.312 32.312 0 009.12 36.473 32.3 32.3 0 000 58.968a.977.977 0 101.95 0c0-1.273.08-2.544.237-3.807h13.46a64.284 64.284 0 00-.117 3.807.977.977 0 001.953 0c0-1.276.04-2.545.118-3.807h13.723v3.807a.977.977 0 001.953 0V55.16H47a62.42 62.42 0 01.121 3.807.98.98 0 00.589.952.976.976 0 001.361-.952c0-1.276-.04-2.545-.118-3.807h13.461c.157 1.263.236 2.534.236 3.807a.975.975 0 001.667.69.977.977 0 00.286-.69 32.093 32.093 0 00-9.446-22.843zm-1.19 1.573a38.846 38.846 0 01-7.839 2.84 37.442 37.442 0 00-1.77-4.164c-1.517-3.002-3.288-5.357-5.231-6.994a30.164 30.164 0 0114.651 8.124l.188.194zm-22.634-9.01v13.49a57.776 57.776 0 01-10.927-1.2 34.73 34.73 0 011.596-3.723c2.575-5.105 5.856-8.092 9.331-8.567zm1.954 0c3.475.475 6.756 3.468 9.328 8.567a34.73 34.73 0 011.596 3.723 57.775 57.775 0 01-10.928 1.2l.004-13.49zM53.987 5.606v9.891H39.46v-1.7h9.925a.976.976 0 00.976-.977V5.603l3.626.003zm-20.7-3.653h15.121v9.891h-15.12V1.953zm-7.793 27.44c-1.943 1.637-3.715 3.992-5.23 6.994a36.833 36.833 0 00-1.768 4.164 38.804 38.804 0 01-7.842-2.84l.189-.194a30.164 30.164 0 0114.651-8.137v.013zm-23 23.816a30.057 30.057 0 016.791-14.04 40.144 40.144 0 008.588 3.21 53.692 53.692 0 00-2.077 10.82l-13.302.01zm15.261 0c.315-3.52.993-6.997 2.024-10.377 3.8.808 7.67 1.241 11.555 1.293v9.084H17.755zm15.533 0v-9.084a59.35 59.35 0 0011.555-1.293 51.27 51.27 0 012.024 10.377h-13.58zm15.538 0a53.48 53.48 0 00-2.077-10.82 40.137 40.137 0 008.59-3.22 30.056 30.056 0 016.792 14.04H48.826z" fill="#fff"/></svg>