<svg width="61" height="60" fill="none" xmlns="http://www.w3.org/2000/svg"><path d="M51.285 11.312a.5.5 0 00-.084-.093 28.1 28.1 0 00-2.55-2.483.92.92 0 00-1.2 1.394c.558.477 1.09.98 1.6 1.5a30.417 30.417 0 01-3.636 1.499.918.918 0 00.6 1.733 31.42 31.42 0 004.337-1.844 26.082 26.082 0 013.413 5.116 3.508 3.508 0 00-.858 2.666l-4.316 1.607a.918.918 0 10.642 1.718l4.313-1.604a3.545 3.545 0 004.121 1.265 3.542 3.542 0 00-2.366-6.672 27.517 27.517 0 00-4.016-5.802zm5.15 7.449a1.71 1.71 0 01.6 3.298 1.713 1.713 0 01-2.2-1.004 1.709 1.709 0 011.006-2.198c.19-.067.392-.1.593-.096zm-19.91 6.012a.9.9 0 00.903-.02.926.926 0 00.339-.352l2.177-4.054a3.558 3.558 0 002.512-6.59 3.558 3.558 0 00-4.126 5.72l-2.18 4.055a.915.915 0 00.375 1.241zm2.73-8.681a1.703 1.703 0 011.505-.9 1.707 1.707 0 01.489 3.344 1.707 1.707 0 01-1.995-2.444zM24.38 34.578a.915.915 0 00-1.28-.194l-1.548 1.133a3.537 3.537 0 00-4.322-.03 3.544 3.544 0 104.785 5.186 3.545 3.545 0 00.641-3.687l1.527-1.118a.916.916 0 00.198-1.29zm-3.314 3.959a1.71 1.71 0 11-2.726-1.59 1.68 1.68 0 011.263-.332 1.692 1.692 0 011.13.656 1.709 1.709 0 01.333 1.266z" fill="#fff"/><path d="M60.31 39.512a3.516 3.516 0 00-1.8-2.036 3.402 3.402 0 00-1.04-.324c.63-2.354.949-4.781.947-7.218a28.62 28.62 0 00-.246-3.73.917.917 0 00-1.37-.674.918.918 0 00-.45.916c.114.846.186 1.707.216 2.57H45.058a52.869 52.869 0 00-.552-6.822.918.918 0 10-1.8.267c.316 2.172.49 4.361.523 6.555H31.492v-11.76a53.266 53.266 0 003.41-.163.918.918 0 10-.146-1.829 50.786 50.786 0 01-3.264.156V3.992c2.907.44 5.657 2.96 7.829 7.218a.919.919 0 001.748-.48.917.917 0 00-.114-.35c-1.233-2.418-2.657-4.34-4.217-5.728 2.46.598 4.82 1.552 7.004 2.834l-1.18.875a.918.918 0 00.55 1.652.9.9 0 00.546-.183l3.695-2.746c.486.388 1.066.64 1.682.728a3.545 3.545 0 10-2.777-2.201l-.933.696a27.87 27.87 0 00-28.148-.8 3.538 3.538 0 00-5.067-4.8 3.547 3.547 0 00-.729 4.957 3.545 3.545 0 004.148 1.176l2.748 3.694a.917.917 0 001.472-1.094L18.03 7.129a25.9 25.9 0 016.379-2.477c-1.58 1.403-3.023 3.358-4.262 5.817a31.343 31.343 0 00-1.5 3.524 33.317 33.317 0 01-6.556-2.372 26.095 26.095 0 012.045-1.863.917.917 0 00-1.157-1.42 28.215 28.215 0 00-3.108 2.965 28.038 28.038 0 00-4.148 6.036 3.544 3.544 0 00-5.2 3.083A3.54 3.54 0 006.95 22.52l4.313 1.604a.917.917 0 10.639-1.718L7.588 20.8a3.487 3.487 0 00-.471-2.13 26.223 26.223 0 013.69-5.646 34.343 34.343 0 007.26 2.699 48.586 48.586 0 00-1.982 13.281H4.571a26.26 26.26 0 01.18-2.288.918.918 0 10-1.821-.225c-.437 3.55-.19 7.152.729 10.61a3.554 3.554 0 00-1.686.363 3.545 3.545 0 00.426 6.53 3.542 3.542 0 004.613-4.042l4.13-2.033a.918.918 0 00-.81-1.646l-4.13 2.036a3.385 3.385 0 00-.393-.384 26.013 26.013 0 01-1.238-7.089h11.514c0 .795.039 1.593.087 2.375a.918.918 0 00.9.861h.054a.915.915 0 00.86-.969 52.398 52.398 0 01-.08-2.264h11.739v11.764a51.27 51.27 0 00-9.799 1.098c-.03-.093-.06-.183-.087-.276a.917.917 0 00-1.758.528l.054.168a34.31 34.31 0 00-7.264 2.713 26.16 26.16 0 01-1.733-2.255.919.919 0 10-1.515 1.035 28.384 28.384 0 002.384 3.014 28.423 28.423 0 005.027 4.366 3.546 3.546 0 101.872 1.088l2.507-3.859a.918.918 0 10-1.538-.998l-1.563 2.398a26.021 26.021 0 01-4.145-3.403 33.42 33.42 0 016.547-2.37c1.161 3.227 2.673 5.96 4.421 7.974.425.49.88.952 1.365 1.383a26.182 26.182 0 01-4.373-1.485.919.919 0 10-.74 1.677A27.917 27.917 0 0042.68 55a.918.918 0 00.426-1.224.915.915 0 00-1.224-.425 25.714 25.714 0 01-5.165 1.85c1.584-1.404 3.03-3.362 4.274-5.827a31.633 31.633 0 001.5-3.523c2.262.56 4.46 1.355 6.556 2.372a25.9 25.9 0 01-3.563 2.999l-1.419-1.8a.917.917 0 10-1.436 1.14l2.855 3.598a3.539 3.539 0 002.846 5.653 3.542 3.542 0 10-1.406-6.792l-.3-.378a27.837 27.837 0 004.574-4.04l.015-.02a27.873 27.873 0 002.306-2.906.917.917 0 00-1.5-1.04 26.25 26.25 0 01-1.667 2.164 34.402 34.402 0 00-7.261-2.713 48.706 48.706 0 001.98-13.282h11.514a26.039 26.039 0 01-1.083 6.58c-.46.211-.868.518-1.2.9l-4.133-2.037a.918.918 0 00-.81 1.646l4.133 2.033a3.538 3.538 0 004.613 4.043 3.548 3.548 0 002.214-4.498l-.01.039zM48.525 2.927c.294-.22.65-.339 1.017-.338a1.71 1.71 0 11-.253 3.402 1.713 1.713 0 01-1.127-.674 1.712 1.712 0 01.372-2.378l-.009-.012zM12.852 4.562a1.709 1.709 0 011.62-2.711 1.71 1.71 0 11-1.62 2.699v.012zM3.46 22.059a1.71 1.71 0 112.198-1.004 1.712 1.712 0 01-2.19 1.016l-.008-.012zm12.174 35.319a1.71 1.71 0 11-1.443-2.639 1.71 1.71 0 011.431 2.639h.012zm32.893-2.774a1.695 1.695 0 11-.2 0c.075 0 .143.006.21.012l-.01-.012zM21.781 11.288c2.174-4.315 4.943-6.864 7.87-7.308v11.425a49.175 49.175 0 01-9.214-1.01c.393-1.056.845-2.09 1.353-3.095l-.01-.012zM4.286 42.175a1.71 1.71 0 11-1.5-3.065 1.71 1.71 0 012.286.78 1.706 1.706 0 01-.777 2.294l-.01-.01zm13.623-13.168a46.579 46.579 0 011.94-12.861 51.06 51.06 0 009.802 1.097v11.764H17.909zM20.44 45.45a49.388 49.388 0 019.21-1.01v11.43c-3.601-.551-6.99-4.392-9.201-10.41l-.009-.01zm18.92 3.107c-2.178 4.315-4.946 6.867-7.874 7.31V44.439c3.097.048 6.181.386 9.214 1.011a30.928 30.928 0 01-1.332 3.116l-.009-.01zm1.928-4.855a51.538 51.538 0 00-9.802-1.098v-11.75H43.23a46.581 46.581 0 01-1.932 12.856l-.009-.01zm17.198-2.303a1.701 1.701 0 01-2.285.776 1.706 1.706 0 01.755-3.238 1.704 1.704 0 011.617 1.157 1.702 1.702 0 01-.063 1.314l-.024-.01z" fill="#fff"/></svg>