<svg width="120" height="120" fill="none" xmlns="http://www.w3.org/2000/svg"><g filter="url(#filter0_d)"><path d="M102.161 6H17.876a7.837 7.837 0 00-5.54 2.306 7.885 7.885 0 00-2.3 5.556V74.1c-.048.226-.048.46 0 .685v4.55a7.885 7.885 0 002.3 5.556 7.837 7.837 0 005.54 2.306h32.033v5.895a9.784 9.784 0 01-2.853 6.898 9.726 9.726 0 01-6.877 2.862h-7.71a1.567 1.567 0 00-1.534.948 1.582 1.582 0 00.364 1.771 1.567 1.567 0 001.17.426h55.383a1.568 1.568 0 001.48-1.573 1.568 1.568 0 00-1.48-1.572h-7.363a9.726 9.726 0 01-6.877-2.862 9.784 9.784 0 01-2.853-6.898v-5.895h31.402a7.84 7.84 0 005.54-2.306A7.887 7.887 0 00110 79.335V13.862a7.887 7.887 0 00-2.299-5.556A7.84 7.84 0 00102.161 6zM17.876 9.146h84.285a4.702 4.702 0 013.324 1.383 4.728 4.728 0 011.378 3.333v59.01h-93.69v-59.01a4.728 4.728 0 011.38-3.333 4.7 4.7 0 013.322-1.383zm54.186 93.7h-23.51a12.859 12.859 0 003.297-4.39 12.893 12.893 0 001.17-5.369v-5.895h14.576v5.895c0 1.853.399 3.685 1.17 5.37a12.86 12.86 0 003.297 4.389zm30.078-18.795H17.876a4.7 4.7 0 01-3.324-1.382 4.73 4.73 0 01-1.378-3.334v-3.322h93.689v3.322a4.729 4.729 0 01-1.378 3.334 4.702 4.702 0 01-3.324 1.382h-.021z" fill="url(#paint0_linear)"/><path d="M80.409 29.37a1.61 1.61 0 00-.401 1.367L82.85 46.14a1.572 1.572 0 001.095 1.215 1.561 1.561 0 001.577-.422l3.243-3.457 6.813 6.34a1.6 1.6 0 002.212-.075l4.088-4.362a1.56 1.56 0 00.287-1.73 1.55 1.55 0 00-.362-.5l-6.796-6.323 3.179-3.393a1.555 1.555 0 00.331-1.608 1.57 1.57 0 00-1.282-1.028l-15.496-1.908a1.598 1.598 0 00-1.33.482zm13.385 4.17l-2.138 2.283a1.567 1.567 0 00.075 2.23l6.802 6.324-1.945 2.074-6.818-6.34a1.541 1.541 0 00-1.069-.424 1.556 1.556 0 00-1.143.499l-2.19 2.331L83.48 32.27l10.313 1.27z" fill="url(#paint1_linear)"/><path d="M34.83 29.232h9.709a1.578 1.578 0 001.57-1.57v-1.57a1.579 1.579 0 00-.49-1.055 1.568 1.568 0 00-2.646 1.054h-6.578v-6.58h2.747c.415 0 .813-.166 1.107-.46a1.572 1.572 0 00-1.107-2.681h-4.313a1.578 1.578 0 00-1.57 1.57v9.743a1.578 1.578 0 001.57 1.549z" fill="url(#paint2_linear)"/><path d="M40.43 21.236a1.564 1.564 0 00-2.207.198 1.575 1.575 0 00.197 2.213l1.267 1.072a1.6 1.6 0 001.004.365 1.563 1.563 0 001.112-.461l6.668-6.694a1.573 1.573 0 00-1.104-2.683 1.562 1.562 0 00-1.108.459L40.6 21.38l-.17-.144z" fill="url(#paint3_linear)"/><path d="M55.038 19.628H84.09a1.57 1.57 0 001.48-1.573 1.578 1.578 0 00-1.48-1.573H55.038a1.569 1.569 0 00-1.479 1.573 1.57 1.57 0 001.48 1.573z" fill="url(#paint4_linear)"/><path d="M55.038 26.541h20.273c.415 0 .813-.165 1.107-.46a1.573 1.573 0 00-1.107-2.68H55.038a1.572 1.572 0 000 3.14z" fill="url(#paint5_linear)"/><path d="M34.83 66.575h9.709a1.578 1.578 0 001.57-1.576v-9.737c0-.418-.165-.82-.46-1.115a1.568 1.568 0 00-1.11-.461h-9.71a1.568 1.568 0 00-1.57 1.575V65a1.575 1.575 0 001.57 1.576zm1.565-9.743h6.578v6.624h-6.578v-6.624z" fill="url(#paint6_linear)"/><path d="M55.038 57.148H84.09a1.579 1.579 0 001.051-2.654 1.568 1.568 0 00-1.051-.492H55.038a1.578 1.578 0 000 3.146z" fill="url(#paint7_linear)"/><path d="M55.038 64.067h20.273a1.569 1.569 0 001.48-1.573c0-.402-.154-.789-.429-1.081a1.569 1.569 0 00-1.051-.492H55.038a1.569 1.569 0 00-1.479 1.573 1.569 1.569 0 001.48 1.573z" fill="url(#paint8_linear)"/><path d="M34.83 47.946h9.709a1.578 1.578 0 001.57-1.57V36.66a1.578 1.578 0 00-.462-1.11 1.568 1.568 0 00-1.108-.46h-9.71a1.578 1.578 0 00-1.57 1.57v9.743a1.568 1.568 0 001.57 1.543zm1.565-9.737h6.578V44.8h-6.578v-6.59z" fill="url(#paint9_linear)"/><path d="M55.038 38.493h20.273a1.569 1.569 0 001.48-1.573c0-.402-.154-.789-.429-1.081a1.57 1.57 0 00-1.051-.492H55.038a1.57 1.57 0 00-1.479 1.573 1.578 1.578 0 001.48 1.573z" fill="url(#paint10_linear)"/><path d="M55.038 45.411h20.273a1.578 1.578 0 000-3.146H55.038a1.569 1.569 0 00-1.479 1.573 1.578 1.578 0 001.48 1.573z" fill="url(#paint11_linear)"/></g><defs><linearGradient id="paint0_linear" x1="60" y1="6" x2="60" y2="106" gradientUnits="userSpaceOnUse"><stop stop-color="#023BAE"/><stop offset="1" stop-color="#00297C"/></linearGradient><linearGradient id="paint1_linear" x1="91.145" y1="28.879" x2="91.145" y2="50.224" gradientUnits="userSpaceOnUse"><stop stop-color="#023BAE"/><stop offset="1" stop-color="#00297C"/></linearGradient><linearGradient id="paint2_linear" x1="39.684" y1="16.37" x2="39.684" y2="29.232" gradientUnits="userSpaceOnUse"><stop stop-color="#023BAE"/><stop offset="1" stop-color="#00297C"/></linearGradient><linearGradient id="paint3_linear" x1="43.395" y1="15.246" x2="43.395" y2="25.084" gradientUnits="userSpaceOnUse"><stop stop-color="#023BAE"/><stop offset="1" stop-color="#00297C"/></linearGradient><linearGradient id="paint4_linear" x1="69.564" y1="16.482" x2="69.564" y2="19.628" gradientUnits="userSpaceOnUse"><stop stop-color="#023BAE"/><stop offset="1" stop-color="#00297C"/></linearGradient><linearGradient id="paint5_linear" x1="65.174" y1="23.401" x2="65.174" y2="26.541" gradientUnits="userSpaceOnUse"><stop stop-color="#023BAE"/><stop offset="1" stop-color="#00297C"/></linearGradient><linearGradient id="paint6_linear" x1="39.684" y1="53.686" x2="39.684" y2="66.575" gradientUnits="userSpaceOnUse"><stop stop-color="#023BAE"/><stop offset="1" stop-color="#00297C"/></linearGradient><linearGradient id="paint7_linear" x1="69.564" y1="54.002" x2="69.564" y2="57.148" gradientUnits="userSpaceOnUse"><stop stop-color="#023BAE"/><stop offset="1" stop-color="#00297C"/></linearGradient><linearGradient id="paint8_linear" x1="65.175" y1="60.921" x2="65.175" y2="64.067" gradientUnits="userSpaceOnUse"><stop stop-color="#023BAE"/><stop offset="1" stop-color="#00297C"/></linearGradient><linearGradient id="paint9_linear" x1="39.684" y1="35.09" x2="39.684" y2="47.946" gradientUnits="userSpaceOnUse"><stop stop-color="#023BAE"/><stop offset="1" stop-color="#00297C"/></linearGradient><linearGradient id="paint10_linear" x1="65.175" y1="35.347" x2="65.175" y2="38.493" gradientUnits="userSpaceOnUse"><stop stop-color="#023BAE"/><stop offset="1" stop-color="#00297C"/></linearGradient><linearGradient id="paint11_linear" x1="65.175" y1="42.265" x2="65.175" y2="45.411" gradientUnits="userSpaceOnUse"><stop stop-color="#023BAE"/><stop offset="1" stop-color="#00297C"/></linearGradient><filter id="filter0_d" x="0" y="0" width="120" height="120" filterUnits="userSpaceOnUse" color-interpolation-filters="sRGB"><feFlood flood-opacity="0" result="BackgroundImageFix"/><feColorMatrix in="SourceAlpha" values="0 0 0 0 0 0 0 0 0 0 0 0 0 0 0 0 0 0 127 0"/><feOffset dy="4"/><feGaussianBlur stdDeviation="5"/><feColorMatrix values="0 0 0 0 0.333333 0 0 0 0 0.678431 0 0 0 0 1 0 0 0 0.2 0"/><feBlend in2="BackgroundImageFix" result="effect1_dropShadow"/><feBlend in="SourceGraphic" in2="effect1_dropShadow" result="shape"/></filter></defs></svg>