<svg width="69" height="70" fill="none" xmlns="http://www.w3.org/2000/svg"><path d="M33.013 57.199H4.643a2.156 2.156 0 01-2.152-2.152V4.642a2.152 2.152 0 012.152-2.148h59.16a2.152 2.152 0 012.153 2.148v42.28a1.245 1.245 0 102.491 0V4.644A4.67 4.67 0 0063.804 0H4.644A4.67 4.67 0 000 4.643v50.404a4.647 4.647 0 004.643 4.647h28.37a1.245 1.245 0 100-2.491v-.004z" fill="#DC0000"/><path d="M60.254 25.851V8.337A1.246 1.246 0 0059.01 7.09H9.15A1.25 1.25 0 007.9 8.337V25.85a1.25 1.25 0 001.25 1.246h49.858a1.249 1.249 0 001.245-1.246zm-2.495-1.245H10.412V9.582h47.347v15.024zm-16.611 9.548a1.245 1.245 0 100-2.491h-5.48a1.245 1.245 0 100 2.49h5.48zm-32.052 0H31.67a1.245 1.245 0 100-2.491H9.096a1.245 1.245 0 100 2.49zm37.699 4.651a1.245 1.245 0 100 2.49h1.993a1.245 1.245 0 100-2.49h-1.993zm-3.238 1.245a1.245 1.245 0 00-1.245-1.245H28.526a1.245 1.245 0 100 2.49h13.786a1.245 1.245 0 001.245-1.245zM9.096 41.295H24.54a1.245 1.245 0 100-2.49H9.096a1.245 1.245 0 100 2.49zM47.38 47.69a1.245 1.245 0 00-1.246-1.245H36.006a1.246 1.246 0 000 2.49h10.12a1.25 1.25 0 001.253-1.245zM9.096 48.936h22.92a1.245 1.245 0 100-2.491H9.097a1.246 1.246 0 000 2.49z" fill="#DC0000"/><path d="M67.478 51.859a4.02 4.02 0 00-2.864-1.168h-3.577a9.54 9.54 0 001.635-3.838 28.32 28.32 0 00.326-3.152 3.548 3.548 0 00-2.14-3.442 3.502 3.502 0 00-1.394-.283 3.545 3.545 0 00-3.502 2.927c-.429 2.417-1.168 4.157-2.036 4.768-.416.292-.846.564-1.288.813-.779.46-1.557.895-1.799 2.016-.24 1.121-.724 2.375-1.708 3.067l-.066-.085a2.091 2.091 0 00-1.557-.666l-3.176.055a2.117 2.117 0 00-1.557.712 2.222 2.222 0 00-.463.852h-4.317a1.245 1.245 0 100 2.491h4.258l.11 9.135h-4.368a1.245 1.245 0 100 2.491h4.53c.1.29.26.554.468.778a2.097 2.097 0 001.53.67h.046l3.18-.055a2.113 2.113 0 001.557-.712c.177-.2.316-.431.413-.68 1.042.035 2.082.133 3.113.295.922.159 1.856.238 2.79.237h8.992a4.055 4.055 0 004.051-4.051V54.758a4.036 4.036 0 00-1.187-2.9zM44.873 67.478l-.148-12.128 2.471-.047.148 12.132-2.471.043zm8.356-1.11a28.358 28.358 0 00-3.41-.326l-.12-9.945c1.77-.778 3.032-2.553 3.585-5.06.193-.143.396-.273.607-.389.37-.214.876-.51 1.487-.942 1.451-1.031 2.479-3.172 3.043-6.363a1.054 1.054 0 011.04-.872 1.043 1.043 0 011.066 1.101 27.168 27.168 0 01-.3 2.88c-.389 2.495-2.69 4.523-2.724 4.543a1.242 1.242 0 00-.39 1.167v5.811a4.791 4.791 0 01-2.957 4.43l-.779.327a1.245 1.245 0 10.958 2.3l.778-.327a7.259 7.259 0 003.343-2.803v2.83c-.003.633.13 1.26.39 1.837h-3.25a13.714 13.714 0 01-2.367-.21v.012zm12.945-1.358a1.557 1.557 0 01-1.556 1.557h-2.375a1.946 1.946 0 01-1.311-1.837v-3.838a1.25 1.25 0 00-1.246-1.249 1.296 1.296 0 00-.3.043 7.38 7.38 0 00.207-1.713v-4.799h5.02a1.557 1.557 0 011.558 1.557l.003 10.28z" fill="#DC0000"/></svg>