<svg width="61" height="60" fill="none" xmlns="http://www.w3.org/2000/svg"><path d="M29.992 14.607A15.371 15.371 0 0014.6 30a15.371 15.371 0 0015.393 15.393A15.371 15.371 0 0045.385 30a15.371 15.371 0 00-15.392-15.393zm0 25.397c-5.508 0-10.004-4.495-10.004-10.004 0-5.509 4.496-10.004 10.005-10.004 5.508 0 10.004 4.495 10.004 10.004 0 5.509-4.496 10.004-10.005 10.004zM46.017 10.39a3.59 3.59 0 00-3.595 3.595 3.59 3.59 0 003.595 3.595 3.586 3.586 0 003.595-3.595 3.591 3.591 0 00-3.595-3.595zM59.998 30c0-4.143.037-8.248-.195-12.383-.233-4.804-1.329-9.066-4.841-12.579-3.52-3.52-7.775-4.608-12.579-4.84C38.241-.036 34.135.001 30 .001c-4.143 0-8.248-.037-12.383.195C12.813.43 8.55 1.526 5.038 5.038 1.518 8.558.43 12.813.198 17.617-.036 21.759.001 25.865.001 30s-.037 8.248.195 12.383c.233 4.804 1.329 9.066 4.841 12.579 3.52 3.52 7.775 4.608 12.579 4.84 4.142.233 8.248.196 12.383.196 4.143 0 8.248.037 12.383-.195 4.804-.233 9.066-1.329 12.579-4.841 3.52-3.52 4.608-7.775 4.84-12.579.24-4.135.196-8.24.196-12.383zm-6.605 17.697c-.548 1.366-1.208 2.387-2.266 3.437-1.058 1.059-2.072 1.719-3.438 2.267-3.947 1.568-13.321 1.216-17.697 1.216-4.375 0-13.756.352-17.704-1.209-1.366-.547-2.387-1.208-3.437-2.266-1.059-1.058-1.719-2.072-2.267-3.438C5.024 43.75 5.376 34.377 5.376 30c0-4.375-.353-13.757 1.208-17.704.548-1.366 1.209-2.387 2.267-3.438 1.058-1.05 2.071-1.718 3.437-2.266 3.948-1.561 13.329-1.209 17.704-1.209 4.376 0 13.757-.352 17.705 1.209 1.366.548 2.387 1.208 3.437 2.266 1.059 1.058 1.719 2.072 2.267 3.438 1.56 3.947 1.208 13.329 1.208 17.704 0 4.376.353 13.75-1.216 17.697z" fill="#00297C"/></svg>