<svg width="30" height="30" fill="none" xmlns="http://www.w3.org/2000/svg"><path d="M14.996 7.304A7.686 7.686 0 007.3 15a7.686 7.686 0 007.696 7.696A7.686 7.686 0 0022.693 15a7.686 7.686 0 00-7.697-7.696zm0 12.698A5.013 5.013 0 019.994 15a5.013 5.013 0 015.002-5.002A5.013 5.013 0 0119.998 15a5.013 5.013 0 01-5.002 5.002zm8.012-14.807c-.994 0-1.798.803-1.798 1.797 0 .995.803 1.798 1.798 1.798.994 0 1.797-.8 1.797-1.798a1.796 1.796 0 00-1.797-1.797zM29.998 15c0-2.071.02-4.124-.097-6.192-.116-2.401-.664-4.533-2.42-6.289C25.72.76 23.593.215 21.19.1 19.122-.018 17.069 0 15 0c-2.071 0-4.124-.019-6.192.098-2.401.116-4.533.664-6.289 2.42C.76 4.28.215 6.407.1 8.81-.018 10.878 0 12.931 0 15c0 2.068-.019 4.124.098 6.192.116 2.401.664 4.533 2.42 6.289 1.76 1.76 3.888 2.304 6.29 2.42 2.07.117 4.123.098 6.191.098 2.071 0 4.124.019 6.192-.098 2.401-.116 4.533-.664 6.289-2.42 1.76-1.76 2.304-3.888 2.42-6.29.12-2.067.098-4.12.098-6.191zm-3.301 8.849a4.77 4.77 0 01-1.134 1.718 4.8 4.8 0 01-1.718 1.133c-1.974.785-6.661.608-8.849.608-2.188 0-6.878.177-8.852-.604a4.77 4.77 0 01-1.719-1.133 4.8 4.8 0 01-1.133-1.719c-.78-1.977-.604-6.664-.604-8.852 0-2.188-.176-6.878.604-8.852a4.768 4.768 0 011.133-1.719 4.85 4.85 0 011.719-1.133c1.974-.78 6.665-.604 8.852-.604 2.188 0 6.879-.177 8.853.604a4.768 4.768 0 011.718 1.133A4.8 4.8 0 0126.7 6.148c.78 1.974.605 6.664.605 8.852 0 2.188.176 6.875-.608 8.849z" fill="#fff"/></svg>