<svg width="71" height="60" fill="none" xmlns="http://www.w3.org/2000/svg"><path d="M58.935 1.969l4.108 1.312L3.17 33.908a.985.985 0 00.899 1.74L63.917 5.021l-1.32 4.082a.983.983 0 101.873.592l2.054-6.355a.979.979 0 00-.633-1.239L59.534.048a.986.986 0 00-.605 1.876l.006.045zm10.757 55.919h-2.437v-7.194a.985.985 0 00-.985-.985h-2.273V47.56h2.273a.985.985 0 00.985-.985V25.938a.985.985 0 00-.985-.981h-2.273v-2.151h2.273a.985.985 0 00.985-.982v-4.072a.985.985 0 00-.985-.985H50.442a.985.985 0 00-.985.985v3.087h-.902a.982.982 0 00-.985.985v4.114a.98.98 0 00.985.985h.912v18.669h-.901a.981.981 0 00-.986.984v4.118a.985.985 0 00.986.985h.901v6.209h-6.07v-6.21h.9a.985.985 0 00.986-.984v-4.118a.985.985 0 00-.985-.984h-.902v-6.3h.902a.985.985 0 00.985-.985V34.19a.985.985 0 00-.985-.985h-.902V30.12a.985.985 0 00-.985-.984H26.583a.985.985 0 00-.985.984v4.069a.985.985 0 00.985.985h2.273v2.147h-2.273a.985.985 0 00-.985.985v8.27a.985.985 0 00.985.984h2.273v2.148h-2.273a.985.985 0 00-.985.985v7.194h-3.944v-7.194a.985.985 0 00-.985-.985h-2.274V47.56h2.274a.985.985 0 00.985-.985v-4.068a.985.985 0 00-.985-.985H4.84a.984.984 0 00-.985.985v3.084h-.901a.982.982 0 00-.985.984v4.118a.985.985 0 00.985.985h.912v6.209h-2.81a1.057 1.057 0 100 2.112h68.646a1.057 1.057 0 100-2.112h-.01zm-7.526-2.127v2.127h-1.413V55.76h1.413zm1.392 2.127V55.76h1.706v2.127h-1.706zm1.706-6.21v2.113H51.406V51.68h13.858zM49.519 22.793h1.762v1.044a.696.696 0 001.392 0v-1.044h1.413v2.15h-4.58l.013-2.15zm12.487 2.15h-3.68v-2.15h3.68v2.15zm-5.086 0h-1.413v-2.15h1.413v2.15zm5.221 20.636h-1.413V43.49h1.413v2.089zM51.396 43.49h5.106v1.097a.696.696 0 001.393 0V43.49h1.413v2.089h-7.926l.014-2.089zm0-1.97v-2.19h13.858v2.19H51.395zm5.81-4.545a.696.696 0 00.696-.696v-1.1h1.413v2.19h-7.926v-2.19h5.106v1.1a.694.694 0 00.735.7l-.025-.004zm8.047-1.803v2.19h-1.705v-2.19h1.706zm-3.111 2.19h-1.414v-2.19h1.413v2.19zm3.111-4.16H51.397v-2.196h13.858v2.197zM49.51 47.559h12.486v2.147H49.51v-2.147zm15.745-1.97h-1.706V43.5h1.706v2.088zm0-18.669v2.116h-13.86V26.92h13.858zm0-8.185v2.088h-13.86v-2.088h13.858zm-13.86 37.022h5.106v1.121a.696.696 0 001.393 0v-1.1h1.413v2.127h-7.926l.014-2.148zm-20.612-6.052v-2.147H43.27v2.147H30.784zm0-14.534h1.497v1.1a.696.696 0 101.393 0v-1.1h1.392v2.148H30.75l.034-2.148zm5.723 0h1.413v2.148h-1.413V35.17zm2.82 0h3.944v2.148h-3.944V35.17zM33.67 45.174a.696.696 0 00.696-.696v-.982h1.414v2.088h-8.243v-2.088h5.44v.982a.695.695 0 00.718.7l-.025-.004zm4.936.397h-1.413v-2.089h1.413v2.089zM40 43.482h1.371v2.089H40v-2.089zm-1.393 8.186v2.113h-1.413v-2.113h1.413zm1.393 0h1.371v2.113H40v-2.113zM27.537 33.212v-2.088h13.858v2.088H27.537zm2.273 6.087h11.585v2.116H27.537V39.3h2.273zm0 12.387h3.168v1.13a.696.696 0 101.392 0v-1.13h1.413v2.112h-8.246v-2.112h2.273zm-2.273 4.082h13.858v2.126H27.537v-2.126zm-11.084 0v2.126H15.04v-2.126h1.413zm1.393 2.126v-2.126h1.81v2.126h-1.81zm1.81-6.208v2.112H5.798v-2.112h13.858zM3.91 47.568h1.521v1.044a.704.704 0 101.41 0v-1.044h1.392v2.148h-4.34l.017-2.148zm12.486 2.148h-3.92v-2.148h3.92v2.148zm-5.326 0H9.68v-2.148h1.392v2.148zm8.585-6.216v2.088H5.798V43.5h13.858zM5.798 55.768h5.03v1.11a.696.696 0 001.392 0v-1.1h1.413v2.127H5.812l-.014-2.137z" fill="#00297C"/></svg>