<svg width="60" height="45" fill="none" xmlns="http://www.w3.org/2000/svg"><path d="M28.099 6.388a.955.955 0 00-.238-.574.92.92 0 00-.537-.298C21.855 4.537 14.633.181 14.563.136a.91.91 0 00-.959 0C13.53.182 6.298 4.545.823 5.517a.938.938 0 00-.527.293.972.972 0 00-.248.557c0 .173-.395 4.331 1.076 9.654C3.013 22.99 7.488 28.935 13.6 32.592a.911.911 0 00.978 0c5.994-3.759 10.386-9.68 12.306-16.588 1.514-5.313 1.23-9.443 1.215-9.616zm-25.15 9.175a28.975 28.975 0 01-1.066-8.312c4.206-.945 8.982-3.39 11.288-4.675v27.467C8.163 26.634 4.532 21.49 2.95 15.563zm22.13-.11a27.835 27.835 0 01-3.7 7.998 26.119 26.119 0 01-6.333 6.503V2.611c2.325 1.294 7.037 3.714 11.2 4.636a29.99 29.99 0 01-1.166 8.213v-.007z" fill="#fff"/><path d="M60 10.43v-.13a.995.995 0 00-.282-.692.958.958 0 00-.679-.285H14.27a.943.943 0 00-.714.267.982.982 0 00-.3.712.998.998 0 00.3.713.958.958 0 00.714.266h41.75L34.13 26.046a5.188 5.188 0 00-1.822-1.555 5.076 5.076 0 00-4.622 0c-.718.367-1.341.9-1.822 1.555l-1.342-.9a.944.944 0 00-.705-.11.961.961 0 00-.585.415.997.997 0 00.232 1.33l1.545 1.037c-.127.458-.193.93-.194 1.407 0 1.402.546 2.748 1.518 3.74a5.13 5.13 0 003.664 1.55 5.13 5.13 0 003.664-1.55 5.346 5.346 0 001.324-5.15l23.092-15.574v30.285l-13.54-7.757a.941.941 0 00-.728-.09.963.963 0 00-.577.463.997.997 0 00-.087.744c.068.25.231.462.453.59l11.456 6.566H4.498l3.91-2.276a.964.964 0 00.484-.595 1 1 0 00-.088-.768.974.974 0 00-.607-.463.943.943 0 00-.746.129l-5.535 3.223V11.278h4.671a.942.942 0 00.713-.267.98.98 0 00.3-.712.998.998 0 00-.3-.712.958.958 0 00-.713-.267H.959a.94.94 0 00-.677.287.98.98 0 00-.28.69V44.02a.509.509 0 000 .066v.015a.982.982 0 00.302.64c.177.167.408.26.649.26h58.075a.94.94 0 00.679-.285.98.98 0 00.281-.693V10.44l.012-.01zM30.002 32.547a3.217 3.217 0 01-1.813-.562 3.317 3.317 0 01-1.202-1.495 3.396 3.396 0 01-.186-1.925c.127-.647.438-1.24.894-1.706a3.244 3.244 0 011.672-.911 3.202 3.202 0 011.886.19 3.28 3.28 0 011.464 1.229 3.382 3.382 0 01-.408 4.205 3.23 3.23 0 01-2.307.975z" fill="#fff"/></svg>