<svg width="184" height="210" fill="none" xmlns="http://www.w3.org/2000/svg"><g filter="url(#filter0_d)"><path fill-rule="evenodd" clip-rule="evenodd" d="M154 43.095v90.769L91.998 176 30 133.864v-90.77c35.881-22.792 88.119-22.792 124 0z" fill="#00297C"/><path fill-rule="evenodd" clip-rule="evenodd" d="M147.568 46.699c-32.652-19.042-78.47-19.042-111.136 0v83.779l55.566 37.763 55.57-37.763v-83.78z" fill="#fff"/><path fill-rule="evenodd" clip-rule="evenodd" d="M91.892 163.111l-3.937-2.583v-59.565h7.874v59.565l-3.937 2.583zm-11.81-7.747l-7.875-5.164v-49.237h7.874v54.401zm-15.736-10.328l-7.874-5.164v-38.909h7.851v44.073h.023zM48.61 134.708l-8.963-5.874v-27.871h8.94v33.745h.023zm55.124-33.745h7.874V150.2l-7.874 5.164v-54.401zm15.736.32h7.874v38.589l-7.874 5.164v-43.753zm15.735 0h8.963v27.551l-8.963 5.874v-33.425z" fill="#DC0000"/><path fill-rule="evenodd" clip-rule="evenodd" d="M39.326 98.273V48.427c39.879-17.139 66.733-16.178 104.701 0v49.846h-104.7z" fill="#00297C"/><path d="M83.346 53.773h4.878v7.017c-.983.68-2.126 1.2-3.427 1.564a14.198 14.198 0 01-3.831.546c-1.777 0-3.372-.364-4.784-1.09-1.412-.744-2.522-1.77-3.332-3.083-.793-1.327-1.19-2.829-1.19-4.504 0-1.675.397-3.169 1.19-4.48.81-1.328 1.928-2.355 3.356-3.082 1.444-.743 3.07-1.114 4.879-1.114 1.634 0 3.094.276 4.379.83 1.3.537 2.38 1.327 3.236 2.37L85.107 51.9c-1.047-1.217-2.293-1.825-3.737-1.825-1.237 0-2.22.371-2.95 1.114-.73.743-1.096 1.754-1.096 3.034 0 1.249.358 2.252 1.072 3.01.73.76 1.697 1.139 2.903 1.139a5.31 5.31 0 002.047-.403v-4.196zm13.983 8.984c-1.444 0-2.745-.284-3.903-.853-1.143-.585-2.04-1.383-2.69-2.394-.65-1.028-.975-2.19-.975-3.485 0-1.296.325-2.45.975-3.461.65-1.028 1.547-1.826 2.69-2.395 1.158-.569 2.459-.853 3.903-.853 1.46 0 2.76.284 3.902.853 1.159.57 2.055 1.367 2.69 2.395.65 1.011.975 2.165.975 3.46 0 1.297-.325 2.458-.975 3.486-.635 1.011-1.531 1.81-2.69 2.394-1.142.569-2.443.853-3.902.853zm0-4.172c.618 0 1.126-.221 1.523-.664.396-.458.595-1.09.595-1.896 0-.806-.199-1.43-.595-1.873-.397-.443-.905-.664-1.523-.664-.62 0-1.127.221-1.524.664-.396.443-.595 1.067-.595 1.873s.199 1.438.595 1.896c.397.443.905.664 1.523.664zm-38.47 29.754c-.81.458-1.912.687-3.308.687-1.825 0-3.229-.434-4.212-1.303-.984-.885-1.476-2.205-1.476-3.96v-3.318h-1.785v-3.912h1.785v-3.627h5.379v3.627h2.665v3.912h-2.665v3.271c0 .395.103.704.309.925.206.221.476.332.81.332.46 0 .864-.119 1.213-.356l1.285 3.722zm7.885.687c-1.444 0-2.745-.284-3.903-.853-1.143-.585-2.039-1.383-2.69-2.394-.65-1.028-.975-2.19-.975-3.485 0-1.296.325-2.45.975-3.461.651-1.028 1.547-1.826 2.69-2.395 1.158-.569 2.459-.853 3.903-.853 1.46 0 2.76.285 3.903.853 1.158.57 2.054 1.367 2.689 2.395.65 1.011.976 2.165.976 3.46 0 1.297-.326 2.458-.976 3.486-.635 1.011-1.531 1.81-2.69 2.394-1.142.569-2.443.853-3.902.853zm0-4.172c.618 0 1.126-.221 1.523-.664.396-.458.595-1.09.595-1.896 0-.806-.199-1.43-.595-1.873-.397-.443-.905-.664-1.523-.664-.62 0-1.127.221-1.523.664-.397.443-.595 1.067-.595 1.873s.198 1.438.595 1.896c.396.443.904.664 1.523.664zm24.525 4.315c-2.554 0-4.546-.688-5.974-2.063-1.427-1.375-2.141-3.303-2.141-5.784v-9.127h5.616v8.96c0 1.218.214 2.103.643 2.656.444.553 1.079.83 1.904.83s1.451-.277 1.88-.83c.444-.553.666-1.438.666-2.655v-8.961h5.521v9.127c0 2.481-.714 4.41-2.142 5.784-1.428 1.375-3.419 2.063-5.973 2.063zm16.901 0c-1.38 0-2.729-.15-4.046-.45-1.301-.317-2.371-.736-3.212-1.257l1.808-4.078c.794.459 1.682.83 2.666 1.115.983.268 1.927.403 2.832.403.777 0 1.333-.072 1.666-.214.333-.158.499-.387.499-.687 0-.348-.222-.609-.666-.783-.428-.174-1.142-.363-2.142-.569-1.285-.268-2.356-.553-3.213-.853a5.642 5.642 0 01-2.237-1.517c-.634-.711-.952-1.667-.952-2.869 0-1.043.294-1.991.881-2.844.587-.854 1.46-1.526 2.618-2.015 1.174-.49 2.594-.735 4.26-.735 1.142 0 2.261.126 3.355.379 1.111.237 2.087.593 2.928 1.067l-1.69 4.053c-1.634-.821-3.181-1.232-4.641-1.232-1.444 0-2.165.347-2.165 1.043 0 .332.214.585.642.758.428.159 1.134.332 2.118.522 1.269.237 2.34.514 3.213.83.873.3 1.626.798 2.261 1.493.65.696.976 1.644.976 2.845a4.908 4.908 0 01-.881 2.845c-.587.837-1.468 1.509-2.642 2.015-1.158.49-2.57.735-4.236.735zm20.782-3.272h-6.331l-1.118 2.892h-5.712l7.282-16.594h5.522l7.282 16.594h-5.807l-1.118-2.892zm-1.547-4.03l-1.618-4.172-1.619 4.172h3.237z" fill="#fff"/><path fill-rule="evenodd" clip-rule="evenodd" d="M53.93 52.269l1.316 4.062 4.283-.006-3.47 2.498 1.332 4.06-3.46-2.519-3.461 2.518 1.331-4.059-3.47-2.498 4.284.006 1.315-4.062zm75.519 0l1.315 4.062 4.284-.006-3.47 2.498 1.331 4.06-3.46-2.519-3.461 2.518 1.332-4.059-3.47-2.498 4.283.006 1.316-4.062z" fill="#fff"/></g><defs><filter id="filter0_d" x="0" y="0" width="184" height="210" filterUnits="userSpaceOnUse" color-interpolation-filters="sRGB"><feFlood flood-opacity="0" result="BackgroundImageFix"/><feColorMatrix in="SourceAlpha" values="0 0 0 0 0 0 0 0 0 0 0 0 0 0 0 0 0 0 127 0"/><feOffset dy="4"/><feGaussianBlur stdDeviation="15"/><feColorMatrix values="0 0 0 0 0.2 0 0 0 0 0.2 0 0 0 0 0.2 0 0 0 0.3 0"/><feBlend in2="BackgroundImageFix" result="effect1_dropShadow"/><feBlend in="SourceGraphic" in2="effect1_dropShadow" result="shape"/></filter></defs></svg>