<svg width="64" height="70" fill="none" xmlns="http://www.w3.org/2000/svg"><path d="M43.645 29.463a20.057 20.057 0 00-11.647 3.687 20.164 20.164 0 00-7.99-3.357l7.92-5.186c.485-.317.686-.929.484-1.473l-2.355-6.328a1.243 1.243 0 00-1.164-.809H11.909c-.52 0-.984.323-1.165.81L8.39 23.133a1.243 1.243 0 00.483 1.473l7.9 5.172C7.3 31.475.086 39.776.086 49.731.086 60.907 9.178 70 20.355 70a20.08 20.08 0 0011.652-3.686A20.153 20.153 0 0043.645 70c11.176 0 20.269-9.093 20.269-20.27 0-11.175-9.093-20.267-20.269-20.267zM2.571 49.73c0-9.806 7.978-17.783 17.784-17.783s17.783 7.977 17.783 17.783a17.69 17.69 0 01-2.481 9.061 12.206 12.206 0 01-2.23-2.619 14.596 14.596 0 001.501-6.442c0-8.036-6.537-14.573-14.573-14.573-8.036 0-14.574 6.537-14.574 14.573 0 8.036 6.538 14.574 14.574 14.574a14.48 14.48 0 007.394-2.014 20.437 20.437 0 002.23 2.392 17.609 17.609 0 01-9.624 2.832c-9.806 0-17.784-7.978-17.784-17.784zm17.784 12.088c-6.666 0-12.089-5.423-12.089-12.088 0-6.665 5.423-12.088 12.089-12.088 2.166 0 4.2.576 5.96 1.578a20.138 20.138 0 00-2.938 10.51 20.15 20.15 0 002.945 10.513 12.01 12.01 0 01-5.967 1.575zM32 46.49a12.046 12.046 0 01-.003 6.48A12.049 12.049 0 0132 46.49zm5.677-7.27a12.007 12.007 0 015.968-1.576c6.665 0 12.088 5.422 12.088 12.088 0 6.665-5.423 12.088-12.089 12.088-2.166 0-4.2-.576-5.96-1.578a20.165 20.165 0 002.938-10.51c0-3.846-1.077-7.445-2.945-10.512zM26.66 22.325h-12.5l6.267-3.647 6.234 3.647zm1.368-3.843l.839 2.255-3.854-2.255h3.015zm-15.257 0h3.05l-3.893 2.266.843-2.266zm.949 6.328h13.36l-6.68 4.374-6.68-4.374zm29.924 42.705c-9.806 0-17.783-7.978-17.783-17.784 0-3.22.856-6.325 2.482-9.06.861.76 1.61 1.643 2.228 2.618a14.597 14.597 0 00-1.5 6.442c0 8.036 6.537 14.574 14.573 14.574 8.036 0 14.574-6.538 14.574-14.574S51.68 35.158 43.645 35.158c-2.626 0-5.16.693-7.395 2.014a20.461 20.461 0 00-2.228-2.392 17.589 17.589 0 019.623-2.832c9.806 0 17.784 7.977 17.784 17.783 0 9.806-7.978 17.784-17.784 17.784zM20.4 8.167c.687 0 1.243-.557 1.243-1.243V1.243a1.242 1.242 0 10-2.485 0v5.681c0 .686.556 1.243 1.242 1.243zM6.603 13.358a1.239 1.239 0 001.758 0 1.242 1.242 0 000-1.757L4.344 7.583A1.242 1.242 0 002.586 9.34l4.017 4.018zm26.716.364c.318 0 .636-.122.879-.364l4.017-4.018a1.242 1.242 0 10-1.758-1.757l-4.017 4.018a1.242 1.242 0 00.879 2.12z" fill="#00297C"/></svg>