<svg width="63" height="72" fill="none" xmlns="http://www.w3.org/2000/svg"><mask id="path-1-outside-1" maskUnits="userSpaceOnUse" x="0" y="0" width="63" height="72" fill="#000"><path fill="#fff" d="M0 0h63v72H0z"/><path d="M61.865 69.777l-2.072-20.398a8.59 8.59 0 00-6.012-8.163l-5.316-1.708a.947.947 0 00-.082-.196c-.136-.257-3.355-6.063-9.927-6.39l-.193-2.23c.92-1.13 2.354-3.26 2.575-4.992l.146-1.127c.105-.84.38-1.649.806-2.379a8.464 8.464 0 001.155-4.28v-5.43A11.285 11.285 0 0031.665 1a11.281 11.281 0 00-11.28 11.484v5.688a8.52 8.52 0 00.891 3.787l.172.357c.316.633.524 1.315.613 2.018l.175 1.373c.203 1.59 1.5 3.612 2.406 4.786a.956.956 0 00-.028.146l-.203 2.357c-5.349.332-7.766 4.607-8.426 6.023L9.1 41.234a8.586 8.586 0 00-6.02 8.163L1.006 69.794a1.088 1.088 0 00.97 1.19h.111a1.07 1.07 0 001.07-.973l2.079-20.455v-.107a6.42 6.42 0 014.506-6.155l5.966-1.919v10.606c.001.122.023.242.064.357a3.961 3.961 0 102.047-.022c.038-.108.059-.22.06-.335v-11.3l7.574-2.436a1.07 1.07 0 00.749-.941l.556-6.483a1.028 1.028 0 000-.279 1.07 1.07 0 00-.168-1.087c-.984-1.188-2.075-3.02-2.203-4.026l-.175-1.373a8.432 8.432 0 00-.827-2.714l-.168-.357a6.315 6.315 0 01-.667-2.813v-5.685a9.112 9.112 0 0115.553-6.442 9.112 9.112 0 012.668 6.442v5.432c0 1.114-.296 2.21-.856 3.173a8.397 8.397 0 00-1.087 3.21l-.143 1.127c-.139 1.098-1.316 3.017-2.325 4.169a1.07 1.07 0 00-.246.923c-.02.099-.027.2-.021.3l.56 6.483a1.07 1.07 0 00.749.941l5.444 1.751-2.018 11.8v.04a5.381 5.381 0 002.329 5.217 1.08 1.08 0 001.215-1.783 3.23 3.23 0 01-1.397-3.11l1.964-11.48 1.783.575 3.284 10.634c.357 1.206-.175 2.496-1.39 3.285l-.132.085a1.085 1.085 0 101.184 1.819l.128-.082c2.054-1.334 2.949-3.591 2.282-5.749l-2.835-9.179 3.876 1.245a6.419 6.419 0 014.5 6.151v.107l2.079 20.456a1.07 1.07 0 001.07.973h.114a1.069 1.069 0 00.984-1.223zM18.645 56.14a1.783 1.783 0 11-3.566 0 1.783 1.783 0 013.566 0zm.556-18.187a7.486 7.486 0 015.024-2.792l-.107 1.212-4.917 1.58zm19.554-1.58l-.11-1.28a9.228 9.228 0 014.728 1.804l-.157.91-4.46-1.434z"/></mask><path d="M61.865 69.777l-2.072-20.398a8.59 8.59 0 00-6.012-8.163l-5.316-1.708a.947.947 0 00-.082-.196c-.136-.257-3.355-6.063-9.927-6.39l-.193-2.23c.92-1.13 2.354-3.26 2.575-4.992l.146-1.127c.105-.84.38-1.649.806-2.379a8.464 8.464 0 001.155-4.28v-5.43A11.285 11.285 0 0031.665 1a11.281 11.281 0 00-11.28 11.484v5.688a8.52 8.52 0 00.891 3.787l.172.357c.316.633.524 1.315.613 2.018l.175 1.373c.203 1.59 1.5 3.612 2.406 4.786a.956.956 0 00-.028.146l-.203 2.357c-5.349.332-7.766 4.607-8.426 6.023L9.1 41.234a8.586 8.586 0 00-6.02 8.163L1.006 69.794a1.088 1.088 0 00.97 1.19h.111a1.07 1.07 0 001.07-.973l2.079-20.455v-.107a6.42 6.42 0 014.506-6.155l5.966-1.919v10.606c.001.122.023.242.064.357a3.961 3.961 0 102.047-.022c.038-.108.059-.22.06-.335v-11.3l7.574-2.436a1.07 1.07 0 00.749-.941l.556-6.483a1.028 1.028 0 000-.279 1.07 1.07 0 00-.168-1.087c-.984-1.188-2.075-3.02-2.203-4.026l-.175-1.373a8.432 8.432 0 00-.827-2.714l-.168-.357a6.315 6.315 0 01-.667-2.813v-5.685a9.112 9.112 0 0115.553-6.442 9.112 9.112 0 012.668 6.442v5.432c0 1.114-.296 2.21-.856 3.173a8.397 8.397 0 00-1.087 3.21l-.143 1.127c-.139 1.098-1.316 3.017-2.325 4.169a1.07 1.07 0 00-.246.923c-.02.099-.027.2-.021.3l.56 6.483a1.07 1.07 0 00.749.941l5.444 1.751-2.018 11.8v.04a5.381 5.381 0 002.329 5.217 1.08 1.08 0 001.215-1.783 3.23 3.23 0 01-1.397-3.11l1.964-11.48 1.783.575 3.284 10.634c.357 1.206-.175 2.496-1.39 3.285l-.132.085a1.085 1.085 0 101.184 1.819l.128-.082c2.054-1.334 2.949-3.591 2.282-5.749l-2.835-9.179 3.876 1.245a6.419 6.419 0 014.5 6.151v.107l2.079 20.456a1.07 1.07 0 001.07.973h.114a1.069 1.069 0 00.984-1.223zM18.645 56.14a1.783 1.783 0 11-3.566 0 1.783 1.783 0 013.566 0zm.556-18.187a7.486 7.486 0 015.024-2.792l-.107 1.212-4.917 1.58zm19.554-1.58l-.11-1.28a9.228 9.228 0 014.728 1.804l-.157.91-4.46-1.434z" fill="#00297C"/><path d="M61.865 69.777l-2.072-20.398a8.59 8.59 0 00-6.012-8.163l-5.316-1.708a.947.947 0 00-.082-.196c-.136-.257-3.355-6.063-9.927-6.39l-.193-2.23c.92-1.13 2.354-3.26 2.575-4.992l.146-1.127c.105-.84.38-1.649.806-2.379a8.464 8.464 0 001.155-4.28v-5.43A11.285 11.285 0 0031.665 1a11.281 11.281 0 00-11.28 11.484v5.688a8.52 8.52 0 00.891 3.787l.172.357c.316.633.524 1.315.613 2.018l.175 1.373c.203 1.59 1.5 3.612 2.406 4.786a.956.956 0 00-.028.146l-.203 2.357c-5.349.332-7.766 4.607-8.426 6.023L9.1 41.234a8.586 8.586 0 00-6.02 8.163L1.006 69.794a1.088 1.088 0 00.97 1.19h.111a1.07 1.07 0 001.07-.973l2.079-20.455v-.107a6.42 6.42 0 014.506-6.155l5.966-1.919v10.606c.001.122.023.242.064.357a3.961 3.961 0 102.047-.022c.038-.108.059-.22.06-.335v-11.3l7.574-2.436a1.07 1.07 0 00.749-.941l.556-6.483a1.028 1.028 0 000-.279 1.07 1.07 0 00-.168-1.087c-.984-1.188-2.075-3.02-2.203-4.026l-.175-1.373a8.432 8.432 0 00-.827-2.714l-.168-.357a6.315 6.315 0 01-.667-2.813v-5.685a9.112 9.112 0 0115.553-6.442 9.112 9.112 0 012.668 6.442v5.432c0 1.114-.296 2.21-.856 3.173a8.397 8.397 0 00-1.087 3.21l-.143 1.127c-.139 1.098-1.316 3.017-2.325 4.169a1.07 1.07 0 00-.246.923c-.02.099-.027.2-.021.3l.56 6.483a1.07 1.07 0 00.749.941l5.444 1.751-2.018 11.8v.04a5.381 5.381 0 002.329 5.217 1.08 1.08 0 001.215-1.783 3.23 3.23 0 01-1.397-3.11l1.964-11.48 1.783.575 3.284 10.634c.357 1.206-.175 2.496-1.39 3.285l-.132.085a1.085 1.085 0 101.184 1.819l.128-.082c2.054-1.334 2.949-3.591 2.282-5.749l-2.835-9.179 3.876 1.245a6.419 6.419 0 014.5 6.151v.107l2.079 20.456a1.07 1.07 0 001.07.973h.114a1.069 1.069 0 00.984-1.223zM18.645 56.14a1.783 1.783 0 11-3.566 0 1.783 1.783 0 013.566 0zm.556-18.187a7.486 7.486 0 015.024-2.792l-.107 1.212-4.917 1.58zm19.554-1.58l-.11-1.28a9.228 9.228 0 014.728 1.804l-.157.91-4.46-1.434z" stroke="#00297C" stroke-width=".4" mask="url(#path-1-outside-1)"/><path d="M24.811 42.704h0a1.186 1.186 0 011.224-1.542 1.183 1.183 0 011.03.818l-2.254.724zm0 0l5.592 17.367a1.276 1.276 0 00.001.144v9.69a1.184 1.184 0 002.368 0V60.63c.019-.04.035-.08.049-.12h0v-.002l5.513-17.83v-.001a1.17 1.17 0 00-.805-1.47 1.168 1.168 0 00-1.483.78v.001L31.65 56.221m-6.84-13.517l6.84 13.517m0 0L27.066 41.98l4.585 14.24z" fill="#00297C" stroke="#00297C" stroke-width=".2"/></svg>