<svg width="121" height="121" fill="none" xmlns="http://www.w3.org/2000/svg"><g filter="url(#filter0_d)"><path d="M103.231 6H74.353c-2.06.002-4.036.865-5.493 2.4-1.457 1.534-2.277 3.615-2.28 5.785v65.619c.002 2.171.822 4.253 2.279 5.788 1.457 1.536 3.433 2.399 5.494 2.401h28.878c2.061-.002 4.036-.865 5.493-2.401 1.456-1.535 2.275-3.617 2.276-5.788V14.197c.001-2.172-.817-4.256-2.274-5.793S105.293 6.002 103.231 6zM69.022 17.782h39.555v54.019H69.022V17.782zm5.33-9.209h28.879c1.413.001 2.767.593 3.767 1.645a5.776 5.776 0 011.563 3.967v1.024H69.007v-1.012c0-.74.138-1.471.406-2.154a5.649 5.649 0 011.16-1.827 5.325 5.325 0 011.734-1.218 5.099 5.099 0 012.046-.425zm28.879 76.847H74.353c-1.414-.001-2.769-.593-3.768-1.646a5.776 5.776 0 01-1.563-3.97v-5.43h39.555v5.43a5.78 5.78 0 01-1.573 3.967c-1.002 1.05-2.359 1.639-3.773 1.637v.012z" fill="url(#paint0_linear)"/><path d="M91.342 78.834h-5.207a1.19 1.19 0 00-.864.376 1.325 1.325 0 00-.358.91c0 .341.129.669.358.91.23.241.54.377.864.377h5.207c.324 0 .634-.136.864-.377.228-.241.357-.569.357-.91 0-.341-.129-.668-.358-.91a1.19 1.19 0 00-.863-.376z" fill="url(#paint1_linear)"/><path d="M75.263 41.46c.278.004.549-.092.768-.271l1.974-1.619h21.644l1.973 1.619c.256.192.573.273.884.226a1.21 1.21 0 00.787-.48 1.338 1.338 0 00-.165-1.77L89.579 28.004a1.182 1.182 0 00-.752-.274c-.273 0-.538.096-.753.274L74.526 39.166c-.2.166-.347.394-.418.652-.071.258-.064.533.02.787.085.253.243.472.452.626.21.154.459.236.714.233l-.03-.004zm13.548-10.816l7.68 6.345H81.094l7.718-6.344z" fill="url(#paint2_linear)"/><path d="M79.54 40.676a1.19 1.19 0 00-.863.377 1.32 1.32 0 00-.357.91v11.66h-2.116a1.19 1.19 0 00-.864.377 1.323 1.323 0 00-.358.91c0 .341.13.669.358.91.23.241.54.377.864.377h24.577c.324 0 .634-.136.863-.377.229-.242.358-.569.358-.91 0-.341-.129-.669-.358-.91a1.19 1.19 0 00-.863-.377h-1.463v-11.66c0-.342-.129-.669-.358-.91a1.19 1.19 0 00-.863-.377 1.19 1.19 0 00-.864.377 1.321 1.321 0 00-.358.91v11.66h-3.563v-11.66c0-.342-.129-.669-.358-.91a1.19 1.19 0 00-.863-.377 1.19 1.19 0 00-.864.377 1.323 1.323 0 00-.358.91v11.66h-4.086v-11.66a1.32 1.32 0 00-.357-.91 1.19 1.19 0 00-.864-.377 1.19 1.19 0 00-.863.377 1.323 1.323 0 00-.358.91v11.66h-3.579v-11.66c0-.342-.129-.669-.358-.91a1.19 1.19 0 00-.863-.377z" fill="url(#paint3_linear)"/><path d="M102.912 58.255H74.111a1.19 1.19 0 00-.864.377 1.323 1.323 0 00-.357.91c0 .341.128.668.357.91.23.24.54.377.864.377h28.801c.324 0 .635-.136.864-.377.229-.242.358-.569.358-.91 0-.341-.129-.669-.358-.91a1.191 1.191 0 00-.864-.377z" fill="url(#paint4_linear)"/><path d="M88.819 35.9c.322.002.637-.098.906-.286.268-.188.477-.456.6-.77a1.79 1.79 0 00.095-.99 1.745 1.745 0 00-.445-.88 1.605 1.605 0 00-.833-.47 1.552 1.552 0 00-.941.096 1.65 1.65 0 00-.732.632 1.78 1.78 0 00-.274.953c0 .455.17.89.475 1.212.305.322.718.503 1.149.504z" fill="url(#paint5_linear)"/><path d="M12.819 60.216v.191a.69.69 0 01.047.237l-.047-.428zm0 0c-.002-.683.297-1.338.83-1.822m-.83 1.822l.83-1.822m-.68 1.987c.029.083.045.17.047.26v.003h0v.056c.125.539.452 1.026.93 1.38.483.356 1.09.553 1.718.553h38.523v.15c1.297 0 2.574.28 3.725.815l-44.943-3.217zm0 0v0-.001 0-.001 0-.001 0-.001 0-.001 0-.001 0-.001 0-.001 0-.001 0-.001 0-.001 0-.001 0-.001 0-.001 0-.001 0-.001 0-.001 0-.001 0-.001 0-.001 0-.001 0-.001 0-.001 0-.001 0-.001 0-.001 0-.001 0-.001 0-.001 0-.001 0-.001 0-.001 0-.001 0-.001 0-.001 0-.001 0-.001 0-.001 0-.001 0-.001 0-.001 0-.001 0-.001 0-.001 0-.001 0-.001 0-.001 0-.001 0-.001 0-.001 0-.001 0-.001 0-.001 0-.001 0-.001 0-.001 0-.001 0-.001 0-.001 0-.001 0-.001 0-.001 0-.001 0-.001 0-.001 0-.001 0-.001 0-.001 0-.001 0-.001 0-.001 0-.001 0-.001 0-.001 0-.001 0-.001 0-.001 0-.001 0-.001 0-.001 0-.001 0-.001 0-.001 0-.001 0-.001 0-.001 0-.001 0-.001 0-.001 0-.001 0-.001 0-.001 0-.001 0-.001 0-.001 0-.001 0-.001 0-.001 0-.001 0-.001 0-.001 0-.001 0-.001 0-.001 0-.001 0-.001 0-.001 0-.001 0-.001 0-.001 0-.001 0-.001 0-.001 0-.001 0-.001 0-.001 0-.001 0-.001 0-.001 0-.001 0-.001 0-.001 0-.001 0-.001 0-.001 0-.001 0-.001 0-.001 0-.001 0-.001 0-.001 0-.001 0-.001 0-.001 0-.001 0-.001 0-.001 0-.001 0-.001 0-.001 0-.001 0-.001 0-.001 0-.001 0-.001 0-.001 0-.001 0-.001 0-.001 0-.001 0-.001 0-.001 0-.001 0-.001 0-.001 0-.001 0-.001 0-.001 0-.001 0-.001 0-.001 0-.001 0-.001 0-.001 0h0v-.001c-.002-.638.277-1.253.781-1.71a2.867 2.867 0 011.914-.721h36.034c.817 0 2.219.002 3.492.734 1.225.705 2.358 2.1 2.702 4.905L12.969 60.38zm.68-1.987a3.017 3.017 0 012.014-.76l-2.014.76zm2.014-2.544h0c-1.271.001-2.493.458-3.396 1.273-.904.816-1.416 1.925-1.417 3.086h0c.001.212.02.423.055.632v37.823h0c.002 1.99.879 3.895 2.432 5.297 1.553 1.401 3.656 2.187 5.846 2.189h35.004c2.188-.006 4.286-.793 5.836-2.195 1.55-1.401 2.424-3.303 2.427-5.291v0-8.229a4.342 4.342 0 002.587-1.186c.712-.697 1.112-1.613 1.113-2.567v0-5.492 0c-.001-.953-.399-1.867-1.108-2.563-.678-.665-1.594-1.085-2.58-1.19v-7.346c0-1.951-.848-3.82-2.356-5.207-.06-2.958-.785-5.216-2.189-6.737-1.416-1.536-3.5-2.297-6.219-2.297H15.663zm44.691 14.237v7.32h-6.146 0c-1.102.001-2.16.396-2.944 1.103-.783.707-1.227 1.67-1.228 2.678v5.491c0 1.008.445 1.97 1.228 2.678.783.707 1.842 1.102 2.944 1.103h6.146v8.201c0 1.467-.647 2.878-1.802 3.92-1.155 1.043-2.725 1.633-4.365 1.635H19.183c-1.64-.002-3.209-.591-4.364-1.634-1.155-1.042-1.801-2.452-1.803-3.918 0 0 0 0 0 0V63.842a5.136 5.136 0 002.647.726h38.524c1.635-.002 3.201.581 4.356 1.618 1.155 1.036 1.804 2.44 1.811 3.901zm3.698 16.594c0 .485-.214.952-.599 1.3a2.191 2.191 0 01-1.462.547h-7.783a2.19 2.19 0 01-1.462-.547 1.756 1.756 0 01-.6-1.3v-5.49a1.76 1.76 0 01.6-1.301 2.193 2.193 0 011.462-.548h7.782c.552.001 1.078.2 1.463.548.385.348.599.816.6 1.3v5.492z" fill="url(#paint6_linear)" stroke="url(#paint7_linear)" stroke-width=".3"/></g><defs><linearGradient id="paint0_linear" x1="88.79" y1="6" x2="88.79" y2="87.993" gradientUnits="userSpaceOnUse"><stop stop-color="#023BAE"/><stop offset="1" stop-color="#00297C"/></linearGradient><linearGradient id="paint1_linear" x1="88.738" y1="78.834" x2="88.738" y2="81.407" gradientUnits="userSpaceOnUse"><stop stop-color="#023BAE"/><stop offset="1" stop-color="#00297C"/></linearGradient><linearGradient id="paint2_linear" x1="88.806" y1="27.729" x2="88.806" y2="41.464" gradientUnits="userSpaceOnUse"><stop stop-color="#023BAE"/><stop offset="1" stop-color="#00297C"/></linearGradient><linearGradient id="paint3_linear" x1="88.492" y1="40.676" x2="88.492" y2="56.197" gradientUnits="userSpaceOnUse"><stop stop-color="#023BAE"/><stop offset="1" stop-color="#00297C"/></linearGradient><linearGradient id="paint4_linear" x1="88.512" y1="58.255" x2="88.512" y2="60.828" gradientUnits="userSpaceOnUse"><stop stop-color="#023BAE"/><stop offset="1" stop-color="#00297C"/></linearGradient><linearGradient id="paint5_linear" x1="88.823" y1="32.47" x2="88.823" y2="35.901" gradientUnits="userSpaceOnUse"><stop stop-color="#023BAE"/><stop offset="1" stop-color="#00297C"/></linearGradient><linearGradient id="paint6_linear" x1="38.5" y1="56" x2="38.5" y2="106" gradientUnits="userSpaceOnUse"><stop stop-color="#023BAE"/><stop offset="1" stop-color="#00297C"/></linearGradient><linearGradient id="paint7_linear" x1="38.5" y1="56" x2="38.5" y2="106" gradientUnits="userSpaceOnUse"><stop stop-color="#023BAE"/><stop offset="1" stop-color="#00297C"/></linearGradient><filter id="filter0_d" x=".7" y="0" width="120.3" height="120.3" filterUnits="userSpaceOnUse" color-interpolation-filters="sRGB"><feFlood flood-opacity="0" result="BackgroundImageFix"/><feColorMatrix in="SourceAlpha" values="0 0 0 0 0 0 0 0 0 0 0 0 0 0 0 0 0 0 127 0"/><feOffset dy="4"/><feGaussianBlur stdDeviation="5"/><feColorMatrix values="0 0 0 0 0.333333 0 0 0 0 0.678431 0 0 0 0 1 0 0 0 0.2 0"/><feBlend in2="BackgroundImageFix" result="effect1_dropShadow"/><feBlend in="SourceGraphic" in2="effect1_dropShadow" result="shape"/></filter></defs></svg>