<svg width="60" height="74" fill="none" xmlns="http://www.w3.org/2000/svg"><path d="M30.642 20.009a6.45 6.45 0 003.541-1.057 6.294 6.294 0 002.347-2.814 6.178 6.178 0 00.363-3.623 6.24 6.24 0 00-1.744-3.211 6.406 6.406 0 00-3.263-1.716 6.47 6.47 0 00-3.683.357 6.352 6.352 0 00-2.86 2.31 6.2 6.2 0 00-1.074 3.483 6.227 6.227 0 001.869 4.432 6.433 6.433 0 004.504 1.838zm0-10.294c.809 0 1.6.236 2.272.678a4.038 4.038 0 011.506 1.805c.31.736.39 1.544.232 2.325a4.003 4.003 0 01-1.119 2.06 4.11 4.11 0 01-2.093 1.1 4.15 4.15 0 01-2.362-.228 4.075 4.075 0 01-1.835-1.482 3.977 3.977 0 01-.69-2.235c0-1.068.43-2.093 1.197-2.85a4.13 4.13 0 012.892-1.183v.01zm.351 37.761c-.303 0-.593.119-.808.33-.214.21-.334.496-.334.794v24.276c0 .298.12.584.334.795a1.152 1.152 0 001.616 0c.214-.21.334-.497.334-.795V48.6c0-.298-.12-.584-.334-.794a1.152 1.152 0 00-.808-.33zm-3.399-27.388l-1.828.465a7.357 7.357 0 00-4.205 2.896c-.75-.955-1.629-1.645-3.461-2.114l-1.724-.44a1.159 1.159 0 00-.86.124 1.126 1.126 0 00-.52.683c-.077.287-.034.59.117.847.15.256.398.443.689.52l1.723.442c1.661.424 1.98.875 2.94 2.337-.05.2-.095.4-.126.603l-3.41 18.912a.338.338 0 000 .08 3.321 3.321 0 00.323 1.822 3.387 3.387 0 001.25 1.38l-1.898 21.963a1.112 1.112 0 00.269.823 1.141 1.141 0 00.782.394h.098c.287-.001.563-.108.774-.3.21-.19.341-.453.365-.734l1.87-21.646a3.445 3.445 0 002.274-1.238l2.327 24.98c.023.28.154.543.364.735.211.191.487.298.774.299h.105a1.15 1.15 0 00.774-.402c.194-.23.287-.525.26-.822L24.928 43.58l.249-2.672a1.14 1.14 0 00.021-.217l1.08-11.593a1.106 1.106 0 00-.247-.84 1.14 1.14 0 00-.783-.413 1.162 1.162 0 00-.847.265 1.126 1.126 0 00-.398.781l-1.09 11.68-1.4 5.422v.045a1.14 1.14 0 01-.469.696 1.17 1.17 0 01-1.562-.217 1.125 1.125 0 01-.254-.796l3.405-18.878v-.024a4.975 4.975 0 011.254-2.592 5.106 5.106 0 012.495-1.49l1.83-.465a1.14 1.14 0 00.688-.52c.151-.256.193-.56.117-.847a1.126 1.126 0 00-.521-.683 1.159 1.159 0 00-.86-.125l-.042-.01zm1.801 2.289v1.648c0 .298.12.584.335.794a1.152 1.152 0 001.615 0c.214-.21.335-.496.335-.794v-1.648c0-.298-.12-.584-.335-.795a1.152 1.152 0 00-1.615 0c-.214.21-.335.497-.335.795zm2.298 14.833V27.172c0-.298-.12-.584-.334-.795a1.152 1.152 0 00-1.615 0 1.113 1.113 0 00-.335.795V37.21c0 .298.12.584.335.795a1.152 1.152 0 001.615 0c.214-.21.334-.497.334-.795z" fill="#fff"/><path d="M45.172 20.66a6.13 6.13 0 006.106-1.476 5.933 5.933 0 001.78-4.23c0-1.586-.64-3.107-1.78-4.229a6.13 6.13 0 00-4.299-1.751 6.3 6.3 0 00-.987.086l-.649-6.085a3.382 3.382 0 00-1.268-2.23 3.49 3.49 0 00-4.792.459 3.36 3.36 0 00-.807 2.43l1.083 11.865-5.57 5.295a1.123 1.123 0 00-.35.79 1.108 1.108 0 00.321.8 1.144 1.144 0 00.802.343 1.16 1.16 0 00.813-.316l5.956-5.667a1.133 1.133 0 00.35-.91l-1.13-12.41a1.132 1.132 0 01.263-.837c.197-.233.48-.38.787-.408.306-.024.609.07.844.264s.384.47.414.77l1.461 13.662a2.163 2.163 0 01-.498 1.62L36.41 27.53a.649.649 0 00-.042.063.62.62 0 00-.066.1.98.98 0 00-.091.2.975.975 0 00-.032.106l-.021.104v.193l.645 15.196-2.32 29.222c-.023.297.075.591.272.818.197.226.477.366.78.389h.087c.287 0 .564-.106.775-.298.21-.192.34-.455.364-.736l2.326-29.302v-.135l-.63-14.823 6.716-7.967zm1.807-9.439a3.848 3.848 0 011.508.303 3.773 3.773 0 012.07 2.154 3.678 3.678 0 01-.179 2.96c-.233.454-.56.858-.957 1.184-.398.327-.86.57-1.357.714a3.854 3.854 0 01-1.533.125c.25-.646.343-1.34.273-2.027l-.57-5.34c.245-.049.495-.073.745-.073zm-33.963 9.715a6.15 6.15 0 003.377-1.009 6.003 6.003 0 002.239-2.684c.46-1.093.58-2.295.346-3.455a5.952 5.952 0 00-1.664-3.063 6.11 6.11 0 00-3.112-1.637 6.17 6.17 0 00-3.512.34 6.058 6.058 0 00-2.728 2.204 5.913 5.913 0 00-1.025 3.322 5.94 5.94 0 001.783 4.228 6.136 6.136 0 004.296 1.754zm0-9.715c.75 0 1.484.219 2.108.63.624.41 1.11.992 1.397 1.675.288.682.363 1.433.216 2.157a3.715 3.715 0 01-1.038 1.911 3.813 3.813 0 01-1.943 1.022 3.852 3.852 0 01-2.192-.212 3.782 3.782 0 01-1.703-1.375 3.691 3.691 0 01-.64-2.075 3.713 3.713 0 011.113-2.639 3.83 3.83 0 012.682-1.094zm.459 35.508a1.15 1.15 0 00-.808.329c-.214.21-.334.496-.334.794v22.929c0 .297.12.583.334.794a1.152 1.152 0 001.615 0 1.11 1.11 0 00.335-.794V47.852c0-.298-.12-.583-.335-.794a1.152 1.152 0 00-.807-.33zm-3.339-25.835l-1.723.442a7.028 7.028 0 00-3.443 2.046 6.848 6.848 0 00-1.732 3.573L.018 44.8v.08c-.089.834.153 1.67.675 2.332a3.319 3.319 0 002.128 1.225 3.352 3.352 0 001.854-.25 3.32 3.32 0 001.117-.812L7.975 70.8c.022.281.15.544.361.736.21.192.487.298.774.298h.105a1.152 1.152 0 00.786-.393 1.115 1.115 0 00.265-.827L7.708 43.14l.235-2.517a1.38 1.38 0 00.018-.203l1.023-10.942a1.113 1.113 0 00-.26-.822 1.156 1.156 0 00-1.61-.146 1.12 1.12 0 00-.408.761L5.68 40.303l-1.332 5.112v.045a1.01 1.01 0 01-.414.62 1.04 1.04 0 01-1.39-.193 1 1 0 01-.224-.71l3.213-17.812v-.024a4.63 4.63 0 011.174-2.413 4.752 4.752 0 012.33-1.38l1.723-.44a1.15 1.15 0 00.723-.512 1.115 1.115 0 00-.069-1.267 1.137 1.137 0 00-.773-.434 1.16 1.16 0 00-.452.037l-.053-.038zm2.05 2.382v1.496c0 .299.12.584.334.795a1.152 1.152 0 001.616 0c.214-.21.334-.497.334-.795v-1.496c0-.298-.12-.584-.335-.794a1.152 1.152 0 00-1.615 0c-.214.21-.334.496-.334.794zm1.142 15.058c.303 0 .593-.118.808-.329.214-.21.334-.497.334-.795v-9.738c0-.298-.12-.584-.335-.795a1.152 1.152 0 00-1.615 0c-.214.21-.334.497-.334.795v9.738c0 .298.12.584.334.795.215.21.505.33.808.33z" fill="#fff"/><path d="M40.21 46.897a1.157 1.157 0 00-.783.393 1.116 1.116 0 00-.268.824l1.959 22.673c.023.281.152.544.362.735.21.192.486.299.773.3h.098a1.16 1.16 0 00.782-.394 1.125 1.125 0 00.269-.823L41.44 47.931a1.11 1.11 0 00-.397-.769 1.147 1.147 0 00-.833-.266zm6.317-.168a1.16 1.16 0 00-.807.329 1.123 1.123 0 00-.335.794v22.929c0 .297.12.583.335.794a1.152 1.152 0 001.615 0c.214-.21.335-.496.335-.794V47.852c0-.298-.12-.583-.335-.794a1.152 1.152 0 00-.808-.33zm13.457-1.849a.7.7 0 000-.078l-3.22-17.847a6.85 6.85 0 00-1.73-3.572 7.027 7.027 0 00-3.44-2.047l-1.724-.441a1.16 1.16 0 00-.872.112 1.136 1.136 0 00-.533.69 1.105 1.105 0 00.124.857 1.13 1.13 0 00.706.516l1.724.441a4.755 4.755 0 012.328 1.38 4.633 4.633 0 011.175 2.412.052.052 0 000 .024l3.213 17.812a1 1 0 01-.223.71 1.04 1.04 0 01-1.39.194 1.009 1.009 0 01-.415-.62v-.046l-1.332-5.112-1.03-11.031a1.12 1.12 0 00-.416-.741 1.155 1.155 0 00-1.587.144 1.11 1.11 0 00-.27.803l1.019 10.942c0 .068.007.137.021.204l.235 2.516-2.561 27.475a1.105 1.105 0 00.266.826 1.141 1.141 0 00.785.394h.105c.287 0 .563-.107.774-.298a1.12 1.12 0 00.364-.736l2.18-23.424c.31.345.691.622 1.118.812a3.354 3.354 0 001.856.25 3.31 3.31 0 002.082-1.226 3.21 3.21 0 00.668-2.294zM46.682 22.152a1.154 1.154 0 00-.81.329 1.12 1.12 0 00-.333.795v1.496c0 .299.12.584.335.795a1.152 1.152 0 001.615 0c.214-.21.335-.497.335-.795v-1.496a1.105 1.105 0 00-.334-.795 1.141 1.141 0 00-.808-.329zm0 4.196c-.303 0-.594.118-.808.33-.214.21-.335.496-.335.794v9.738c0 .298.12.584.335.795a1.152 1.152 0 001.615 0c.214-.21.335-.497.335-.795v-9.738c0-.298-.12-.584-.335-.795a1.152 1.152 0 00-.807-.33z" fill="#fff"/></svg>