<svg width="25" height="25" fill="none" xmlns="http://www.w3.org/2000/svg"><path d="M24.54 19.583l-5.704-5.187a1.405 1.405 0 00-1.952.06l-3.358 3.454c-.809-.154-2.434-.66-4.106-2.33-1.673-1.673-2.18-3.303-2.33-4.105l3.45-3.36a1.403 1.403 0 00.061-1.952L5.416.46A1.403 1.403 0 003.464.338L.419 2.949a1.403 1.403 0 00-.407.911c-.021.351-.423 8.661 6.021 15.108C11.655 24.588 18.697 25 20.637 25c.283 0 .457-.008.503-.011.343-.02.667-.165.91-.409l2.61-3.046a1.4 1.4 0 00-.12-1.95z" fill="#DC0000"/></svg>