<svg width="42" height="30" fill="none" xmlns="http://www.w3.org/2000/svg"><path d="M4.5 0C2.033 0 0 2.033 0 4.5v21C0 27.968 2.033 30 4.5 30h33c2.468 0 4.5-2.032 4.5-4.5v-21C42 2.033 39.968 0 37.5 0h-33zm0 3h33c.847 0 1.5.652 1.5 1.5v21c0 .848-.653 1.5-1.5 1.5h-33c-.848 0-1.5-.652-1.5-1.5v-21C3 3.652 3.652 3 4.5 3zm17.25 5.157a1.251 1.251 0 00-1.266 1.264c0 .706.555 1.27 1.266 1.27a1.262 1.262 0 001.266-1.267 1.256 1.256 0 00-1.266-1.262v-.005zm-8.157 1.125l-2.061.327-.282 1.83-.75.14-.282 1.684h1.032v3.516c0 .915.225 1.533.705 1.92.397.322.97.47 1.779.47.624 0 1.005-.117 1.266-.186v-1.875c-.146.038-.48.094-.705.094-.476 0-.7-.245-.7-.8v-3.14h1.264l.282-1.83h-1.545l-.003-2.156v.006zm-6.232 2.013c-.82 0-1.527.213-2.015.612-.507.417-.75 1.05-.75 1.78 0 1.325.795 1.867 2.109 2.345.846.3 1.125.51 1.125.843 0 .321-.255.516-.75.516-.615 0-1.635-.315-2.298-.705l-.282 1.83c.566.323 1.628.657 2.72.657.866 0 1.574-.171 2.062-.561.546-.429.843-1.104.843-1.92 0-1.356-.82-1.915-2.157-2.393-.711-.26-1.125-.427-1.125-.75 0-.27.21-.464.61-.464.728 0 1.496.307 2.013.56l.281-1.83a5.537 5.537 0 00-2.393-.514l.006-.006zm20.719 0c-.705 0-1.35.325-1.923.939l-.095-.795h-2.157v10.405l2.438-.422v-2.387c.37.117.738.141 1.08.141.603 0 1.473-.15 2.155-.89.65-.712.982-1.785.982-3.235 0-1.284-.218-2.28-.705-2.904-.428-.555-1.02-.845-1.78-.845l.005-.007zm6.327 0c-2.055 0-3.33 1.551-3.33 3.987 0 1.365.315 2.394.985 3.045.605.585 1.507.845 2.626.845 1.031 0 1.975-.206 2.58-.607l-.285-1.687a4.26 4.26 0 01-2.061.517c-.465 0-.795-.124-1.028-.33-.255-.213-.372-.532-.423-1.029h3.986c.011-.12.044-.67.044-.846 0-1.207-.279-2.186-.794-2.858-.529-.684-1.295-1.036-2.299-1.036l-.001-.001zm-14.907.051a1.485 1.485 0 00-1.455 1.03l-.138-.935h-2.112v7.594h2.439V14.11c.3-.37.727-.515 1.313-.515.128 0 .255.019.425.047v-2.25a2.03 2.03 0 00-.469-.044l-.003-.002zm1.032.093v7.595h2.436v-7.596H20.53l.002.001zm13.827 1.5c.546 0 .852.522.891 1.595h-1.782c.069-1.085.336-1.597.891-1.597v.002zm-7.125.234c.615 0 .938.63.938 1.925.004.737-.105 1.344-.326 1.733-.195.371-.492.563-.843.563a1.47 1.47 0 01-.655-.141v-3.607c.409-.43.756-.47.89-.47l-.004-.003z" fill="#fff"/></svg>