<svg width="73" height="44" fill="none" xmlns="http://www.w3.org/2000/svg"><path d="M18.87 19.087l17.63 5.83m-17.63-5.83l16.942 5.624.688.207m-17.63-5.831v-.003 9.744c0 .022-.011.274.69.823.696.547 1.948 1.24 3.579 1.783 3.268 1.086 8.083 1.784 13.361 1.784 5.278 0 10.093-.7 13.36-1.782 1.634-.545 2.884-1.236 3.58-1.785.699-.547.69-.801.69-.823v-9.744L37.19 24.71l-.69.209M36.5 2l-.69.209-27.547 9.194L2 13.46l3.647 1.163v19.21c-1.315.762-2.204 2.152-2.204 3.776 0 1.165.465 2.282 1.291 3.105a4.416 4.416 0 006.234 0 4.382 4.382 0 001.29-3.105c0-1.624-.888-3.014-2.203-3.776V16.138l4.407 1.438v11.252c0 1.8 1.102 3.293 2.411 4.325 1.31 1.025 2.936 1.75 4.888 2.4 3.91 1.294 9.062 2.056 14.739 2.056 5.677 0 10.83-.76 14.739-2.06 1.952-.647 3.579-1.371 4.888-2.399 1.309-1.03 2.41-2.522 2.41-4.322V17.576l6.2-2.059L71 13.46l-6.265-2.06-27.547-9.19L36.5 2z" stroke="#00297C" stroke-width="2.5" stroke-linejoin="round"/></svg>