<svg width="144" height="120" fill="none" xmlns="http://www.w3.org/2000/svg"><g filter="url(#filter0_d)"><path d="M119.538 18.252H54.654a1.234 1.234 0 00-1.234 1.234V67.94a1.234 1.234 0 001.234 1.234h64.884a1.236 1.236 0 001.234-1.234V19.486a1.235 1.235 0 00-1.234-1.234zm-1.234 48.453H55.888V20.72h62.416v45.985z" fill="url(#paint0_linear)"/><path d="M61.392 31.564h51.117a1.234 1.234 0 100-2.468H61.392a1.235 1.235 0 100 2.468z" fill="url(#paint1_linear)"/><path d="M62.017 26.332a1.42 1.42 0 100-2.84 1.42 1.42 0 000 2.84z" fill="url(#paint2_linear)"/><path d="M67.388 26.433a1.42 1.42 0 100-2.84 1.42 1.42 0 000 2.84z" fill="url(#paint3_linear)"/><path d="M72.76 26.534a1.42 1.42 0 100-2.841 1.42 1.42 0 000 2.84z" fill="url(#paint4_linear)"/><path d="M61.574 40.843h3.637a1.234 1.234 0 000-2.468h-3.637a1.234 1.234 0 100 2.468z" fill="url(#paint5_linear)"/><path d="M83.04 38.375h-8.946a1.234 1.234 0 100 2.468h8.946a1.234 1.234 0 100-2.468z" fill="url(#paint6_linear)"/><path d="M68.579 40.292a1 1 0 00.151.186c.233.231.546.362.873.365a1 1 0 00.241-.027 1.18 1.18 0 00.446-.183 1.172 1.172 0 00.338-.342 1.142 1.142 0 00.186-.442c.032-.16.032-.324 0-.485a1.199 1.199 0 00-.186-.442 1.211 1.211 0 00-.151-.19 1.756 1.756 0 00-.187-.152 1.593 1.593 0 00-.213-.112 1.252 1.252 0 00-1.347.264 1.3 1.3 0 00-.264.388 1.21 1.21 0 00-.073.229 1.173 1.173 0 00.073.714c.029.08.067.157.113.229z" fill="url(#paint7_linear)"/><path d="M61.574 47.324H71.98a1.234 1.234 0 100-2.468H61.574a1.232 1.232 0 00-1.14 1.706 1.234 1.234 0 001.14.762z" fill="url(#paint8_linear)"/><path d="M79.578 46.094a1.234 1.234 0 001.234 1.234h10.91a1.234 1.234 0 100-2.468H80.797a1.234 1.234 0 00-1.219 1.234z" fill="url(#paint9_linear)"/><path d="M76.159 44.856a1.234 1.234 0 100 2.468h.163a1.234 1.234 0 100-2.468h-.163z" fill="url(#paint10_linear)"/><path d="M97.621 44.856h-1.638a1.234 1.234 0 100 2.468h1.638a1.234 1.234 0 000-2.468z" fill="url(#paint11_linear)"/><path d="M61.574 53.806h18.761a1.234 1.234 0 000-2.468h-18.76a1.234 1.234 0 100 2.468z" fill="url(#paint12_linear)"/><path d="M97.54 51.338h-6.963a1.235 1.235 0 100 2.468h6.963a1.235 1.235 0 000-2.468z" fill="url(#paint13_linear)"/><path d="M103.932 51.338h-2.049a1.24 1.24 0 00-1.141.762 1.235 1.235 0 001.141 1.706h2.049a1.237 1.237 0 001.234-1.234 1.235 1.235 0 00-1.234-1.234z" fill="url(#paint14_linear)"/><path d="M86.056 51.338h-1.164a1.234 1.234 0 100 2.468h1.164a1.235 1.235 0 000-2.468z" fill="url(#paint15_linear)"/><path d="M67.947 57.818h-6.373a1.234 1.234 0 100 2.468h6.373a1.235 1.235 0 000-2.468z" fill="url(#paint16_linear)"/><path d="M85.746 57.818h-6.967a1.234 1.234 0 100 2.468h6.967a1.234 1.234 0 000-2.468z" fill="url(#paint17_linear)"/><path d="M73.866 57.818H72.7a1.234 1.234 0 100 2.468h1.165a1.235 1.235 0 000-2.468z" fill="url(#paint18_linear)"/><path d="M125.632 12H60.747a1.234 1.234 0 100 2.468h63.65v47.22a1.232 1.232 0 001.235 1.233 1.232 1.232 0 001.234-1.234V13.233A1.235 1.235 0 00125.632 12z" fill="url(#paint19_linear)"/><path d="M131.791 6H66.903a1.234 1.234 0 000 2.468h63.65v47.22a1.236 1.236 0 002.107.873c.231-.232.361-.546.361-.873V7.234A1.24 1.24 0 00131.791 6z" fill="url(#paint20_linear)"/><path d="M54.993 71.945H46.19c1.588-1.914 3.563-4.902 4.13-8.41.306-1.922.507-3.859.602-5.802a5.588 5.588 0 00-11.089-1.258c-.865 4.875-2.371 8.29-4.242 9.617-.806.56-1.64 1.077-2.5 1.552-1.396.808-2.503 1.444-2.867 3.105-.94 4.27-2.841 6.12-4.56 6.92a3.026 3.026 0 00-.56-.834 2.844 2.844 0 00-2.146-.924l-5.965.105a2.853 2.853 0 00-2.111.982 3.178 3.178 0 00-.777 1.983h-2.887a1.289 1.289 0 000 2.573h2.91l.233 19.195h-3.143a1.29 1.29 0 000 2.573h3.202A3.014 3.014 0 0017.346 106h.043l5.965-.109a2.842 2.842 0 002.115-.982 3.151 3.151 0 00.776-1.653 52.92 52.92 0 016.816.598 29.42 29.42 0 005.045.427h16.906a6.557 6.557 0 006.548-6.547V78.476a6.547 6.547 0 00-6.548-6.543l-.02.012zm-31.46 31.268a.317.317 0 01-.233.121l-5.97.105c-.178 0-.387-.218-.387-.528l-.288-23.767a.605.605 0 01.148-.423.311.311 0 01.233-.12L23 78.49a.314.314 0 01.225.113c.103.116.16.265.159.42l.287 23.766a.618.618 0 01-.14.423zm35.434-5.468a3.977 3.977 0 01-3.974 3.974h-4.657a4.726 4.726 0 01-3.303-4.494v-7.199a1.285 1.285 0 10-2.57 0v7.2a7.267 7.267 0 001.553 4.493h-7.949a26.584 26.584 0 01-4.61-.388 56.13 56.13 0 00-7.254-.636l-.245-20.367c3.338-1.165 5.725-4.343 6.757-9.016.113-.5.35-.675 1.642-1.42a31.7 31.7 0 002.717-1.704c1.715-1.219 4.024-4.16 5.286-11.255a3.028 3.028 0 014.166-2.259 3.034 3.034 0 011.826 2.938 51.148 51.148 0 01-.574 5.519c-.82 5.069-5.383 9.097-5.434 9.136a1.28 1.28 0 00-.388 1.292v11.003a10.012 10.012 0 01-6.21 9.271l-1.486.617a1.288 1.288 0 00.497 2.476c.168 0 .334-.034.489-.1l1.486-.618a12.57 12.57 0 007.762-11.642V74.517h10.48a3.974 3.974 0 013.974 3.974l.019 19.253z" fill="url(#paint21_linear)"/></g><defs><linearGradient id="paint0_linear" x1="87.096" y1="18.252" x2="87.096" y2="69.174" gradientUnits="userSpaceOnUse"><stop stop-color="#023BAE"/><stop offset="1" stop-color="#00297C"/></linearGradient><linearGradient id="paint1_linear" x1="86.951" y1="29.096" x2="86.951" y2="31.564" gradientUnits="userSpaceOnUse"><stop stop-color="#023BAE"/><stop offset="1" stop-color="#00297C"/></linearGradient><linearGradient id="paint2_linear" x1="62.017" y1="23.491" x2="62.017" y2="26.332" gradientUnits="userSpaceOnUse"><stop stop-color="#023BAE"/><stop offset="1" stop-color="#00297C"/></linearGradient><linearGradient id="paint3_linear" x1="67.388" y1="23.593" x2="67.388" y2="26.433" gradientUnits="userSpaceOnUse"><stop stop-color="#023BAE"/><stop offset="1" stop-color="#00297C"/></linearGradient><linearGradient id="paint4_linear" x1="72.759" y1="23.693" x2="72.759" y2="26.534" gradientUnits="userSpaceOnUse"><stop stop-color="#023BAE"/><stop offset="1" stop-color="#00297C"/></linearGradient><linearGradient id="paint5_linear" x1="63.393" y1="38.375" x2="63.393" y2="40.843" gradientUnits="userSpaceOnUse"><stop stop-color="#023BAE"/><stop offset="1" stop-color="#00297C"/></linearGradient><linearGradient id="paint6_linear" x1="78.567" y1="38.375" x2="78.567" y2="40.843" gradientUnits="userSpaceOnUse"><stop stop-color="#023BAE"/><stop offset="1" stop-color="#00297C"/></linearGradient><linearGradient id="paint7_linear" x1="69.604" y1="38.375" x2="69.604" y2="40.843" gradientUnits="userSpaceOnUse"><stop stop-color="#023BAE"/><stop offset="1" stop-color="#00297C"/></linearGradient><linearGradient id="paint8_linear" x1="66.777" y1="44.856" x2="66.777" y2="47.324" gradientUnits="userSpaceOnUse"><stop stop-color="#023BAE"/><stop offset="1" stop-color="#00297C"/></linearGradient><linearGradient id="paint9_linear" x1="86.267" y1="44.86" x2="86.267" y2="47.328" gradientUnits="userSpaceOnUse"><stop stop-color="#023BAE"/><stop offset="1" stop-color="#00297C"/></linearGradient><linearGradient id="paint10_linear" x1="76.24" y1="44.856" x2="76.24" y2="47.324" gradientUnits="userSpaceOnUse"><stop stop-color="#023BAE"/><stop offset="1" stop-color="#00297C"/></linearGradient><linearGradient id="paint11_linear" x1="96.802" y1="44.856" x2="96.802" y2="47.324" gradientUnits="userSpaceOnUse"><stop stop-color="#023BAE"/><stop offset="1" stop-color="#00297C"/></linearGradient><linearGradient id="paint12_linear" x1="70.955" y1="51.338" x2="70.955" y2="53.806" gradientUnits="userSpaceOnUse"><stop stop-color="#023BAE"/><stop offset="1" stop-color="#00297C"/></linearGradient><linearGradient id="paint13_linear" x1="94.058" y1="51.338" x2="94.058" y2="53.806" gradientUnits="userSpaceOnUse"><stop stop-color="#023BAE"/><stop offset="1" stop-color="#00297C"/></linearGradient><linearGradient id="paint14_linear" x1="102.907" y1="51.338" x2="102.907" y2="53.806" gradientUnits="userSpaceOnUse"><stop stop-color="#023BAE"/><stop offset="1" stop-color="#00297C"/></linearGradient><linearGradient id="paint15_linear" x1="85.474" y1="51.338" x2="85.474" y2="53.806" gradientUnits="userSpaceOnUse"><stop stop-color="#023BAE"/><stop offset="1" stop-color="#00297C"/></linearGradient><linearGradient id="paint16_linear" x1="64.761" y1="57.818" x2="64.761" y2="60.286" gradientUnits="userSpaceOnUse"><stop stop-color="#023BAE"/><stop offset="1" stop-color="#00297C"/></linearGradient><linearGradient id="paint17_linear" x1="82.262" y1="57.818" x2="82.262" y2="60.286" gradientUnits="userSpaceOnUse"><stop stop-color="#023BAE"/><stop offset="1" stop-color="#00297C"/></linearGradient><linearGradient id="paint18_linear" x1="73.283" y1="57.818" x2="73.283" y2="60.286" gradientUnits="userSpaceOnUse"><stop stop-color="#023BAE"/><stop offset="1" stop-color="#00297C"/></linearGradient><linearGradient id="paint19_linear" x1="93.189" y1="11.999" x2="93.189" y2="62.921" gradientUnits="userSpaceOnUse"><stop stop-color="#023BAE"/><stop offset="1" stop-color="#00297C"/></linearGradient><linearGradient id="paint20_linear" x1="99.345" y1="6" x2="99.345" y2="56.922" gradientUnits="userSpaceOnUse"><stop stop-color="#023BAE"/><stop offset="1" stop-color="#00297C"/></linearGradient><linearGradient id="paint21_linear" x1="35.78" y1="51.832" x2="35.78" y2="106" gradientUnits="userSpaceOnUse"><stop stop-color="#023BAE"/><stop offset="1" stop-color="#00297C"/></linearGradient><filter id="filter0_d" x="0" y="0" width="143.021" height="120" filterUnits="userSpaceOnUse" color-interpolation-filters="sRGB"><feFlood flood-opacity="0" result="BackgroundImageFix"/><feColorMatrix in="SourceAlpha" values="0 0 0 0 0 0 0 0 0 0 0 0 0 0 0 0 0 0 127 0"/><feOffset dy="4"/><feGaussianBlur stdDeviation="5"/><feColorMatrix values="0 0 0 0 0.333333 0 0 0 0 0.678431 0 0 0 0 1 0 0 0 0.2 0"/><feBlend in2="BackgroundImageFix" result="effect1_dropShadow"/><feBlend in="SourceGraphic" in2="effect1_dropShadow" result="shape"/></filter></defs></svg>