<svg width="42" height="30" fill="none" xmlns="http://www.w3.org/2000/svg"><path d="M4.5 0C2.033 0 0 2.033 0 4.5v21C0 27.968 2.033 30 4.5 30h33c2.468 0 4.5-2.032 4.5-4.5v-21C42 2.033 39.968 0 37.5 0h-33zm0 3h33c.847 0 1.5.652 1.5 1.5v21c0 .848-.653 1.5-1.5 1.5h-33c-.848 0-1.5-.652-1.5-1.5v-21C3 3.652 3.652 3 4.5 3zm21.609 6.563c-2.889 0-4.406 1.425-4.406 3.233 0 3.275 3.84 2.82 3.84 4.5 0 .29-.24.941-1.83.941s-2.625-.563-2.625-.563l-.465 2.16s.983.608 2.955.608c1.966 0 4.732-1.512 4.732-3.705 0-2.634-3.845-2.808-3.845-3.982 0-.6.51-1.08 1.875-1.08.891 0 1.875.704 1.875.704l.471-2.294s-1.305-.518-2.58-.518l.003-.005zm-12.327.187l-2.532 7.407s-.126-.642-.188-1.032c-1.432-3.21-3.75-4.407-3.75-4.407l2.205 8.391h3L16.733 9.75h-2.951zm4.03 0l-1.64 10.359h2.768L20.58 9.75h-2.767zm14.907 0l-4.5 10.359h2.718l.563-1.452h3.47l.28 1.452h2.484L35.625 9.75h-2.907.001zm-28.455.045s5.396 1.658 6.657 5.721l-.934-4.688s-.412-1.034-1.5-1.034H4.266l-.002.001zM33.75 12.75l.795 3.891h-2.25l1.455-3.891z" fill="#fff"/></svg>