<svg width="63" height="70" fill="none" xmlns="http://www.w3.org/2000/svg"><path d="M61.95 44.89a3.58 3.58 0 00-2.508-1.026H56.31a8.285 8.285 0 001.433-3.327c.146-.905.243-1.817.29-2.732a3.057 3.057 0 00-.852-2.275 3.116 3.116 0 00-1.457-.851 3.145 3.145 0 00-1.692.03 3.111 3.111 0 00-1.426.9 3.052 3.052 0 00-.735 1.506c-.377 2.095-1.029 3.599-1.792 4.133-.363.256-.74.492-1.129.708-.716.4-1.358.775-1.576 1.748-.219.973-.635 2.052-1.498 2.654a1.847 1.847 0 00-1.405-.651h-.018l-2.79.05a1.864 1.864 0 00-1.348.615 1.949 1.949 0 00-.416.74h-3.798a1.1 1.1 0 00-.773.315 1.072 1.072 0 000 1.527 1.1 1.1 0 00.773.316h3.734l.1 7.912h-3.834a1.1 1.1 0 00-.773.316 1.072 1.072 0 000 1.526 1.1 1.1 0 00.773.316h3.974c.128.359.365.67.679.892.313.222.687.344 1.073.35h.029l2.79-.05a1.874 1.874 0 001.348-.615 1.91 1.91 0 00.358-.591c.916.032 1.829.117 2.734.255.81.139 1.63.207 2.451.205h7.912a3.582 3.582 0 002.51-1.03A3.491 3.491 0 0063 56.276V47.38a3.454 3.454 0 00-.271-1.35 3.492 3.492 0 00-.779-1.14zM42.12 58.41l-.128-10.51 2.15-.035.129 10.509-2.15.035zm7.332-.96c-.99-.154-1.99-.25-2.992-.286l-.108-8.613c1.556-.679 2.663-2.211 3.147-4.39a4.19 4.19 0 01.53-.33c.326-.187.77-.439 1.304-.814 1.28-.895 2.175-2.749 2.673-5.516a.91.91 0 01.316-.54.931.931 0 011.26.07.918.918 0 01.255.675 23.02 23.02 0 01-.265 2.498c-.358 2.162-2.358 3.917-2.376 3.931a1.06 1.06 0 00-.358 1.02v5.006a4.11 4.11 0 01-.707 2.307 4.188 4.188 0 01-1.887 1.529l-.695.287a1.073 1.073 0 00-.616.469 1.05 1.05 0 00.284 1.404c.216.157.484.228.75.2.144 0 .285-.027.417-.081l.695-.287a6.37 6.37 0 002.934-2.42v2.445c.001.55.123 1.093.359 1.592h-2.867a12.328 12.328 0 01-2.035-.156h-.018zm11.352-1.181c0 .358-.144.7-.4.954a1.378 1.378 0 01-.966.397h-2.085a1.718 1.718 0 01-.82-.62 1.684 1.684 0 01-.312-.972v-3.326a1.076 1.076 0 00-.328-.75 1.104 1.104 0 00-.765-.312 1.054 1.054 0 00-.262.036 6.39 6.39 0 00.176-1.483v-4.171h4.407a1.372 1.372 0 01.971.392 1.34 1.34 0 01.398.96l-.014 8.895z" fill="#00297C"/><path d="M53.497 64.65a1.16 1.16 0 00-.81.332 1.133 1.133 0 00-.337.8v1.936H7.897V7.017h44.464v22.6a1.123 1.123 0 00.313.843 1.15 1.15 0 00.836.355 1.163 1.163 0 00.835-.355 1.133 1.133 0 00.313-.844V5.881c0-.3-.123-.589-.338-.801a1.158 1.158 0 00-.812-.332h-6.196V1.132c0-.3-.12-.588-.335-.8A1.154 1.154 0 0046.166 0H1.15C.846 0 .554.12.338.331.123.544.001.831 0 1.132v63.663c0 .3.123.589.338.8.216.213.508.332.812.332h4.44v2.937c0 .3.12.59.335.802.215.213.507.333.811.334h46.761c.305 0 .598-.12.813-.333.216-.213.337-.502.337-.803v-3.068a1.125 1.125 0 00-.333-.81 1.151 1.151 0 00-.817-.336zm-51.2-1.005V2.254h42.722v2.477H6.736a1.16 1.16 0 00-.81.331 1.131 1.131 0 00-.336.801v57.764l-3.293.018z" fill="#00297C"/><path d="M46.628 14.73a1.122 1.122 0 00-.335-.803 1.148 1.148 0 00-.812-.332h-29.7c-.294.016-.57.142-.772.353a1.128 1.128 0 000 1.561c.202.211.478.338.771.354h29.71c.302-.002.592-.122.806-.335.213-.212.333-.498.333-.798zm-15.311 5.442c0-.3-.121-.59-.337-.803a1.158 1.158 0 00-.813-.332H15.78c-.293.016-.57.142-.771.353a1.128 1.128 0 000 1.561c.202.211.478.337.771.354h14.394c.303-.002.593-.122.807-.334.214-.212.335-.5.336-.799zM15.78 24.783c-.293.016-.57.142-.771.353a1.128 1.128 0 000 1.561c.202.211.478.338.771.354h7.812c.293-.016.57-.143.771-.354a1.128 1.128 0 000-1.56 1.156 1.156 0 00-.771-.354H15.78z" fill="#00297C"/></svg>