<svg width="30" height="30" fill="none" xmlns="http://www.w3.org/2000/svg"><path fill-rule="evenodd" clip-rule="evenodd" d="M25.507 4.36A14.768 14.768 0 0014.992 0C6.798 0 .128 6.669.124 14.866c0 2.62.684 5.177 1.984 7.432L0 30l7.88-2.068a14.874 14.874 0 007.105 1.81h.007c8.192 0 14.862-6.669 14.866-14.866a14.78 14.78 0 00-4.35-10.516zM14.992 27.233h-.005a12.33 12.33 0 01-6.29-1.724l-.45-.268-4.677 1.227 1.247-4.56-.293-.466a12.334 12.334 0 01-1.89-6.576C2.639 8.053 8.182 2.51 14.998 2.51a12.276 12.276 0 018.735 3.623 12.286 12.286 0 013.615 8.742c-.003 6.813-5.546 12.357-12.355 12.357zm6.778-9.256c-.373-.187-2.198-1.084-2.539-1.208-.34-.125-.586-.186-.835.185-.248.371-.96 1.207-1.177 1.456-.217.248-.434.278-.805.092-.37-.185-1.568-.578-2.987-1.843-1.105-.985-1.85-2.2-2.067-2.573-.217-.373-.023-.573.164-.758.167-.166.371-.434.557-.651.185-.217.246-.371.37-.62.125-.248.063-.465-.031-.65-.093-.188-.836-2.016-1.146-2.76-.3-.72-.606-.624-.835-.634A15.26 15.26 0 009.729 8a1.368 1.368 0 00-.992.464c-.341.372-1.3 1.27-1.3 3.098 0 1.828 1.331 3.595 1.517 3.844.185.248 2.62 3.999 6.346 5.609.887.382 1.58.61 2.118.783.889.283 1.699.242 2.34.147.713-.106 2.197-.897 2.507-1.765.31-.868.31-1.611.217-1.767-.093-.156-.343-.25-.712-.436z" fill="#fff"/></svg>