<svg width="60" height="60" fill="none" xmlns="http://www.w3.org/2000/svg"><path fill-rule="evenodd" clip-rule="evenodd" d="M51.014 8.72A29.54 29.54 0 0029.984 0C13.595 0 .254 13.338.247 29.732c0 5.24 1.368 10.353 3.968 14.864L0 60l15.762-4.137a29.744 29.744 0 0014.208 3.62h.013c16.385 0 29.726-13.337 29.732-29.731a29.564 29.564 0 00-8.7-21.031zm-21.03 45.746h-.01c-4.427 0-8.772-1.19-12.58-3.448l-.9-.537-9.353 2.454 2.494-9.117-.587-.934A24.668 24.668 0 015.27 29.732c.007-13.626 11.092-24.71 24.724-24.71a24.552 24.552 0 0117.471 7.246 24.574 24.574 0 017.23 17.484c-.007 13.625-11.092 24.714-24.71 24.714zm13.555-18.511c-.745-.374-4.395-2.17-5.077-2.418-.679-.248-1.172-.37-1.67.371-.496.742-1.92 2.415-2.354 2.911-.434.497-.868.557-1.61.186-.742-.371-3.136-1.156-5.974-3.686-2.21-1.971-3.7-4.402-4.134-5.147-.434-.745-.046-1.146.328-1.517.335-.331.742-.868 1.113-1.302.37-.434.493-.742.742-1.238.248-.497.126-.931-.063-1.302-.186-.374-1.673-4.03-2.292-5.518-.6-1.44-1.212-1.248-1.67-1.268-.473-.02-.946-.028-1.42-.027a2.736 2.736 0 00-1.984.928c-.682.745-2.6 2.54-2.6 6.196 0 3.657 2.663 7.19 3.034 7.688.37.496 5.24 7.998 12.691 11.217a43.947 43.947 0 004.236 1.567c1.779.566 3.398.483 4.68.295 1.428-.212 4.395-1.796 5.015-3.531.619-1.736.619-3.223.434-3.534-.186-.311-.686-.5-1.425-.871z" fill="#00297C"/></svg>